# This file uses meters as units for non-parametric coordinates.

mtllib Angle_pipe_02.mtl
g default
v 21.686279 17.468369 -12.667709
v 21.686180 16.207138 -15.143185
v 21.686275 14.242310 -17.107681
v 21.685894 11.766708 -18.369072
v 21.686279 9.023048 -18.803696
v 21.686176 6.278908 -18.369034
v 21.686295 3.803322 -17.107788
v 21.686165 1.838486 -15.143135
v 21.686317 0.577255 -12.667667
v 21.686256 0.142685 -9.923584
v 21.686317 0.577255 -7.179501
v 21.686172 1.838486 -4.703976
v 21.686306 3.803322 -2.739433
v 21.686184 6.278908 -1.478134
v 21.686275 9.023048 -1.043472
v 21.685877 11.766708 -1.478142
v 21.686237 14.242310 -2.739441
v 21.685883 16.207138 -4.703983
v 21.686218 17.468369 -7.179508
v 21.686279 17.902939 -9.923584
v -21.509521 17.468369 7.505875
v -21.509621 16.207138 5.030399
v -21.509525 14.242294 3.065811
v -21.509418 11.766708 1.804512
v -21.509521 9.023048 1.369888
v -21.509624 6.278908 1.804550
v -21.509506 3.803322 3.065857
v -21.509148 1.838486 5.030449
v -21.509483 0.577255 7.505917
v -21.509544 0.142685 10.250000
v -21.509483 0.577255 12.994083
v -21.509628 1.838486 15.469608
v -21.509495 3.803322 17.434151
v -21.509617 6.278908 18.695450
v -21.509525 9.023048 19.130142
v -21.509436 11.766708 18.695442
v -21.509563 14.242294 17.434143
v -21.509430 16.207138 15.469601
v -21.509583 17.468369 12.994076
v -21.509521 17.902939 10.250000
v 21.686279 9.023048 -9.923584
v -21.509521 9.023048 10.250000
v -21.302940 0.577042 12.994083
v -21.303001 0.142471 10.250000
v -21.302940 0.577042 7.505917
v -21.302605 1.838272 5.030449
v -21.302963 3.803108 3.065857
v -21.302593 6.278694 1.804550
v -21.302979 9.022835 1.369888
v -21.302876 11.766495 1.804512
v -21.302982 14.242081 3.065811
v -21.302589 16.206924 5.030399
v -21.302979 17.468155 7.505875
v -21.302979 17.902725 10.250000
v -21.303040 17.468155 12.994076
v -21.302887 16.206924 15.469601
v -21.303020 14.242081 17.434143
v -21.302893 11.766495 18.695442
v -21.302982 9.022835 19.130142
v -21.302586 6.278694 18.695450
v -21.302952 3.803108 17.434151
v -21.302597 1.838272 15.469608
v 21.511072 11.766701 -1.478142
v 21.510983 9.023018 -1.043472
v 21.511379 6.278893 -1.478134
v 21.511013 3.803307 -2.739433
v 21.511368 1.838463 -4.703976
v 21.511024 0.577232 -7.179501
v 21.510963 0.142677 -9.923584
v 21.511024 0.577232 -12.667667
v 21.511360 1.838463 -15.143135
v 21.511002 3.803307 -17.107788
v 21.511374 6.278893 -18.369034
v 21.510986 9.023018 -18.803696
v 21.511087 11.766701 -18.369072
v 21.510983 14.242271 -17.107681
v 21.511375 16.207130 -15.143185
v 21.510986 17.468330 -12.667675
v 21.510986 17.902916 -9.923584
v 21.510925 17.468330 -7.179508
v 21.511078 16.207130 -4.703983
v 21.510944 14.242271 -2.739441
vt 0.356636 0.856781
vt 0.320843 0.875017
vt 0.281166 0.752905
vt 0.281166 0.881300
vt 0.385041 0.828371
vt 0.241489 0.875017
vt 0.403280 0.792576
vt 0.205695 0.856781
vt 0.409564 0.752905
vt 0.177290 0.828371
vt 0.403279 0.713228
vt 0.159052 0.792576
vt 0.385043 0.677433
vt 0.152767 0.752905
vt 0.356636 0.649023
vt 0.159052 0.713228
vt 0.320843 0.630787
vt 0.177289 0.677433
vt 0.281166 0.624503
vt 0.205695 0.649023
vt 0.241489 0.630787
vt 0.374753 0.250513
vt 0.338960 0.232277
vt 0.414431 0.128402
vt 0.310554 0.203867
vt 0.414431 0.256797
vt 0.292317 0.168073
vt 0.454108 0.250513
vt 0.286033 0.128402
vt 0.489901 0.232277
vt 0.292317 0.088724
vt 0.518307 0.203867
vt 0.310555 0.052929
vt 0.536544 0.168073
vt 0.338961 0.024520
vt 0.542830 0.128402
vt 0.374754 0.006284
vt 0.536544 0.088724
vt 0.414431 0.000000
vt 0.518307 0.052929
vt 0.454108 0.006284
vt 0.489902 0.024520
vt 0.935802 0.000000
vt 0.971595 0.000001
vt 0.971595 0.002529
vt 0.935802 0.002535
vt 1.000000 0.000000
vt 1.000000 0.002535
vt 0.679904 0.621580
vt 0.644111 0.621585
vt 0.896125 0.000000
vt 0.896125 0.002535
vt 0.708310 0.621585
vt 0.679904 0.624573
vt 0.644111 0.624572
vt 0.604433 0.621585
vt 0.856448 0.000001
vt 0.856448 0.002535
vt 0.708310 0.624572
vt 0.604433 0.624572
vt 0.564756 0.621586
vt 0.820654 0.000006
vt 0.820654 0.002533
vt 0.564756 0.624572
vt 0.528962 0.621584
vt 0.792249 0.000001
vt 0.792249 0.002535
vt 0.528962 0.624570
vt 0.500557 0.621586
vt 0.500557 0.624572
vt 0.028407 0.000002
vt 0.064200 0.000000
vt 0.064200 0.002535
vt 0.028407 0.002530
vt 0.103877 0.000001
vt 0.103877 0.002535
vt 0.355892 0.621585
vt 0.320099 0.621580
vt 0.000000 0.000000
vt 0.000000 0.002535
vt 0.143554 0.000000
vt 0.143554 0.002535
vt 0.395568 0.621586
vt 0.355892 0.624572
vt 0.320099 0.624567
vt 0.291692 0.621586
vt 0.179348 0.000002
vt 0.179348 0.002530
vt 0.435245 0.621585
vt 0.395568 0.624573
vt 0.291692 0.624572
vt 0.207753 0.000000
vt 0.207753 0.002535
vt 0.471039 0.621580
vt 0.435245 0.624572
vt 0.499445 0.621585
vt 0.471039 0.624574
vt 0.499445 0.624572
vt 0.848347 0.325579
vt 0.884141 0.325584
vt 0.884142 0.328112
vt 0.848347 0.328114
vt 0.923812 0.325579
vt 0.923813 0.328113
vt 0.884145 0.947163
vt 0.848350 0.947164
vt 0.963490 0.325580
vt 0.963490 0.328108
vt 0.923815 0.947164
vt 0.884141 0.950149
vt 0.848347 0.950151
vt 0.999285 0.325579
vt 0.999285 0.328113
vt 0.963493 0.947159
vt 0.923812 0.950150
vt 0.999288 0.947164
vt 0.963490 0.950152
vt 0.999285 0.950150
vt 0.000003 0.327940
vt 0.035798 0.327942
vt 0.035798 0.330469
vt 0.000003 0.330474
vt 0.075476 0.327940
vt 0.075475 0.330475
vt 0.035795 0.949520
vt 0.000000 0.949525
vt 0.115146 0.327946
vt 0.115146 0.330474
vt 0.075472 0.949526
vt 0.035798 0.952513
vt 0.000003 0.952512
vt 0.150941 0.327941
vt 0.150941 0.330475
vt 0.115143 0.949524
vt 0.075476 0.952512
vt 0.150938 0.949526
vt 0.115146 0.952511
vt 0.150941 0.952513
vn -0.000178 0.951096 -0.308894
vn -0.000129 0.809000 -0.587809
vn -0.277912 0.756381 -0.592160
vn -0.161523 0.924956 -0.344045
vn -0.000078 0.587771 -0.809027
vn -0.360662 0.528365 -0.768605
vn -0.000036 0.309050 -0.951046
vn -0.408980 0.270112 -0.871651
vn 0.000009 0.000007 -1.000000
vn -0.424759 -0.000033 -0.905306
vn 0.000035 -0.308995 -0.951064
vn -0.408981 -0.270089 -0.871657
vn 0.000059 -0.587748 -0.809044
vn -0.360665 -0.528340 -0.768620
vn 0.000096 -0.809001 -0.587808
vn -0.277903 -0.756388 -0.592155
vn 0.000103 -0.951097 -0.308891
vn -0.161516 -0.924955 -0.344050
vn 0.000087 -1.000000 0.000000
vn -0.020530 -0.998839 -0.043580
vn 0.000102 -0.951098 0.308888
vn 0.125624 -0.955242 0.267829
vn 0.000098 -0.808998 0.587811
vn 0.254117 -0.801340 0.541552
vn 0.000059 -0.587742 0.809049
vn 0.349386 -0.568943 0.744468
vn 0.000030 -0.309005 0.951060
vn 0.406185 -0.293317 0.865436
vn 0.000002 0.000013 1.000000
vn 0.424880 0.000021 0.905250
vn -0.000039 0.309041 0.951049
vn 0.406179 0.293343 0.865430
vn -0.000077 0.587762 0.809034
vn 0.349380 0.568948 0.744467
vn -0.000106 0.809005 0.587802
vn 0.254110 0.801340 0.541555
vn -0.000146 0.951104 0.308872
vn 0.125616 0.955242 0.267832
vn -0.000182 1.000000 -0.000001
vn -0.020541 0.998839 -0.043583
vn 1.000000 0.000009 -0.000007
vn 1.000000 -0.000006 -0.000017
vn 1.000000 0.000006 0.000003
vn 1.000000 -0.000042 -0.000031
vn 1.000000 0.000014 -0.000041
vn 1.000000 0.000051 0.000000
vn 1.000000 -0.000001 -0.000012
vn 1.000000 -0.000001 0.000003
vn 1.000000 -0.000008 -0.000011
vn 1.000000 0.000009 -0.000015
vn 1.000000 -0.000003 -0.000000
vn 1.000000 0.000009 0.000013
vn 1.000000 -0.000009 0.000009
vn 1.000000 -0.000000 -0.000004
vn 1.000000 0.000002 0.000012
vn 1.000000 0.000056 0.000000
vn 1.000000 0.000021 0.000041
vn 1.000000 0.000002 0.000004
vn 1.000000 0.000038 0.000023
vn 1.000000 -0.000016 0.000071
vn 1.000000 0.000000 0.000011
vn -1.000000 0.000006 0.000017
vn -1.000000 -0.000009 0.000007
vn -1.000000 -0.000003 -0.000003
vn -1.000000 -0.000030 -0.000021
vn -1.000000 0.000003 -0.000011
vn -1.000000 0.000038 0.000000
vn -1.000000 0.000001 0.000012
vn -1.000000 -0.000071 0.000050
vn -1.000000 -0.000036 -0.000021
vn -1.000000 0.000018 -0.000070
vn -1.000000 0.000003 0.000000
vn -1.000000 -0.000009 -0.000013
vn -1.000000 0.000009 -0.000009
vn -1.000000 0.000000 0.000004
vn -1.000000 -0.000002 -0.000012
vn -1.000000 0.000033 -0.000000
vn -1.000000 -0.000004 0.000011
vn -1.000000 -0.000002 -0.000004
vn -1.000000 0.000006 0.000009
vn -1.000000 -0.000012 0.000014
vn -1.000000 0.000000 -0.000011
vn 0.020520 -0.998841 0.043549
vn 0.161384 -0.925002 0.343988
vn -0.000984 -0.951025 0.309113
vn -0.001034 -0.999999 0.000000
vn -0.125531 -0.955245 -0.267861
vn -0.000984 -0.951056 -0.309019
vn -0.253951 -0.801354 -0.541610
vn -0.000837 -0.808965 -0.587856
vn -0.349159 -0.569003 -0.744529
vn -0.000608 -0.587602 -0.809150
vn -0.405946 -0.293332 -0.865543
vn -0.000319 -0.308918 -0.951089
vn -0.424634 -0.000025 -0.905365
vn 0.000000 -0.000001 -1.000000
vn -0.405943 0.293361 -0.865534
vn 0.000320 0.309125 -0.951021
vn -0.349157 0.569008 -0.744526
vn 0.000608 0.587900 -0.808933
vn -0.253950 0.801351 -0.541614
vn 0.000836 0.809037 -0.587758
vn -0.125529 0.955245 -0.267860
vn 0.000983 0.951044 -0.309053
vn 0.020522 0.998840 0.043551
vn 0.001034 0.999999 0.000001
vn 0.161392 0.924995 0.344001
vn 0.000984 0.951075 0.308959
vn 0.277719 0.756438 0.592178
vn 0.000838 0.809037 0.587757
vn 0.360428 0.528409 0.768684
vn 0.000610 0.587813 0.808996
vn 0.408719 0.270160 0.871758
vn 0.000321 0.309137 0.951017
vn 0.424492 0.000028 0.905432
vn 0.000001 0.000007 1.000000
vn 0.408721 -0.270128 0.871767
vn -0.000318 -0.308924 0.951087
vn 0.360425 -0.528416 0.768681
vn -0.000606 -0.587681 0.809093
vn 0.277718 -0.756435 0.592181
vn -0.000835 -0.808966 0.587855
s 1
g Angle_pipe_02
usemtl initialShadingGroup
f 1/43/1 2/44/2 77/45/3 78/46/4
f 2/44/2 3/47/5 76/48/6 77/45/3
f 3/99/5 4/100/7 75/101/8 76/102/6
f 4/100/7 5/103/9 74/104/10 75/101/8
f 5/103/9 6/107/11 73/108/12 74/104/10
f 6/107/11 7/112/13 72/113/14 73/108/12
f 7/79/13 8/71/15 71/74/16 72/80/14
f 8/71/15 9/72/17 70/73/18 71/74/16
f 9/72/17 10/75/19 69/76/20 70/73/18
f 10/75/19 11/81/21 68/82/22 69/76/20
f 11/81/21 12/87/23 67/88/24 68/82/22
f 12/87/23 13/92/25 66/93/26 67/88/24
f 13/119/25 14/120/27 65/121/28 66/122/26
f 14/120/27 15/123/29 64/124/30 65/121/28
f 15/123/29 16/127/31 63/128/32 64/124/30
f 16/127/31 17/132/33 82/133/34 63/128/32
f 17/66/33 18/62/35 81/63/36 82/67/34
f 18/62/35 19/57/37 80/58/38 81/63/36
f 19/57/37 20/51/39 79/52/40 80/58/38
f 20/51/39 1/43/1 78/46/4 79/52/40
s 2
f 2/1/41 1/2/42 41/3/43
f 3/5/44 2/1/41 41/3/43
f 4/7/45 3/5/44 41/3/43
f 5/9/46 4/7/45 41/3/43
f 6/11/47 5/9/46 41/3/43
f 7/13/48 6/11/47 41/3/43
f 8/15/49 7/13/48 41/3/43
f 9/17/50 8/15/49 41/3/43
f 10/19/51 9/17/50 41/3/43
f 11/21/52 10/19/51 41/3/43
f 12/20/53 11/21/52 41/3/43
f 13/18/54 12/20/53 41/3/43
f 14/16/55 13/18/54 41/3/43
f 15/14/56 14/16/55 41/3/43
f 16/12/57 15/14/56 41/3/43
f 17/10/58 16/12/57 41/3/43
f 18/8/59 17/10/58 41/3/43
f 19/6/60 18/8/59 41/3/43
f 20/4/61 19/6/60 41/3/43
f 1/2/42 20/4/61 41/3/43
s 3
f 21/22/62 22/23/63 42/24/64
f 22/23/63 23/25/65 42/24/64
f 23/25/65 24/27/66 42/24/64
f 24/27/66 25/29/67 42/24/64
f 25/29/67 26/31/68 42/24/64
f 26/31/68 27/33/69 42/24/64
f 27/33/69 28/35/70 42/24/64
f 28/35/70 29/37/71 42/24/64
f 29/37/71 30/39/72 42/24/64
f 30/39/72 31/41/73 42/24/64
f 31/41/73 32/42/74 42/24/64
f 32/42/74 33/40/75 42/24/64
f 33/40/75 34/38/76 42/24/64
f 34/38/76 35/36/77 42/24/64
f 35/36/77 36/34/78 42/24/64
f 36/34/78 37/32/79 42/24/64
f 37/32/79 38/30/80 42/24/64
f 38/30/80 39/28/81 42/24/64
f 39/28/81 40/26/82 42/24/64
f 40/26/82 21/22/62 42/24/64
s 1
f 44/83/83 43/89/84 31/95/85 30/90/86
f 45/77/87 44/83/83 30/90/86 29/84/88
f 46/78/89 45/77/87 29/84/88 28/85/90
f 47/86/91 46/78/89 28/85/90 27/91/92
f 48/114/93 47/116/91 27/118/92 26/117/94
f 49/109/95 48/114/93 26/117/94 25/115/96
f 50/105/97 49/109/95 25/115/96 24/110/98
f 51/106/99 50/105/97 24/110/98 23/111/100
f 52/49/101 51/53/99 23/59/100 22/54/102
f 53/50/103 52/49/101 22/54/102 21/55/104
f 54/56/105 53/50/103 21/55/104 40/60/106
f 55/61/107 54/56/105 40/60/106 39/64/108
f 56/65/109 55/61/107 39/64/108 38/68/110
f 57/69/111 56/65/109 38/68/110 37/70/112
f 58/134/113 57/136/111 37/138/112 36/137/114
f 59/129/115 58/134/113 36/137/114 35/135/116
f 60/125/117 59/129/115 35/135/116 34/130/118
f 61/126/119 60/125/117 34/130/118 33/131/120
f 62/94/121 61/96/119 33/98/120 32/97/122
f 43/89/84 62/94/121 32/97/122 31/95/85
f 64/124/30 63/128/32 58/134/113 59/129/115
f 65/121/28 64/124/30 59/129/115 60/125/117
f 66/122/26 65/121/28 60/125/117 61/126/119
f 67/88/24 66/93/26 61/96/119 62/94/121
f 68/82/22 67/88/24 62/94/121 43/89/84
f 69/76/20 68/82/22 43/89/84 44/83/83
f 70/73/18 69/76/20 44/83/83 45/77/87
f 71/74/16 70/73/18 45/77/87 46/78/89
f 72/80/14 71/74/16 46/78/89 47/86/91
f 73/108/12 72/113/14 47/116/91 48/114/93
f 74/104/10 73/108/12 48/114/93 49/109/95
f 75/101/8 74/104/10 49/109/95 50/105/97
f 76/102/6 75/101/8 50/105/97 51/106/99
f 77/45/3 76/48/6 51/53/99 52/49/101
f 78/46/4 77/45/3 52/49/101 53/50/103
f 79/52/40 78/46/4 53/50/103 54/56/105
f 80/58/38 79/52/40 54/56/105 55/61/107
f 81/63/36 80/58/38 55/61/107 56/65/109
f 82/67/34 81/63/36 56/65/109 57/69/111
f 63/128/32 82/133/34 57/136/111 58/134/113
