# This file uses meters as units for non-parametric coordinates.

mtllib Arrow signs SMALL NEON.mtl
g default
v 1.710314 3.879856 42.958923
v 1.710314 3.879856 25.868763
v 1.611282 3.879856 16.734241
v 1.611282 -3.879856 16.734241
v 1.710314 -3.879856 25.868763
v 1.710314 -3.879856 42.958923
v -21.573547 2.471075 -142.788086
v -20.922394 3.879856 -142.788086
v -20.922394 2.471075 -144.196869
v 1.611282 3.879856 -142.788086
v 1.611282 2.471075 -144.196869
v -21.573547 -2.471075 -142.788086
v -20.922394 -2.471075 -144.196869
v -20.922394 -3.879856 -142.788086
v 1.611282 -2.471075 -144.196869
v 1.611282 -3.879856 -142.788086
v -22.190327 -1.992706 16.734241
v -21.573547 -2.489712 15.344112
v -20.775345 -3.879856 16.734241
v -22.190327 1.992706 16.734241
v -20.775345 3.879856 16.734241
v -21.573547 2.456097 15.310478
v 23.889435 -3.879856 16.734241
v 24.647476 -2.403845 15.258240
v 25.281448 -1.940123 16.734241
v 23.849274 3.879856 16.734241
v 25.264256 1.992706 16.734241
v 24.647476 2.489712 15.344112
v 23.996323 3.879856 -142.788086
v 24.647476 2.471075 -142.788086
v 23.996323 2.471075 -144.196869
v 23.996323 -2.471075 -144.196869
v 24.647476 -2.471075 -142.788086
v 23.996323 -3.879856 -142.788086
v -37.319756 -2.471075 18.143024
v -36.668610 -2.471071 16.734241
v -36.668602 -3.879856 18.143024
v 39.742523 -2.471075 16.734241
v 40.393684 -2.471071 18.143024
v 39.742531 -3.879856 18.143024
v 40.393684 2.471075 18.143024
v 39.742523 2.471071 16.734241
v 39.742531 3.879856 18.143024
v -36.668602 3.879856 18.143024
v -36.668610 2.471075 16.734241
v -37.319756 2.471075 18.143024
v -37.094048 -2.448858 43.880684
v -37.319695 -2.425049 41.899387
v -36.702751 -3.879856 42.621883
v 40.393623 -2.448406 41.915894
v 40.164429 -2.425739 43.895149
v 39.776070 -3.879856 42.626900
v 40.167992 2.448668 43.880646
v 40.393623 2.425343 41.899387
v 39.776413 3.879856 42.624020
v -36.702141 3.879856 42.626900
v -37.319695 2.448406 41.915894
v -37.094078 2.448406 43.880550
v -24.708992 -3.879856 77.678810
v -25.275093 -2.471075 78.341492
v 27.782566 -3.879856 77.680237
v 28.349022 -2.471075 78.341492
v 1.609721 -3.879856 156.281647
v 1.611282 -2.471075 159.267853
v 28.349022 2.471075 78.341492
v 27.782566 3.879856 77.680237
v -24.708992 3.879856 77.678810
v -25.275093 2.471075 78.341492
v 1.609721 3.879856 156.281647
v 1.611282 2.471075 159.267853
vt 0.375000 0.545388
vt 0.375000 0.704612
vt 0.375000 0.498845
vt 0.378522 0.498845
vt 0.621478 0.498845
vt 0.375000 0.751155
vt 0.375000 0.998860
vt 0.378522 0.704612
vt 0.621478 0.704612
vt 0.375000 0.060800
vt 0.379317 0.000000
vt 0.373860 0.044787
vt 0.375000 0.189200
vt 0.873845 0.000000
vt 0.625000 0.062494
vt 0.626140 0.205213
vt 0.873845 0.250000
vt 0.873845 0.204612
vt 0.873845 0.045388
vt 0.875000 0.045388
vt 0.375000 0.045388
vt 0.375000 0.204612
vt 0.625000 0.045388
vt 0.625000 0.204612
vt 0.625000 0.045388
vt 0.375000 0.204612
vt 0.375000 0.046103
vt 0.375000 0.203882
vt 0.625000 0.046118
vt 0.625000 0.203139
vt 0.625000 0.046848
vt 0.375000 0.203882
vt 0.377632 0.000000
vt 0.622352 0.250000
vt 0.500402 0.045388
vt 0.375000 0.204612
vt 0.500402 0.250000
vt 0.378522 0.545388
vt 0.500402 0.545388
vt 0.378522 0.751155
vt 0.500402 0.751155
vt 0.379317 0.250000
vt 0.377093 0.250000
vt 0.377092 0.000000
vt 0.625000 0.204612
vt 0.376983 0.250000
vt 0.375000 0.046871
vt 0.376982 0.000000
vt 0.625000 0.203890
vt 0.625000 0.204612
vt 0.377632 0.250000
vt 0.500386 0.250000
vt 0.375000 0.045388
vt 0.623012 0.250000
vt 0.622903 0.250000
vt 0.500402 0.250000
vt 0.500402 0.250000
vt 0.500402 0.498845
vt 0.620682 0.250000
vt 0.500402 0.704612
vt 0.621478 0.545388
vt 0.500402 1.000000
vt 0.621478 0.751155
vt 0.620900 1.000000
vt 0.500402 0.000000
vt 0.620900 0.000000
vt 0.622903 0.000000
vt 0.500402 0.000000
vt 0.623011 0.000000
vt 0.500386 0.000000
vt 0.500402 0.000000
vt 0.622352 0.000000
vt 0.500402 0.204612
vt 0.625000 0.045388
vt 0.126155 0.045388
vt 0.373832 0.204130
vt 0.126155 0.204612
vt 0.375000 0.045388
vt 0.625000 0.189200
vt 0.375000 1.000000
vt 0.379317 1.000000
vt 0.375000 0.250000
vt 0.375000 0.251168
vt 0.626211 0.047554
vt 0.625000 0.250000
vt 0.875000 0.204612
vn -0.907727 0.000000 -0.419561
vn -0.907727 0.000000 -0.419561
vn -0.907727 0.000000 -0.419561
vn -0.907727 0.000000 -0.419561
vn -0.890317 0.455341 0.000434
vn -0.890317 0.455341 0.000434
vn -0.890022 0.455918 -0.000146
vn -0.889881 0.456193 -0.000422
vn 0.000000 0.707107 -0.707106
vn 0.000000 0.707107 -0.707106
vn 0.000000 0.707107 -0.707106
vn 0.000000 0.707107 -0.707106
vn 0.000000 0.707107 -0.707106
vn 0.000000 0.707107 -0.707106
vn -0.888083 -0.459683 0.000384
vn -0.888083 -0.459683 0.000384
vn -0.887665 -0.460489 -0.000391
vn -0.887791 -0.460247 -0.000158
vn 0.000000 -0.707107 -0.707106
vn 0.000000 -0.707107 -0.707106
vn 0.000000 -0.707107 -0.707106
vn 0.000000 -0.707107 -0.707106
vn 0.000000 -0.707107 -0.707106
vn 0.000000 -0.707107 -0.707106
vn -0.013486 -0.152148 -0.988266
vn -0.035970 -0.405796 -0.913256
vn -0.035970 -0.405796 -0.913256
vn -0.011244 -0.126848 -0.991858
vn -0.915866 -0.001512 -0.401481
vn -0.915866 -0.001512 -0.401481
vn -0.915866 -0.001512 -0.401481
vn -0.915866 -0.001512 -0.401481
vn -0.035970 0.405796 -0.913256
vn -0.013486 0.152148 -0.988266
vn -0.011244 0.126848 -0.991858
vn -0.035970 0.405796 -0.913256
vn 0.898320 -0.439343 -0.000249
vn 0.898162 -0.439665 -0.000605
vn 0.898605 -0.438759 0.000395
vn 0.898605 -0.438759 0.000395
vn 0.916540 0.005676 -0.399903
vn 0.916540 0.005676 -0.399903
vn 0.916540 0.005676 -0.399903
vn 0.916540 0.005676 -0.399903
vn 0.035552 -0.400071 -0.915794
vn 0.013337 -0.150086 -0.988583
vn 0.011281 -0.126941 -0.991846
vn 0.035552 -0.400071 -0.915794
vn 0.013566 0.153046 -0.988126
vn 0.035970 0.405796 -0.913256
vn 0.035970 0.405796 -0.913256
vn 0.011295 0.127427 -0.991784
vn 0.887666 0.460487 -0.000391
vn 0.887792 0.460245 -0.000158
vn 0.888084 0.459681 0.000384
vn 0.888084 0.459681 0.000384
vn 0.907727 0.000000 -0.419561
vn 0.907727 0.000000 -0.419561
vn 0.907727 0.000000 -0.419561
vn 0.907727 0.000000 -0.419561
vn -0.914332 -0.404964 -0.000260
vn -0.914333 -0.404964 -0.000260
vn -0.878590 -0.448103 0.165178
vn -0.914878 -0.403726 0.001960
vn -0.907729 0.000000 -0.419557
vn -0.907729 0.000000 -0.419557
vn -0.907729 0.000000 -0.419557
vn -0.907729 0.000000 -0.419557
vn 0.907726 0.000000 -0.419565
vn 0.907725 0.000000 -0.419565
vn 0.907726 0.000000 -0.419565
vn 0.907725 0.000000 -0.419565
vn 0.913007 -0.407943 -0.000442
vn 0.913007 -0.407943 -0.000442
vn 0.913581 -0.406651 0.002045
vn 0.878504 -0.447817 0.166406
vn 0.914286 0.405070 -0.000257
vn 0.914286 0.405070 -0.000257
vn 0.878571 0.448085 0.165329
vn 0.914831 0.403831 0.001961
vn -0.913007 0.407944 -0.000442
vn -0.913007 0.407944 -0.000442
vn -0.913549 0.406724 0.001886
vn -0.877843 0.449351 0.165755
vn -0.834480 -0.472620 0.283325
vn -0.821154 -0.499166 0.276657
vn -0.818227 -0.505073 0.274600
vn -0.999962 -0.000015 0.008748
vn -0.949413 -0.000008 0.314031
vn -0.949438 -0.000008 0.313955
vn -0.999962 -0.000015 0.008761
vn 0.949448 0.000129 0.313925
vn 0.999962 0.000000 0.008751
vn 0.999961 0.000000 0.008795
vn 0.949426 0.000129 0.313990
vn 0.835940 -0.469701 0.283876
vn 0.819239 -0.503881 0.273772
vn 0.822288 -0.497621 0.276073
vn 0.834560 0.472463 0.283353
vn 0.821669 0.498738 0.275898
vn 0.818850 0.504576 0.273658
vn -0.834567 0.472373 0.283480
vn -0.818266 0.505003 0.274616
vn -0.821216 0.499051 0.276682
vn -0.813516 -0.514371 0.271318
vn -0.813516 -0.514371 0.271318
vn 0.814297 -0.513788 0.270078
vn 0.814297 -0.513788 0.270078
vn 0.814297 0.513788 0.270078
vn 0.814297 0.513788 0.270078
vn -0.813516 0.514371 0.271318
vn -0.813516 0.514371 0.271318
vn -0.948086 0.000001 0.318014
vn -0.948996 0.000000 0.315288
vn -0.948996 0.000000 0.315288
vn -0.948086 0.000001 0.318014
vn 0.000000 1.000000 0.000000
vn 0.000000 1.000000 0.000000
vn 0.000000 1.000000 0.000000
vn 0.000000 1.000000 0.000000
vn 0.000000 0.000000 -1.000000
vn 0.000000 0.000000 -1.000000
vn 0.000000 0.000000 -1.000000
vn 0.000000 0.000000 -1.000000
vn 0.000000 -1.000000 -0.000000
vn 0.000000 -1.000000 -0.000000
vn 0.000000 -1.000000 0.000000
vn 0.000000 -1.000000 0.000000
vn 0.000000 -1.000000 0.000000
vn 0.000000 -1.000000 0.000000
vn 0.000000 1.000000 0.000000
vn 0.000000 1.000000 -0.000000
vn 0.000000 -1.000000 0.000000
vn 0.000000 -1.000000 -0.000000
vn 1.000000 0.000000 0.000003
vn 1.000000 0.000000 0.000003
vn 0.000000 1.000000 -0.000000
vn 0.000000 1.000000 0.000000
vn -1.000000 0.000000 0.000003
vn -1.000000 0.000000 0.000003
vn 0.000000 -1.000000 0.000000
vn 0.000000 -1.000000 -0.000000
vn 0.948454 0.000040 0.316914
vn 0.948455 0.000040 0.316913
vn 0.000000 1.000000 -0.000000
vn 0.000000 1.000000 0.000000
vn 0.000000 1.000000 0.000000
vn 0.000000 1.000000 0.000000
vn 0.000000 1.000000 0.000000
vn 0.000000 1.000000 -0.000000
vn 0.000000 1.000000 0.000000
vn 0.000000 0.000000 -1.000000
vn 0.000000 0.000000 -1.000000
vn 0.000000 -1.000000 0.000000
vn 0.000000 -1.000000 0.000000
vn 0.000000 -1.000000 0.000000
vn 0.000000 -1.000000 0.000000
vn 0.000000 -1.000000 0.000000
vn 0.949517 0.000000 0.313716
vn 0.949517 0.000000 0.313716
vn -1.000000 0.000000 0.000000
vn -1.000000 0.000000 0.000000
vn -1.000000 0.000000 0.000000
vn -1.000000 0.000000 0.000000
vn 1.000000 0.000000 0.000000
vn 1.000000 0.000000 0.000000
vn 1.000000 0.000000 0.000000
vn 1.000000 0.000000 0.000000
vn -0.837041 0.386887 -0.386886
vn -0.837041 0.386887 -0.386886
vn -0.837041 0.386887 -0.386886
vn -0.837041 -0.386887 -0.386886
vn -0.837041 -0.386887 -0.386886
vn -0.837041 -0.386887 -0.386886
vn -0.792295 -0.594061 -0.139138
vn -0.791068 0.593142 -0.149645
vn 0.801505 -0.575187 -0.163554
vn 0.792295 0.594062 -0.139138
vn 0.837041 0.386887 -0.386886
vn 0.837041 0.386887 -0.386886
vn 0.837041 0.386887 -0.386886
vn 0.837041 -0.386887 -0.386886
vn 0.837041 -0.386887 -0.386886
vn 0.837041 -0.386887 -0.386886
vn -0.837041 -0.386889 -0.386885
vn -0.837041 -0.386889 -0.386885
vn -0.837041 -0.386889 -0.386885
vn 0.837039 -0.386888 -0.386891
vn 0.837039 -0.386888 -0.386891
vn 0.837039 -0.386888 -0.386891
vn 0.837038 0.386888 -0.386892
vn 0.837038 0.386888 -0.386892
vn 0.837038 0.386888 -0.386892
vn -0.837041 0.386889 -0.386884
vn -0.837041 0.386889 -0.386884
vn -0.837041 0.386889 -0.386884
s off
g Arrow_sign_small
usemtl initialShadingGroup
f 7/1/1 9/38/2 13/8/3 12/2/4
s 1
f 8/4/5 7/3/6 22/83/7 21/42/8
s 2
f 9/38/9 8/4/10 10/58/11 11/39/12
f 11/39/12 10/58/11 29/5/13 31/61/14
s 3
f 12/6/15 14/40/16 19/81/17 18/7/18
s 4
f 14/40/19 13/8/20 15/60/21 16/41/22
f 16/41/22 15/60/21 32/9/23 34/63/24
s 5
f 17/10/25 19/11/26 37/44/27 36/78/28
s off
f 18/12/29 17/10/30 20/13/31 22/76/32
s 5
f 21/42/33 20/13/34 45/22/35 44/43/36
s 6
f 24/84/37 23/66/38 34/14/39 33/19/40
s off
f 25/15/41 24/84/42 28/16/43 27/79/44
s 7
f 23/66/45 25/15/46 38/23/47 40/67/48
f 27/79/49 26/59/50 43/55/51 42/24/52
s 8
f 26/85/53 28/16/54 30/18/55 29/17/56
s off
f 31/86/57 30/18/58 33/19/59 32/20/60
s 9
f 35/21/61 37/44/62 49/48/63 48/47/64
s off
f 36/78/65 35/21/66 46/26/67 45/22/68
f 39/25/69 38/23/70 42/24/71 41/45/72
s 10
f 40/67/73 39/25/74 50/29/75 52/69/76
s 11
f 41/45/77 43/55/78 55/54/79 54/30/80
s 12
f 44/43/81 46/26/82 57/28/83 56/46/84
s 9
f 47/27/85 49/48/63 59/33/86 60/53/87
s 13
f 48/47/88 47/27/89 58/32/90 57/28/91
s 14
f 51/31/92 50/29/93 54/30/94 53/49/95
s 10
f 52/69/76 51/31/96 62/74/97 61/72/98
s 11
f 53/49/99 55/54/79 66/34/100 65/50/101
s 12
f 56/46/84 58/32/102 68/36/103 67/51/104
s 9
f 60/53/87 59/33/86 63/70/105 64/35/106
s 10
f 61/72/98 62/74/97 64/35/107 63/70/108
s 11
f 65/50/101 66/34/100 69/52/109 70/73/110
s 12
f 67/51/104 68/36/103 70/73/111 69/52/112
s 13
f 60/53/113 64/35/114 70/73/115 68/36/116
s 15
f 8/4/117 21/42/118 3/37/119 10/58/120
s 16
f 9/38/121 11/39/122 15/60/123 13/8/124
s 17
f 14/40/125 16/41/126 4/62/127 19/81/128
f 37/44/129 19/11/128 4/65/127 5/68/130
s 15
f 3/37/119 21/42/118 44/43/131 2/57/132
s 17
f 37/44/129 5/68/130 6/71/133 49/48/134
s 14
f 39/25/135 41/45/136 54/30/94 50/29/93
s 15
f 2/57/132 44/43/131 56/46/137 1/56/138
s 13
f 46/26/139 35/21/140 48/47/88 57/28/91
s 17
f 49/48/134 6/71/133 63/70/141 59/33/142
s 14
f 51/31/92 53/49/95 65/50/143 62/74/144
s 15
f 1/56/138 56/46/137 67/51/145 69/52/146
s 13
f 58/32/90 47/27/89 60/53/113 68/36/116
s 15
f 55/54/147 1/56/138 69/52/146 66/34/148
f 43/55/149 2/57/132 1/56/138 55/54/147
f 43/55/149 26/59/150 3/37/119 2/57/132
f 10/58/120 3/37/119 26/59/150 29/5/151
s 16
f 15/60/123 11/39/122 31/61/152 32/9/153
s 17
f 4/62/127 16/41/126 34/63/154 23/64/155
f 5/68/130 4/65/127 23/66/155 40/67/156
f 6/71/133 5/68/130 40/67/156 52/69/157
f 63/70/141 6/71/133 52/69/157 61/72/158
s 14
f 70/73/159 64/35/160 62/74/144 65/50/143
s off
f 12/75/161 18/12/162 22/76/163 7/77/164
s 5
f 45/22/35 20/13/34 17/10/25 36/78/28
s off
f 30/18/165 28/16/166 24/84/167 33/19/168
s 7
f 38/23/47 25/15/46 27/79/49 42/24/52
s off
f 7/3/169 8/4/170 9/38/171
f 12/2/172 13/8/173 14/40/174
s 3
f 17/80/175 18/7/18 19/81/17
s 1
f 20/82/176 21/42/8 22/83/7
s 6
f 23/66/38 24/84/37 25/15/177
s 8
f 26/85/53 27/79/178 28/16/54
s off
f 29/17/179 30/18/180 31/86/181
f 32/20/182 33/19/183 34/14/184
f 35/21/185 36/78/186 37/44/187
f 38/23/188 39/25/189 40/67/190
f 41/45/191 42/24/192 43/55/193
f 44/43/194 45/22/195 46/26/196
s 9
f 47/27/85 48/47/64 49/48/63
s 10
f 50/29/75 51/31/96 52/69/76
s 11
f 53/49/99 54/30/80 55/54/79
s 12
f 56/46/84 57/28/83 58/32/102
