# This file uses meters as units for non-parametric coordinates.

mtllib Bridge_walkway_END_with_CORNER_01.mtl
g default
v -103.752930 2.380398 -24.270874
v -103.752930 2.380398 -29.091675
v -103.752930 3.342231 -25.712036
v -103.752930 3.342231 -27.635376
v -72.437012 2.380398 -64.692017
v -74.345215 2.380398 -57.808716
v -73.990234 3.342231 -59.090210
v -72.792480 3.342231 -63.410522
v 26.677246 2.380398 -65.401245
v 29.507813 2.380398 -59.928101
v 105.341797 2.380398 -46.594116
v 105.341797 2.380398 -40.911499
v 27.204102 3.342231 -64.382202
v 28.980957 3.342231 -60.947144
v 105.341797 3.342231 -45.604370
v 105.341797 3.342231 -41.904663
v 28.092773 2.380398 64.619507
v 28.092773 2.380398 59.453979
v 105.341797 2.380398 45.966187
v 105.341797 2.380398 40.283569
v 28.092773 3.342231 63.657837
v 28.092773 3.342231 60.415649
v 105.341797 3.342231 44.976440
v 105.341797 3.342231 41.276733
v -103.752930 2.380398 23.642944
v -103.752930 2.380398 28.463745
v -103.752930 3.342231 25.084106
v -103.752930 3.342231 27.007446
v -73.391113 2.380398 63.205444
v -73.391113 2.380398 58.039673
v -73.391113 3.342231 59.001343
v -73.391113 3.342231 62.243530
v 33.387695 0.070223 -77.450317
v 46.236816 12.688620 -84.876099
v 124.289551 0.070223 -55.548828
v 124.289551 12.688620 -65.494629
v 34.899414 12.688620 -78.324097
v 33.387695 9.859095 -77.450317
v 124.289551 9.859095 -55.548828
v 124.363770 12.688620 -58.483398
v 44.681641 0.070223 -83.977173
v 46.236816 2.923373 -84.876099
v 124.289551 2.923373 -65.494629
v 124.289551 0.070223 -62.511230
v 33.387695 0.070223 77.784790
v 46.236816 12.688620 85.210571
v 124.289551 0.070223 55.705811
v 124.289551 12.688620 65.651611
v 34.899414 12.688620 78.658569
v 33.387695 9.859095 77.784790
v 124.289551 9.859095 55.705811
v 124.363770 12.688620 58.640381
v 44.681641 0.070223 84.311646
v 46.236816 2.923373 85.210571
v 124.289551 2.923373 65.651611
v 124.289551 0.070223 62.668213
v -77.579102 0.070223 -74.745239
v -88.356445 12.688620 -83.341187
v -77.579102 9.859095 -74.745239
v -78.815430 12.688620 -75.829712
v -113.182129 9.859095 -35.202759
v -114.532715 12.688620 -36.377075
v -125.013184 12.688620 -44.628540
v -88.356445 2.923373 -83.341187
v -86.216309 0.070223 -81.656128
v -122.608887 0.070223 -42.735474
v -125.013184 2.923373 -44.628540
v -113.182129 2.923373 -35.202759
v -113.039063 0.070223 -35.090210
v -76.658203 0.070223 74.371948
v -88.356445 12.688620 83.581665
v -76.658203 9.859095 74.371948
v -78.815430 12.688620 76.070190
v -112.261230 9.859095 34.829224
v -114.532715 12.688620 36.617554
v -125.013184 12.688620 44.869019
v -88.356445 2.923373 83.581665
v -86.216309 0.070223 81.896606
v -122.608887 0.070223 42.975952
v -125.013184 2.923373 44.869019
v -112.261230 2.923373 34.829224
v -112.118164 0.070223 34.716675
v -71.948730 0.463789 69.217896
v -105.224609 0.463789 31.299683
v -71.948730 2.327668 69.217896
v -105.224609 2.327668 31.299683
v -71.948730 2.327668 -67.558716
v -105.224609 2.327668 -29.640503
v -71.948730 0.463789 -67.558716
v -105.224609 0.463789 -29.640503
v 26.622559 2.327668 -67.558716
v 26.622559 0.463789 -67.558716
v 26.622559 2.327668 69.217896
v 26.622559 0.463789 69.217896
v 107.109375 2.327668 -47.802124
v 107.109375 0.463789 -47.802124
v 107.109375 2.327668 49.461304
v 107.109375 0.463789 49.461304
vt 0.924645 0.000000
vt 0.927697 0.004574
vt 0.927697 0.010678
vt 0.924645 0.015300
vt 0.927697 0.124219
vt 0.924645 0.128286
vt 0.920990 0.021846
vt 0.920990 0.000000
vt 0.924043 0.004067
vt 0.924043 0.017779
vt 0.924043 0.123712
vt 0.920990 0.128286
vt 0.376436 0.000000
vt 0.379489 0.003141
vt 0.379489 0.014883
vt 0.376436 0.018035
vt 0.383746 0.000000
vt 0.386798 0.003234
vt 0.386798 0.014136
vt 0.383746 0.017370
vt 0.380091 0.018035
vt 0.380091 0.000000
vt 0.383144 0.003152
vt 0.383144 0.014894
vt 0.387401 0.016394
vt 0.387401 0.000000
vt 0.390453 0.003052
vt 0.390453 0.013342
vt 0.931954 0.125561
vt 0.931954 0.110261
vt 0.935007 0.114883
vt 0.935007 0.120987
vt 0.935007 0.003053
vt 0.931954 0.000000
vt 0.928299 0.109166
vt 0.931352 0.112218
vt 0.931352 0.122508
vt 0.928299 0.125561
vt 0.928299 0.000000
vt 0.931352 0.004574
vt 0.000000 0.000000
vt 0.022097 0.000000
vt 0.000000 0.031067
vt 0.031565 0.009055
vt 0.009314 0.040047
vt 0.031565 0.040047
vt 0.031565 0.041418
vt 0.031565 0.072485
vt 0.009468 0.041418
vt 0.000000 0.050473
vt 0.022252 0.081465
vt 0.000000 0.081465
vt 0.994085 0.120342
vt 1.000000 0.120342
vt 1.000000 0.313749
vt 0.994085 0.313749
vt 0.994085 0.000000
vt 1.000000 0.000000
vt 1.000000 0.434091
vt 0.994085 0.434091
vt 0.994085 0.435462
vt 1.000000 0.435462
vt 1.000000 0.744149
vt 0.994085 0.744149
vt 0.833987 0.603375
vt 0.827931 0.625221
vt 0.734599 0.731661
vt 0.734599 0.716361
vt 0.562263 0.809795
vt 0.566064 0.823506
vt 0.467804 0.709966
vt 0.467804 0.703862
vt 0.799481 0.835254
vt 0.782111 0.844237
vt 0.841799 0.594577
vt 0.859834 0.594577
vt 0.509402 0.911990
vt 0.498500 0.906350
vt 0.438064 0.664002
vt 0.449806 0.664002
vt 0.495265 0.904678
vt 0.434912 0.664002
vt 0.512636 0.913662
vt 0.452947 0.664002
vt 0.755239 0.920428
vt 0.694397 0.675260
vt 0.712432 0.675260
vt 0.771633 0.920428
vt 0.843638 0.841644
vt 0.902928 0.596477
vt 0.914670 0.596477
vt 0.853928 0.841644
vt 0.840586 0.841644
vt 0.899787 0.596477
vt 0.917822 0.596477
vt 0.856980 0.841644
vt 0.556855 0.798323
vt 0.460495 0.688063
vt 0.460495 0.672763
vt 0.556855 0.781929
vt 0.827305 0.641704
vt 0.730945 0.749348
vt 0.730945 0.743244
vt 0.827305 0.631414
vt 0.887286 0.283935
vt 0.824317 0.000000
vt 0.846568 0.000236
vt 0.908080 0.247953
vt 0.884512 0.288733
vt 0.815003 0.000236
vt 0.817856 0.797778
vt 0.885983 0.545125
vt 0.908080 0.545125
vt 0.838571 0.833622
vt 0.815003 0.792843
vt 0.876515 0.545125
vt 0.378957 0.869433
vt 0.358163 0.833451
vt 0.420238 0.585733
vt 0.442489 0.585497
vt 0.451803 0.585733
vt 0.381730 0.874230
vt 0.090787 0.851158
vt 0.070073 0.887002
vt 0.000000 0.598505
vt 0.022097 0.598505
vt 0.031565 0.598505
vt 0.093640 0.846223
vt 0.686475 0.828025
vt 0.570137 0.705161
vt 0.603399 0.678974
vt 0.716756 0.804185
vt 0.720679 0.800744
vt 0.607685 0.675247
vt 0.234601 0.702540
vt 0.122061 0.828395
vt 0.091689 0.804130
vt 0.207189 0.680607
vt 0.200397 0.675259
vt 0.084059 0.798123
vt 0.361205 0.636271
vt 0.391485 0.660110
vt 0.278129 0.785322
vt 0.244866 0.759134
vt 0.398332 0.665500
vt 0.285338 0.790998
vt 0.592032 0.738040
vt 0.561697 0.761921
vt 0.446197 0.638398
vt 0.479492 0.612185
vt 0.554905 0.767269
vt 0.438567 0.644406
vt 0.000000 0.568281
vt 0.434091 0.568281
vt 0.313749 0.673890
vt 0.120342 0.673890
vt 0.000000 0.255443
vt 0.434091 0.255443
vt 0.062702 0.000000
vt 0.371389 0.000000
vt 0.434912 0.568281
vt 0.869003 0.568281
vt 0.748661 0.673890
vt 0.555254 0.673890
vt 0.434912 0.255443
vt 0.869003 0.255443
vt 0.497614 0.000000
vt 0.806301 0.000000
vt 0.939264 0.288498
vt 0.939264 0.000000
vt 0.970331 0.000000
vt 0.970331 0.288498
vt 0.906371 0.499974
vt 0.906371 0.252256
vt 0.937363 0.252256
vt 0.937363 0.499974
vt 0.906371 0.535956
vt 0.915351 0.540753
vt 0.946419 0.504910
vt 0.946419 0.540753
vt 0.977640 0.578366
vt 0.946573 0.578366
vt 0.946573 0.289868
vt 0.977640 0.289868
vt 0.946418 0.862194
vt 0.915426 0.862194
vt 0.915426 0.614476
vt 0.946418 0.614476
vt 0.946418 0.898176
vt 0.937438 0.902974
vt 0.906371 0.867130
vt 0.906371 0.902974
vt 0.985381 0.568281
vt 0.979466 0.568281
vt 0.979466 0.255443
vt 0.985381 0.255443
vt 0.979466 0.000000
vt 0.985381 0.000000
vt 0.992691 0.568281
vt 0.986775 0.568281
vt 0.986775 0.255443
vt 0.992691 0.255443
vt 0.986775 0.000000
vt 0.992691 0.000000
vt 0.235732 0.761457
vt 0.235732 0.886954
vt 0.204664 0.761457
vt 0.213720 0.886954
vt 0.204664 0.739523
vt 0.204664 0.887311
vt 0.213720 0.734176
vt 0.213720 0.857039
vt 0.204664 0.863047
vt 0.244712 0.758015
vt 0.244712 0.734176
vt 0.000000 0.885013
vt 0.000000 0.762149
vt 0.030992 0.762149
vt 0.030992 0.885013
vt 0.000000 0.732234
vt 0.022012 0.732234
vt 0.030992 0.735961
vt 0.440396 0.125855
vt 0.409329 0.125855
vt 0.440396 0.000357
vt 0.409329 0.149736
vt 0.418384 0.000357
vt 0.449376 0.131245
vt 0.409329 0.000000
vt 0.418384 0.155084
vt 0.418384 0.032221
vt 0.409329 0.026213
vt 0.449376 0.155084
vt 0.888098 0.000000
vt 0.919090 0.000000
vt 0.919090 0.122863
vt 0.888098 0.122863
vt 0.888098 0.154727
vt 0.910110 0.154727
vt 0.919090 0.149051
vn 0.000000 -1.000000 0.000000
vn 0.000000 -1.000000 0.000000
vn 0.000000 -1.000000 0.000000
vn 0.000000 -1.000000 0.000000
vn -1.000000 0.000000 0.000000
vn -1.000000 0.000000 0.000000
vn -1.000000 0.000000 0.000000
vn -1.000000 0.000000 0.000000
vn 0.585169 0.624371 0.517435
vn 0.585169 0.624371 0.517435
vn 0.585169 0.624371 0.517435
vn 0.585169 0.624371 0.517435
vn -0.589407 0.622999 -0.514268
vn -0.589407 0.622999 -0.514268
vn -0.589407 0.622999 -0.514268
vn -0.589407 0.622999 -0.514268
vn 0.000000 1.000000 0.000000
vn 0.000000 1.000000 0.000000
vn 0.000000 1.000000 0.000000
vn 0.000000 1.000000 0.000000
vn 0.963654 0.000246 0.267152
vn 0.963654 0.000246 0.267152
vn 0.963654 0.000246 0.267152
vn 0.963654 0.000246 0.267152
vn 1.000000 0.000000 0.000000
vn 1.000000 0.000000 0.000000
vn 1.000000 0.000000 0.000000
vn 1.000000 0.000000 0.000000
vn 0.000000 -1.000000 -0.000000
vn 0.000000 -1.000000 -0.000000
vn 0.000000 -1.000000 -0.000000
vn 0.000000 -1.000000 -0.000000
vn 0.168854 0.689376 -0.704450
vn 0.168854 0.689376 -0.704450
vn 0.168854 0.689376 -0.704450
vn 0.168854 0.689376 -0.704450
vn -0.176029 0.688115 0.703926
vn -0.176029 0.688115 0.703926
vn -0.176029 0.688115 0.703926
vn -0.176029 0.688115 0.703926
vn 0.000000 1.000000 0.000000
vn 0.000000 1.000000 0.000000
vn 0.000000 1.000000 0.000000
vn 0.000000 1.000000 0.000000
vn -0.888229 0.000000 0.459402
vn -0.888229 0.000000 0.459402
vn -0.888229 0.000000 0.459402
vn -0.888229 0.000000 0.459402
vn 1.000000 -0.000002 0.000000
vn 1.000000 -0.000002 0.000000
vn 1.000000 -0.000002 0.000000
vn 1.000000 -0.000002 0.000000
vn 0.000000 -1.000000 0.000000
vn 0.000000 -1.000000 0.000000
vn 0.000000 -1.000000 0.000000
vn 0.000000 -1.000000 0.000000
vn 0.167256 0.702120 0.692136
vn 0.167256 0.702120 0.692136
vn 0.167256 0.702120 0.692136
vn 0.167256 0.702120 0.692136
vn -0.171347 0.702225 -0.691028
vn -0.171347 0.702225 -0.691028
vn -0.171347 0.702225 -0.691028
vn -0.171347 0.702225 -0.691028
vn 0.000000 1.000000 0.000000
vn 0.000000 1.000000 0.000000
vn 0.000000 1.000000 0.000000
vn 0.000000 1.000000 0.000000
vn -1.000000 0.000002 0.000000
vn -1.000000 0.000002 0.000000
vn -1.000000 0.000002 0.000000
vn -1.000000 0.000002 0.000000
vn 0.000000 -1.000000 0.000000
vn 0.000000 -1.000000 0.000000
vn 0.000000 -1.000000 0.000000
vn 0.000000 -1.000000 0.000000
vn -1.000000 0.000000 0.000000
vn -1.000000 0.000000 0.000000
vn -1.000000 0.000000 0.000000
vn -1.000000 0.000000 0.000000
vn 0.575159 0.638601 -0.511254
vn 0.575159 0.638601 -0.511254
vn 0.575159 0.638601 -0.511254
vn 0.575159 0.638601 -0.511254
vn -0.582920 0.635875 0.505832
vn -0.582920 0.635875 0.505833
vn -0.582920 0.635875 0.505832
vn -0.582920 0.635875 0.505833
vn 0.000000 1.000000 0.000000
vn 0.000000 1.000000 0.000000
vn 0.000000 1.000000 0.000000
vn 0.000000 1.000000 0.000000
vn 1.000000 0.000000 0.000000
vn 1.000000 0.000000 0.000000
vn 1.000000 0.000000 0.000000
vn 1.000000 0.000000 0.000000
vn 1.000000 0.000000 0.000000
vn 1.000000 0.000001 0.000000
vn 0.999951 -0.008080 0.005634
vn 0.999996 -0.001980 -0.002189
vn 0.999969 -0.007853 0.000351
vn 0.999944 0.000000 -0.010585
vn -0.183079 0.583676 0.791078
vn -0.183079 0.583676 0.791078
vn -0.183079 0.583676 0.791078
vn -0.183079 0.583676 0.791078
vn -0.234233 0.000000 0.972181
vn -0.234233 0.000000 0.972181
vn -0.234233 0.000000 0.972181
vn -0.234233 0.000000 0.972181
vn 0.000000 1.000000 0.000000
vn 0.000000 1.000000 0.000000
vn 0.000000 1.000000 0.000000
vn 0.000000 1.000000 0.000000
vn 0.202864 -0.588009 -0.783002
vn 0.202864 -0.588009 -0.783002
vn 0.202864 -0.588009 -0.783002
vn 0.202864 -0.588009 -0.783002
vn 0.000000 -1.000000 -0.000000
vn 0.000000 -1.000000 -0.000000
vn 0.000000 -1.000000 -0.000000
vn 0.000000 -1.000000 -0.000000
vn 0.240994 0.000000 -0.970527
vn 0.240994 0.000000 -0.970527
vn 0.240994 0.000000 -0.970527
vn 0.240994 0.000000 -0.970527
vn -0.500364 0.000000 -0.865815
vn -0.500373 -0.000016 -0.865810
vn -0.500373 -0.000015 -0.865810
vn -0.500370 -0.000013 -0.865811
vn -0.500374 -0.000018 -0.865809
vn -0.500362 0.000000 -0.865817
vn 1.000000 0.000000 0.000000
vn 0.999952 -0.008080 -0.005634
vn 1.000000 0.000001 0.000000
vn 0.999996 -0.001980 0.002189
vn 0.999969 -0.007853 -0.000351
vn 0.999944 0.000000 0.010585
vn -0.184536 0.583797 -0.790650
vn -0.184536 0.583797 -0.790650
vn -0.184536 0.583797 -0.790650
vn -0.184536 0.583797 -0.790650
vn -0.236026 0.000000 -0.971747
vn -0.236026 0.000000 -0.971747
vn -0.236026 0.000000 -0.971747
vn -0.236026 0.000000 -0.971747
vn 0.000000 1.000000 0.000000
vn 0.000000 1.000000 0.000000
vn 0.000000 1.000000 0.000000
vn 0.000000 1.000000 0.000000
vn 0.204495 -0.588112 0.782500
vn 0.204495 -0.588112 0.782500
vn 0.204495 -0.588112 0.782500
vn 0.204495 -0.588112 0.782500
vn 0.000000 -1.000000 0.000000
vn 0.000000 -1.000000 0.000000
vn 0.000000 -1.000000 0.000000
vn 0.000000 -1.000000 0.000000
vn 0.243071 0.000000 0.970009
vn 0.243071 0.000000 0.970009
vn 0.243071 0.000000 0.970009
vn 0.243071 0.000000 0.970009
vn -0.500362 0.000000 0.865817
vn -0.500373 -0.000018 0.865810
vn -0.500371 -0.000013 0.865811
vn -0.500373 -0.000015 0.865810
vn -0.500374 -0.000015 0.865810
vn -0.500364 0.000000 0.865815
vn 0.634562 0.518752 0.572911
vn 0.634562 0.518752 0.572911
vn 0.634562 0.518752 0.572911
vn 0.634562 0.518752 0.572911
vn 0.000000 1.000000 0.000000
vn 0.000000 1.000000 0.000000
vn 0.000000 1.000000 0.000000
vn 0.000000 1.000000 0.000000
vn 0.743156 0.000000 0.669118
vn 0.743156 0.000000 0.669118
vn 0.743180 0.000666 0.669092
vn 0.743673 0.017635 0.668311
vn 0.743930 0.063546 0.665230
vn -0.512482 -0.710510 -0.482221
vn -0.512482 -0.710510 -0.482221
vn -0.512482 -0.710510 -0.482221
vn -0.512482 -0.710510 -0.482221
vn -0.623584 -0.003613 0.781748
vn -0.623584 -0.003613 0.781748
vn -0.623584 -0.003613 0.781748
vn -0.623584 -0.003613 0.781748
vn 0.000000 -1.000000 0.000000
vn 0.000000 -1.000000 0.000000
vn 0.000000 -1.000000 0.000000
vn 0.000000 -1.000000 0.000000
vn -0.726125 0.000000 -0.687563
vn -0.726125 0.000000 -0.687563
vn -0.726125 0.000000 -0.687563
vn -0.726125 0.000000 -0.687563
vn -0.623119 0.000000 0.782127
vn -0.623119 0.000000 0.782127
vn -0.622957 0.001103 0.782255
vn -0.622463 0.004445 0.782637
vn -0.618307 0.030801 0.785333
vn 0.624757 0.000000 -0.780819
vn 0.623230 0.002207 -0.782036
vn 0.627439 -0.008428 -0.778620
vn 0.618583 0.000000 -0.785719
vn 0.624795 -0.009911 -0.780726
vn 0.620635 0.000403 -0.784099
vn 0.526491 0.704884 -0.475338
vn 0.526491 0.704884 -0.475338
vn 0.526491 0.704884 -0.475338
vn 0.526491 0.704884 -0.475338
vn 0.000000 1.000000 0.000000
vn 0.000000 1.000000 0.000000
vn 0.000000 1.000000 0.000000
vn 0.000000 1.000000 0.000000
vn 0.743158 0.000000 -0.669116
vn 0.743182 0.000666 -0.669089
vn 0.743158 0.000000 -0.669116
vn 0.743675 0.017634 -0.668309
vn 0.743932 0.063543 -0.665228
vn -0.512482 -0.710510 0.482222
vn -0.512482 -0.710510 0.482222
vn -0.512482 -0.710510 0.482222
vn -0.512482 -0.710510 0.482222
vn -0.618594 0.000007 -0.785711
vn -0.618594 0.000007 -0.785711
vn -0.618594 0.000007 -0.785711
vn -0.618594 0.000007 -0.785711
vn 0.000000 -1.000000 -0.000000
vn 0.000000 -1.000000 -0.000000
vn 0.000000 -1.000000 -0.000000
vn 0.000000 -1.000000 -0.000000
vn -0.726125 0.000000 0.687563
vn -0.726125 0.000000 0.687563
vn -0.726125 0.000000 0.687563
vn -0.726125 0.000000 0.687563
vn -0.618599 0.000000 -0.785707
vn -0.618599 -0.000000 -0.785707
vn -0.618598 0.000000 -0.785707
vn -0.618599 -0.000001 -0.785707
vn -0.618601 -0.000013 -0.785706
vn 0.618583 0.000000 0.785719
vn 0.618591 -0.000012 0.785713
vn 0.618576 0.000001 0.785725
vn 0.618583 -0.000012 0.785719
vn 0.618567 0.000003 0.785732
vn 0.618570 0.000000 0.785730
vn -0.751619 0.000000 0.659598
vn -0.751619 0.000000 0.659598
vn -0.751619 0.000000 0.659598
vn -0.751619 0.000000 0.659598
vn 0.000000 1.000000 0.000000
vn 0.000000 1.000000 0.000000
vn 0.000000 1.000000 0.000000
vn 0.000000 1.000000 0.000000
vn -0.751619 0.000000 -0.659598
vn -0.751619 0.000000 -0.659598
vn -0.751619 0.000000 -0.659598
vn -0.751619 0.000000 -0.659598
vn 0.000000 -1.000000 0.000000
vn 0.000000 -1.000000 0.000000
vn 0.000000 -1.000000 0.000000
vn 0.000000 -1.000000 0.000000
vn -1.000000 0.000000 0.000000
vn -1.000000 0.000000 0.000000
vn -1.000000 0.000000 0.000000
vn -1.000000 0.000000 0.000000
vn 1.000000 0.000000 0.000000
vn 1.000000 0.000000 0.000000
vn 1.000000 0.000000 0.000000
vn 1.000000 0.000000 0.000000
vn 0.000000 0.000000 -1.000000
vn 0.000000 0.000000 -1.000000
vn 0.000000 0.000000 -1.000000
vn 0.000000 0.000000 -1.000000
vn 0.000000 1.000000 0.000000
vn 0.000000 1.000000 0.000000
vn 0.000000 1.000000 0.000000
vn 0.000000 1.000000 0.000000
vn 0.000000 0.000000 1.000000
vn 0.000000 0.000000 1.000000
vn 0.000000 0.000000 1.000000
vn 0.000000 0.000000 1.000000
vn 0.000000 -1.000000 0.000000
vn 0.000000 -1.000000 0.000000
vn 0.000000 -1.000000 0.000000
vn 0.000000 -1.000000 0.000000
vn 0.238387 0.000000 -0.971170
vn 0.238387 0.000000 -0.971170
vn 0.238387 0.000000 -0.971170
vn 0.238387 0.000000 -0.971170
vn 0.000000 1.000000 0.000000
vn 0.000000 1.000000 0.000000
vn 0.000000 1.000000 0.000000
vn 0.000000 1.000000 0.000000
vn 0.238387 0.000000 0.971170
vn 0.238387 0.000000 0.971170
vn 0.238387 0.000000 0.971170
vn 0.238387 0.000000 0.971170
vn 0.000000 -1.000000 0.000000
vn 0.000000 -1.000000 0.000000
vn 0.000000 -1.000000 0.000000
vn 0.000000 -1.000000 0.000000
s off
g Bridge_walkway_END_with_CORNER_01
usemtl initialShadingGroup
f 5/65/1 6/66/2 1/67/3 2/68/4
f 1/1/5 3/2/6 4/3/7 2/4/8
f 6/7/9 7/10/10 3/11/11 1/12/12
f 8/5/13 5/6/14 2/4/15 4/3/16
f 7/69/17 8/70/18 4/71/19 3/72/20
f 6/7/21 5/8/22 8/9/23 7/10/24
f 11/13/25 15/14/26 16/15/27 12/16/28
f 10/73/29 9/74/30 11/75/31 12/76/32
f 9/83/33 13/77/34 15/80/35 11/84/36
f 14/78/37 10/81/38 12/82/39 16/79/40
f 13/77/41 14/78/42 16/79/43 15/80/44
f 10/17/45 14/18/46 13/19/47 9/20/48
f 19/21/49 20/22/50 24/23/51 23/24/52
f 18/85/53 20/86/54 19/87/55 17/88/56
f 17/93/57 19/94/58 23/90/59 21/89/60
f 22/92/61 24/91/62 20/95/63 18/96/64
f 21/89/65 23/90/66 24/91/67 22/92/68
f 18/25/69 17/26/70 21/27/71 22/28/72
f 29/97/73 26/98/74 25/99/75 30/100/76
f 25/29/77 26/30/78 28/31/79 27/32/80
f 30/35/81 25/39/82 27/40/83 31/36/84
f 32/33/85 28/31/86 26/30/87 29/34/88
f 31/101/89 27/102/90 28/103/91 32/104/92
f 30/35/93 31/36/94 32/37/95 29/38/96
s 1
f 35/41/97 44/42/98 39/43/99
f 44/42/98 43/44/100 39/43/99
f 39/43/99 43/44/100 40/45/101
f 43/44/100 36/46/102 40/45/101
s off
f 37/105/103 38/109/104 39/110/105 40/106/106
f 33/169/107 35/170/108 39/171/109 38/172/110
f 37/105/111 40/106/112 36/107/113 34/108/114
f 41/111/115 42/115/116 43/116/117 44/112/118
f 41/111/119 44/112/120 35/113/121 33/114/122
f 34/173/123 36/174/124 43/175/125 42/176/126
s 2
f 34/173/127 42/176/128 37/177/129
f 37/177/129 42/176/128 38/178/130
f 42/176/128 41/179/131 38/178/130
f 38/178/130 41/179/131 33/180/132
s 3
f 47/47/133 51/48/134 56/49/135
f 56/49/135 51/48/134 55/50/136
f 51/48/134 52/51/137 55/50/136
f 52/51/137 48/52/138 55/50/136
s off
f 49/117/139 52/120/140 51/121/141 50/122/142
f 45/181/143 50/182/144 51/183/145 47/184/146
f 49/117/147 46/118/148 48/119/149 52/120/150
f 53/123/151 56/126/152 55/127/153 54/128/154
f 53/123/155 45/124/156 47/125/157 56/126/158
f 46/185/159 54/186/160 55/187/161 48/188/162
s 4
f 45/192/163 53/191/164 50/190/165
f 53/191/164 54/186/166 50/190/165
f 50/190/165 54/186/166 49/189/167
f 54/186/166 46/185/168 49/189/167
s off
f 59/133/169 60/132/170 62/131/171 61/134/172
f 58/129/173 63/130/174 62/131/175 60/132/176
s 5
f 59/205/177 61/206/178 57/207/179
f 61/206/178 68/208/180 57/207/179
f 68/208/180 69/210/181 57/207/179
s off
f 64/139/182 65/138/183 66/137/184 67/140/185
f 67/212/186 66/213/187 69/210/188 68/208/189
f 57/135/190 69/136/191 66/137/192 65/138/193
f 64/216/194 67/217/195 63/218/196 58/219/197
s 6
f 67/217/198 68/220/199 63/218/200
f 68/220/199 61/221/201 63/218/200
f 61/221/201 62/222/202 63/218/200
s 7
f 57/207/203 65/209/204 59/205/205
f 58/215/206 60/214/207 64/211/208
f 60/214/207 59/205/205 64/211/208
f 59/205/205 65/209/204 64/211/208
s off
f 72/145/209 74/146/210 75/143/211 73/142/212
f 71/141/213 73/142/214 75/143/215 76/144/216
s 9
f 72/223/217 70/224/218 74/225/219
f 74/225/219 70/224/218 81/227/220
f 70/224/218 82/229/221 81/227/220
s off
f 77/151/222 80/152/223 79/149/224 78/148/225
f 80/231/226 81/227/227 82/229/228 79/232/229
f 70/147/230 78/148/231 79/149/232 82/150/233
f 77/234/234 71/235/235 76/236/236 80/237/237
s 10
f 80/237/238 76/236/239 81/238/240
f 81/238/240 76/236/239 74/239/241
f 76/236/239 75/240/242 74/239/241
s 11
f 71/233/243 77/230/244 73/228/245
f 77/230/244 78/226/246 73/228/245
f 73/228/245 78/226/246 72/223/247
f 72/223/247 78/226/246 70/224/248
s off
f 83/57/249 85/58/250 86/54/251 84/53/252
f 85/153/253 87/154/254 88/155/255 86/156/256
f 87/59/257 89/60/258 90/56/259 88/55/260
f 89/161/261 83/162/262 84/163/263 90/164/264
f 84/53/265 86/54/266 88/55/267 90/56/268
f 96/61/269 95/62/270 97/63/271 98/64/272
f 89/193/273 87/194/274 91/195/275 92/196/276
f 87/154/277 85/153/278 93/157/279 91/158/280
f 85/199/281 83/200/282 94/201/283 93/202/284
f 83/162/285 89/161/286 92/165/287 94/166/288
f 92/196/289 91/195/290 95/197/291 96/198/292
f 91/158/293 93/157/294 97/159/295 95/160/296
f 93/202/297 94/201/298 98/203/299 97/204/300
f 94/166/301 92/165/302 96/167/303 98/168/304
