# This file uses meters as units for non-parametric coordinates.

mtllib Bridge_walkway_CONNECTER_01.mtl
g default
v -162.833969 2.603800 -42.094971
v -162.833969 2.603800 -47.752808
v -162.833969 3.565633 -43.148438
v -162.833969 3.565633 -46.699371
v -61.677719 2.603800 -47.427490
v -59.152313 2.603800 -42.420258
v -61.207550 3.565633 -46.495239
v -59.622971 3.565633 -43.352631
v -162.833969 2.603800 38.628784
v -162.833969 2.603800 44.286713
v -162.833969 3.565633 39.682251
v -162.833969 3.565633 43.233246
v -61.677719 2.603800 43.961304
v -59.152313 2.603800 38.954193
v -61.207550 3.565633 43.029053
v -59.622971 3.565633 39.886383
v 163.803711 2.603800 -42.094971
v 163.803711 2.603800 -47.752808
v 163.803711 3.565633 -43.148438
v 163.803711 3.565633 -46.699371
v 62.647934 2.603800 -47.427399
v 60.122528 2.603800 -42.420288
v 62.177765 3.565633 -46.495209
v 60.593185 3.565633 -43.352539
v 163.803711 2.603800 38.628784
v 163.803711 2.603800 44.286713
v 163.803711 3.565633 39.682251
v 163.803711 3.565633 43.233246
v 62.647934 2.603800 43.961334
v 60.122528 2.603800 38.954102
v 62.177277 3.565633 43.029053
v 60.593185 3.565633 39.886475
v -162.833466 2.603800 -42.094879
v -162.833466 2.603800 -47.752777
v -162.833466 3.565633 -43.148346
v -162.833466 3.565633 -46.699341
v -61.677734 2.603800 -47.427490
v -59.152313 2.603800 -42.420258
v -61.207550 3.565633 -46.495239
v -59.622986 3.565633 -43.352631
v -162.833466 2.603800 38.628815
v -162.833466 2.603800 44.286743
v -162.833466 3.565633 39.682281
v -162.833466 3.565633 43.233276
v -61.677734 2.603800 43.961304
v -59.152313 2.603800 38.954193
v -61.207550 3.565633 43.029053
v -59.622986 3.565633 39.886383
v 163.803711 2.603800 -42.094971
v 163.803711 2.603800 -47.752808
v 163.803711 3.565633 -43.148438
v 163.803711 3.565633 -46.699371
v 62.647453 2.603800 -47.427399
v 60.122536 2.603800 -42.420288
v 62.177773 3.565633 -46.495209
v 60.592705 3.565633 -43.352539
v 163.803711 2.603800 38.628784
v 163.803711 2.603800 44.286713
v 163.803711 3.565633 39.682251
v 163.803711 3.565633 43.233246
v 62.647453 2.603800 43.961334
v 60.122536 2.603800 38.954102
v 62.177773 3.565633 43.029144
v 60.592705 3.565633 39.886475
v 166.982513 12.912024 67.584351
v 166.991302 0.293626 54.649567
v -0.213486 12.912024 67.584381
v -0.204208 0.293626 54.649536
v -145.560623 12.912024 67.138031
v -150.572342 0.293626 55.357086
v 166.982513 0.293626 64.134369
v 166.982513 3.743701 67.584351
v -0.213486 0.293626 64.134399
v -0.213486 3.743701 67.584381
v -145.560623 3.743701 67.138031
v -147.066971 0.293626 64.034180
v 166.982513 12.912024 59.533051
v 166.991302 9.461948 54.649567
v -0.213486 12.912024 59.533081
v -0.204208 9.461948 54.649536
v -150.572342 9.461948 55.357086
v -149.075272 12.912024 59.894440
v 167.004486 0.293626 -55.249390
v 167.022064 12.912024 -67.871582
v -0.191513 0.293626 -55.249390
v -0.173935 12.912024 -67.871704
v -151.987381 0.293626 -55.927124
v -146.957596 12.912024 -67.193756
v 167.022064 3.277030 -67.871582
v 167.022064 0.293626 -64.888184
v -0.173935 3.277030 -67.871704
v -0.173935 0.293626 -64.888306
v -148.461014 0.293626 -64.617065
v -146.957596 3.277030 -67.193756
v 167.004486 9.928619 -55.249390
v 167.022064 12.912024 -60.909302
v -0.191513 9.928619 -55.249390
v -0.173935 12.912024 -60.909424
v -150.466385 12.912024 -61.180542
v -151.987381 9.928619 -55.927124
v -166.520065 0.189090 48.090729
v 166.462860 0.189090 48.090729
v -166.520065 2.179856 48.090729
v 166.462860 2.179856 48.090729
v -166.520065 2.179856 -49.401367
v 166.462860 2.179856 -49.401367
v -166.520065 0.189090 -49.401367
v 166.462860 0.189090 -49.401367
vt 0.942953 0.364836
vt 0.945841 0.368000
vt 0.945841 0.378664
vt 0.942953 0.381828
vt 0.921619 0.383655
vt 0.921619 0.368617
vt 0.924508 0.371417
vt 0.924508 0.380854
vt 0.921619 0.348496
vt 0.921619 0.331505
vt 0.924507 0.334668
vt 0.924507 0.345333
vt 0.921619 0.401828
vt 0.924508 0.404627
vt 0.924508 0.414065
vt 0.921619 0.416865
vt 0.921619 0.367051
vt 0.921619 0.350060
vt 0.924507 0.353224
vt 0.924507 0.363888
vt 0.942953 0.433209
vt 0.945841 0.436009
vt 0.945841 0.445447
vt 0.942953 0.448246
vt 0.942953 0.327726
vt 0.945841 0.330890
vt 0.945841 0.341554
vt 0.942953 0.344718
vt 0.942953 0.415036
vt 0.942953 0.399999
vt 0.945841 0.402799
vt 0.945841 0.412236
vt 0.989887 0.294366
vt 0.992776 0.297530
vt 0.992776 0.308194
vt 0.989887 0.311357
vt 0.921619 0.400260
vt 0.921619 0.385222
vt 0.924508 0.388022
vt 0.924508 0.397460
vt 0.921619 0.329941
vt 0.921619 0.312949
vt 0.924507 0.316113
vt 0.924507 0.326777
vt 0.921619 0.418432
vt 0.924508 0.421232
vt 0.924508 0.430670
vt 0.921619 0.433470
vt 0.942953 0.326163
vt 0.942953 0.309171
vt 0.945841 0.312335
vt 0.945841 0.322999
vt 0.942953 0.416604
vt 0.945841 0.419404
vt 0.945841 0.428842
vt 0.942953 0.431641
vt 0.942953 0.346281
vt 0.945841 0.349445
vt 0.945841 0.360109
vt 0.942953 0.363273
vt 0.942953 0.398431
vt 0.942953 0.383393
vt 0.945841 0.386193
vt 0.945841 0.395631
vt 0.913086 0.931335
vt 0.940619 0.931335
vt 0.913086 0.959819
vt 0.950981 0.946001
vt 0.923447 0.970180
vt 0.950981 0.970180
vt 0.652813 0.948312
vt 0.678872 0.948312
vt 0.652813 0.975845
vt 0.666440 0.986207
vt 0.688194 0.958673
vt 0.688194 0.986207
vt 0.951486 0.973022
vt 0.951486 0.944075
vt 0.980422 0.973022
vt 0.989381 0.956024
vt 0.960446 0.935116
vt 0.989381 0.935116
vt 0.622648 0.954435
vt 0.622648 0.983370
vt 0.596550 0.954435
vt 0.606871 0.992330
vt 0.588812 0.963394
vt 0.588812 0.992330
vt 0.989887 0.918710
vt 0.989887 0.625926
vt 0.995866 0.625926
vt 0.995866 0.918710
vt 0.989887 0.292784
vt 0.989887 0.000000
vt 0.995866 0.000000
vt 0.995866 0.292784
vt 0.964211 0.620546
vt 0.947220 0.620546
vt 0.948197 0.316758
vt 0.963234 0.309174
vt 0.909846 0.933493
vt 0.899182 0.933493
vt 0.899795 0.623535
vt 0.909233 0.628293
vt 0.896019 0.933493
vt 0.896995 0.622121
vt 0.913010 0.933493
vt 0.912033 0.629705
vt 0.904552 0.311372
vt 0.905529 0.000000
vt 0.920566 0.007584
vt 0.921544 0.311372
vt 0.890649 0.311372
vt 0.891262 0.006172
vt 0.900700 0.001413
vt 0.901313 0.311372
vt 0.887485 0.311372
vt 0.888462 0.007584
vt 0.903499 0.000000
vt 0.904477 0.311372
vt 0.998345 0.312971
vt 0.997368 0.624342
vt 0.982331 0.616757
vt 0.981354 0.312971
vt 0.978114 0.312971
vt 0.977501 0.618169
vt 0.968063 0.622928
vt 0.967450 0.312971
vt 0.981278 0.312971
vt 0.980301 0.616757
vt 0.965264 0.624342
vt 0.964287 0.312971
vt 0.921619 0.000000
vt 0.938611 0.000000
vt 0.937634 0.303787
vt 0.922596 0.311371
vt 0.941850 0.000000
vt 0.952514 0.000000
vt 0.951901 0.309957
vt 0.942463 0.305200
vt 0.955678 0.000000
vt 0.954701 0.311371
vt 0.938686 0.000000
vt 0.939663 0.303787
vt 0.947144 0.929735
vt 0.930153 0.929735
vt 0.931129 0.625949
vt 0.946167 0.618364
vt 0.918380 0.624340
vt 0.907716 0.624340
vt 0.908329 0.314383
vt 0.917767 0.319141
vt 0.904552 0.624340
vt 0.905529 0.312969
vt 0.921543 0.624340
vt 0.920567 0.320553
vt 0.972820 0.311371
vt 0.973797 0.000000
vt 0.988834 0.007584
vt 0.989812 0.311371
vt 0.929050 0.618394
vt 0.929663 0.313195
vt 0.939101 0.308437
vt 0.939714 0.618394
vt 0.925886 0.618394
vt 0.926863 0.314607
vt 0.941900 0.307023
vt 0.942877 0.618394
vt 0.989811 0.622160
vt 0.988834 0.933531
vt 0.973797 0.925948
vt 0.972820 0.622160
vt 0.961047 0.622146
vt 0.960434 0.927345
vt 0.950996 0.932105
vt 0.950383 0.622146
vt 0.964211 0.622146
vt 0.963234 0.925934
vt 0.948197 0.933517
vt 0.947220 0.622146
vt 0.887485 0.312972
vt 0.904477 0.312972
vt 0.903499 0.616760
vt 0.888462 0.624343
vt 0.958917 0.000000
vt 0.969581 0.000000
vt 0.968968 0.309959
vt 0.959530 0.305199
vt 0.972745 0.000000
vt 0.971768 0.311371
vt 0.955753 0.000000
vt 0.956730 0.303788
vt 0.631480 0.000000
vt 0.659964 0.000026
vt 0.659964 0.502142
vt 0.631480 0.502114
vt 0.670325 0.000026
vt 0.670325 0.502142
vt 0.633605 0.953693
vt 0.659663 0.943166
vt 0.668985 0.938642
vt 0.588812 0.000026
vt 0.612992 0.000026
vt 0.612992 0.502142
vt 0.588812 0.502142
vt 0.627658 0.000000
vt 0.627658 0.502114
vt 0.590153 0.938642
vt 0.611906 0.949197
vt 0.625533 0.953693
vt 0.683107 0.502116
vt 0.683107 0.000000
vt 0.712054 0.000053
vt 0.712054 0.502169
vt 0.674148 0.000000
vt 0.674147 0.502116
vt 0.683921 0.947445
vt 0.710019 0.958035
vt 0.676183 0.942930
vt 0.712548 0.000053
vt 0.729546 0.000000
vt 0.729546 0.502116
vt 0.712548 0.502169
vt 0.750454 0.000000
vt 0.750455 0.502116
vt 0.730360 0.953468
vt 0.714583 0.958035
vt 0.748419 0.942930
vt 0.000000 1.000000
vt 0.000000 0.000000
vt 0.292784 0.000000
vt 0.292784 1.000000
vt 0.294406 1.000000
vt 0.294406 0.000000
vt 0.587190 0.000000
vt 0.587190 1.000000
vt 0.840551 0.502116
vt 0.840551 0.000000
vt 0.868085 0.000000
vt 0.868085 0.502116
vt 0.840551 0.938616
vt 0.868085 0.938616
vt 0.810683 0.502114
vt 0.810683 0.000000
vt 0.838217 0.000000
vt 0.838217 0.502114
vt 0.810683 0.953693
vt 0.838217 0.953693
vt 0.780816 0.000000
vt 0.809752 0.000000
vt 0.809752 0.502116
vt 0.780816 0.502116
vt 0.780816 0.942930
vt 0.809752 0.942930
vt 0.750949 0.000000
vt 0.779884 0.000000
vt 0.779884 0.502116
vt 0.750949 0.502116
vt 0.750949 0.957983
vt 0.779884 0.957983
vt 0.878951 1.000000
vt 0.878951 0.000000
vt 0.884930 0.000000
vt 0.884930 1.000000
vt 0.870418 1.000000
vt 0.870418 0.000000
vt 0.876397 0.000000
vt 0.876397 1.000000
vn 0.000000 -1.000000 0.000000
vn 0.000000 -1.000000 0.000000
vn 0.000000 -1.000000 0.000000
vn 0.000000 -1.000000 0.000000
vn 0.001780 0.718471 0.695555
vn 0.001780 0.718471 0.695555
vn 0.001780 0.718471 0.695555
vn 0.001780 0.718471 0.695555
vn 0.001817 0.718018 -0.696022
vn 0.001817 0.718018 -0.696022
vn 0.001817 0.718018 -0.696022
vn 0.001817 0.718018 -0.696022
vn 0.000000 1.000000 0.000000
vn 0.000000 1.000000 0.000000
vn 0.000000 1.000000 0.000000
vn 0.000000 1.000000 0.000000
vn -1.000000 0.000000 0.000000
vn -1.000000 0.000000 0.000000
vn -1.000000 0.000000 0.000000
vn -1.000000 0.000000 0.000000
vn 0.892885 0.000196 -0.450284
vn 0.892885 0.000196 -0.450284
vn 0.892885 0.000196 -0.450284
vn 0.892885 0.000196 -0.450284
vn 0.000000 -1.000000 0.000000
vn 0.000000 -1.000000 0.000000
vn 0.000000 -1.000000 0.000000
vn 0.000000 -1.000000 0.000000
vn 0.001780 0.718439 -0.695588
vn 0.001780 0.718439 -0.695588
vn 0.001780 0.718439 -0.695588
vn 0.001780 0.718439 -0.695588
vn 0.001818 0.718024 0.696016
vn 0.001818 0.718024 0.696016
vn 0.001818 0.718024 0.696016
vn 0.001818 0.718024 0.696016
vn 0.000000 1.000000 0.000000
vn 0.000000 1.000000 0.000000
vn 0.000000 1.000000 0.000000
vn 0.000000 1.000000 0.000000
vn -1.000000 0.000010 0.000000
vn -1.000000 0.000010 0.000000
vn -1.000000 0.000010 0.000000
vn -1.000000 0.000010 0.000000
vn 0.892884 0.000243 0.450287
vn 0.892884 0.000243 0.450287
vn 0.892884 0.000243 0.450287
vn 0.892884 0.000243 0.450287
vn 0.000000 -1.000000 0.000000
vn 0.000000 -1.000000 0.000000
vn 0.000000 -1.000000 0.000000
vn 0.000000 -1.000000 0.000000
vn -0.001780 0.718449 0.695577
vn -0.001780 0.718450 0.695577
vn -0.001780 0.718449 0.695577
vn -0.001780 0.718449 0.695577
vn -0.001818 0.718008 -0.696033
vn -0.001818 0.718008 -0.696033
vn -0.001818 0.718008 -0.696033
vn -0.001818 0.718008 -0.696033
vn 0.000000 1.000000 0.000000
vn 0.000000 1.000000 0.000000
vn 0.000000 1.000000 0.000000
vn 0.000000 1.000000 0.000000
vn 1.000000 0.000000 0.000000
vn 1.000000 0.000000 0.000000
vn 1.000000 0.000000 0.000000
vn 1.000000 0.000000 0.000000
vn -0.892884 0.000216 -0.450287
vn -0.892884 0.000216 -0.450287
vn -0.892884 0.000216 -0.450287
vn -0.892884 0.000216 -0.450287
vn 0.000000 -1.000000 0.000000
vn 0.000000 -1.000000 0.000000
vn 0.000000 -1.000000 0.000000
vn 0.000000 -1.000000 0.000000
vn -0.001780 0.718471 -0.695555
vn -0.001780 0.718471 -0.695555
vn -0.001780 0.718471 -0.695555
vn -0.001780 0.718471 -0.695555
vn -0.001818 0.718029 0.696011
vn -0.001818 0.718029 0.696011
vn -0.001818 0.718029 0.696011
vn -0.001818 0.718029 0.696011
vn 0.000000 1.000000 0.000000
vn 0.000000 1.000000 0.000000
vn 0.000000 1.000000 0.000000
vn 0.000000 1.000000 0.000000
vn 1.000000 0.000000 0.000000
vn 1.000000 0.000000 0.000000
vn 1.000000 0.000000 0.000000
vn 1.000000 0.000000 0.000000
vn -0.892906 -0.000026 0.450243
vn -0.892906 -0.000026 0.450243
vn -0.892906 -0.000026 0.450243
vn -0.892906 -0.000026 0.450243
vn 0.000000 -1.000000 0.000000
vn 0.000000 -1.000000 0.000000
vn 0.000000 -1.000000 0.000000
vn 0.000000 -1.000000 0.000000
vn 0.001781 0.718471 0.695555
vn 0.001781 0.718471 0.695555
vn 0.001781 0.718471 0.695555
vn 0.001781 0.718471 0.695555
vn 0.001817 0.718018 -0.696022
vn 0.001817 0.718018 -0.696022
vn 0.001817 0.718018 -0.696022
vn 0.001817 0.718018 -0.696022
vn 0.000000 1.000000 0.000000
vn 0.000000 1.000000 0.000000
vn 0.000000 1.000000 0.000000
vn 0.000000 1.000000 0.000000
vn -1.000000 -0.000014 0.000000
vn -1.000000 -0.000014 0.000000
vn -1.000000 -0.000014 0.000000
vn -1.000000 -0.000014 0.000000
vn 0.892885 0.000198 -0.450284
vn 0.892885 0.000198 -0.450284
vn 0.892885 0.000198 -0.450284
vn 0.892885 0.000198 -0.450284
vn 0.000000 -1.000000 -0.000000
vn 0.000000 -1.000000 -0.000000
vn 0.000000 -1.000000 -0.000000
vn 0.000000 -1.000000 -0.000000
vn 0.001780 0.718439 -0.695588
vn 0.001780 0.718439 -0.695588
vn 0.001780 0.718439 -0.695588
vn 0.001780 0.718439 -0.695588
vn 0.001818 0.718024 0.696017
vn 0.001818 0.718023 0.696017
vn 0.001818 0.718023 0.696017
vn 0.001818 0.718023 0.696017
vn 0.000000 1.000000 0.000000
vn 0.000000 1.000000 0.000000
vn 0.000000 1.000000 0.000000
vn 0.000000 1.000000 0.000000
vn -1.000000 0.000007 0.000000
vn -1.000000 0.000007 0.000000
vn -1.000000 0.000007 0.000000
vn -1.000000 0.000007 0.000000
vn 0.892884 0.000243 0.450287
vn 0.892884 0.000243 0.450287
vn 0.892884 0.000243 0.450287
vn 0.892884 0.000243 0.450287
vn 0.000000 -1.000000 0.000000
vn 0.000000 -1.000000 0.000000
vn 0.000000 -1.000000 0.000000
vn 0.000000 -1.000000 0.000000
vn -0.001780 0.718449 0.695577
vn -0.001780 0.718449 0.695577
vn -0.001780 0.718449 0.695577
vn -0.001780 0.718449 0.695577
vn -0.001818 0.718008 -0.696033
vn -0.001818 0.718008 -0.696033
vn -0.001818 0.718008 -0.696033
vn -0.001818 0.718008 -0.696033
vn 0.000000 1.000000 0.000000
vn 0.000000 1.000000 0.000000
vn 0.000000 1.000000 0.000000
vn 0.000000 1.000000 0.000000
vn 1.000000 0.000000 0.000000
vn 1.000000 0.000000 0.000000
vn 1.000000 0.000000 0.000000
vn 1.000000 0.000000 0.000000
vn -0.892884 0.000216 -0.450287
vn -0.892884 0.000216 -0.450287
vn -0.892884 0.000216 -0.450287
vn -0.892884 0.000216 -0.450287
vn 0.000000 -1.000000 -0.000000
vn 0.000000 -1.000000 -0.000000
vn 0.000000 -1.000000 -0.000000
vn 0.000000 -1.000000 -0.000000
vn -0.001780 0.718471 -0.695555
vn -0.001780 0.718471 -0.695555
vn -0.001780 0.718471 -0.695555
vn -0.001780 0.718471 -0.695555
vn -0.001817 0.718013 0.696027
vn -0.001817 0.718013 0.696027
vn -0.001817 0.718013 0.696027
vn -0.001817 0.718013 0.696027
vn 0.000000 1.000000 0.000000
vn 0.000000 1.000000 0.000000
vn 0.000000 1.000000 0.000000
vn 0.000000 1.000000 0.000000
vn 1.000000 0.000000 0.000000
vn 1.000000 0.000000 0.000000
vn 1.000000 0.000000 0.000000
vn 1.000000 0.000000 0.000000
vn -0.892887 0.000181 0.450282
vn -0.892887 0.000181 0.450282
vn -0.892887 0.000181 0.450282
vn -0.892887 0.000181 0.450282
vn 1.000000 0.000000 0.000927
vn 0.999999 0.000315 0.001232
vn 1.000000 0.000109 0.000662
vn 1.000000 0.000283 0.000779
vn 1.000000 0.000001 0.000000
vn 1.000000 0.000000 0.000000
vn -0.927199 0.000000 0.374569
vn -0.919638 -0.007753 0.392691
vn -0.935276 -0.023364 0.353147
vn -0.922733 -0.020597 0.384889
vn -0.899674 0.000027 0.436563
vn -0.899687 0.000000 0.436535
vn 0.000000 -0.707097 0.707116
vn 0.000000 -0.707097 0.707116
vn -0.000624 -0.698616 0.715497
vn -0.000624 -0.698608 0.715504
vn -0.001357 -0.688521 0.725215
vn -0.001357 -0.688521 0.725215
vn -0.001428 0.000000 0.999999
vn 0.000000 0.000000 1.000000
vn 0.000000 0.000000 1.000000
vn -0.001428 0.000000 0.999999
vn 0.000000 -1.000000 0.000000
vn 0.000000 -1.000000 0.000000
vn 0.000000 -1.000000 -0.000000
vn 0.000000 -1.000000 -0.000000
vn -0.003071 0.000000 0.999995
vn -0.003071 0.000000 0.999995
vn 0.000000 -1.000000 -0.000000
vn 0.000000 -1.000000 -0.000000
vn 0.000000 0.816740 -0.577006
vn 0.000000 0.816740 -0.577006
vn -0.000982 0.812195 -0.583386
vn -0.000986 0.812176 -0.583412
vn -0.002110 0.806909 -0.590672
vn -0.002110 0.806909 -0.590672
vn 0.000000 1.000000 0.000000
vn 0.000000 1.000000 0.000000
vn 0.000000 1.000000 0.000000
vn 0.000000 1.000000 0.000000
vn -0.002228 0.000000 -0.999998
vn 0.000000 0.000000 -1.000000
vn 0.000000 0.000000 -1.000000
vn -0.002228 0.000000 -0.999998
vn 0.000000 1.000000 0.000000
vn 0.000000 1.000000 0.000000
vn -0.004705 0.000000 -0.999989
vn -0.004705 0.000000 -0.999989
vn 0.999998 0.000000 0.001824
vn 0.999999 -0.000201 0.001435
vn 0.999997 -0.000497 0.002320
vn 0.999999 -0.000499 0.001581
vn 1.000000 0.000000 0.000000
vn 1.000000 0.000000 0.000000
vn -0.926612 0.000000 -0.376018
vn -0.940402 -0.039557 -0.337755
vn -0.914305 -0.015290 -0.404737
vn -0.918148 -0.038512 -0.394363
vn -0.863717 -0.000010 -0.503976
vn -0.863711 0.000000 -0.503987
vn 0.000001 -0.707106 -0.707107
vn 0.000001 -0.707106 -0.707108
vn -0.001084 -0.695388 -0.718634
vn -0.001082 -0.695406 -0.718616
vn -0.002354 -0.681413 -0.731895
vn -0.002354 -0.681413 -0.731895
vn 0.000000 -1.000000 -0.000000
vn 0.000000 -1.000000 -0.000000
vn 0.000000 -1.000000 -0.000000
vn 0.000000 -1.000000 -0.000000
vn 0.000001 0.000000 -1.000000
vn 0.000001 0.000000 -1.000000
vn -0.002159 0.000000 -0.999998
vn -0.002159 0.000000 -0.999998
vn 0.000000 -1.000000 -0.000000
vn 0.000000 -1.000000 -0.000000
vn -0.004619 0.000000 -0.999989
vn -0.004619 0.000000 -0.999989
vn -0.000000 0.884630 0.466294
vn -0.000000 0.884630 0.466294
vn -0.000704 0.881330 0.472501
vn -0.000705 0.881324 0.472512
vn -0.001506 0.877510 0.479556
vn -0.001506 0.877510 0.479556
vn 0.000000 0.000000 1.000000
vn 0.000000 0.000000 1.000000
vn -0.002125 0.000000 0.999998
vn -0.002125 0.000000 0.999998
vn 0.000000 1.000000 -0.000000
vn 0.000000 1.000000 0.000000
vn 0.000000 1.000000 0.000000
vn 0.000000 1.000000 -0.000000
vn -0.004465 0.000000 0.999990
vn -0.004465 0.000000 0.999990
vn 0.000000 1.000000 -0.000000
vn 0.000000 1.000000 -0.000000
vn 0.000000 0.000000 1.000000
vn 0.000000 0.000000 1.000000
vn 0.000000 0.000000 1.000000
vn 0.000000 0.000000 1.000000
vn 0.000000 1.000000 0.000000
vn 0.000000 1.000000 0.000000
vn 0.000000 1.000000 0.000000
vn 0.000000 1.000000 0.000000
vn 0.000000 0.000000 -1.000000
vn 0.000000 0.000000 -1.000000
vn 0.000000 0.000000 -1.000000
vn 0.000000 0.000000 -1.000000
vn 0.000000 -1.000000 0.000000
vn 0.000000 -1.000000 0.000000
vn 0.000000 -1.000000 0.000000
vn 0.000000 -1.000000 0.000000
vn 1.000000 0.000000 0.000000
vn 1.000000 0.000000 0.000000
vn 1.000000 0.000000 0.000000
vn 1.000000 0.000000 0.000000
vn -1.000000 0.000000 0.000000
vn -1.000000 0.000000 0.000000
vn -1.000000 0.000000 0.000000
vn -1.000000 0.000000 0.000000
s off
g Bridge_walkway_CONNECTER_01
usemtl initialShadingGroup
f 1/97/1 2/98/2 5/99/3 6/100/4
f 3/102/5 1/105/6 6/106/7 8/103/8
f 2/107/9 4/101/10 7/104/11 5/108/12
f 4/101/13 3/102/14 8/103/15 7/104/16
f 1/1/17 3/2/18 4/3/19 2/4/20
f 6/5/21 5/6/22 7/7/23 8/8/24
f 9/109/25 14/110/26 13/111/27 10/112/28
f 11/116/29 16/115/30 14/119/31 9/120/32
f 10/117/33 13/118/34 15/114/35 12/113/36
f 12/113/37 15/114/38 16/115/39 11/116/40
f 9/9/41 10/10/42 12/11/43 11/12/44
f 14/13/45 16/14/46 15/15/47 13/16/48
f 17/121/49 22/122/50 21/123/51 18/124/52
f 19/128/53 24/127/54 22/131/55 17/132/56
f 18/129/57 21/130/58 23/126/59 20/125/60
f 20/125/61 23/126/62 24/127/63 19/128/64
f 17/17/65 18/18/66 20/19/67 19/20/68
f 22/21/69 24/22/70 23/23/71 21/24/72
f 25/133/73 26/134/74 29/135/75 30/136/76
f 27/138/77 25/141/78 30/142/79 32/139/80
f 26/143/81 28/137/82 31/140/83 29/144/84
f 28/137/85 27/138/86 32/139/87 31/140/88
f 25/25/89 27/26/90 28/27/91 26/28/92
f 30/29/93 29/30/94 31/31/95 32/32/96
f 33/145/97 34/146/98 37/147/99 38/148/100
f 35/150/101 33/153/102 38/154/103 40/151/104
f 34/155/105 36/149/106 39/152/107 37/156/108
f 36/149/109 35/150/110 40/151/111 39/152/112
f 33/33/113 35/34/114 36/35/115 34/36/116
f 38/37/117 37/38/118 39/39/119 40/40/120
f 41/157/121 46/158/122 45/159/123 42/160/124
f 43/164/125 48/163/126 46/167/127 41/168/128
f 42/165/129 45/166/130 47/162/131 44/161/132
f 44/161/133 47/162/134 48/163/135 43/164/136
f 41/41/137 42/42/138 44/43/139 43/44/140
f 46/45/141 48/46/142 47/47/143 45/48/144
f 49/169/145 54/170/146 53/171/147 50/172/148
f 51/176/149 56/175/150 54/179/151 49/180/152
f 50/177/153 53/178/154 55/174/155 52/173/156
f 52/173/157 55/174/158 56/175/159 51/176/160
f 49/49/161 50/50/162 52/51/163 51/52/164
f 54/53/165 56/54/166 55/55/167 53/56/168
f 57/181/169 58/182/170 61/183/171 62/184/172
f 59/186/173 57/189/174 62/190/175 64/187/176
f 58/191/177 60/185/178 63/188/179 61/192/180
f 60/185/181 59/186/182 64/187/183 63/188/184
f 57/57/185 59/58/186 60/59/187 58/60/188
f 62/61/189 61/62/190 63/63/191 64/64/192
s 1
f 66/65/193 78/66/194 71/67/195
f 78/66/194 77/68/196 71/67/195
f 71/67/195 77/68/196 72/69/197
f 72/69/197 77/68/196 65/70/198
s 2
f 70/71/199 76/72/200 81/73/201
f 81/73/201 76/72/200 82/74/202
f 76/72/200 75/75/203 82/74/202
f 75/75/203 69/76/204 82/74/202
s 3
f 71/194/205 72/197/206 74/198/207 73/195/208
f 73/195/208 74/198/207 75/201/209 76/200/210
s 4
f 74/237/211 72/238/212 65/239/213 67/240/214
s 5
f 66/193/215 71/194/216 73/195/217 68/196/218
s 4
f 75/241/219 74/237/211 67/240/214 69/242/220
s 5
f 70/199/221 68/196/218 73/195/217 76/200/222
s 6
f 77/203/223 78/206/224 80/207/225 79/204/226
f 79/204/226 80/207/225 81/210/227 82/209/228
s 7
f 65/202/229 77/203/230 79/204/231 67/205/232
s 8
f 80/243/233 78/244/234 66/245/235 68/246/236
s 7
f 69/208/237 67/205/232 79/204/231 82/209/238
s 8
f 81/247/239 80/243/233 68/246/236 70/248/240
s 9
f 83/77/241 90/78/242 95/79/243
f 95/79/243 90/78/242 96/80/244
f 90/78/242 89/81/245 96/80/244
f 89/81/245 84/82/246 96/80/244
s 10
f 87/83/247 100/84/248 93/85/249
f 100/84/248 99/86/250 93/85/249
f 93/85/249 99/86/250 94/87/251
f 99/86/250 88/88/252 94/87/251
s 11
f 89/215/253 90/212/254 92/211/255 91/216/256
f 91/216/256 92/211/255 93/217/257 94/219/258
s 12
f 92/211/259 90/212/260 83/213/261 85/214/262
s 13
f 84/249/263 89/250/264 91/251/265 86/252/266
s 12
f 93/217/267 92/211/259 85/214/262 87/218/268
s 13
f 88/253/269 86/252/266 91/251/265 94/254/270
s 14
f 95/220/271 96/221/272 98/222/273 97/223/274
f 97/223/274 98/222/273 99/226/275 100/227/276
s 15
f 83/255/277 95/256/278 97/257/279 85/258/280
s 16
f 98/222/281 96/221/282 84/224/283 86/225/284
s 15
f 87/259/285 85/258/280 97/257/279 100/260/286
s 16
f 99/226/287 98/222/281 86/225/284 88/228/288
s off
f 101/261/289 102/262/290 104/263/291 103/264/292
f 103/229/293 104/230/294 106/231/295 105/232/296
f 105/265/297 106/266/298 108/267/299 107/268/300
f 107/233/301 108/234/302 102/235/303 101/236/304
f 102/89/305 108/90/306 106/91/307 104/92/308
f 107/93/309 101/94/310 103/95/311 105/96/312
