# This file uses meters as units for non-parametric coordinates.

mtllib Bridge_walkway_MID_01.mtl
g default
v -162.567139 2.715301 -42.210327
v -162.567139 2.715301 -47.868164
v -162.567139 3.677134 -43.263794
v -162.567139 3.677134 -46.814697
v -61.410889 2.715301 -47.542847
v -58.885986 2.715301 -42.535645
v -60.940674 3.677134 -46.610596
v -59.356201 3.677134 -43.468018
v -162.567139 2.715301 38.513428
v -162.567139 2.715301 44.171387
v -162.567139 3.677134 39.566895
v -162.567139 3.677134 43.117920
v -61.410889 2.715301 43.845947
v -58.885986 2.715301 38.838745
v -60.940674 3.677134 42.913696
v -59.356201 3.677134 39.770996
v 164.070557 2.715301 -42.210327
v 164.070557 2.715301 -47.868164
v 164.070557 3.677134 -43.263794
v 164.070557 3.677134 -46.814697
v 62.914307 2.715301 -47.542847
v 60.389404 2.715301 -42.535645
v 62.444092 3.677134 -46.610596
v 60.859619 3.677134 -43.468018
v 164.070557 2.715301 38.513428
v 164.070557 2.715301 44.171387
v 164.070557 3.677134 39.566895
v 164.070557 3.677134 43.117920
v 62.914307 2.715301 43.845947
v 60.389404 2.715301 38.838745
v 62.444092 3.677134 42.913696
v 60.859619 3.677134 39.770996
v -162.567139 2.715301 -42.210327
v -162.567139 2.715301 -47.868164
v -162.567139 3.677134 -43.263794
v -162.567139 3.677134 -46.814697
v -61.410889 2.715301 -47.542847
v -58.885986 2.715301 -42.535645
v -60.940674 3.677134 -46.610596
v -59.356201 3.677134 -43.468018
v -162.567139 2.715301 38.513428
v -162.567139 2.715301 44.171387
v -162.567139 3.677134 39.566895
v -162.567139 3.677134 43.117920
v -61.410889 2.715301 43.845947
v -58.885986 2.715301 38.838745
v -60.940674 3.677134 42.913696
v -59.356201 3.677134 39.770996
v 164.070557 2.715301 -42.210327
v 164.070557 2.715301 -47.868164
v 164.070557 3.677134 -43.263794
v 164.070557 3.677134 -46.814697
v 62.914307 2.715301 -47.542847
v 60.389404 2.715301 -42.535645
v 62.444092 3.677134 -46.610596
v 60.859619 3.677134 -43.468018
v 164.070557 2.715301 38.513428
v 164.070557 2.715301 44.171387
v 164.070557 3.677134 39.566895
v 164.070557 3.677134 43.117920
v 62.914307 2.715301 43.845947
v 60.389404 2.715301 38.838745
v 62.444092 3.677134 42.913696
v 60.859619 3.677134 39.770996
v 167.249268 13.023523 67.368164
v 167.254639 0.405126 55.057251
v 0.053467 13.023523 67.368164
v 0.058838 0.405126 55.057251
v -167.142822 13.023523 67.368164
v -167.137451 0.405126 55.057251
v 167.249268 0.405126 63.918213
v 167.249268 3.855202 67.368164
v 0.053467 0.405126 63.918213
v 0.053467 3.855202 67.368164
v -167.142822 3.855202 67.368164
v -167.142822 0.405126 63.918213
v 167.249268 13.023523 59.316895
v 167.254639 9.573448 55.057251
v 0.053467 13.023523 59.316895
v 0.058838 9.573448 55.057251
v -167.137451 9.573448 55.057251
v -167.142822 13.023523 59.316895
v 167.270264 0.405126 -55.280640
v 167.282959 13.023523 -67.183472
v 0.074463 0.405126 -55.280640
v 0.087158 13.023523 -67.183472
v -167.121826 0.405126 -55.280640
v -167.109131 13.023523 -67.183472
v 167.282959 3.388531 -67.183472
v 167.282959 0.405126 -64.200073
v 0.087158 3.388531 -67.183472
v 0.087158 0.405126 -64.200073
v -167.109131 0.405126 -64.200073
v -167.109131 3.388531 -67.183472
v 167.270264 10.040119 -55.280640
v 167.282959 13.023523 -60.221191
v 0.074463 10.040119 -55.280640
v 0.087158 13.023523 -60.221191
v -167.109131 13.023523 -60.221191
v -167.121826 10.040119 -55.280640
v -166.253174 0.300591 47.975342
v 166.729736 0.300591 47.975342
v -166.253174 2.291356 47.975342
v 166.729736 2.291356 47.975342
v -166.253174 2.291356 -49.516724
v 166.729736 2.291356 -49.516724
v -166.253174 0.300591 -49.516724
v 166.729736 0.300591 -49.516724
vt 0.995238 0.367078
vt 0.998114 0.370229
vt 0.998114 0.380847
vt 0.995238 0.383998
vt 0.995238 0.450167
vt 0.995238 0.435194
vt 0.998114 0.437982
vt 0.998114 0.447379
vt 0.990966 0.345447
vt 0.990966 0.328527
vt 0.993843 0.331678
vt 0.993843 0.342297
vt 0.995238 0.385565
vt 0.998114 0.388353
vt 0.998114 0.397751
vt 0.995238 0.400538
vt 0.990966 0.382416
vt 0.990966 0.365497
vt 0.993843 0.368647
vt 0.993843 0.379265
vt 0.990966 0.383983
vt 0.993843 0.386771
vt 0.993843 0.396169
vt 0.990966 0.398957
vt 0.990966 0.310043
vt 0.993843 0.313193
vt 0.993843 0.323812
vt 0.990966 0.326962
vt 0.990966 0.448586
vt 0.990966 0.433612
vt 0.993843 0.436400
vt 0.993843 0.445798
vt 0.990966 0.347012
vt 0.993843 0.350162
vt 0.993843 0.360781
vt 0.990966 0.363931
vt 0.990966 0.432043
vt 0.990966 0.417069
vt 0.993843 0.419857
vt 0.993843 0.429254
vt 0.995238 0.328544
vt 0.995238 0.311624
vt 0.998114 0.314775
vt 0.998114 0.325394
vt 0.990966 0.400526
vt 0.993843 0.403314
vt 0.993843 0.412712
vt 0.990966 0.415500
vt 0.995238 0.365513
vt 0.995238 0.348594
vt 0.998114 0.351744
vt 0.998114 0.362363
vt 0.995238 0.402108
vt 0.998114 0.404896
vt 0.998114 0.414294
vt 0.995238 0.417081
vt 0.995238 0.330109
vt 0.998114 0.333259
vt 0.998114 0.343878
vt 0.995238 0.347029
vt 0.995238 0.433624
vt 0.995238 0.418651
vt 0.998114 0.421439
vt 0.998114 0.430836
vt 0.993610 0.621704
vt 0.993610 0.649121
vt 0.967112 0.621704
vt 0.980872 0.659438
vt 0.956795 0.632021
vt 0.956795 0.659438
vt 0.993610 0.698773
vt 0.969533 0.698773
vt 0.993610 0.671357
vt 0.983293 0.661039
vt 0.956795 0.688456
vt 0.956795 0.661039
vt 0.956795 0.700375
vt 0.983468 0.700375
vt 0.956795 0.729188
vt 0.971569 0.738109
vt 0.992389 0.709297
vt 0.992389 0.738109
vt 0.992389 0.739711
vt 0.992389 0.768523
vt 0.965717 0.739711
vt 0.977615 0.777445
vt 0.956795 0.748632
vt 0.956795 0.777445
vt 0.948252 0.603188
vt 0.948252 0.311649
vt 0.954205 0.311649
vt 0.954205 0.603188
vt 0.948252 0.896329
vt 0.948252 0.604790
vt 0.954205 0.604790
vt 0.954205 0.896329
vt 0.913914 0.927931
vt 0.896995 0.927931
vt 0.897968 0.625434
vt 0.912942 0.617884
vt 0.944936 0.621690
vt 0.934317 0.621690
vt 0.934928 0.313049
vt 0.944325 0.317787
vt 0.931167 0.621690
vt 0.932140 0.311643
vt 0.948086 0.621690
vt 0.947113 0.319193
vt 0.896995 0.310047
vt 0.897968 0.000000
vt 0.912942 0.007550
vt 0.913915 0.310047
vt 0.917231 0.310047
vt 0.917842 0.006144
vt 0.927240 0.001406
vt 0.927850 0.310047
vt 0.914081 0.310047
vt 0.915054 0.007550
vt 0.930028 0.000000
vt 0.931001 0.310047
vt 0.999343 0.000000
vt 0.998370 0.310047
vt 0.983396 0.302496
vt 0.982424 0.000000
vt 0.893679 0.623285
vt 0.893068 0.927188
vt 0.883671 0.931926
vt 0.883060 0.623285
vt 0.896829 0.623285
vt 0.895856 0.925781
vt 0.880883 0.933332
vt 0.879910 0.623285
vt 0.896995 0.311649
vt 0.913915 0.311649
vt 0.912942 0.614145
vt 0.897968 0.621696
vt 0.883060 0.000000
vt 0.893679 0.000000
vt 0.893069 0.308641
vt 0.883671 0.303903
vt 0.896829 0.000000
vt 0.895856 0.310047
vt 0.879910 0.000000
vt 0.880883 0.302496
vt 0.973714 0.620102
vt 0.956795 0.620102
vt 0.957768 0.317605
vt 0.972741 0.310055
vt 0.936393 0.929513
vt 0.925774 0.929513
vt 0.926385 0.620872
vt 0.935782 0.625610
vt 0.922624 0.929513
vt 0.923597 0.619466
vt 0.939543 0.929513
vt 0.938570 0.627016
vt 0.948252 0.310047
vt 0.949225 0.000000
vt 0.964199 0.007550
vt 0.965172 0.310047
vt 0.934317 0.310047
vt 0.934928 0.006144
vt 0.944326 0.001406
vt 0.944936 0.310047
vt 0.931167 0.310047
vt 0.932140 0.007550
vt 0.947113 0.000000
vt 0.948086 0.310047
vt 0.990800 0.307907
vt 0.989827 0.617954
vt 0.974854 0.610403
vt 0.973881 0.307907
vt 0.979107 0.000000
vt 0.978496 0.303903
vt 0.969099 0.308641
vt 0.968488 0.000000
vt 0.982257 0.000000
vt 0.981284 0.302496
vt 0.966311 0.310047
vt 0.965338 0.000000
vt 0.914081 0.311649
vt 0.931000 0.311649
vt 0.930027 0.614145
vt 0.915054 0.621696
vt 0.883060 0.311642
vt 0.893679 0.311642
vt 0.893069 0.620283
vt 0.883671 0.615545
vt 0.896829 0.311642
vt 0.895856 0.621689
vt 0.879910 0.311642
vt 0.880883 0.614139
vt 0.589454 0.000000
vt 0.615952 0.000016
vt 0.615952 0.499996
vt 0.589454 0.499980
vt 0.626269 0.000016
vt 0.626269 0.499996
vt 0.589454 0.999962
vt 0.615952 0.999978
vt 0.626269 0.999978
vt 0.627897 0.000016
vt 0.651973 0.000016
vt 0.651973 0.499996
vt 0.627897 0.499996
vt 0.664711 0.000000
vt 0.664711 0.499980
vt 0.627897 0.999978
vt 0.651973 0.999978
vt 0.664711 0.999962
vt 0.675261 0.499980
vt 0.675261 0.000000
vt 0.701934 0.000038
vt 0.701934 0.500018
vt 0.666339 0.000000
vt 0.666339 0.499980
vt 0.675261 0.999962
vt 0.701934 1.000000
vt 0.666339 0.999962
vt 0.719556 0.499980
vt 0.719556 0.000000
vt 0.740376 0.000000
vt 0.740376 0.499980
vt 0.704782 0.000038
vt 0.704782 0.500018
vt 0.719556 0.999962
vt 0.740376 0.999962
vt 0.704782 1.000000
vt 0.294727 0.995748
vt 0.294727 0.000000
vt 0.586266 0.000000
vt 0.586266 0.995748
vt 0.000000 0.995748
vt 0.000000 0.000000
vt 0.291539 0.000000
vt 0.291539 0.995748
vt 0.803024 0.499980
vt 0.803024 0.000000
vt 0.830441 0.000000
vt 0.830441 0.499980
vt 0.803024 0.999962
vt 0.830441 0.999962
vt 0.832924 0.499980
vt 0.832924 0.000000
vt 0.860341 0.000000
vt 0.860341 0.499980
vt 0.832924 0.999962
vt 0.860341 0.999962
vt 0.773125 0.000000
vt 0.801937 0.000000
vt 0.801937 0.499980
vt 0.773125 0.499980
vt 0.773125 0.999962
vt 0.801937 0.999962
vt 0.743225 0.000000
vt 0.772037 0.000000
vt 0.772037 0.499980
vt 0.743225 0.499980
vt 0.743225 0.999962
vt 0.772037 0.999962
vt 0.871367 0.995748
vt 0.871367 0.000000
vt 0.877320 0.000000
vt 0.877320 0.995748
vt 0.862824 0.995748
vt 0.862824 0.000000
vt 0.868777 0.000000
vt 0.868777 0.995748
vn 0.000000 -1.000000 0.000000
vn 0.000000 -1.000000 0.000000
vn 0.000000 -1.000000 0.000000
vn 0.000000 -1.000000 0.000000
vn 0.001780 0.718471 0.695555
vn 0.001780 0.718471 0.695555
vn 0.001780 0.718471 0.695555
vn 0.001780 0.718471 0.695555
vn 0.001817 0.718024 -0.696016
vn 0.001817 0.718024 -0.696016
vn 0.001817 0.718024 -0.696016
vn 0.001817 0.718024 -0.696016
vn 0.000000 1.000000 0.000000
vn 0.000000 1.000000 0.000000
vn 0.000000 1.000000 0.000000
vn 0.000000 1.000000 0.000000
vn -1.000000 0.000000 0.000000
vn -1.000000 0.000000 0.000000
vn -1.000000 0.000000 0.000000
vn -1.000000 0.000000 0.000000
vn 0.892911 -0.000027 -0.450234
vn 0.892911 -0.000027 -0.450234
vn 0.892911 -0.000027 -0.450234
vn 0.892911 -0.000027 -0.450234
vn 0.000000 -1.000000 0.000000
vn 0.000000 -1.000000 0.000000
vn 0.000000 -1.000000 0.000000
vn 0.000000 -1.000000 0.000000
vn 0.001780 0.718449 -0.695577
vn 0.001780 0.718449 -0.695577
vn 0.001780 0.718449 -0.695577
vn 0.001780 0.718449 -0.695577
vn 0.001818 0.718023 0.696017
vn 0.001818 0.718023 0.696017
vn 0.001818 0.718023 0.696017
vn 0.001818 0.718023 0.696017
vn 0.000000 1.000000 0.000000
vn 0.000000 1.000000 0.000000
vn 0.000000 1.000000 0.000000
vn 0.000000 1.000000 0.000000
vn -1.000000 0.000003 0.000000
vn -1.000000 0.000003 0.000000
vn -1.000000 0.000003 0.000000
vn -1.000000 0.000003 0.000000
vn 0.892913 0.000000 0.450228
vn 0.892914 0.000000 0.450228
vn 0.892914 0.000000 0.450228
vn 0.892913 0.000000 0.450228
vn 0.000000 -1.000000 0.000000
vn 0.000000 -1.000000 0.000000
vn 0.000000 -1.000000 0.000000
vn 0.000000 -1.000000 0.000000
vn -0.001780 0.718471 0.695555
vn -0.001780 0.718471 0.695555
vn -0.001780 0.718471 0.695555
vn -0.001780 0.718471 0.695555
vn -0.001817 0.718024 -0.696016
vn -0.001817 0.718024 -0.696016
vn -0.001817 0.718024 -0.696016
vn -0.001817 0.718024 -0.696016
vn 0.000000 1.000000 0.000000
vn 0.000000 1.000000 0.000000
vn 0.000000 1.000000 0.000000
vn 0.000000 1.000000 0.000000
vn 1.000000 -0.000010 0.000000
vn 1.000000 -0.000010 0.000000
vn 1.000000 -0.000010 0.000000
vn 1.000000 -0.000010 0.000000
vn -0.892911 -0.000028 -0.450234
vn -0.892911 -0.000028 -0.450234
vn -0.892911 -0.000028 -0.450234
vn -0.892911 -0.000028 -0.450234
vn 0.000000 -1.000000 0.000000
vn 0.000000 -1.000000 0.000000
vn 0.000000 -1.000000 0.000000
vn 0.000000 -1.000000 0.000000
vn -0.001780 0.718449 -0.695577
vn -0.001780 0.718449 -0.695577
vn -0.001780 0.718449 -0.695577
vn -0.001780 0.718449 -0.695577
vn -0.001818 0.718023 0.696017
vn -0.001818 0.718023 0.696017
vn -0.001818 0.718023 0.696017
vn -0.001818 0.718023 0.696017
vn 0.000000 1.000000 0.000000
vn 0.000000 1.000000 0.000000
vn 0.000000 1.000000 0.000000
vn 0.000000 1.000000 0.000000
vn 1.000000 0.000000 0.000000
vn 1.000000 0.000000 0.000000
vn 1.000000 0.000000 0.000000
vn 1.000000 0.000000 0.000000
vn -0.892913 -0.000003 0.450228
vn -0.892913 -0.000003 0.450228
vn -0.892914 -0.000003 0.450228
vn -0.892914 -0.000003 0.450228
vn 0.000000 -1.000000 0.000000
vn 0.000000 -1.000000 0.000000
vn 0.000000 -1.000000 0.000000
vn 0.000000 -1.000000 0.000000
vn 0.001780 0.718471 0.695555
vn 0.001780 0.718471 0.695555
vn 0.001780 0.718471 0.695555
vn 0.001780 0.718471 0.695555
vn 0.001817 0.718024 -0.696016
vn 0.001817 0.718024 -0.696016
vn 0.001817 0.718024 -0.696016
vn 0.001817 0.718024 -0.696016
vn 0.000000 1.000000 0.000000
vn 0.000000 1.000000 0.000000
vn 0.000000 1.000000 0.000000
vn 0.000000 1.000000 0.000000
vn -1.000000 0.000000 0.000000
vn -1.000000 0.000000 0.000000
vn -1.000000 0.000000 0.000000
vn -1.000000 0.000000 0.000000
vn 0.892911 -0.000027 -0.450234
vn 0.892911 -0.000027 -0.450234
vn 0.892911 -0.000027 -0.450234
vn 0.892911 -0.000027 -0.450234
vn 0.000000 -1.000000 0.000000
vn 0.000000 -1.000000 0.000000
vn 0.000000 -1.000000 0.000000
vn 0.000000 -1.000000 0.000000
vn 0.001780 0.718449 -0.695577
vn 0.001780 0.718449 -0.695577
vn 0.001780 0.718449 -0.695577
vn 0.001780 0.718449 -0.695577
vn 0.001818 0.718023 0.696017
vn 0.001818 0.718023 0.696017
vn 0.001818 0.718023 0.696017
vn 0.001818 0.718023 0.696017
vn 0.000000 1.000000 0.000000
vn 0.000000 1.000000 0.000000
vn 0.000000 1.000000 0.000000
vn 0.000000 1.000000 0.000000
vn -1.000000 0.000003 0.000000
vn -1.000000 0.000003 0.000000
vn -1.000000 0.000003 0.000000
vn -1.000000 0.000003 0.000000
vn 0.892913 0.000000 0.450228
vn 0.892914 0.000000 0.450228
vn 0.892914 0.000000 0.450228
vn 0.892913 0.000000 0.450228
vn 0.000000 -1.000000 0.000000
vn 0.000000 -1.000000 0.000000
vn 0.000000 -1.000000 0.000000
vn 0.000000 -1.000000 0.000000
vn -0.001780 0.718471 0.695555
vn -0.001780 0.718471 0.695555
vn -0.001780 0.718471 0.695555
vn -0.001780 0.718471 0.695555
vn -0.001817 0.718024 -0.696016
vn -0.001817 0.718024 -0.696016
vn -0.001817 0.718024 -0.696016
vn -0.001817 0.718024 -0.696016
vn 0.000000 1.000000 0.000000
vn 0.000000 1.000000 0.000000
vn 0.000000 1.000000 0.000000
vn 0.000000 1.000000 0.000000
vn 1.000000 -0.000010 0.000000
vn 1.000000 -0.000010 0.000000
vn 1.000000 -0.000010 0.000000
vn 1.000000 -0.000010 0.000000
vn -0.892911 -0.000028 -0.450234
vn -0.892911 -0.000028 -0.450234
vn -0.892911 -0.000028 -0.450234
vn -0.892911 -0.000028 -0.450234
vn 0.000000 -1.000000 0.000000
vn 0.000000 -1.000000 0.000000
vn 0.000000 -1.000000 0.000000
vn 0.000000 -1.000000 0.000000
vn -0.001780 0.718449 -0.695577
vn -0.001780 0.718449 -0.695577
vn -0.001780 0.718449 -0.695577
vn -0.001780 0.718449 -0.695577
vn -0.001818 0.718023 0.696017
vn -0.001818 0.718023 0.696017
vn -0.001818 0.718023 0.696017
vn -0.001818 0.718023 0.696017
vn 0.000000 1.000000 0.000000
vn 0.000000 1.000000 0.000000
vn 0.000000 1.000000 0.000000
vn 0.000000 1.000000 0.000000
vn 1.000000 0.000000 0.000000
vn 1.000000 0.000000 0.000000
vn 1.000000 0.000000 0.000000
vn 1.000000 0.000000 0.000000
vn -0.892913 -0.000003 0.450228
vn -0.892913 -0.000003 0.450228
vn -0.892914 -0.000003 0.450228
vn -0.892914 -0.000003 0.450228
vn 1.000000 0.000000 0.000606
vn 1.000000 0.000221 0.000835
vn 1.000000 0.000064 0.000420
vn 1.000000 0.000179 0.000491
vn 1.000000 0.000000 0.000000
vn 1.000000 0.000000 0.000000
vn -1.000000 0.000000 0.000000
vn -1.000000 -0.000180 -0.000491
vn -1.000000 0.000000 0.000000
vn -1.000000 0.000000 -0.000606
vn -1.000000 -0.000064 -0.000420
vn -1.000000 -0.000222 -0.000835
vn 0.000000 -0.707094 0.707119
vn 0.000000 -0.707094 0.707119
vn 0.000000 -0.707094 0.707120
vn 0.000000 -0.707094 0.707120
vn 0.000000 -0.707094 0.707120
vn 0.000000 -0.707094 0.707120
vn 0.000000 0.000000 1.000000
vn 0.000000 0.000000 1.000000
vn 0.000000 0.000000 1.000000
vn 0.000000 0.000000 1.000000
vn 0.000000 -1.000000 0.000000
vn 0.000000 -1.000000 0.000000
vn 0.000000 -1.000000 -0.000000
vn 0.000000 -1.000000 -0.000000
vn 0.000000 0.000000 1.000000
vn 0.000000 0.000000 1.000000
vn 0.000000 -1.000000 -0.000000
vn 0.000000 -1.000000 -0.000000
vn 0.000000 0.777085 -0.629396
vn 0.000000 0.777085 -0.629396
vn 0.000000 0.777085 -0.629396
vn 0.000000 0.777085 -0.629396
vn 0.000000 0.777085 -0.629396
vn 0.000000 0.777085 -0.629396
vn 0.000000 1.000000 0.000000
vn 0.000000 1.000000 0.000000
vn 0.000000 1.000000 0.000000
vn 0.000000 1.000000 0.000000
vn 0.000000 0.000000 -1.000000
vn 0.000000 0.000000 -1.000000
vn 0.000000 0.000000 -1.000000
vn 0.000000 0.000000 -1.000000
vn 0.000000 1.000000 0.000000
vn 0.000000 1.000000 0.000000
vn 0.000000 0.000000 -1.000000
vn 0.000000 0.000000 -1.000000
vn 0.999999 0.000000 0.001423
vn 0.999999 -0.000143 0.001088
vn 0.999998 -0.000418 0.001874
vn 0.999999 -0.000379 0.001198
vn 1.000000 -0.000002 0.000000
vn 1.000000 0.000000 0.000000
vn -0.999999 0.000000 -0.001423
vn -0.999998 0.000417 -0.001874
vn -0.999999 0.000142 -0.001088
vn -0.999999 0.000378 -0.001198
vn -1.000000 0.000001 0.000000
vn -1.000000 0.000000 0.000000
vn 0.000000 -0.707106 -0.707107
vn 0.000000 -0.707106 -0.707107
vn 0.000000 -0.707106 -0.707107
vn 0.000000 -0.707106 -0.707107
vn 0.000000 -0.707106 -0.707107
vn 0.000000 -0.707106 -0.707107
vn 0.000000 -1.000000 -0.000000
vn 0.000000 -1.000000 -0.000000
vn 0.000000 -1.000000 -0.000000
vn 0.000000 -1.000000 -0.000000
vn 0.000000 0.000000 -1.000000
vn 0.000000 0.000000 -1.000000
vn 0.000000 0.000000 -1.000000
vn 0.000000 0.000000 -1.000000
vn 0.000000 -1.000000 -0.000000
vn 0.000000 -1.000000 -0.000000
vn 0.000000 0.000000 -1.000000
vn 0.000000 0.000000 -1.000000
vn 0.000000 0.856031 0.516924
vn 0.000000 0.856031 0.516924
vn 0.000000 0.856031 0.516924
vn 0.000000 0.856031 0.516924
vn 0.000000 0.856032 0.516924
vn 0.000000 0.856032 0.516924
vn 0.000000 0.000000 1.000000
vn 0.000000 0.000000 1.000000
vn 0.000000 0.000000 1.000000
vn 0.000000 0.000000 1.000000
vn 0.000000 1.000000 0.000000
vn 0.000000 1.000000 0.000000
vn 0.000000 1.000000 0.000000
vn 0.000000 1.000000 0.000000
vn 0.000000 0.000000 1.000000
vn 0.000000 0.000000 1.000000
vn 0.000000 1.000000 0.000000
vn 0.000000 1.000000 0.000000
vn 0.000000 0.000000 1.000000
vn 0.000000 0.000000 1.000000
vn 0.000000 0.000000 1.000000
vn 0.000000 0.000000 1.000000
vn 0.000000 1.000000 0.000000
vn 0.000000 1.000000 0.000000
vn 0.000000 1.000000 0.000000
vn 0.000000 1.000000 0.000000
vn 0.000000 0.000000 -1.000000
vn 0.000000 0.000000 -1.000000
vn 0.000000 0.000000 -1.000000
vn 0.000000 0.000000 -1.000000
vn 0.000000 -1.000000 0.000000
vn 0.000000 -1.000000 0.000000
vn 0.000000 -1.000000 0.000000
vn 0.000000 -1.000000 0.000000
vn 1.000000 0.000000 0.000000
vn 1.000000 0.000000 0.000000
vn 1.000000 0.000000 0.000000
vn 1.000000 0.000000 0.000000
vn -1.000000 0.000000 0.000000
vn -1.000000 0.000000 0.000000
vn -1.000000 0.000000 0.000000
vn -1.000000 0.000000 0.000000
s off
g Bridge_walkway_MID_01
usemtl initialShadingGroup
f 1/97/1 2/98/2 5/99/3 6/100/4
f 3/102/5 1/105/6 6/106/7 8/103/8
f 2/107/9 4/101/10 7/104/11 5/108/12
f 4/101/13 3/102/14 8/103/15 7/104/16
f 1/1/17 3/2/18 4/3/19 2/4/20
f 6/5/21 5/6/22 7/7/23 8/8/24
f 9/109/25 14/110/26 13/111/27 10/112/28
f 11/116/29 16/115/30 14/119/31 9/120/32
f 10/117/33 13/118/34 15/114/35 12/113/36
f 12/113/37 15/114/38 16/115/39 11/116/40
f 9/9/41 10/10/42 12/11/43 11/12/44
f 14/13/45 16/14/46 15/15/47 13/16/48
f 17/121/49 22/122/50 21/123/51 18/124/52
f 19/128/53 24/127/54 22/131/55 17/132/56
f 18/129/57 21/130/58 23/126/59 20/125/60
f 20/125/61 23/126/62 24/127/63 19/128/64
f 17/17/65 18/18/66 20/19/67 19/20/68
f 22/21/69 24/22/70 23/23/71 21/24/72
f 25/133/73 26/134/74 29/135/75 30/136/76
f 27/138/77 25/141/78 30/142/79 32/139/80
f 26/143/81 28/137/82 31/140/83 29/144/84
f 28/137/85 27/138/86 32/139/87 31/140/88
f 25/25/89 27/26/90 28/27/91 26/28/92
f 30/29/93 29/30/94 31/31/95 32/32/96
f 33/145/97 34/146/98 37/147/99 38/148/100
f 35/150/101 33/153/102 38/154/103 40/151/104
f 34/155/105 36/149/106 39/152/107 37/156/108
f 36/149/109 35/150/110 40/151/111 39/152/112
f 33/33/113 35/34/114 36/35/115 34/36/116
f 38/37/117 37/38/118 39/39/119 40/40/120
f 41/157/121 46/158/122 45/159/123 42/160/124
f 43/164/125 48/163/126 46/167/127 41/168/128
f 42/165/129 45/166/130 47/162/131 44/161/132
f 44/161/133 47/162/134 48/163/135 43/164/136
f 41/41/137 42/42/138 44/43/139 43/44/140
f 46/45/141 48/46/142 47/47/143 45/48/144
f 49/169/145 54/170/146 53/171/147 50/172/148
f 51/176/149 56/175/150 54/179/151 49/180/152
f 50/177/153 53/178/154 55/174/155 52/173/156
f 52/173/157 55/174/158 56/175/159 51/176/160
f 49/49/161 50/50/162 52/51/163 51/52/164
f 54/53/165 56/54/166 55/55/167 53/56/168
f 57/181/169 58/182/170 61/183/171 62/184/172
f 59/186/173 57/189/174 62/190/175 64/187/176
f 58/191/177 60/185/178 63/188/179 61/192/180
f 60/185/181 59/186/182 64/187/183 63/188/184
f 57/57/185 59/58/186 60/59/187 58/60/188
f 62/61/189 61/62/190 63/63/191 64/64/192
s 1
f 66/65/193 78/66/194 71/67/195
f 78/66/194 77/68/196 71/67/195
f 71/67/195 77/68/196 72/69/197
f 72/69/197 77/68/196 65/70/198
s 2
f 69/71/199 82/72/200 75/73/201
f 70/76/202 76/74/203 81/75/204
f 81/75/204 76/74/203 82/72/200
f 76/74/203 75/73/201 82/72/200
s 4
f 71/194/205 72/197/206 74/198/207 73/195/208
f 73/195/208 74/198/207 75/201/209 76/200/210
s 5
f 74/237/211 72/238/212 65/239/213 67/240/214
s 6
f 66/193/215 71/194/216 73/195/217 68/196/218
s 5
f 75/241/219 74/237/211 67/240/214 69/242/220
s 6
f 70/199/221 68/196/218 73/195/217 76/200/222
s 7
f 77/203/223 78/206/224 80/207/225 79/204/226
f 79/204/226 80/207/225 81/210/227 82/209/228
s 8
f 65/202/229 77/203/230 79/204/231 67/205/232
s 9
f 80/243/233 78/244/234 66/245/235 68/246/236
s 8
f 69/208/237 67/205/232 79/204/231 82/209/238
s 9
f 81/247/239 80/243/233 68/246/236 70/248/240
s 10
f 83/77/241 90/78/242 95/79/243
f 95/79/243 90/78/242 96/80/244
f 90/78/242 89/81/245 96/80/244
f 89/81/245 84/82/246 96/80/244
s 11
f 87/83/247 100/84/248 93/85/249
f 100/84/248 99/86/250 93/85/249
f 93/85/249 99/86/250 94/87/251
f 99/86/250 88/88/252 94/87/251
s 12
f 89/215/253 90/212/254 92/211/255 91/216/256
f 91/216/256 92/211/255 93/217/257 94/219/258
s 13
f 92/211/259 90/212/260 83/213/261 85/214/262
s 14
f 84/249/263 89/250/264 91/251/265 86/252/266
s 13
f 93/217/267 92/211/259 85/214/262 87/218/268
s 14
f 88/253/269 86/252/266 91/251/265 94/254/270
s 15
f 95/224/271 96/221/272 98/220/273 97/225/274
f 97/225/274 98/220/273 99/226/275 100/228/276
s 16
f 83/255/277 95/256/278 97/257/279 85/258/280
s 17
f 98/220/281 96/221/282 84/222/283 86/223/284
s 16
f 87/259/285 85/258/280 97/257/279 100/260/286
s 17
f 99/226/287 98/220/281 86/223/284 88/227/288
s off
f 101/261/289 102/262/290 104/263/291 103/264/292
f 103/229/293 104/230/294 106/231/295 105/232/296
f 105/265/297 106/266/298 108/267/299 107/268/300
f 107/233/301 108/234/302 102/235/303 101/236/304
f 102/89/305 108/90/306 106/91/307 104/92/308
f 107/93/309 101/94/310 103/95/311 105/96/312
