# This file uses meters as units for non-parametric coordinates.

mtllib Empty house 04.mtl
g default
v 131.667480 266.928833 102.413330
v 131.667480 266.928833 -129.573242
v -126.524414 266.928833 102.413330
v -126.524414 266.928833 -129.573242
v 139.643555 263.202728 109.579346
v 139.643555 263.202728 -136.739258
v 139.643555 266.928833 -136.739258
v 139.643555 266.928833 109.579346
v -134.499756 266.928833 109.579346
v -134.499756 266.928833 -136.739258
v -134.499756 263.202728 -136.739258
v -134.499756 263.202728 109.579346
v 139.643555 202.624603 -136.739258
v 139.643555 202.624603 109.579346
v -134.499756 202.624603 109.579346
v -134.499756 202.624603 -136.739258
v 139.643555 173.424530 -107.087891
v 139.643555 173.424530 139.230713
v -134.499756 173.424530 139.230713
v -134.499756 173.424530 -107.087891
v 139.643555 1.309650 -107.087891
v 139.643555 1.309650 139.230713
v -134.499756 1.309650 139.230713
v -134.499756 1.309650 -107.087891
vt 0.677737 0.315568
vt 0.677737 0.000000
vt 0.682511 0.000000
vt 0.682511 0.315568
vt 0.600128 0.315568
vt 0.600128 0.000000
vt 0.562719 0.353556
vt 0.562719 0.037987
vt 0.342216 0.353556
vt 0.342216 0.037987
vt 0.340295 0.037988
vt 0.340295 0.353556
vt 0.335521 0.353556
vt 0.335521 0.037988
vt 0.257912 0.353556
vt 0.257912 0.037988
vt 0.220503 0.315568
vt 0.220503 0.000000
vt 0.000000 0.315568
vt 0.000000 0.000000
vt 0.693612 0.362785
vt 0.990819 0.362785
vt 0.990819 0.693564
vt 0.693612 0.693564
vt 0.684432 0.352566
vt 1.000000 0.352566
vt 1.000000 0.703782
vt 0.684432 0.703782
vt 0.684432 0.000000
vt 1.000000 0.000000
vt 1.000000 0.351215
vt 0.684432 0.351215
vt 0.346990 0.354906
vt 0.346990 0.706122
vt 0.342216 0.706122
vt 0.342216 0.354906
vt 0.424599 0.354906
vt 0.424599 0.706122
vt 0.462008 0.354906
vt 0.462008 0.706122
vt 0.682511 0.354906
vt 0.682511 0.706122
vt 0.335521 0.706122
vt 0.335521 0.354906
vt 0.340295 0.354906
vt 0.340295 0.706122
vt 0.257912 0.706122
vt 0.257912 0.354906
vt 0.220503 0.706122
vt 0.220503 0.354906
vt 0.000000 0.706122
vt 0.000000 0.354906
vn 1.000000 0.000000 0.000000
vn 1.000000 0.000000 0.000000
vn 1.000000 0.000000 0.000000
vn 1.000000 0.000000 0.000000
vn 0.000000 1.000000 0.000000
vn 0.000000 1.000000 0.000000
vn 0.000000 1.000000 0.000000
vn 0.000000 1.000000 0.000000
vn -1.000000 0.000000 0.000000
vn -1.000000 0.000000 0.000000
vn -1.000000 0.000000 0.000000
vn -1.000000 0.000000 0.000000
vn 0.000000 0.000000 -1.000000
vn 0.000000 0.000000 -1.000000
vn 0.000000 0.000000 -1.000000
vn 0.000000 0.000000 -1.000000
vn 0.000000 0.000000 1.000000
vn 0.000000 0.000000 1.000000
vn 0.000000 0.000000 1.000000
vn 0.000000 0.000000 1.000000
vn 0.000000 1.000000 0.000000
vn 0.000000 1.000000 0.000000
vn 0.000000 1.000000 0.000000
vn 0.000000 1.000000 0.000000
vn 0.000000 1.000000 0.000000
vn 0.000000 1.000000 0.000000
vn 0.000000 1.000000 0.000000
vn 0.000000 1.000000 0.000000
vn 0.000000 1.000000 0.000002
vn 0.000000 1.000000 0.000002
vn 0.000000 1.000000 0.000002
vn 0.000000 1.000000 0.000002
vn 0.000000 1.000000 -0.000001
vn 0.000000 1.000000 -0.000001
vn 0.000000 1.000000 -0.000001
vn 0.000000 1.000000 -0.000001
vn 1.000000 0.000000 0.000000
vn 1.000000 0.000000 0.000000
vn 1.000000 0.000000 0.000000
vn 1.000000 0.000000 0.000000
vn -1.000000 0.000000 0.000000
vn -1.000000 0.000000 0.000000
vn -1.000000 0.000000 0.000000
vn -1.000000 0.000000 0.000000
vn 0.000000 0.000000 -1.000000
vn 0.000000 0.000000 -1.000000
vn 0.000000 0.000000 -1.000000
vn 0.000000 0.000000 -1.000000
vn 0.000000 0.000000 1.000000
vn 0.000000 0.000000 1.000000
vn 0.000000 0.000000 1.000000
vn 0.000000 0.000000 1.000000
vn 1.000000 0.000000 0.000000
vn 1.000000 0.000000 0.000000
vn 1.000000 0.000000 0.000000
vn 1.000000 0.000000 0.000000
vn -1.000000 0.000000 0.000000
vn -1.000000 0.000000 0.000000
vn -1.000000 0.000000 0.000000
vn -1.000000 0.000000 0.000000
vn 0.000000 -0.712508 -0.701664
vn 0.000000 -0.712508 -0.701664
vn 0.000000 -0.712508 -0.701664
vn 0.000000 -0.712508 -0.701664
vn 0.000000 0.712508 0.701664
vn 0.000000 0.712508 0.701664
vn 0.000000 0.712508 0.701664
vn 0.000000 0.712508 0.701664
vn 1.000000 0.000000 0.000000
vn 1.000000 0.000000 0.000000
vn 1.000000 0.000000 0.000000
vn 1.000000 0.000000 0.000000
vn -1.000000 0.000000 0.000000
vn -1.000000 0.000000 0.000000
vn -1.000000 0.000000 0.000000
vn -1.000000 0.000000 0.000000
vn 0.000000 0.000000 -1.000000
vn 0.000000 0.000000 -1.000000
vn 0.000000 0.000000 -1.000000
vn 0.000000 0.000000 -1.000000
vn 0.000000 0.000000 1.000000
vn 0.000000 0.000000 1.000000
vn 0.000000 0.000000 1.000000
vn 0.000000 0.000000 1.000000
vn 0.000000 -1.000000 0.000000
vn 0.000000 -1.000000 0.000000
vn 0.000000 -1.000000 0.000000
vn 0.000000 -1.000000 0.000000
s off
g Empty_house_04
usemtl initialShadingGroup
f 5/1/1 6/2/2 7/3/3 8/4/4
f 1/21/5 2/22/6 4/23/7 3/24/8
f 9/11/9 10/12/10 11/13/11 12/14/12
f 6/33/13 11/34/14 10/35/15 7/36/16
f 12/43/17 5/44/18 8/45/19 9/46/20
f 2/22/21 1/21/22 8/25/23 7/26/24
f 3/24/25 4/23/26 10/27/27 9/28/28
f 4/23/29 2/22/30 7/26/31 10/27/32
f 1/21/33 3/24/34 9/28/35 8/25/36
f 6/2/37 5/1/38 14/5/39 13/6/40
f 12/14/41 11/13/42 16/15/43 15/16/44
f 11/34/45 6/33/46 13/37/47 16/38/48
f 5/44/49 12/43/50 15/47/51 14/48/52
f 13/6/53 14/5/54 18/7/55 17/8/56
f 15/16/57 16/15/58 20/17/59 19/18/60
f 16/38/61 13/37/62 17/39/63 20/40/64
f 14/48/65 15/47/66 19/49/67 18/50/68
f 17/8/69 18/7/70 22/9/71 21/10/72
f 19/18/73 20/17/74 24/19/75 23/20/76
f 20/40/77 17/39/78 21/41/79 24/42/80
f 18/50/81 19/49/82 23/51/83 22/52/84
f 21/29/85 22/30/86 23/31/87 24/32/88
