# This file uses meters as units for non-parametric coordinates.

mtllib ImageSign_04.mtl
g default
v 70.296021 -93.790520 -87.392380
v 40.222473 -120.390602 -87.392380
v 191.140381 -93.790497 -87.392380
v 170.332214 -120.390541 -87.392380
v 191.140381 -93.790497 -90.674347
v 170.332214 -120.390541 -90.674347
v 70.296021 -93.790520 -90.674347
v 40.222473 -120.390602 -90.674347
v 92.031311 -14.600779 -90.674347
v 61.957703 -33.010674 -90.674347
v 61.957703 -33.010674 -87.392380
v 92.031311 -14.600779 -87.392380
v -40.025818 -14.600710 -90.674347
v -23.958557 -33.010674 -90.674347
v -23.958557 -33.010674 -87.392380
v -40.025818 -14.600710 -87.392380
v -79.214111 20.287130 -87.392380
v -42.286316 20.287130 -87.392380
v -191.120911 147.549667 -87.392380
v -132.116394 126.024918 -87.392380
v -191.120911 147.549667 -90.674347
v -132.116394 126.024918 -90.674347
v -79.214111 20.287130 -90.674347
v -42.286316 20.287130 -90.674347
v -152.575317 -11.652452 -90.674347
v -115.647552 -11.652452 -90.674347
v -115.647552 -11.652452 -87.392380
v -152.575317 -11.652452 -87.392380
v -61.248108 -122.443008 -90.674347
v -6.107117 -144.519669 -90.674347
v -6.107117 -144.519669 -87.392380
v -61.248108 -122.443008 -87.392380
v -20.239929 20.287130 -87.392380
v 16.687805 20.287130 -87.392380
v -110.070068 126.024918 -87.392380
v -66.519226 111.675064 -87.392380
v -110.070068 126.024918 -90.674347
v -66.519226 111.675064 -90.674347
v -20.239929 20.287130 -90.674347
v 16.687805 20.287130 -90.674347
v -93.601135 -11.652452 -90.674347
v -56.673401 -11.652452 -90.674347
v -56.673401 -11.652452 -87.392380
v -93.601135 -11.652452 -87.392380
v 8.212463 -143.415848 -90.674347
v 34.653870 -122.443008 -90.674347
v 34.653870 -122.443008 -87.392380
v 8.212463 -143.415848 -87.392380
v 77.376831 -8.994946 -87.392380
v 53.992798 -8.995235 -87.392380
v 77.376831 -8.994946 -90.674347
v 53.992798 -8.995235 -90.674347
v 99.112122 87.792252 -90.674347
v 71.746216 69.382385 -90.674347
v 71.746216 69.382385 -87.392380
v 99.112122 87.792252 -87.392380
v -32.945007 87.792328 -90.674347
v -16.877747 69.382370 -90.674347
v -16.877747 69.382370 -87.392380
v -32.945007 87.792328 -87.392380
vt 0.375000 0.000000
vt 0.625000 0.000000
vt 0.375000 0.250000
vt 0.625000 0.250000
vt 0.375000 0.500000
vt 0.625000 0.500000
vt 0.375000 0.750000
vt 0.625000 0.750000
vt 0.375000 1.000000
vt 0.625000 1.000000
vt 0.875000 0.000000
vt 0.875000 0.250000
vt 0.125000 0.000000
vt 0.125000 0.250000
vt 0.375000 0.750000
vt 0.625000 0.750000
vt 0.625000 1.000000
vt 0.375000 1.000000
vt 0.375000 0.750000
vt 0.625000 0.750000
vt 0.625000 1.000000
vt 0.375000 1.000000
vt 0.375000 0.000000
vt 0.625000 0.000000
vt 0.625000 0.250000
vt 0.375000 0.250000
vt 0.625000 0.500000
vt 0.375000 0.500000
vt 0.625000 0.750000
vt 0.375000 0.750000
vt 0.375000 0.750000
vt 0.625000 0.750000
vt 0.625000 1.000000
vt 0.375000 1.000000
vt 0.875000 0.000000
vt 0.875000 0.250000
vt 0.125000 0.000000
vt 0.125000 0.250000
vt 0.625000 0.750000
vt 0.375000 0.750000
vt 0.625000 1.000000
vt 0.625000 1.000000
vt 0.375000 1.000000
vt 0.375000 1.000000
vt 0.375000 0.000000
vt 0.625000 0.000000
vt 0.625000 0.250000
vt 0.375000 0.250000
vt 0.625000 0.500000
vt 0.375000 0.500000
vt 0.625000 0.750000
vt 0.375000 0.750000
vt 0.375000 0.750000
vt 0.625000 0.750000
vt 0.625000 1.000000
vt 0.375000 1.000000
vt 0.875000 0.000000
vt 0.875000 0.250000
vt 0.125000 0.000000
vt 0.125000 0.250000
vt 0.625000 0.750000
vt 0.375000 0.750000
vt 0.625000 1.000000
vt 0.625000 1.000000
vt 0.375000 1.000000
vt 0.375000 1.000000
vt 0.375000 0.750000
vt 0.625000 0.750000
vt 0.625000 1.000000
vt 0.375000 1.000000
vt 0.375000 0.750000
vt 0.625000 0.750000
vt 0.625000 0.750000
vt 0.375000 0.750000
vt 0.625000 1.000000
vt 0.625000 1.000000
vt 0.375000 1.000000
vt 0.375000 1.000000
vn -0.000000 0.000000 1.000000
vn -0.000000 0.000000 1.000000
vn -0.000000 0.000000 1.000000
vn -0.000000 0.000000 1.000000
vn 0.787638 -0.616138 0.000000
vn 0.787638 -0.616138 0.000000
vn 0.787638 -0.616138 0.000000
vn 0.787638 -0.616138 0.000000
vn -0.000000 0.000000 -1.000000
vn -0.000000 0.000000 -1.000000
vn -0.000000 0.000000 -1.000000
vn -0.000000 0.000000 -1.000000
vn -0.753417 -0.657543 0.000000
vn -0.753417 -0.657543 0.000000
vn -0.753417 -0.657543 0.000000
vn -0.753417 -0.657543 0.000000
vn 0.000000 -1.000000 0.000000
vn 0.000000 -1.000000 0.000000
vn 0.000000 -1.000000 0.000000
vn 0.000000 -1.000000 0.000000
vn -0.000000 1.000000 0.000000
vn -0.000000 1.000000 0.000000
vn -0.000000 1.000000 0.000000
vn -0.000000 1.000000 0.000000
vn 0.000000 0.000000 -1.000000
vn 0.000000 0.000000 -1.000000
vn 0.000000 0.000000 -1.000000
vn 0.000000 0.000000 -1.000000
vn -0.970429 0.241388 0.000000
vn -0.970429 0.241388 0.000000
vn -0.970429 0.241388 0.000000
vn -0.970429 0.241388 0.000000
vn 0.000000 0.000000 1.000000
vn 0.000000 0.000000 1.000000
vn 0.000000 0.000000 1.000000
vn 0.000000 0.000000 1.000000
vn 0.964336 -0.264682 0.000000
vn 0.964336 -0.264682 0.000000
vn 0.964336 -0.264682 0.000000
vn 0.964336 -0.264682 0.000000
vn -0.000000 0.000000 -1.000000
vn -0.000000 0.000000 -1.000000
vn -0.000000 0.000000 -1.000000
vn -0.000000 0.000000 -1.000000
vn 0.000000 -1.000000 0.000000
vn 0.000000 -1.000000 0.000000
vn 0.000000 -1.000000 0.000000
vn 0.000000 -1.000000 0.000000
vn 0.000000 0.000000 1.000000
vn 0.000000 0.000000 1.000000
vn 0.000000 0.000000 1.000000
vn 0.000000 0.000000 1.000000
vn 0.000001 1.000000 0.000000
vn 0.000001 1.000000 0.000000
vn 0.000001 1.000000 0.000000
vn 0.000001 1.000000 0.000000
vn 0.000000 0.000000 1.000000
vn 0.000000 0.000000 1.000000
vn 0.000000 0.000000 1.000000
vn 0.000000 0.000000 1.000000
vn 0.342707 0.939442 0.000000
vn 0.342707 0.939442 0.000000
vn 0.342707 0.939442 0.000000
vn 0.342707 0.939442 0.000000
vn 0.000000 0.000000 -1.000000
vn 0.000000 0.000000 -1.000000
vn 0.000000 0.000000 -1.000000
vn 0.000000 0.000000 -1.000000
vn -0.371685 -0.928359 0.000000
vn -0.371685 -0.928359 0.000000
vn -0.371685 -0.928359 0.000000
vn -0.371685 -0.928359 0.000000
vn 0.762107 0.647451 0.000000
vn 0.762107 0.647451 0.000000
vn 0.762107 0.647451 0.000000
vn 0.762107 0.647451 0.000000
vn -0.750960 -0.660347 0.000000
vn -0.750960 -0.660347 0.000000
vn -0.750960 -0.660347 0.000000
vn -0.750960 -0.660347 0.000000
vn 0.000000 0.000000 -1.000000
vn 0.000000 0.000000 -1.000000
vn 0.000000 0.000000 -1.000000
vn 0.000000 0.000000 -1.000000
vn 0.399182 -0.916872 0.000000
vn 0.399182 -0.916872 0.000000
vn 0.399182 -0.916872 0.000000
vn 0.399182 -0.916872 0.000000
vn 0.000000 0.000000 1.000000
vn 0.000000 0.000000 1.000000
vn 0.000000 0.000000 1.000000
vn 0.000000 0.000000 1.000000
vn -0.399182 0.916872 0.000000
vn -0.399182 0.916872 0.000000
vn -0.399182 0.916872 0.000000
vn -0.399182 0.916872 0.000000
vn 0.000000 0.000000 -1.000000
vn 0.000000 0.000000 -1.000000
vn 0.000000 0.000000 -1.000000
vn 0.000000 0.000000 -1.000000
vn 0.771588 0.636123 0.000000
vn 0.771588 0.636123 0.000000
vn 0.771588 0.636123 0.000000
vn 0.771588 0.636123 0.000000
vn -0.000000 0.000000 1.000000
vn -0.000000 0.000000 1.000000
vn -0.000000 0.000000 1.000000
vn -0.000000 0.000000 1.000000
vn -0.771629 -0.636073 0.000000
vn -0.771629 -0.636073 0.000000
vn -0.771629 -0.636073 0.000000
vn -0.771629 -0.636073 0.000000
vn 0.000000 0.000000 1.000000
vn 0.000000 0.000000 1.000000
vn 0.000000 0.000000 1.000000
vn 0.000000 0.000000 1.000000
vn 0.312946 0.949771 0.000000
vn 0.312946 0.949771 0.000000
vn 0.312946 0.949771 0.000000
vn 0.312946 0.949771 0.000000
vn 0.000000 0.000000 -1.000000
vn 0.000000 0.000000 -1.000000
vn 0.000000 0.000000 -1.000000
vn 0.000000 0.000000 -1.000000
vn 0.621432 -0.783468 0.000000
vn 0.621432 -0.783468 0.000000
vn 0.621432 -0.783468 0.000000
vn 0.621432 -0.783468 0.000000
vn 0.739428 0.673236 0.000000
vn 0.739428 0.673236 0.000000
vn 0.739428 0.673236 0.000000
vn 0.739428 0.673236 0.000000
vn -0.762107 -0.647451 0.000000
vn -0.762107 -0.647451 0.000000
vn -0.762107 -0.647451 0.000000
vn -0.762107 -0.647451 0.000000
vn 0.000000 0.000000 -1.000000
vn 0.000000 0.000000 -1.000000
vn 0.000000 0.000000 -1.000000
vn 0.000000 0.000000 -1.000000
vn 0.399182 -0.916872 0.000000
vn 0.399182 -0.916872 0.000000
vn 0.399182 -0.916872 0.000000
vn 0.399182 -0.916872 0.000000
vn 0.000000 0.000000 1.000000
vn 0.000000 0.000000 1.000000
vn 0.000000 0.000000 1.000000
vn 0.000000 0.000000 1.000000
vn -0.399182 0.916872 0.000000
vn -0.399182 0.916872 0.000000
vn -0.399182 0.916872 0.000000
vn -0.399182 0.916872 0.000000
vn 0.000000 0.000000 -1.000000
vn 0.000000 0.000000 -1.000000
vn 0.000000 0.000000 -1.000000
vn 0.000000 0.000000 -1.000000
vn 0.771629 0.636073 0.000000
vn 0.771629 0.636073 0.000000
vn 0.771629 0.636073 0.000000
vn 0.771629 0.636073 0.000000
vn 0.000000 0.000000 1.000000
vn 0.000000 0.000000 1.000000
vn 0.000000 0.000000 1.000000
vn 0.000000 0.000000 1.000000
vn -0.791295 -0.611435 0.000000
vn -0.791295 -0.611435 0.000000
vn -0.791295 -0.611435 0.000000
vn -0.791295 -0.611435 0.000000
vn -0.753417 -0.657543 0.000000
vn -0.753417 -0.657543 0.000000
vn -0.753417 -0.657543 0.000000
vn -0.753417 -0.657543 0.000000
vn 0.000000 0.000000 -1.000000
vn 0.000000 0.000000 -1.000000
vn 0.000000 0.000000 -1.000000
vn 0.000000 0.000000 -1.000000
vn -0.975293 0.220915 0.000000
vn -0.975293 0.220915 0.000000
vn -0.975293 0.220915 0.000000
vn -0.975293 0.220915 0.000000
vn 0.000000 0.000000 1.000000
vn 0.000000 0.000000 1.000000
vn 0.000000 0.000000 1.000000
vn 0.000000 0.000000 1.000000
vn 0.975700 -0.219111 0.000000
vn 0.975700 -0.219111 0.000000
vn 0.975700 -0.219111 0.000000
vn 0.975700 -0.219111 0.000000
vn 0.000000 0.000000 -1.000000
vn 0.000000 0.000000 -1.000000
vn 0.000000 0.000000 -1.000000
vn 0.000000 0.000000 -1.000000
vn 0.000000 -1.000000 0.000000
vn 0.000000 -1.000000 0.000000
vn 0.000000 -1.000000 0.000000
vn 0.000000 -1.000000 0.000000
vn 0.000000 0.000000 1.000000
vn 0.000000 0.000000 1.000000
vn 0.000000 0.000000 1.000000
vn 0.000000 0.000000 1.000000
vn 0.000001 1.000000 0.000000
vn 0.000001 1.000000 0.000000
vn 0.000001 1.000000 0.000000
vn 0.000001 1.000000 0.000000
s off
g ImageSign_04
usemtl initialShadingGroup
f 1/1/1 2/2/2 4/4/3 3/3/4
f 3/3/5 4/4/6 6/6/7 5/5/8
f 5/5/9 6/6/10 8/8/11 7/7/12
f 13/19/13 14/20/14 15/21/15 16/22/16
f 2/2/17 8/11/18 6/12/19 4/4/20
f 7/13/21 1/1/22 3/3/23 5/14/24
f 7/7/25 8/8/26 10/16/27 9/15/28
f 8/8/29 2/10/30 11/17/31 10/16/32
f 2/10/33 1/9/34 12/18/35 11/17/36
f 1/9/37 7/7/38 9/15/39 12/18/40
f 9/15/41 10/16/42 14/20/43 13/19/44
f 10/16/45 11/17/46 15/21/47 14/20/48
f 11/17/49 12/18/50 16/22/51 15/21/52
f 12/18/53 9/15/54 13/19/55 16/22/56
f 17/23/57 18/24/58 20/25/59 19/26/60
f 19/26/61 20/25/62 22/27/63 21/28/64
f 21/28/65 22/27/66 24/29/67 23/30/68
f 29/31/69 30/32/70 31/33/71 32/34/72
f 18/24/73 24/35/74 22/36/75 20/25/76
f 23/37/77 17/23/78 19/26/79 21/38/80
f 23/30/81 24/29/82 26/39/83 25/40/84
f 24/29/85 18/41/86 27/42/87 26/39/88
f 18/41/89 17/43/90 28/44/91 27/42/92
f 17/43/93 23/30/94 25/40/95 28/44/96
f 25/40/97 26/39/98 30/32/99 29/31/100
f 26/39/101 27/42/102 31/33/103 30/32/104
f 27/42/105 28/44/106 32/34/107 31/33/108
f 28/44/109 25/40/110 29/31/111 32/34/112
f 33/45/113 34/46/114 36/47/115 35/48/116
f 35/48/117 36/47/118 38/49/119 37/50/120
f 37/50/121 38/49/122 40/51/123 39/52/124
f 45/53/125 46/54/126 47/55/127 48/56/128
f 34/46/129 40/57/130 38/58/131 36/47/132
f 39/59/133 33/45/134 35/48/135 37/60/136
f 39/52/137 40/51/138 42/61/139 41/62/140
f 40/51/141 34/63/142 43/64/143 42/61/144
f 34/63/145 33/65/146 44/66/147 43/64/148
f 33/65/149 39/52/150 41/62/151 44/66/152
f 41/62/153 42/61/154 46/54/155 45/53/156
f 42/61/157 43/64/158 47/55/159 46/54/160
f 43/64/161 44/66/162 48/56/163 47/55/164
f 44/66/165 41/62/166 45/53/167 48/56/168
f 57/67/169 58/68/170 59/69/171 60/70/172
f 51/71/173 52/72/174 54/73/175 53/74/176
f 52/72/177 50/75/178 55/76/179 54/73/180
f 50/75/181 49/77/182 56/78/183 55/76/184
f 49/77/185 51/71/186 53/74/187 56/78/188
f 53/74/189 54/73/190 58/68/191 57/67/192
f 54/73/193 55/76/194 59/69/195 58/68/196
f 55/76/197 56/78/198 60/70/199 59/69/200
f 56/78/201 53/74/202 57/67/203 60/70/204
