# This file uses meters as units for non-parametric coordinates.

mtllib ImageSign_09.mtl
g default
v -87.400360 -137.597946 -92.238449
v -189.444153 -137.597824 -92.238449
v 199.281525 154.513168 -92.238449
v 97.237732 154.513275 -92.238449
v 199.281525 154.513168 -85.827950
v 97.237732 154.513275 -85.827950
v -87.400360 -137.597946 -85.827950
v -189.444153 -137.597824 -85.827950
v 7.323975 -37.168236 -85.827950
v 7.323975 -37.168236 -92.238449
v -43.200317 9.316044 -92.238449
v -43.200317 9.316044 -85.827950
v 48.028198 4.306858 -85.827950
v 48.028198 4.306858 -92.238449
v -2.496094 50.791134 -92.238449
v -2.496094 50.791134 -85.827950
v -51.025726 58.910740 -89.447540
v -51.025726 58.910740 -88.618858
v -45.763824 64.272278 -88.618858
v -45.763824 64.272278 -89.447540
v 63.361542 -55.026573 -88.583527
v 63.361542 -55.026573 -89.482872
v 69.072083 -49.207901 -89.482872
v 69.072083 -49.207901 -88.583527
v 233.131195 188.967285 -92.238449
v 131.087402 188.967407 -92.238449
v 131.087402 188.967407 -85.827950
v 233.131195 188.967285 -85.827950
v -12.816589 154.513275 -92.238449
v -12.816589 154.513275 -85.827950
v 21.033081 188.967407 -85.827950
v 21.033081 188.967407 -92.238449
v -98.649658 154.513275 -92.238449
v -98.649658 154.513275 -85.827950
v -64.799988 188.967407 -85.827950
v -64.799988 188.967407 -92.238449
v -82.933746 82.582733 -92.238449
v -82.933746 82.582733 -85.827950
v -168.766815 82.582733 -85.827950
v -168.766815 82.582733 -92.238449
v -143.004501 -189.476273 -85.827950
v -237.862885 -189.476166 -85.827950
v -237.862885 -189.476166 -92.238449
v -143.004501 -189.476273 -92.238449
v 21.541138 -137.597931 -85.827950
v 21.541138 -137.597931 -92.238449
v -34.063019 -189.476273 -85.827950
v -34.063019 -189.476273 -92.238449
v 115.190247 -137.597931 -85.827950
v 115.190247 -137.597931 -92.238449
v 59.586090 -189.476273 -85.827950
v 59.586090 -189.476273 -92.238449
v 98.362671 -66.629471 -85.827950
v 98.362671 -66.629471 -92.238449
v 192.011780 -66.629471 -85.827950
v 192.011780 -66.629471 -92.238449
vt 0.375000 0.000000
vt 0.625000 0.000000
vt 0.375000 0.250000
vt 0.625000 0.250000
vt 0.375000 0.500000
vt 0.625000 0.500000
vt 0.375000 0.750000
vt 0.625000 0.750000
vt 0.375000 1.000000
vt 0.625000 1.000000
vt 0.875000 0.000000
vt 0.875000 0.250000
vt 0.125000 0.000000
vt 0.125000 0.250000
vt 0.125000 0.114354
vt 0.375000 0.635646
vt 0.375000 0.114354
vt 0.625000 0.114354
vt 0.625000 0.635646
vt 0.875000 0.114354
vt 0.125000 0.149850
vt 0.375000 0.600150
vt 0.375000 0.149850
vt 0.625000 0.149850
vt 0.625000 0.600150
vt 0.875000 0.149850
vt 0.625000 0.114354
vt 0.875000 0.114354
vt 0.875000 0.149850
vt 0.625000 0.149850
vt 0.125000 0.114354
vt 0.375000 0.114354
vt 0.375000 0.149850
vt 0.125000 0.149850
vt 0.375000 0.250000
vt 0.625000 0.250000
vt 0.625000 0.500000
vt 0.375000 0.500000
vt 0.625000 0.250000
vt 0.625000 0.500000
vt 0.625000 0.500000
vt 0.625000 0.250000
vt 0.625000 0.250000
vt 0.625000 0.500000
vt 0.625000 0.500000
vt 0.625000 0.250000
vt 0.625000 0.250000
vt 0.625000 0.500000
vt 0.625000 0.500000
vt 0.625000 0.250000
vt 0.375000 0.750000
vt 0.625000 0.750000
vt 0.625000 1.000000
vt 0.375000 1.000000
vt 0.375000 1.000000
vt 0.375000 0.750000
vt 0.375000 0.750000
vt 0.375000 1.000000
vt 0.375000 1.000000
vt 0.375000 0.750000
vt 0.375000 0.750000
vt 0.375000 1.000000
vt 0.375000 1.000000
vt 0.375000 0.750000
vt 0.375000 0.750000
vt 0.375000 1.000000
vn -0.000000 0.000000 -1.000000
vn -0.000000 0.000000 -1.000000
vn -0.000000 0.000000 -1.000000
vn -0.000000 0.000000 -1.000000
vn 0.000001 1.000000 0.000000
vn 0.000001 1.000000 0.000000
vn 0.000001 1.000000 0.000000
vn 0.000001 1.000000 0.000000
vn 0.000000 0.000000 1.000000
vn 0.000000 0.000000 1.000000
vn 0.000000 0.000000 1.000000
vn 0.000000 0.000000 1.000000
vn -0.000001 -1.000000 0.000000
vn -0.000001 -1.000000 0.000000
vn -0.000001 -1.000000 0.000000
vn -0.000001 -1.000000 0.000000
vn -0.720829 0.693113 0.000000
vn -0.720829 0.693113 0.000000
vn -0.720829 0.693113 0.000000
vn -0.720829 0.693113 0.000000
vn 0.704647 -0.709558 0.000000
vn 0.704647 -0.709558 0.000000
vn 0.704647 -0.709558 0.000000
vn 0.704647 -0.709558 0.000000
vn 0.727468 -0.686141 0.000000
vn 0.727468 -0.686141 0.000000
vn 0.727468 -0.686141 0.000000
vn 0.727468 -0.686141 0.000000
vn 0.000000 0.000000 -1.000000
vn 0.000000 0.000000 -1.000000
vn 0.000000 0.000000 -1.000000
vn 0.000000 0.000000 -1.000000
vn -0.708721 0.705489 0.000000
vn -0.708721 0.705489 0.000000
vn -0.708721 0.705489 0.000000
vn -0.708721 0.705489 0.000000
vn 0.000000 0.000000 1.000000
vn 0.000000 0.000000 1.000000
vn 0.000000 0.000000 1.000000
vn 0.000000 0.000000 1.000000
vn 0.713710 -0.700442 0.000000
vn 0.713710 -0.700442 0.000000
vn 0.713710 -0.700442 0.000000
vn 0.713710 -0.700442 0.000000
vn -0.713708 0.700443 0.000000
vn -0.713708 0.700443 0.000000
vn -0.713708 0.700443 0.000000
vn -0.713708 0.700443 0.000000
vn -0.987779 -0.155859 0.000000
vn -0.987779 -0.155859 0.000000
vn -0.987779 -0.155859 0.000000
vn -0.987779 -0.155859 0.000000
vn -0.049280 0.048364 0.997613
vn -0.049280 0.048364 0.997613
vn -0.049280 0.048364 0.997613
vn -0.049280 0.048364 0.997613
vn 0.297471 0.954731 0.000000
vn 0.297471 0.954731 0.000000
vn 0.297471 0.954731 0.000000
vn 0.297471 0.954731 0.000000
vn -0.049280 0.048364 -0.997613
vn -0.049280 0.048364 -0.997613
vn -0.049280 0.048364 -0.997613
vn -0.049280 0.048364 -0.997613
vn -0.303639 -0.952787 0.000000
vn -0.303639 -0.952787 0.000000
vn -0.303639 -0.952787 0.000000
vn -0.303639 -0.952787 0.000000
vn 0.037407 -0.036712 -0.998626
vn 0.037407 -0.036712 -0.998626
vn 0.037407 -0.036712 -0.998626
vn 0.037407 -0.036712 -0.998626
vn 0.930632 0.365957 0.000000
vn 0.930632 0.365957 0.000000
vn 0.930632 0.365957 0.000000
vn 0.930632 0.365957 0.000000
vn 0.037407 -0.036712 0.998626
vn 0.037407 -0.036712 0.998626
vn 0.037407 -0.036712 0.998626
vn 0.037407 -0.036712 0.998626
vn -0.000000 0.000000 -1.000000
vn -0.000000 0.000000 -1.000000
vn -0.000000 0.000000 -1.000000
vn -0.000000 0.000000 -1.000000
vn -0.713336 0.700822 0.000000
vn -0.713336 0.700822 0.000000
vn -0.713336 0.700822 0.000000
vn -0.713336 0.700822 0.000000
vn 0.000000 0.000000 1.000000
vn 0.000000 0.000000 1.000000
vn 0.000000 0.000000 1.000000
vn 0.000000 0.000000 1.000000
vn 0.713336 -0.700822 0.000000
vn 0.713336 -0.700822 0.000000
vn 0.713336 -0.700822 0.000000
vn 0.713336 -0.700822 0.000000
vn 0.000000 -1.000000 0.000000
vn 0.000000 -1.000000 0.000000
vn 0.000000 -1.000000 0.000000
vn 0.000000 -1.000000 0.000000
vn 0.000000 0.000000 1.000000
vn 0.000000 0.000000 1.000000
vn 0.000000 0.000000 1.000000
vn 0.000000 0.000000 1.000000
vn 0.000000 1.000000 0.000000
vn 0.000000 1.000000 0.000000
vn 0.000000 1.000000 0.000000
vn 0.000000 1.000000 0.000000
vn 0.000000 0.000000 -1.000000
vn 0.000000 0.000000 -1.000000
vn 0.000000 0.000000 -1.000000
vn 0.000000 0.000000 -1.000000
vn 0.000000 -1.000000 0.000000
vn 0.000000 -1.000000 0.000000
vn 0.000000 -1.000000 0.000000
vn 0.000000 -1.000000 0.000000
vn 0.000000 0.000000 1.000000
vn 0.000000 0.000000 1.000000
vn 0.000000 0.000000 1.000000
vn 0.000000 0.000000 1.000000
vn 0.000000 1.000000 0.000000
vn 0.000000 1.000000 0.000000
vn 0.000000 1.000000 0.000000
vn 0.000000 1.000000 0.000000
vn 0.000000 0.000000 -1.000000
vn 0.000000 0.000000 -1.000000
vn 0.000000 0.000000 -1.000000
vn 0.000000 0.000000 -1.000000
vn 0.716075 -0.698023 0.000000
vn 0.716075 -0.698023 0.000000
vn 0.716075 -0.698023 0.000000
vn 0.716075 -0.698023 0.000000
vn 0.000000 0.000000 1.000000
vn 0.000000 0.000000 1.000000
vn 0.000000 0.000000 1.000000
vn 0.000000 0.000000 1.000000
vn -0.716075 0.698023 0.000000
vn -0.716075 0.698023 0.000000
vn -0.716075 0.698023 0.000000
vn -0.716075 0.698023 0.000000
vn 0.000000 0.000000 -1.000000
vn 0.000000 0.000000 -1.000000
vn 0.000000 0.000000 -1.000000
vn 0.000000 0.000000 -1.000000
vn -0.000000 0.000000 1.000000
vn -0.000000 0.000000 1.000000
vn -0.000000 0.000000 1.000000
vn -0.000000 0.000000 1.000000
vn -0.731062 0.682311 0.000000
vn -0.731062 0.682311 0.000000
vn -0.731062 0.682311 0.000000
vn -0.731062 0.682311 0.000000
vn 0.000000 0.000000 -1.000000
vn 0.000000 0.000000 -1.000000
vn 0.000000 0.000000 -1.000000
vn 0.000000 0.000000 -1.000000
vn 0.682185 -0.731179 0.000000
vn 0.682185 -0.731179 0.000000
vn 0.682185 -0.731179 0.000000
vn 0.682185 -0.731179 0.000000
vn -0.000000 1.000000 0.000000
vn -0.000000 1.000000 0.000000
vn -0.000000 1.000000 0.000000
vn -0.000000 1.000000 0.000000
vn 0.000000 0.000000 1.000000
vn 0.000000 0.000000 1.000000
vn 0.000000 0.000000 1.000000
vn 0.000000 0.000000 1.000000
vn 0.000000 -1.000000 0.000000
vn 0.000000 -1.000000 0.000000
vn 0.000000 -1.000000 0.000000
vn 0.000000 -1.000000 0.000000
vn 0.000000 0.000000 -1.000000
vn 0.000000 0.000000 -1.000000
vn 0.000000 0.000000 -1.000000
vn 0.000000 0.000000 -1.000000
vn 0.000000 1.000000 0.000000
vn 0.000000 1.000000 0.000000
vn 0.000000 1.000000 0.000000
vn 0.000000 1.000000 0.000000
vn 0.000000 0.000000 1.000000
vn 0.000000 0.000000 1.000000
vn 0.000000 0.000000 1.000000
vn 0.000000 0.000000 1.000000
vn 0.000000 -1.000000 0.000000
vn 0.000000 -1.000000 0.000000
vn 0.000000 -1.000000 0.000000
vn 0.000000 -1.000000 0.000000
vn 0.000000 0.000000 -1.000000
vn 0.000000 0.000000 -1.000000
vn 0.000000 0.000000 -1.000000
vn 0.000000 0.000000 -1.000000
vn -0.678570 0.734536 0.000000
vn -0.678570 0.734536 0.000000
vn -0.678570 0.734536 0.000000
vn -0.678570 0.734536 0.000000
vn 0.000000 0.000000 1.000000
vn 0.000000 0.000000 1.000000
vn 0.000000 0.000000 1.000000
vn 0.000000 0.000000 1.000000
vn 0.678570 -0.734536 0.000000
vn 0.678570 -0.734536 0.000000
vn 0.678570 -0.734536 0.000000
vn 0.678570 -0.734536 0.000000
vn 0.000000 0.000000 -1.000000
vn 0.000000 0.000000 -1.000000
vn 0.000000 0.000000 -1.000000
vn 0.000000 0.000000 -1.000000
s 1
g ImageSign_09
usemtl initialShadingGroup
f 14/23/1 15/24/2 4/4/3 3/3/4
s off
f 25/35/5 26/36/6 27/37/7 28/38/8
s 2
f 5/5/9 6/6/10 16/25/11 13/22/12
s off
f 41/51/13 42/52/14 43/53/15 44/54/16
f 15/24/17 16/26/18 6/12/19 4/4/20
f 13/21/21 14/23/22 3/3/23 5/14/24
f 7/13/25 1/1/26 10/17/27 9/15/28
s 1
f 1/1/29 2/2/30 11/18/31 10/17/32
s off
f 2/2/33 8/11/34 12/20/35 11/18/36
s 2
f 9/16/37 12/19/38 8/8/39 7/7/40
s off
f 21/31/41 22/32/42 23/33/43 24/34/44
s 1
f 10/17/32 11/18/31 15/24/2 14/23/1
s off
f 17/27/45 18/28/46 19/29/47 20/30/48
s 2
f 13/22/12 16/25/11 12/19/38 9/16/37
s off
f 11/18/49 12/20/50 18/28/51 17/27/52
f 12/20/53 16/26/54 19/29/55 18/28/56
f 16/26/57 15/24/58 20/30/59 19/29/60
f 15/24/61 11/18/62 17/27/63 20/30/64
f 9/15/65 10/17/66 22/32/67 21/31/68
f 10/17/69 14/23/70 23/33/71 22/32/72
f 14/23/73 13/21/74 24/34/75 23/33/76
f 13/21/77 9/15/78 21/31/79 24/34/80
f 3/3/81 4/4/82 26/36/83 25/35/84
f 33/43/85 34/44/86 35/45/87 36/46/88
f 6/6/89 5/5/90 28/38/91 27/37/92
f 5/5/93 3/3/94 25/35/95 28/38/96
f 4/4/97 6/6/98 30/40/99 29/39/100
f 6/6/101 27/37/102 31/41/103 30/40/104
f 27/37/105 26/36/106 32/42/107 31/41/108
f 26/36/109 4/4/110 29/39/111 32/42/112
f 37/47/113 38/48/114 39/49/115 40/50/116
f 30/40/117 31/41/118 35/45/119 34/44/120
f 31/41/121 32/42/122 36/46/123 35/45/124
f 32/42/125 29/39/126 33/43/127 36/46/128
f 29/39/129 30/40/130 38/48/131 37/47/132
f 30/40/133 34/44/134 39/49/135 38/48/136
f 34/44/137 33/43/138 40/50/139 39/49/140
f 33/43/141 29/39/142 37/47/143 40/50/144
f 7/7/145 8/8/146 42/52/147 41/51/148
f 8/8/149 2/10/150 43/53/151 42/52/152
f 2/10/153 1/9/154 44/54/155 43/53/156
f 50/59/157 49/60/158 51/61/159 52/62/160
f 1/9/161 7/7/162 45/56/163 46/55/164
f 7/7/165 41/51/166 47/57/167 45/56/168
f 41/51/169 44/54/170 48/58/171 47/57/172
f 44/54/173 1/9/174 46/55/175 48/58/176
f 54/63/177 53/64/178 55/65/179 56/66/180
f 45/56/181 47/57/182 51/61/183 49/60/184
f 47/57/185 48/58/186 52/62/187 51/61/188
f 48/58/189 46/55/190 50/59/191 52/62/192
f 46/55/193 45/56/194 53/64/195 54/63/196
f 45/56/197 49/60/198 55/65/199 53/64/200
f 49/60/201 50/59/202 56/66/203 55/65/204
f 50/59/205 46/55/206 54/63/207 56/66/208
