# This file uses meters as units for non-parametric coordinates.

mtllib ImageSign_03.mtl
g default
v 9.080299 85.324774 -85.828110
v 101.433236 103.213812 -85.828110
v 101.433236 103.213812 -92.238609
v 9.080299 85.324774 -92.238609
v 49.731561 121.102820 -85.828110
v 49.731561 121.102820 -92.238609
v -0.429528 51.236701 -85.828110
v 49.730996 51.236701 -85.828110
v -0.429528 51.236701 -92.238609
v 49.730996 51.236701 -92.238609
v 68.361490 51.236701 -92.238609
v 68.361490 51.236701 -85.828110
v 2.504358 86.388068 -85.828110
v 2.504358 -97.847101 -85.828110
v 2.504358 86.388068 -92.238609
v 2.504358 -97.847101 -92.238609
v -18.696479 -6.418085 -85.828110
v -18.696479 -6.418085 -92.238609
v -38.498549 109.633185 -85.828110
v -38.498549 109.633185 -92.238609
v -38.498542 -6.534356 -92.238609
v -38.498549 -121.092218 -92.238609
v -38.498549 -121.092218 -85.828110
v -38.498542 -6.534356 -85.828110
v 28.218496 -23.102167 -85.828110
v 119.417306 -40.991205 -85.828110
v 119.417306 -40.991205 -92.238609
v 28.218496 -23.102167 -92.238609
v 17.407476 10.803046 -85.828110
v 86.345559 10.803046 -85.828110
v 86.345559 10.803046 -92.238609
v 17.407476 10.803046 -92.238609
v 67.715062 10.803046 -92.238609
v 67.715627 -58.880121 -92.238609
v 67.715627 -58.880121 -85.828110
v 67.715062 10.803046 -85.828110
v -95.873000 70.342108 -86.481712
v -95.873000 70.342108 -91.585007
v -43.099784 109.494269 -86.481712
v -43.099784 38.410651 -91.585007
v -43.099784 109.494269 -91.585007
v -78.649390 38.631110 -86.481712
v -78.649390 38.631110 -91.585007
v -43.099784 38.410651 -86.481712
v 35.526567 48.698493 -85.828110
v 15.335397 15.008978 -85.828110
v 67.236573 48.698493 -85.828110
v 47.045449 15.008978 -85.828110
v 67.236573 48.698493 -92.238609
v 47.045449 15.008978 -92.238609
v 35.526567 48.698493 -92.238609
v 15.335397 15.008978 -92.238609
v -95.873000 -83.087579 -86.481712
v -95.873000 -83.087579 -91.585007
v -78.649390 -50.456720 -86.481712
v -78.649390 -50.456720 -91.585007
v -43.099784 -50.677240 -86.481712
v -43.099784 -122.239679 -86.481712
v -43.099784 -122.239679 -91.585007
v -43.099784 -50.677240 -91.585007
v -121.590644 -60.013116 -85.828110
v -112.628684 -26.710626 -85.828110
v -97.802947 -81.312738 -85.828110
v -82.348456 -50.246148 -85.828110
v -97.802947 -81.312738 -92.238609
v -82.348456 -50.246148 -92.238609
v -121.590644 -60.013116 -92.238609
v -112.628684 -26.710626 -92.238609
vt 0.375000 0.000000
vt 0.500872 0.000000
vt 0.500872 0.082990
vt 0.375000 0.082990
vt 0.375000 0.250000
vt 0.500872 0.250000
vt 0.500872 0.500000
vt 0.375000 0.500000
vt 0.375000 0.667010
vt 0.500872 0.667010
vt 0.500872 0.750000
vt 0.375000 0.750000
vt 0.500872 1.000000
vt 0.375000 1.000000
vt 0.125000 0.000000
vt 0.125000 0.082990
vt 0.125000 0.250000
vt 0.375000 0.250000
vt 0.500872 0.250000
vt 0.500872 0.500000
vt 0.375000 0.500000
vt 0.625000 0.250000
vt 0.625000 0.500000
vt 0.125000 0.082990
vt 0.375000 0.082990
vt 0.125000 0.250000
vt 0.500872 0.667010
vt 0.375000 0.667010
vt 0.625000 0.667010
vt 0.625000 0.082990
vt 0.875000 0.082990
vt 0.875000 0.250000
vt 0.500872 0.082990
vt 0.625000 0.000000
vt 0.875000 0.000000
vt 0.875000 0.082990
vt 0.625000 0.082990
vt 0.500872 0.000000
vt 0.500872 0.082990
vt 0.500872 0.500000
vt 0.500872 0.250000
vt 0.625000 0.250000
vt 0.625000 0.500000
vt 0.500872 0.750000
vt 0.500872 0.667010
vt 0.625000 0.667010
vt 0.625000 0.750000
vt 0.500872 1.000000
vt 0.625000 1.000000
vt 0.875000 0.250000
vt 0.375000 0.000000
vt 0.500872 0.000000
vt 0.500872 0.082990
vt 0.375000 0.082990
vt 0.375000 0.667010
vt 0.500872 0.667010
vt 0.500872 0.750000
vt 0.375000 0.750000
vt 0.500872 1.000000
vt 0.375000 1.000000
vt 0.125000 0.000000
vt 0.125000 0.082990
vt 0.375000 0.000000
vt 0.625000 0.000000
vt 0.625000 0.250000
vt 0.375000 0.250000
vt 0.625000 0.500000
vt 0.375000 0.500000
vt 0.625000 0.750000
vt 0.375000 0.750000
vt 0.625000 1.000000
vt 0.375000 1.000000
vt 0.875000 0.000000
vt 0.875000 0.250000
vt 0.125000 0.000000
vt 0.125000 0.250000
vt 0.625000 0.000000
vt 0.875000 0.000000
vt 0.875000 0.082990
vt 0.625000 0.082990
vt 0.500872 0.000000
vt 0.500872 0.082990
vt 0.500872 0.750000
vt 0.500872 0.667010
vt 0.625000 0.667010
vt 0.625000 0.750000
vt 0.500872 1.000000
vt 0.625000 1.000000
vt 0.375000 0.000000
vt 0.375000 0.250000
vt 0.625000 0.250000
vt 0.625000 0.000000
vt 0.375000 0.500000
vt 0.625000 0.500000
vt 0.375000 0.750000
vt 0.625000 0.750000
vt 0.375000 1.000000
vt 0.625000 1.000000
vt 0.875000 0.250000
vt 0.875000 0.000000
vt 0.125000 0.000000
vt 0.125000 0.250000
vn -0.000000 0.000000 1.000000
vn -0.000000 0.000000 1.000000
vn -0.000000 0.000000 1.000000
vn -0.000000 0.000000 1.000000
vn 0.843695 -0.536822 0.000000
vn 0.843695 -0.536822 0.000000
vn 0.843695 -0.536822 0.000000
vn 0.843695 -0.536822 0.000000
vn -0.000000 0.000000 -1.000000
vn -0.000000 0.000000 -1.000000
vn -0.000000 0.000000 -1.000000
vn -0.000000 0.000000 -1.000000
vn -0.963219 0.268717 0.000000
vn -0.963219 0.268717 0.000000
vn -0.963219 0.268717 0.000000
vn -0.963219 0.268717 0.000000
vn -0.660679 0.750668 0.000000
vn -0.660679 0.750668 0.000000
vn -0.190168 0.981752 0.000000
vn -0.190168 0.981752 0.000000
vn 0.326985 0.945030 0.000000
vn 0.326985 0.945030 0.000000
vn 0.000000 0.000000 -1.000000
vn 0.000000 0.000000 -1.000000
vn 0.000000 0.000000 1.000000
vn 0.000000 0.000000 1.000000
vn 0.000000 -1.000000 0.000000
vn 0.000000 -1.000000 0.000000
vn 0.000000 -1.000000 0.000000
vn 0.000000 -1.000000 0.000000
vn 0.000000 -1.000000 0.000000
vn 0.000000 -1.000000 0.000000
vn 0.974886 -0.222705 0.000000
vn 1.000000 0.000000 0.000000
vn 1.000000 0.000000 0.000000
vn 0.974886 -0.222705 0.000000
vn 0.974153 0.225890 0.000000
vn 0.974153 0.225890 0.000000
vn 0.493175 0.869930 0.000000
vn 0.493175 0.869930 0.000000
vn 0.493175 0.869930 0.000000
vn 0.493175 0.869930 0.000000
vn 0.000000 0.000000 -1.000000
vn 0.000000 -0.000000 -1.000000
vn 0.000000 -0.000000 -1.000000
vn 0.000000 0.000000 -1.000000
vn 0.000000 -0.000000 -1.000000
vn 0.000000 -0.000000 -1.000000
vn 0.493176 -0.869929 0.000000
vn 0.493176 -0.869929 0.000000
vn 0.493176 -0.869929 0.000000
vn 0.493176 -0.869929 0.000000
vn -0.000000 0.000000 1.000000
vn -0.000000 0.000000 1.000000
vn -0.000000 0.000000 1.000000
vn -0.000000 0.000000 1.000000
vn 0.000000 0.000000 1.000000
vn 0.000000 0.000000 1.000000
vn -1.000000 -0.000000 0.000000
vn -1.000000 -0.000000 0.000000
vn -1.000000 -0.000000 0.000000
vn -1.000000 -0.000000 0.000000
vn -1.000000 -0.000000 0.000000
vn -1.000000 -0.000000 0.000000
vn -0.671352 -0.741139 0.000000
vn -0.671352 -0.741139 0.000000
vn -0.192486 -0.981300 0.000000
vn -0.192486 -0.981300 0.000000
vn 0.000000 0.000000 1.000000
vn 0.000000 0.000000 1.000000
vn -0.000000 0.000000 1.000000
vn -0.000000 0.000000 1.000000
vn 0.842837 0.538170 0.000000
vn 0.842837 0.538170 0.000000
vn 0.842837 0.538170 0.000000
vn 0.842837 0.538170 0.000000
vn 0.000000 -0.000000 -1.000000
vn 0.000000 -0.000000 -1.000000
vn 0.000000 -0.000000 -1.000000
vn 0.000000 -0.000000 -1.000000
vn -0.952739 -0.303791 0.000000
vn -0.952739 -0.303791 0.000000
vn -0.952739 -0.303791 0.000000
vn -0.952739 -0.303791 0.000000
vn 0.000000 0.000000 -1.000000
vn 0.000000 0.000000 -1.000000
vn 0.326984 -0.945030 0.000000
vn 0.326984 -0.945030 0.000000
vn -0.000000 0.000000 1.000000
vn -0.000000 0.000000 1.000000
vn -0.000000 1.000000 0.000000
vn -0.000000 1.000000 0.000000
vn -0.000000 1.000000 0.000000
vn -0.000000 1.000000 0.000000
vn -0.000000 1.000000 0.000000
vn -0.000000 1.000000 0.000000
vn 0.000000 0.000000 1.000000
vn 0.000000 0.000000 1.000000
vn 0.000000 0.000000 1.000000
vn 0.000000 0.000000 1.000000
vn 0.000000 0.000000 -1.000000
vn 0.000000 0.000000 -1.000000
vn 0.000000 0.000000 -1.000000
vn 0.000000 0.000000 -1.000000
vn -0.878748 -0.477286 0.000000
vn -0.878748 -0.477286 0.000000
vn -0.878748 -0.477286 0.000000
vn -0.878748 -0.477286 0.000000
vn -0.595825 0.803114 0.000000
vn -0.595825 0.803114 0.000000
vn -0.595825 0.803114 0.000000
vn -0.595825 0.803114 0.000000
vn 0.893831 -0.448404 0.000000
vn 0.893831 -0.448404 0.000000
vn 0.893831 -0.448404 0.000000
vn 0.893831 -0.448404 0.000000
vn 0.893831 -0.448404 0.000000
vn 0.893831 -0.448404 0.000000
vn 0.000000 0.000000 1.000000
vn 0.000000 0.000000 1.000000
vn 0.000000 0.000000 1.000000
vn 0.000000 0.000000 1.000000
vn 0.857746 -0.514073 0.000000
vn 0.857746 -0.514073 0.000000
vn 0.857746 -0.514073 0.000000
vn 0.857746 -0.514073 0.000000
vn -0.000000 0.000000 -1.000000
vn -0.000000 0.000000 -1.000000
vn -0.000000 0.000000 -1.000000
vn -0.000000 0.000000 -1.000000
vn -0.857746 0.514074 0.000000
vn -0.857746 0.514074 0.000000
vn -0.857746 0.514074 0.000000
vn -0.857746 0.514074 0.000000
vn 0.000000 -1.000000 0.000000
vn 0.000000 -1.000000 0.000000
vn 0.000000 -1.000000 0.000000
vn 0.000000 -1.000000 0.000000
vn -0.000000 1.000000 0.000000
vn -0.000000 1.000000 0.000000
vn -0.000000 1.000000 0.000000
vn -0.000000 1.000000 0.000000
vn -0.595825 -0.803114 0.000000
vn -0.595825 -0.803114 0.000000
vn -0.595825 -0.803114 0.000000
vn -0.595825 -0.803114 0.000000
vn -0.000000 0.000000 1.000000
vn -0.000000 0.000000 1.000000
vn -0.000000 0.000000 1.000000
vn -0.000000 0.000000 1.000000
vn 0.000000 -0.000000 -1.000000
vn 0.000000 -0.000000 -1.000000
vn 0.000000 -0.000000 -1.000000
vn 0.000000 -0.000000 -1.000000
vn -0.884365 0.466796 0.000000
vn -0.884365 0.466796 0.000000
vn -0.884365 0.466796 0.000000
vn -0.884365 0.466796 0.000000
vn 0.896128 0.443796 0.000000
vn 0.896128 0.443796 0.000000
vn 0.896128 0.443796 0.000000
vn 0.896128 0.443796 0.000000
vn 0.896128 0.443796 0.000000
vn 0.896128 0.443796 0.000000
vn -0.000000 0.000000 1.000000
vn -0.000000 0.000000 1.000000
vn -0.000000 0.000000 1.000000
vn -0.000000 0.000000 1.000000
vn 0.895334 -0.445396 0.000000
vn 0.895334 -0.445396 0.000000
vn 0.895334 -0.445396 0.000000
vn 0.895334 -0.445396 0.000000
vn 0.000000 0.000000 -1.000000
vn 0.000000 0.000000 -1.000000
vn 0.000000 0.000000 -1.000000
vn 0.000000 0.000000 -1.000000
vn -0.965645 0.259863 0.000000
vn -0.965645 0.259863 0.000000
vn -0.965645 0.259863 0.000000
vn -0.965645 0.259863 0.000000
vn 0.613685 0.789551 0.000000
vn 0.613685 0.789551 0.000000
vn 0.613685 0.789551 0.000000
vn 0.613685 0.789551 0.000000
vn -0.667072 -0.744993 0.000000
vn -0.667072 -0.744993 0.000000
vn -0.667072 -0.744993 0.000000
vn -0.667072 -0.744993 0.000000
s 1
g ImageSign_03
usemtl initialShadingGroup
f 1/1/1 7/2/2 8/3/3 5/4/4
s off
f 2/5/5 12/6/6 11/7/7 3/8/8
s 2
f 6/9/9 10/10/10 9/11/11 4/12/12
s off
f 4/12/13 9/11/14 7/13/15 1/14/16
s 3
f 4/15/17 1/1/18 5/4/19 6/16/20
f 6/16/20 5/4/19 2/5/21 3/17/22
s 2
f 3/8/23 11/7/24 10/10/10 6/9/9
s 1
f 5/4/4 8/3/3 12/6/25 2/5/26
s off
f 8/3/27 7/13/28 9/11/29 10/10/30 11/7/31 12/6/32
s 4
f 13/18/33 17/19/34 18/20/35 15/21/36
f 18/20/35 17/19/34 14/22/37 16/23/38
s off
f 20/24/39 19/25/40 13/18/41 15/26/42
s 5
f 15/21/43 18/20/44 21/27/45 20/28/46
f 22/29/47 21/27/45 18/20/44 16/23/48
s off
f 23/30/49 22/31/50 16/32/51 14/22/52
s 6
f 24/33/53 23/30/54 14/22/55 17/19/56
f 19/25/57 24/33/53 17/19/56 13/18/58
s off
f 20/28/59 21/27/60 22/31/61 23/30/62 24/33/63 19/25/64
s 7
f 25/34/65 28/35/66 34/36/67 35/37/68
s 8
f 29/38/69 25/34/70 35/37/71 36/39/72
s off
f 31/40/73 30/41/74 26/42/75 27/43/76
s 9
f 32/44/77 33/45/78 34/46/79 28/47/80
s off
f 29/48/81 32/44/82 28/47/83 25/49/84
s 9
f 34/46/79 33/45/78 31/40/85 27/43/86
s 7
f 35/37/68 34/36/67 27/50/87 26/42/88
s 8
f 36/39/72 35/37/71 26/42/89 30/41/90
s off
f 36/39/91 30/41/92 31/40/93 33/45/94 32/44/95 29/38/96
f 37/51/97 42/52/98 44/53/99 39/54/100
f 41/55/101 40/56/102 43/57/103 38/58/104
f 38/58/105 43/57/106 42/59/107 37/60/108
f 38/61/109 37/51/110 39/54/111 41/62/112
f 40/56/113 41/62/114 39/54/115 44/53/116 42/59/117 43/57/118
f 45/63/119 46/64/120 48/65/121 47/66/122
f 47/66/123 48/65/124 50/67/125 49/68/126
f 49/68/127 50/67/128 52/69/129 51/70/130
f 51/70/131 52/69/132 46/71/133 45/72/134
f 46/64/135 52/73/136 50/74/137 48/65/138
f 51/75/139 45/63/140 47/66/141 49/76/142
f 53/77/143 54/78/144 59/79/145 58/80/146
f 55/81/147 53/77/148 58/80/149 57/82/150
f 56/83/151 60/84/152 59/85/153 54/86/154
f 55/87/155 56/83/156 54/86/157 53/88/158
f 57/82/159 58/80/160 59/85/161 60/84/162 56/83/163 55/81/164
f 61/89/165 63/90/166 64/91/167 62/92/168
f 63/90/169 65/93/170 66/94/171 64/91/172
f 65/93/173 67/95/174 68/96/175 66/94/176
f 67/95/177 61/97/178 62/98/179 68/96/180
f 62/92/181 64/91/182 66/99/183 68/100/184
f 67/101/185 65/102/186 63/90/187 61/89/188
