# This file uses meters as units for non-parametric coordinates.

mtllib ImageSign_01.mtl
g default
v -115.941650 103.178864 -85.828110
v -82.639160 93.436569 -85.828110
v -125.640381 134.888885 -85.828110
v -92.337769 125.146606 -85.828110
v -125.640381 134.888885 -92.238609
v -92.337769 125.146606 -92.238609
v -115.941650 103.178864 -92.238609
v -82.639160 93.436569 -92.238609
v 113.353638 103.178864 -85.828110
v 80.051147 93.436569 -85.828110
v 123.052368 134.888885 -85.828110
v 89.749756 125.146606 -85.828110
v 123.052368 134.888885 -92.238609
v 89.749756 125.146606 -92.238609
v 113.353638 103.178864 -92.238609
v 80.051147 93.436569 -92.238609
v -56.288055 -109.508942 -85.828110
v 54.691772 -109.508942 -85.828110
v -92.915771 -2.214920 -85.828110
v 91.319458 -2.214920 -85.828110
v -92.915771 -2.214920 -92.238609
v 91.319458 -2.214920 -92.238609
v -56.288055 -109.508942 -92.238609
v 54.691772 -109.508942 -92.238609
v -0.270264 -129.252213 -85.828110
v -0.109589 -23.415756 -85.828110
v -0.109589 -23.415756 -92.238609
v -0.270264 -129.252213 -92.238609
v -69.557388 -43.217827 -85.828110
v -69.557388 -43.217827 -92.238609
v -0.318451 -43.217819 -92.238609
v 67.961060 -43.217827 -92.238609
v 67.961060 -43.217827 -85.828110
v -0.318451 -43.217819 -85.828110
v -99.187729 5.515152 -85.828110
v 97.591431 5.515152 -85.828110
v -117.076752 96.713959 -85.828110
v 115.480438 96.713959 -85.828110
v -117.076752 96.713959 -92.238609
v 115.480438 96.713959 -92.238609
v -99.187729 5.515152 -92.238609
v 97.591431 5.515152 -92.238609
v -0.109589 -18.206314 -85.828110
v -0.109589 63.642212 -85.828110
v -0.109589 63.642212 -92.238609
v -0.109589 -18.206314 -92.238609
v -134.965759 45.012283 -85.828110
v -134.965759 45.012283 -92.238609
v -0.109589 45.011719 -92.238609
v 133.369446 45.012283 -92.238609
v 133.369446 45.012283 -85.828110
v -0.109589 45.011719 -85.828110
vt 0.375000 0.000000
vt 0.625000 0.000000
vt 0.375000 0.250000
vt 0.625000 0.250000
vt 0.375000 0.500000
vt 0.625000 0.500000
vt 0.375000 0.750000
vt 0.625000 0.750000
vt 0.375000 1.000000
vt 0.625000 1.000000
vt 0.875000 0.000000
vt 0.875000 0.250000
vt 0.125000 0.000000
vt 0.125000 0.250000
vt 0.375000 0.000000
vt 0.625000 0.000000
vt 0.625000 0.250000
vt 0.375000 0.250000
vt 0.625000 0.500000
vt 0.375000 0.500000
vt 0.625000 0.750000
vt 0.375000 0.750000
vt 0.625000 1.000000
vt 0.375000 1.000000
vt 0.875000 0.000000
vt 0.875000 0.250000
vt 0.125000 0.000000
vt 0.125000 0.250000
vt 0.375000 0.000000
vt 0.500872 0.000000
vt 0.500872 0.082990
vt 0.375000 0.082990
vt 0.375000 0.250000
vt 0.500872 0.250000
vt 0.500872 0.500000
vt 0.375000 0.500000
vt 0.375000 0.667010
vt 0.500872 0.667010
vt 0.500872 0.750000
vt 0.375000 0.750000
vt 0.500872 1.000000
vt 0.375000 1.000000
vt 0.625000 0.000000
vt 0.875000 0.000000
vt 0.875000 0.082990
vt 0.625000 0.082990
vt 0.125000 0.000000
vt 0.125000 0.082990
vt 0.625000 0.250000
vt 0.625000 0.500000
vt 0.625000 0.667010
vt 0.625000 0.750000
vt 0.625000 1.000000
vt 0.125000 0.250000
vt 0.875000 0.250000
vt 0.375000 0.000000
vt 0.500872 0.000000
vt 0.500872 0.082990
vt 0.375000 0.082990
vt 0.375000 0.250000
vt 0.500872 0.250000
vt 0.500872 0.500000
vt 0.375000 0.500000
vt 0.375000 0.667010
vt 0.500872 0.667010
vt 0.500872 0.750000
vt 0.375000 0.750000
vt 0.500872 1.000000
vt 0.375000 1.000000
vt 0.625000 0.000000
vt 0.875000 0.000000
vt 0.875000 0.082990
vt 0.625000 0.082990
vt 0.125000 0.000000
vt 0.125000 0.082990
vt 0.625000 0.250000
vt 0.625000 0.500000
vt 0.625000 0.667010
vt 0.625000 0.750000
vt 0.625000 1.000000
vt 0.125000 0.250000
vt 0.875000 0.250000
vn 0.000000 0.000000 1.000000
vn 0.000000 0.000000 1.000000
vn 0.000000 0.000000 1.000000
vn 0.000000 0.000000 1.000000
vn 0.280771 0.959775 0.000000
vn 0.280771 0.959775 0.000000
vn 0.280771 0.959775 0.000000
vn 0.280771 0.959775 0.000000
vn 0.000000 0.000000 -1.000000
vn 0.000000 0.000000 -1.000000
vn 0.000000 0.000000 -1.000000
vn 0.000000 0.000000 -1.000000
vn -0.280772 -0.959775 0.000000
vn -0.280772 -0.959775 0.000000
vn -0.280772 -0.959775 0.000000
vn -0.280772 -0.959775 0.000000
vn 0.956272 0.292479 0.000000
vn 0.956272 0.292479 0.000000
vn 0.956272 0.292479 0.000000
vn 0.956272 0.292479 0.000000
vn -0.956271 -0.292482 0.000000
vn -0.956271 -0.292482 0.000000
vn -0.956271 -0.292482 0.000000
vn -0.956271 -0.292482 0.000000
vn 0.000000 0.000000 1.000000
vn 0.000000 0.000000 1.000000
vn 0.000000 0.000000 1.000000
vn 0.000000 0.000000 1.000000
vn -0.280771 0.959775 0.000000
vn -0.280771 0.959775 0.000000
vn -0.280771 0.959775 0.000000
vn -0.280771 0.959775 0.000000
vn -0.000000 0.000000 -1.000000
vn -0.000000 0.000000 -1.000000
vn -0.000000 0.000000 -1.000000
vn -0.000000 0.000000 -1.000000
vn 0.280772 -0.959775 0.000000
vn 0.280772 -0.959775 0.000000
vn 0.280772 -0.959775 0.000000
vn 0.280772 -0.959775 0.000000
vn -0.956272 0.292479 0.000000
vn -0.956272 0.292479 0.000000
vn -0.956272 0.292479 0.000000
vn -0.956272 0.292479 0.000000
vn 0.956271 -0.292482 0.000000
vn 0.956271 -0.292482 0.000000
vn 0.956271 -0.292482 0.000000
vn 0.956271 -0.292482 0.000000
vn 0.000000 0.000000 1.000000
vn 0.000000 0.000000 1.000000
vn -0.000000 0.000000 1.000000
vn 0.000000 0.000000 1.000000
vn 0.222705 0.974886 0.000000
vn 0.000000 1.000000 0.000000
vn 0.000000 1.000000 0.000000
vn 0.222705 0.974886 0.000000
vn -0.000000 0.000000 -1.000000
vn 0.000000 0.000000 -1.000000
vn -0.000000 0.000000 -1.000000
vn -0.000000 0.000000 -1.000000
vn -0.332405 -0.943137 0.000000
vn 0.000000 -1.000000 0.000000
vn 0.000000 -1.000000 0.000000
vn -0.332405 -0.943137 0.000000
vn 0.980549 -0.196274 0.000000
vn 0.980549 -0.196274 0.000000
vn 0.946375 -0.323070 0.000000
vn 0.946375 -0.323070 0.000000
vn -0.980549 -0.196274 0.000000
vn -0.980549 -0.196274 0.000000
vn -0.946375 -0.323071 0.000000
vn -0.946375 -0.323071 0.000000
vn 0.000000 0.000000 1.000000
vn -0.000000 0.000000 1.000000
vn -0.225889 0.974153 0.000000
vn -0.225889 0.974153 0.000000
vn 0.000000 0.000000 -1.000000
vn 0.000000 0.000000 -1.000000
vn 0.338067 -0.941122 0.000000
vn 0.338067 -0.941122 0.000000
vn -0.868898 -0.494991 0.000000
vn -0.868898 -0.494991 0.000000
vn 0.000000 0.000000 -1.000000
vn 0.000000 0.000000 -1.000000
vn 0.000000 0.000000 -1.000000
vn 0.868898 -0.494991 0.000000
vn 0.868898 -0.494991 0.000000
vn -0.000000 0.000000 1.000000
vn -0.000000 0.000000 1.000000
vn 0.000000 0.000000 1.000000
vn -0.000000 0.000000 1.000000
vn -0.000000 0.000000 1.000000
vn -0.000000 0.000000 1.000000
vn -0.000000 0.000000 1.000000
vn 0.272077 0.962275 0.000000
vn 0.000000 1.000000 0.000000
vn 0.000000 1.000000 0.000000
vn 0.272077 0.962275 0.000000
vn -0.000000 0.000000 -1.000000
vn 0.000000 0.000000 -1.000000
vn -0.000000 0.000000 -1.000000
vn -0.000000 0.000000 -1.000000
vn -0.232841 -0.972515 0.000000
vn 0.000000 -1.000000 0.000000
vn 0.000000 -1.000000 0.000000
vn -0.232841 -0.972515 0.000000
vn 0.741139 -0.671352 0.000000
vn 0.741139 -0.671352 0.000000
vn 0.981300 -0.192486 0.000000
vn 0.981300 -0.192486 0.000000
vn -0.741139 -0.671352 0.000000
vn -0.741139 -0.671352 0.000000
vn -0.981300 -0.192486 0.000000
vn -0.981300 -0.192486 0.000000
vn 0.000000 0.000000 1.000000
vn -0.000000 0.000000 1.000000
vn -0.275075 0.961423 0.000000
vn -0.275075 0.961423 0.000000
vn 0.000000 0.000000 -1.000000
vn 0.000000 0.000000 -1.000000
vn 0.235942 -0.971767 0.000000
vn 0.235942 -0.971767 0.000000
vn -0.945030 0.326985 0.000000
vn -0.945030 0.326985 0.000000
vn 0.000000 0.000000 -1.000000
vn 0.000000 0.000000 -1.000000
vn 0.000000 0.000000 -1.000000
vn 0.945030 0.326985 0.000000
vn 0.945030 0.326985 0.000000
vn -0.000000 0.000000 1.000000
vn -0.000000 0.000000 1.000000
vn 0.000000 0.000000 1.000000
s off
g ImageSign_01
usemtl initialShadingGroup
f 1/1/1 2/2/2 4/4/3 3/3/4
f 3/3/5 4/4/6 6/6/7 5/5/8
f 5/5/9 6/6/10 8/8/11 7/7/12
f 7/7/13 8/8/14 2/10/15 1/9/16
f 2/2/17 8/11/18 6/12/19 4/4/20
f 7/13/21 1/1/22 3/3/23 5/14/24
f 9/15/25 11/18/26 12/17/27 10/16/28
f 11/18/29 13/20/30 14/19/31 12/17/32
f 13/20/33 15/22/34 16/21/35 14/19/36
f 15/22/37 9/24/38 10/23/39 16/21/40
f 10/16/41 12/17/42 14/26/43 16/25/44
f 15/27/45 13/28/46 11/18/47 9/15/48
s 1
f 17/29/49 25/30/50 34/31/51 29/32/52
s 2
f 19/33/53 26/34/54 27/35/55 21/36/56
s 3
f 30/37/57 31/38/58 28/39/59 23/40/60
s 4
f 23/40/61 28/39/62 25/41/63 17/42/64
s 5
f 18/43/65 24/44/66 32/45/67 33/46/68
s 6
f 23/47/69 17/29/70 29/32/71 30/48/72
s 1
f 25/30/50 18/43/73 33/46/74 34/31/51
s 2
f 27/35/55 26/34/54 20/49/75 22/50/76
s 3
f 28/39/59 31/38/58 32/51/77 24/52/78
s 4
f 25/41/63 28/39/62 24/52/79 18/53/80
s 6
f 30/48/72 29/32/71 19/33/81 21/54/82
s 3
f 21/36/83 27/35/84 31/38/58 30/37/57
f 32/51/77 31/38/58 27/35/84 22/50/85
s 5
f 33/46/68 32/45/67 22/55/86 20/49/87
s 1
f 34/31/51 33/46/74 20/49/88 26/34/89
f 29/32/52 34/31/51 26/34/89 19/33/90
s 7
f 35/56/91 43/57/92 52/58/93 47/59/94
s 8
f 37/60/95 44/61/96 45/62/97 39/63/98
s 9
f 48/64/99 49/65/100 46/66/101 41/67/102
s 10
f 41/67/103 46/66/104 43/68/105 35/69/106
s 11
f 36/70/107 42/71/108 50/72/109 51/73/110
s 12
f 41/74/111 35/56/112 47/59/113 48/75/114
s 7
f 43/57/92 36/70/115 51/73/116 52/58/93
s 8
f 45/62/97 44/61/96 38/76/117 40/77/118
s 9
f 46/66/101 49/65/100 50/78/119 42/79/120
s 10
f 43/68/105 46/66/104 42/79/121 36/80/122
s 12
f 48/75/114 47/59/113 37/60/123 39/81/124
s 9
f 39/63/125 45/62/126 49/65/100 48/64/99
f 50/78/119 49/65/100 45/62/126 40/77/127
s 11
f 51/73/110 50/72/109 40/82/128 38/76/129
s 7
f 52/58/93 51/73/116 38/76/130 44/61/131
f 47/59/94 52/58/93 44/61/131 37/60/132
