# This file uses meters as units for non-parametric coordinates.

mtllib ImageSign_08.mtl
g default
v 56.232033 -303.122772 -85.828110
v 56.232033 -303.122772 -92.238609
v 56.232033 106.163651 -92.238609
v 56.232033 106.163651 -85.828110
v -10.886311 -6.111992 -92.238609
v -15.082340 -1.915962 -92.238609
v -15.082340 -1.915962 -85.828110
v -10.886311 -6.111992 -85.828110
v -17.776354 3.371338 -92.238609
v -17.776354 3.371338 -85.828110
v -5.599007 -8.806007 -92.238609
v -5.599007 -8.806007 -85.828110
v -18.704649 9.232361 -92.238609
v -18.704649 9.232361 -85.828110
v 0.262012 -9.734299 -92.238609
v 0.262012 -9.734299 -85.828110
v -17.776354 15.093384 -92.238609
v -17.776354 15.093384 -85.828110
v 6.123032 -8.806000 -92.238609
v 6.123032 -8.806000 -85.828110
v 11.410332 -6.111984 -92.238609
v 11.410332 -6.111984 -85.828110
v -15.082340 20.380692 -92.238609
v -15.082340 20.380692 -85.828110
v 15.606361 -1.915962 -92.238609
v 15.606361 -1.915962 -85.828110
v -10.886314 24.576721 -92.238609
v -10.886314 24.576721 -85.828110
v 18.300377 3.371338 -92.238609
v 18.300377 3.371338 -85.828110
v -5.599010 27.270737 -92.238609
v -5.599010 27.270737 -85.828110
v 19.228668 9.232361 -92.238609
v 19.228668 9.232361 -85.828110
v 0.262012 28.199020 -92.238609
v 0.262012 28.199020 -85.828110
v 18.300385 15.093384 -92.238609
v 18.300385 15.093384 -85.828110
v 6.123035 27.270737 -92.238609
v 6.123035 27.270737 -85.828110
v 15.606369 20.380692 -92.238609
v 15.606369 20.380692 -85.828110
v 11.410339 24.576721 -92.238609
v 11.410339 24.576721 -85.828110
v -10.886311 51.572861 -92.238609
v -15.082340 55.768875 -92.238609
v -15.082340 55.768875 -85.828110
v -10.886311 51.572861 -85.828110
v -17.776354 61.056183 -92.238609
v -17.776354 61.056183 -85.828110
v -5.599007 48.878845 -92.238609
v -5.599007 48.878845 -85.828110
v -18.704649 66.917206 -92.238609
v -18.704649 66.917206 -85.828110
v 0.262012 47.950546 -92.238609
v 0.262012 47.950546 -85.828110
v -17.776354 72.778229 -92.238609
v -17.776354 72.778229 -85.828110
v 6.123032 48.878845 -92.238609
v 6.123032 48.878845 -85.828110
v 11.410332 51.572861 -92.238609
v 11.410332 51.572861 -85.828110
v -15.082340 78.065536 -92.238609
v -15.082340 78.065536 -85.828110
v 15.606361 55.768890 -92.238609
v 15.606361 55.768890 -85.828110
v -10.886314 82.261566 -92.238609
v -10.886314 82.261566 -85.828110
v 18.300377 61.056183 -92.238609
v 18.300377 61.056183 -85.828110
v -5.599010 84.955582 -92.238609
v -5.599010 84.955582 -85.828110
v 19.228668 66.917206 -92.238609
v 19.228668 66.917206 -85.828110
v 0.262012 85.883865 -92.238609
v 0.262012 85.883865 -85.828110
v 18.300385 72.778229 -92.238609
v 18.300385 72.778229 -85.828110
v 6.123035 84.955582 -92.238609
v 6.123035 84.955582 -85.828110
v 15.606369 78.065536 -92.238609
v 15.606369 78.065536 -85.828110
v 11.410339 82.261566 -92.238609
v 11.410339 82.261566 -85.828110
v -53.339500 106.163651 -85.828110
v -53.339500 106.163651 -92.238609
v -53.339500 -210.013458 -92.238609
v -53.339500 -210.013458 -85.828110
v -69.166527 96.639267 -85.256729
v 72.059059 96.638931 -85.256729
v -69.166527 130.730240 -85.256729
v 72.059059 130.730240 -85.256729
v -69.166527 130.730240 -92.810005
v 72.059059 130.730240 -92.810005
v -69.166527 96.639267 -92.810005
v 72.059059 96.638931 -92.810005
v -10.041649 126.697174 -86.397507
v 9.727394 126.696228 -86.397507
v -10.041649 296.993042 -86.397507
v 9.727394 296.993042 -86.397507
v -10.041649 296.993042 -91.669220
v 9.727394 296.993042 -91.669220
v -10.041649 126.697174 -91.669220
v 9.727394 126.696228 -91.669220
vt 0.625000 0.000000
vt 0.875000 0.000000
vt 0.875000 0.250000
vt 0.625000 0.250000
vt 0.525000 0.466235
vt 0.512500 0.466235
vt 0.512500 0.484589
vt 0.525000 0.484589
vt 0.500000 0.466235
vt 0.500000 0.484589
vt 0.537500 0.466235
vt 0.537500 0.484589
vt 0.487500 0.466235
vt 0.487500 0.484589
vt 0.550000 0.466235
vt 0.550000 0.484589
vt 0.475000 0.466235
vt 0.475000 0.484589
vt 0.562500 0.466235
vt 0.562500 0.484589
vt 0.575000 0.466235
vt 0.575000 0.484589
vt 0.462500 0.466235
vt 0.462500 0.484589
vt 0.587500 0.466235
vt 0.587500 0.484589
vt 0.450000 0.466235
vt 0.450000 0.484589
vt 0.600000 0.466235
vt 0.600000 0.484589
vt 0.437500 0.466235
vt 0.437500 0.484589
vt 0.612500 0.466235
vt 0.612500 0.484589
vt 0.425000 0.466235
vt 0.425000 0.484589
vt 0.625000 0.466235
vt 0.625000 0.484589
vt 0.412500 0.466235
vt 0.412500 0.484589
vt 0.387500 0.466235
vt 0.375000 0.466235
vt 0.375000 0.484589
vt 0.387500 0.484589
vt 0.400000 0.466235
vt 0.400000 0.484589
vt 0.525000 0.466235
vt 0.512500 0.466235
vt 0.512500 0.484589
vt 0.525000 0.484589
vt 0.500000 0.466235
vt 0.500000 0.484589
vt 0.537500 0.466235
vt 0.537500 0.484589
vt 0.487500 0.466235
vt 0.487500 0.484589
vt 0.550000 0.466235
vt 0.550000 0.484589
vt 0.475000 0.466235
vt 0.475000 0.484589
vt 0.562500 0.466235
vt 0.562500 0.484589
vt 0.575000 0.466235
vt 0.575000 0.484589
vt 0.462500 0.466235
vt 0.462500 0.484589
vt 0.587500 0.466235
vt 0.587500 0.484589
vt 0.450000 0.466235
vt 0.450000 0.484589
vt 0.600000 0.466235
vt 0.600000 0.484589
vt 0.437500 0.466235
vt 0.437500 0.484589
vt 0.612500 0.466235
vt 0.612500 0.484589
vt 0.425000 0.466235
vt 0.425000 0.484589
vt 0.625000 0.466235
vt 0.625000 0.484589
vt 0.412500 0.466235
vt 0.412500 0.484589
vt 0.387500 0.466235
vt 0.375000 0.466235
vt 0.375000 0.484589
vt 0.387500 0.484589
vt 0.400000 0.466235
vt 0.400000 0.484589
vt 0.375000 0.250000
vt 0.625000 0.500000
vt 0.375000 0.500000
vt 0.497298 0.554698
vt 0.483925 0.556023
vt 0.471862 0.558585
vt 0.462288 0.562166
vt 0.456141 0.566408
vt 0.454023 0.570856
vt 0.456141 0.575020
vt 0.462288 0.578440
vt 0.471862 0.580754
vt 0.483925 0.581740
vt 0.497298 0.581334
vt 0.375000 0.750000
vt 0.497298 0.195302
vt 0.510671 0.195320
vt 0.522734 0.194091
vt 0.532308 0.191769
vt 0.538455 0.188577
vt 0.540573 0.184791
vt 0.538455 0.180727
vt 0.532308 0.176730
vt 0.522734 0.173161
vt 0.510671 0.170372
vt 0.497298 0.168666
vt 0.375000 0.000000
vt 0.510671 0.514057
vt 0.497298 0.513492
vt 0.483925 0.514179
vt 0.471862 0.516091
vt 0.462288 0.519085
vt 0.456141 0.522899
vt 0.454023 0.527152
vt 0.456141 0.531385
vt 0.462288 0.535128
vt 0.471862 0.537970
vt 0.483925 0.539614
vt 0.497298 0.539897
vt 0.471862 0.232228
vt 0.483925 0.234301
vt 0.497298 0.235063
vt 0.510671 0.234471
vt 0.522734 0.232620
vt 0.532308 0.229731
vt 0.538455 0.226112
vt 0.540573 0.222113
vt 0.538455 0.218097
vt 0.532308 0.214412
vt 0.522734 0.211376
vt 0.510671 0.209249
vt 0.497298 0.208218
vt 0.483925 0.168260
vt 0.471862 0.169246
vt 0.462288 0.171560
vt 0.456141 0.174980
vt 0.454023 0.179144
vt 0.456141 0.183592
vt 0.462288 0.187834
vt 0.471862 0.191415
vt 0.483925 0.193977
vt 0.483925 0.208412
vt 0.471862 0.209904
vt 0.462288 0.212632
vt 0.456141 0.216343
vt 0.454023 0.220634
vt 0.456141 0.225024
vt 0.462288 0.229030
vt 0.625000 0.750000
vt 0.510671 0.579628
vt 0.522734 0.576838
vt 0.532308 0.573270
vt 0.538455 0.569273
vt 0.540573 0.565208
vt 0.538455 0.561423
vt 0.532308 0.558231
vt 0.522734 0.555909
vt 0.510671 0.554680
vt 0.510671 0.538824
vt 0.522734 0.536579
vt 0.532308 0.533451
vt 0.538455 0.529754
vt 0.540573 0.525812
vt 0.538455 0.521956
vt 0.532308 0.518514
vt 0.522734 0.515793
vt 0.125000 0.000000
vt 0.125000 0.250000
vt 0.625000 1.000000
vt 0.375000 1.000000
vt 0.375000 0.000000
vt 0.625000 0.000000
vt 0.625000 0.250000
vt 0.375000 0.250000
vt 0.625000 0.500000
vt 0.375000 0.500000
vt 0.625000 0.750000
vt 0.375000 0.750000
vt 0.625000 1.000000
vt 0.375000 1.000000
vt 0.875000 0.000000
vt 0.875000 0.250000
vt 0.125000 0.000000
vt 0.125000 0.250000
vt 0.375000 0.000000
vt 0.625000 0.000000
vt 0.625000 0.250000
vt 0.375000 0.250000
vt 0.625000 0.500000
vt 0.375000 0.500000
vt 0.625000 0.750000
vt 0.375000 0.750000
vt 0.625000 1.000000
vt 0.375000 1.000000
vt 0.875000 0.000000
vt 0.875000 0.250000
vt 0.125000 0.000000
vt 0.125000 0.250000
vn 1.000000 0.000000 0.000000
vn 1.000000 0.000000 0.000000
vn 1.000000 0.000000 0.000000
vn 1.000000 0.000000 0.000000
vn 0.587785 0.809017 0.000000
vn 0.809017 0.587785 0.000000
vn 0.809017 0.587785 0.000000
vn 0.587785 0.809017 0.000000
vn 0.951057 0.309017 0.000000
vn 0.951057 0.309017 0.000000
vn 0.309017 0.951057 0.000000
vn 0.309017 0.951057 0.000000
vn 1.000000 0.000000 0.000000
vn 1.000000 0.000000 0.000000
vn -0.000001 1.000000 0.000000
vn -0.000001 1.000000 0.000000
vn 0.951057 -0.309017 0.000000
vn 0.951057 -0.309017 0.000000
vn -0.309018 0.951056 0.000000
vn -0.309018 0.951056 0.000000
vn -0.587785 0.809017 0.000000
vn -0.587785 0.809017 0.000000
vn 0.809017 -0.587785 0.000000
vn 0.809017 -0.587785 0.000000
vn -0.809017 0.587786 0.000000
vn -0.809017 0.587786 0.000000
vn 0.587786 -0.809017 0.000000
vn 0.587786 -0.809017 0.000000
vn -0.951057 0.309017 0.000000
vn -0.951057 0.309017 0.000000
vn 0.309016 -0.951057 0.000000
vn 0.309016 -0.951057 0.000000
vn -1.000000 0.000001 0.000000
vn -1.000000 0.000001 0.000000
vn 0.000000 -1.000000 0.000000
vn 0.000000 -1.000000 0.000000
vn -0.951057 -0.309016 0.000000
vn -0.951057 -0.309016 0.000000
vn -0.309016 -0.951057 0.000000
vn -0.309016 -0.951057 0.000000
vn -0.809017 -0.587785 0.000000
vn -0.809017 -0.587785 0.000000
vn -0.587785 -0.809017 0.000000
vn -0.587785 -0.809017 0.000000
vn 0.587785 0.809017 0.000000
vn 0.809017 0.587786 0.000000
vn 0.809017 0.587786 0.000000
vn 0.587785 0.809017 0.000000
vn 0.951057 0.309017 0.000000
vn 0.951057 0.309017 0.000000
vn 0.309017 0.951056 0.000000
vn 0.309017 0.951056 0.000000
vn 1.000000 0.000000 0.000000
vn 1.000000 0.000000 0.000000
vn 0.000000 1.000000 0.000000
vn 0.000000 1.000000 0.000000
vn 0.951057 -0.309017 0.000000
vn 0.951057 -0.309017 0.000000
vn -0.309018 0.951056 0.000000
vn -0.309018 0.951056 0.000000
vn -0.587785 0.809017 0.000000
vn -0.587785 0.809017 0.000000
vn 0.809017 -0.587785 0.000000
vn 0.809017 -0.587785 0.000000
vn -0.809017 0.587786 0.000000
vn -0.809017 0.587786 0.000000
vn 0.587786 -0.809017 0.000000
vn 0.587786 -0.809017 0.000000
vn -0.951057 0.309017 0.000000
vn -0.951057 0.309017 0.000000
vn 0.309016 -0.951057 0.000000
vn 0.309016 -0.951057 0.000000
vn -1.000000 0.000001 0.000000
vn -1.000000 0.000001 0.000000
vn 0.000000 -1.000000 0.000000
vn 0.000000 -1.000000 0.000000
vn -0.951057 -0.309016 0.000000
vn -0.951057 -0.309016 0.000000
vn -0.309016 -0.951057 0.000000
vn -0.309016 -0.951057 0.000000
vn -0.809017 -0.587785 0.000000
vn -0.809017 -0.587785 0.000000
vn -0.587785 -0.809017 0.000000
vn -0.587785 -0.809017 0.000000
vn 0.000000 1.000000 0.000000
vn 0.000000 1.000000 0.000000
vn 0.000000 1.000000 0.000000
vn 0.000000 1.000000 0.000000
vn 0.000000 0.000000 -1.000000
vn -0.000000 0.000000 -1.000000
vn 0.000000 0.000000 -1.000000
vn 0.000000 0.000000 -1.000000
vn 0.000000 0.000000 -1.000000
vn 0.000000 0.000000 -1.000000
vn 0.000000 0.000000 -1.000000
vn 0.000000 0.000000 -1.000000
vn 0.000000 0.000000 -1.000000
vn 0.000000 0.000000 -1.000000
vn 0.000000 0.000000 -1.000000
vn -0.000000 0.000000 -1.000000
vn -0.000000 0.000000 -1.000000
vn -0.000000 0.000000 1.000000
vn 0.000000 0.000000 1.000000
vn 0.000000 0.000000 1.000000
vn 0.000000 0.000000 1.000000
vn 0.000000 0.000000 1.000000
vn 0.000000 0.000000 1.000000
vn 0.000000 0.000000 1.000000
vn 0.000000 0.000000 1.000000
vn 0.000000 0.000000 1.000000
vn 0.000000 0.000000 1.000000
vn -0.000000 0.000000 1.000000
vn -0.000000 0.000000 1.000000
vn 0.000000 0.000000 1.000000
vn 0.000000 0.000000 1.000000
vn -0.000000 0.000000 -1.000000
vn -0.000000 0.000000 -1.000000
vn 0.000000 0.000000 -1.000000
vn 0.000000 0.000000 -1.000000
vn 0.000000 0.000000 -1.000000
vn 0.000000 0.000000 -1.000000
vn 0.000000 0.000000 -1.000000
vn 0.000000 0.000000 -1.000000
vn 0.000000 0.000000 -1.000000
vn 0.000000 0.000000 -1.000000
vn 0.000000 0.000000 -1.000000
vn 0.000000 0.000000 -1.000000
vn -0.000000 0.000000 -1.000000
vn -0.000000 0.000000 1.000000
vn 0.000000 0.000000 1.000000
vn 0.000000 0.000000 1.000000
vn 0.000000 0.000000 1.000000
vn 0.000000 0.000000 1.000000
vn 0.000000 0.000000 1.000000
vn 0.000000 0.000000 1.000000
vn 0.000000 0.000000 1.000000
vn 0.000000 0.000000 1.000000
vn 0.000000 0.000000 1.000000
vn 0.000000 0.000000 1.000000
vn 0.000000 0.000000 1.000000
vn -0.000000 0.000000 1.000000
vn -0.000000 0.000000 1.000000
vn -0.000000 0.000000 1.000000
vn -0.000000 0.000000 1.000000
vn -0.000000 0.000000 1.000000
vn -0.000000 0.000000 1.000000
vn -0.000000 0.000000 1.000000
vn -0.000000 0.000000 1.000000
vn -0.000000 0.000000 1.000000
vn -0.000000 0.000000 1.000000
vn -0.000000 0.000000 1.000000
vn -0.000000 0.000000 1.000000
vn -0.000000 0.000000 1.000000
vn -0.000000 0.000000 1.000000
vn -0.000000 0.000000 1.000000
vn -0.000000 0.000000 1.000000
vn -0.000000 0.000000 1.000000
vn -0.000000 0.000000 1.000000
vn -0.000000 0.000000 -1.000000
vn -0.000000 0.000000 -1.000000
vn -0.000000 0.000000 -1.000000
vn -0.000000 0.000000 -1.000000
vn -0.000000 0.000000 -1.000000
vn -0.000000 0.000000 -1.000000
vn -0.000000 0.000000 -1.000000
vn -0.000000 0.000000 -1.000000
vn -0.000000 0.000000 -1.000000
vn -0.000000 0.000000 -1.000000
vn -0.000000 0.000000 -1.000000
vn -0.000000 0.000000 -1.000000
vn -0.000000 0.000000 -1.000000
vn -0.000000 0.000000 -1.000000
vn -0.000000 0.000000 -1.000000
vn -0.000000 0.000000 -1.000000
vn -0.000000 0.000000 -1.000000
vn -0.000000 0.000000 -1.000000
vn -1.000000 0.000000 0.000000
vn -1.000000 0.000000 0.000000
vn -1.000000 0.000000 0.000000
vn -1.000000 0.000000 0.000000
vn -0.647541 -0.762030 0.000000
vn -0.647541 -0.762030 0.000000
vn -0.647541 -0.762030 0.000000
vn -0.647541 -0.762030 0.000000
vn 0.000000 0.000000 1.000000
vn 0.000000 0.000000 1.000000
vn 0.000000 0.000000 1.000000
vn 0.000000 0.000000 1.000000
vn 0.000000 1.000000 0.000000
vn 0.000000 1.000000 0.000000
vn 0.000000 1.000000 0.000000
vn 0.000000 1.000000 0.000000
vn 0.000000 0.000000 -1.000000
vn 0.000000 0.000000 -1.000000
vn 0.000000 0.000000 -1.000000
vn 0.000000 0.000000 -1.000000
vn -0.000002 -1.000000 0.000000
vn -0.000002 -1.000000 0.000000
vn -0.000002 -1.000000 0.000000
vn -0.000002 -1.000000 0.000000
vn 1.000000 0.000000 0.000000
vn 1.000000 0.000000 0.000000
vn 1.000000 0.000000 0.000000
vn 1.000000 0.000000 0.000000
vn -1.000000 0.000000 0.000000
vn -1.000000 0.000000 0.000000
vn -1.000000 0.000000 0.000000
vn -1.000000 0.000000 0.000000
vn -0.000000 0.000000 1.000000
vn -0.000000 0.000000 1.000000
vn -0.000000 0.000000 1.000000
vn -0.000000 0.000000 1.000000
vn 0.000000 1.000000 0.000000
vn 0.000000 1.000000 0.000000
vn 0.000000 1.000000 0.000000
vn 0.000000 1.000000 0.000000
vn 0.000000 0.000000 -1.000000
vn 0.000000 0.000000 -1.000000
vn 0.000000 0.000000 -1.000000
vn 0.000000 0.000000 -1.000000
vn -0.000048 -1.000000 0.000000
vn -0.000048 -1.000000 0.000000
vn -0.000048 -1.000000 0.000000
vn -0.000048 -1.000000 0.000000
vn 1.000000 0.000000 0.000000
vn 1.000000 0.000000 0.000000
vn 1.000000 0.000000 0.000000
vn 1.000000 0.000000 0.000000
vn -1.000000 0.000000 0.000000
vn -1.000000 0.000000 0.000000
vn -1.000000 0.000000 0.000000
vn -1.000000 0.000000 0.000000
s off
g ImageSign_08
usemtl initialShadingGroup
f 1/1/1 2/2/2 3/3/3 4/4/4
s 1
f 5/5/5 6/6/6 7/7/7 8/8/8
f 6/6/6 9/9/9 10/10/10 7/7/7
f 11/11/11 5/5/5 8/8/8 12/12/12
f 9/9/9 13/13/13 14/14/14 10/10/10
f 15/15/15 11/11/11 12/12/12 16/16/16
f 13/13/13 17/17/17 18/18/18 14/14/14
f 19/19/19 15/15/15 16/16/16 20/20/20
f 21/21/21 19/19/19 20/20/20 22/22/22
f 17/17/17 23/23/23 24/24/24 18/18/18
f 25/25/25 21/21/21 22/22/22 26/26/26
f 23/23/23 27/27/27 28/28/28 24/24/24
f 29/29/29 25/25/25 26/26/26 30/30/30
f 27/27/27 31/31/31 32/32/32 28/28/28
f 33/33/33 29/29/29 30/30/30 34/34/34
f 31/31/31 35/35/35 36/36/36 32/32/32
f 37/37/37 33/33/33 34/34/34 38/38/38
f 35/35/35 39/39/39 40/40/40 36/36/36
f 41/41/41 37/42/37 38/43/38 42/44/42
f 39/39/39 43/45/43 44/46/44 40/40/40
f 43/45/43 41/41/41 42/44/42 44/46/44
s 2
f 45/47/45 46/48/46 47/49/47 48/50/48
f 46/48/46 49/51/49 50/52/50 47/49/47
f 51/53/51 45/47/45 48/50/48 52/54/52
f 49/51/49 53/55/53 54/56/54 50/52/50
f 55/57/55 51/53/51 52/54/52 56/58/56
f 53/55/53 57/59/57 58/60/58 54/56/54
f 59/61/59 55/57/55 56/58/56 60/62/60
f 61/63/61 59/61/59 60/62/60 62/64/62
f 57/59/57 63/65/63 64/66/64 58/60/58
f 65/67/65 61/63/61 62/64/62 66/68/66
f 63/65/63 67/69/67 68/70/68 64/66/64
f 69/71/69 65/67/65 66/68/66 70/72/70
f 67/69/67 71/73/71 72/74/72 68/70/68
f 73/75/73 69/71/69 70/72/70 74/76/74
f 71/73/71 75/77/75 76/78/76 72/74/72
f 77/79/77 73/75/73 74/76/74 78/80/78
f 75/77/75 79/81/79 80/82/80 76/78/76
f 81/83/81 77/84/77 78/85/78 82/86/82
f 79/81/79 83/87/83 84/88/84 80/82/80
f 83/87/83 81/83/81 82/86/82 84/88/84
s off
f 85/89/85 4/4/86 3/90/87 86/91/88
s 3
f 86/91/89 35/92/90 31/93/91 27/94/92 23/95/93 17/96/94 13/97/95 9/98/96 6/99/97 5/100/98 11/101/99 15/102/100 87/103/101
s 4
f 36/104/102 40/105/103 44/106/104 42/107/105 38/108/106 34/109/107 30/110/108 26/111/109 22/112/110 20/113/111 16/114/112 88/115/113 1/1/114 4/4/115
s 3
f 86/91/89 3/90/116 79/116/117 75/117/118 71/118/119 67/119/120 63/120/121 57/121/122 53/122/123 49/123/124 46/124/125 45/125/126 51/126/127 55/127/128 35/92/90
s 4
f 68/128/129 72/129/130 76/130/131 80/131/132 84/132/133 82/133/134 78/134/135 74/135/136 70/136/137 66/137/138 62/138/139 60/139/140 56/140/141 36/104/102 4/4/115 85/89/142
f 88/115/113 16/114/112 12/141/143 8/142/144 7/143/145 10/144/146 14/145/147 18/146/148 24/147/149 28/148/150 32/149/151 36/104/102 56/140/141 52/150/152 48/151/153 47/152/154 50/153/155 54/154/156 58/155/157 64/156/158 68/128/129 85/89/142
s 3
f 3/90/116 2/157/159 87/103/101 15/102/100 19/158/160 21/159/161 25/160/162 29/161/163 33/162/164 37/163/165 41/164/166 43/165/167 39/166/168 35/92/90 55/127/128 59/167/169 61/168/170 65/169/171 69/170/172 73/171/173 77/172/174 81/173/175 83/174/176 79/116/117
s off
f 87/175/177 88/115/178 85/89/179 86/176/180
f 87/103/181 2/157/182 1/177/183 88/178/184
f 89/179/185 90/180/186 92/181/187 91/182/188
f 91/182/189 92/181/190 94/183/191 93/184/192
f 93/184/193 94/183/194 96/185/195 95/186/196
f 95/186/197 96/185/198 90/187/199 89/188/200
f 90/180/201 96/189/202 94/190/203 92/181/204
f 95/191/205 89/179/206 91/182/207 93/192/208
f 97/193/209 98/194/210 100/195/211 99/196/212
f 99/196/213 100/195/214 102/197/215 101/198/216
f 101/198/217 102/197/218 104/199/219 103/200/220
f 103/200/221 104/199/222 98/201/223 97/202/224
f 98/194/225 104/203/226 102/204/227 100/195/228
f 103/205/229 97/193/230 99/196/231 101/206/232
