# This file uses meters as units for non-parametric coordinates.

mtllib ImageSign_05.mtl
g default
v -163.491669 -49.846161 -86.411484
v -107.170135 -49.846161 -86.411484
v -37.950287 94.321709 -86.411484
v 18.371368 94.321709 -86.411484
v -37.950287 94.321709 -92.076904
v 18.371368 94.321709 -92.076904
v -163.491669 -49.846161 -92.076904
v -107.170135 -49.846161 -92.076904
v -48.372406 17.426712 -86.411484
v -104.694061 17.426712 -86.411484
v -104.694061 17.426712 -92.076904
v -48.372406 17.426712 -92.076904
v -88.299652 -29.632805 -86.411484
v -144.621185 -29.632805 -86.411484
v -144.621185 -29.632805 -92.076904
v -88.299652 -29.632805 -92.076904
v 42.004303 -29.632805 -92.076904
v 42.004303 -29.632805 -86.411484
v 42.004791 17.426712 -92.076904
v 42.004791 17.426712 -86.411484
v 46.816925 -45.831978 -92.076935
v 46.816925 -45.831978 -86.411469
v 46.817047 33.625893 -92.076935
v 46.817047 33.625893 -86.411469
v 90.577667 -32.025017 -92.076935
v 90.577667 -32.025017 -86.411469
v 165.571808 -9.953392 -92.076935
v 165.571808 -9.953392 -86.411469
v -77.949158 60.623680 -85.828110
v -62.957184 74.453552 -85.828110
v -147.029510 60.623695 -85.828110
v -135.250488 74.453529 -85.828110
v -147.029510 60.623695 -92.238609
v -135.250488 74.453529 -92.238609
v -77.949158 60.623680 -92.238609
v -62.957184 74.453552 -92.238609
v -57.390381 -92.644615 -85.828110
v -42.398438 -77.052574 -85.828110
v -164.134979 -92.644615 -85.828110
v -164.134979 -77.052574 -85.828110
v -164.134979 -92.644615 -92.238609
v -164.134979 -77.052574 -92.238609
v -57.390381 -92.644615 -92.238609
v -42.398438 -77.052574 -92.238609
v -38.779724 -70.932213 -85.828110
v -23.787811 -55.340172 -85.828110
v -164.134979 -70.932213 -85.828110
v -164.134979 -55.340172 -85.828110
v -164.134979 -70.932213 -92.238609
v -164.134979 -55.340172 -92.238609
v -38.779724 -70.932213 -92.238609
v -23.787811 -55.340172 -92.238609
v -59.338531 80.509201 -85.828110
v -44.346588 94.321709 -85.828110
v -130.453857 80.509209 -85.828110
v -119.743744 94.321709 -85.828110
v -130.453857 80.509209 -92.238609
v -119.743744 94.321709 -92.238609
v -59.338531 80.509201 -92.238609
v -44.346588 94.321709 -92.238609
vt 0.375000 0.000000
vt 0.625000 0.000000
vt 0.375000 0.250000
vt 0.625000 0.250000
vt 0.375000 0.500000
vt 0.625000 0.500000
vt 0.375000 0.750000
vt 0.625000 0.750000
vt 0.375000 1.000000
vt 0.625000 1.000000
vt 0.875000 0.000000
vt 0.875000 0.250000
vt 0.125000 0.000000
vt 0.125000 0.250000
vt 0.625000 0.153027
vt 0.375000 0.153027
vt 0.125000 0.153027
vt 0.375000 0.596973
vt 0.625000 0.596973
vt 0.875000 0.153027
vt 0.625000 0.095016
vt 0.375000 0.095016
vt 0.125000 0.095016
vt 0.375000 0.654984
vt 0.625000 0.654984
vt 0.875000 0.095016
vt 0.625000 0.095016
vt 0.875000 0.095016
vt 0.875000 0.153027
vt 0.625000 0.153027
vt 0.625000 0.095016
vt 0.875000 0.095016
vt 0.875000 0.153027
vt 0.625000 0.153027
vt 0.625000 0.095016
vt 0.875000 0.095016
vt 0.875000 0.153027
vt 0.625000 0.153027
vt 0.375000 0.000000
vt 0.625000 0.000000
vt 0.625000 0.250000
vt 0.375000 0.250000
vt 0.625000 0.500000
vt 0.375000 0.500000
vt 0.625000 0.750000
vt 0.375000 0.750000
vt 0.625000 1.000000
vt 0.375000 1.000000
vt 0.875000 0.000000
vt 0.875000 0.250000
vt 0.125000 0.000000
vt 0.125000 0.250000
vt 0.375000 0.000000
vt 0.625000 0.000000
vt 0.625000 0.250000
vt 0.375000 0.250000
vt 0.625000 0.500000
vt 0.375000 0.500000
vt 0.625000 0.750000
vt 0.375000 0.750000
vt 0.625000 1.000000
vt 0.375000 1.000000
vt 0.875000 0.000000
vt 0.875000 0.250000
vt 0.125000 0.000000
vt 0.125000 0.250000
vt 0.375000 0.000000
vt 0.625000 0.000000
vt 0.625000 0.250000
vt 0.375000 0.250000
vt 0.625000 0.500000
vt 0.375000 0.500000
vt 0.625000 0.750000
vt 0.375000 0.750000
vt 0.625000 1.000000
vt 0.375000 1.000000
vt 0.875000 0.000000
vt 0.875000 0.250000
vt 0.125000 0.000000
vt 0.125000 0.250000
vt 0.375000 0.000000
vt 0.625000 0.000000
vt 0.625000 0.250000
vt 0.375000 0.250000
vt 0.625000 0.500000
vt 0.375000 0.500000
vt 0.625000 0.750000
vt 0.375000 0.750000
vt 0.625000 1.000000
vt 0.375000 1.000000
vt 0.875000 0.000000
vt 0.875000 0.250000
vt 0.125000 0.000000
vt 0.125000 0.250000
vn 0.000000 0.000000 1.000000
vn 0.000000 0.000000 1.000000
vn 0.000000 0.000000 1.000000
vn 0.000000 0.000000 1.000000
vn 0.000000 1.000000 0.000000
vn 0.000000 1.000000 0.000000
vn 0.000000 1.000000 0.000000
vn 0.000000 1.000000 0.000000
vn 0.000000 0.000000 -1.000000
vn 0.000000 0.000000 -1.000000
vn 0.000000 0.000000 -1.000000
vn 0.000000 0.000000 -1.000000
vn 0.000000 -1.000000 0.000000
vn 0.000000 -1.000000 0.000000
vn 0.000000 -1.000000 0.000000
vn 0.000000 -1.000000 0.000000
vn 0.730971 -0.682409 0.000000
vn 0.730971 -0.682409 0.000000
vn 0.730971 -0.682409 0.000000
vn 0.730971 -0.682409 0.000000
vn -0.730970 0.682409 0.000000
vn -0.730970 0.682409 0.000000
vn -0.752944 0.658085 0.000000
vn -0.752944 0.658085 0.000000
vn 0.000000 0.000000 1.000000
vn 0.000000 0.000000 1.000000
vn 0.000000 0.000000 1.000000
vn 0.000000 0.000000 1.000000
vn -0.757974 0.652285 0.000000
vn -0.757974 0.652285 0.000000
vn -0.755196 0.655499 0.000000
vn -0.755196 0.655499 0.000000
vn 0.000000 0.000000 -1.000000
vn 0.000000 0.000000 -1.000000
vn 0.000000 0.000000 -1.000000
vn 0.000000 0.000000 -1.000000
vn 0.755196 -0.655499 0.000000
vn 0.755196 -0.655499 0.000000
vn 0.755196 -0.655499 0.000000
vn 0.755196 -0.655499 0.000000
vn 0.282338 -0.959315 0.000000
vn 0.282338 -0.959315 0.000000
vn 0.282338 -0.959315 0.000000
vn 0.282338 -0.959315 0.000000
vn 0.000000 -1.000000 0.000000
vn 0.000000 -1.000000 0.000000
vn 0.000000 -1.000000 0.000000
vn 0.000000 -1.000000 0.000000
vn 0.000000 0.000000 -1.000000
vn 0.000000 0.000000 -1.000000
vn 0.000000 0.000000 -1.000000
vn 0.000000 0.000000 -1.000000
vn 0.000000 1.000000 0.000000
vn 0.000000 1.000000 0.000000
vn 0.000000 1.000000 0.000000
vn 0.000000 1.000000 0.000000
vn 0.000000 0.000000 1.000000
vn 0.000000 0.000000 1.000000
vn 0.000000 0.000000 1.000000
vn 0.000000 0.000000 1.000000
vn -0.958590 -0.284788 0.000000
vn -0.958591 -0.284788 0.000000
vn -0.958591 -0.284788 0.000000
vn -0.958591 -0.284788 0.000000
vn -0.000006 0.000000 -1.000000
vn -0.000006 0.000000 -1.000000
vn -0.000006 0.000000 -1.000000
vn -0.000006 0.000000 -1.000000
vn -0.958596 0.284768 0.000000
vn -0.958596 0.284768 0.000000
vn -0.958596 0.284768 0.000000
vn -0.958596 0.284768 0.000000
vn -0.000004 0.000000 1.000000
vn -0.000004 0.000000 1.000000
vn -0.000004 0.000000 1.000000
vn -0.000004 0.000000 1.000000
vn 0.300889 -0.953659 0.000000
vn 0.300889 -0.953659 0.000000
vn 0.300889 -0.953659 0.000000
vn 0.300889 -0.953659 0.000000
vn 0.000000 0.000000 -1.000000
vn 0.000000 0.000000 -1.000000
vn 0.000000 0.000000 -1.000000
vn 0.000000 0.000000 -1.000000
vn 0.344505 0.938785 0.000000
vn 0.344505 0.938785 0.000000
vn 0.344505 0.938785 0.000000
vn 0.344505 0.938785 0.000000
vn 0.000000 0.000000 1.000000
vn 0.000000 0.000000 1.000000
vn 0.000000 0.000000 1.000000
vn 0.000000 0.000000 1.000000
vn 0.000000 0.000000 1.000000
vn 0.000000 0.000000 1.000000
vn 0.000000 0.000000 1.000000
vn 0.000000 0.000000 1.000000
vn -0.761296 0.648404 0.000000
vn -0.761296 0.648404 0.000000
vn -0.761296 0.648404 0.000000
vn -0.761296 0.648404 0.000000
vn -0.000000 0.000000 -1.000000
vn -0.000000 0.000000 -1.000000
vn -0.000000 0.000000 -1.000000
vn -0.000000 0.000000 -1.000000
vn 0.678045 -0.735020 0.000000
vn 0.678045 -0.735020 0.000000
vn 0.678045 -0.735020 0.000000
vn 0.678045 -0.735020 0.000000
vn -0.000000 1.000000 0.000000
vn -0.000000 1.000000 0.000000
vn -0.000000 1.000000 0.000000
vn -0.000000 1.000000 0.000000
vn -0.000000 -1.000000 0.000000
vn -0.000000 -1.000000 0.000000
vn -0.000000 -1.000000 0.000000
vn -0.000000 -1.000000 0.000000
vn 0.000000 0.000000 1.000000
vn 0.000000 0.000000 1.000000
vn 0.000000 0.000000 1.000000
vn 0.000000 0.000000 1.000000
vn -1.000000 0.000000 0.000000
vn -1.000000 0.000000 0.000000
vn -1.000000 0.000000 0.000000
vn -1.000000 0.000000 0.000000
vn 0.000000 0.000000 -1.000000
vn 0.000000 0.000000 -1.000000
vn 0.000000 0.000000 -1.000000
vn 0.000000 0.000000 -1.000000
vn 0.720843 -0.693099 0.000000
vn 0.720843 -0.693099 0.000000
vn 0.720843 -0.693099 0.000000
vn 0.720843 -0.693099 0.000000
vn 0.000000 1.000000 0.000000
vn 0.000000 1.000000 0.000000
vn 0.000000 1.000000 0.000000
vn 0.000000 1.000000 0.000000
vn 0.000000 -1.000000 0.000000
vn 0.000000 -1.000000 0.000000
vn 0.000000 -1.000000 0.000000
vn 0.000000 -1.000000 0.000000
vn 0.000000 0.000000 1.000000
vn 0.000000 0.000000 1.000000
vn 0.000000 0.000000 1.000000
vn 0.000000 0.000000 1.000000
vn -1.000000 0.000000 0.000000
vn -1.000000 0.000000 0.000000
vn -1.000000 0.000000 0.000000
vn -1.000000 0.000000 0.000000
vn 0.000000 0.000000 -1.000000
vn 0.000000 0.000000 -1.000000
vn 0.000000 0.000000 -1.000000
vn 0.000000 0.000000 -1.000000
vn 0.720843 -0.693098 0.000000
vn 0.720843 -0.693098 0.000000
vn 0.720843 -0.693098 0.000000
vn 0.720843 -0.693098 0.000000
vn 0.000000 1.000000 0.000000
vn 0.000000 1.000000 0.000000
vn 0.000000 1.000000 0.000000
vn 0.000000 1.000000 0.000000
vn 0.000000 -1.000000 0.000000
vn 0.000000 -1.000000 0.000000
vn 0.000000 -1.000000 0.000000
vn 0.000000 -1.000000 0.000000
vn 0.000000 0.000000 1.000000
vn 0.000000 0.000000 1.000000
vn 0.000000 0.000000 1.000000
vn 0.000000 0.000000 1.000000
vn -0.790265 0.612765 0.000000
vn -0.790265 0.612765 0.000000
vn -0.790265 0.612765 0.000000
vn -0.790265 0.612765 0.000000
vn -0.000000 0.000000 -1.000000
vn -0.000000 0.000000 -1.000000
vn -0.000000 0.000000 -1.000000
vn -0.000000 0.000000 -1.000000
vn 0.677586 -0.735444 0.000000
vn 0.677586 -0.735444 0.000000
vn 0.677586 -0.735444 0.000000
vn 0.677586 -0.735444 0.000000
vn 0.000000 1.000000 0.000000
vn 0.000000 1.000000 0.000000
vn 0.000000 1.000000 0.000000
vn 0.000000 1.000000 0.000000
vn -0.000000 -1.000000 0.000000
vn -0.000000 -1.000000 0.000000
vn -0.000000 -1.000000 0.000000
vn -0.000000 -1.000000 0.000000
s 1
g ImageSign_05
usemtl initialShadingGroup
f 1/1/1 2/2/2 13/21/3 14/22/4
s off
f 3/3/5 4/4/6 6/6/7 5/5/8
s 2
f 15/24/9 16/25/10 8/8/11 7/7/12
s off
f 7/7/13 8/8/14 2/10/15 1/9/16
f 2/2/17 8/11/18 16/26/19 13/21/20
s 3
f 7/13/21 1/1/22 14/22/23 15/23/24
s 1
f 10/16/25 9/15/26 4/4/27 3/3/28
s 3
f 11/17/29 10/16/30 3/3/31 5/14/32
s 2
f 5/5/33 6/6/34 12/19/35 11/18/36
s off
f 9/15/37 12/20/38 6/12/39 4/4/40
s 1
f 14/22/4 13/21/3 9/15/26 10/16/25
s 3
f 15/23/24 14/22/23 10/16/30 11/17/29
s 2
f 11/18/36 12/19/35 16/25/10 15/24/9
s off
f 26/35/41 25/36/42 27/37/43 28/38/44
f 13/21/45 16/26/46 17/28/47 18/27/48
f 16/26/49 12/20/50 19/29/51 17/28/52
f 12/20/53 9/15/54 20/30/55 19/29/56
f 9/15/57 13/21/58 18/27/59 20/30/60
f 18/27/61 17/28/62 21/32/63 22/31/64
f 17/28/65 19/29/66 23/33/67 21/32/68
f 19/29/69 20/30/70 24/34/71 23/33/72
f 20/30/73 18/27/74 22/31/75 24/34/76
f 22/31/77 21/32/78 25/36/79 26/35/80
f 21/32/81 23/33/82 27/37/83 25/36/84
f 23/33/85 24/34/86 28/38/87 27/37/88
f 24/34/89 22/31/90 26/35/91 28/38/92
f 29/39/93 30/40/94 32/41/95 31/42/96
f 31/42/97 32/41/98 34/43/99 33/44/100
f 33/44/101 34/43/102 36/45/103 35/46/104
f 35/46/105 36/45/106 30/47/107 29/48/108
f 30/40/109 36/49/110 34/50/111 32/41/112
f 35/51/113 29/39/114 31/42/115 33/52/116
f 37/53/117 38/54/118 40/55/119 39/56/120
f 39/56/121 40/55/122 42/57/123 41/58/124
f 41/58/125 42/57/126 44/59/127 43/60/128
f 43/60/129 44/59/130 38/61/131 37/62/132
f 38/54/133 44/63/134 42/64/135 40/55/136
f 43/65/137 37/53/138 39/56/139 41/66/140
f 45/67/141 46/68/142 48/69/143 47/70/144
f 47/70/145 48/69/146 50/71/147 49/72/148
f 49/72/149 50/71/150 52/73/151 51/74/152
f 51/74/153 52/73/154 46/75/155 45/76/156
f 46/68/157 52/77/158 50/78/159 48/69/160
f 51/79/161 45/67/162 47/70/163 49/80/164
f 53/81/165 54/82/166 56/83/167 55/84/168
f 55/84/169 56/83/170 58/85/171 57/86/172
f 57/86/173 58/85/174 60/87/175 59/88/176
f 59/88/177 60/87/178 54/89/179 53/90/180
f 54/82/181 60/91/182 58/92/183 56/83/184
f 59/93/185 53/81/186 55/84/187 57/94/188
