# This file uses meters as units for non-parametric coordinates.

mtllib Long_pipe_001.mtl
g default
v 181.939453 17.467430 -2.762009
v 181.939362 16.206093 -5.237484
v 181.939453 14.241524 -7.202072
v 181.939072 11.766060 -8.463371
v 181.939453 9.021935 -8.897995
v 181.939346 6.277855 -8.463425
v 181.938980 3.802345 -7.202087
v 181.939331 1.837776 -5.237495
v 181.938995 0.576469 -2.761967
v 181.939423 0.141838 -0.017883
v 181.938995 0.576469 2.726200
v 181.939346 1.837776 5.201664
v 181.938995 3.802345 7.166267
v 181.939362 6.277855 8.427567
v 181.939453 9.021935 8.862259
v 181.939056 11.766060 8.427559
v 181.939407 14.241524 7.166260
v 181.939056 16.206093 5.201656
v 181.939392 17.467430 2.726192
v 181.939453 17.902046 -0.017883
v -180.812012 17.467613 -2.762009
v -180.812103 16.205894 -5.237484
v -180.812012 14.241539 -7.202072
v -180.812393 11.765953 -8.463371
v -180.812500 9.021812 -8.897995
v -180.812119 6.277672 -8.463425
v -180.812485 3.802574 -7.202087
v -180.812134 1.837730 -5.237495
v -180.812469 0.576500 -2.761967
v -180.812042 0.141930 -0.017883
v -180.812469 0.576500 2.726200
v -180.812119 1.837730 5.201664
v -180.812469 3.802574 7.166267
v -180.812103 6.277672 8.427567
v -180.812500 9.021812 8.862259
v -180.812408 11.765953 8.427559
v -180.812057 14.241539 7.166260
v -180.812408 16.205894 5.201656
v -180.812073 17.467613 2.726192
v -180.812500 17.902184 -0.017883
v 181.939453 9.021935 -0.017883
v -180.812500 9.021812 -0.017883
v -180.605927 0.576286 2.726200
v -180.605499 0.141716 -0.017883
v -180.605927 0.576286 -2.761967
v -180.605591 1.837517 -5.237495
v -180.605453 3.802361 -7.202087
v -180.605576 6.277458 -8.463425
v -180.605469 9.021599 -8.897995
v -180.605850 11.765739 -8.463371
v -180.605469 14.241325 -7.202072
v -180.605560 16.205681 -5.237484
v -180.605469 17.467400 -2.762009
v -180.605469 17.901970 -0.017883
v -180.605530 17.467400 2.726192
v -180.605865 16.205681 5.201656
v -180.605515 14.241325 7.166260
v -180.605865 11.765739 8.427559
v -180.605469 9.021599 8.862259
v -180.605560 6.277458 8.427567
v -180.605438 3.802361 7.166267
v -180.605576 1.837517 5.201664
v 181.764252 11.766029 8.427559
v 181.764160 9.021919 8.862259
v 181.764069 6.277840 8.427567
v 181.764191 3.802345 7.166267
v 181.764053 1.837776 5.201664
v 181.764191 0.576439 2.726200
v 181.764130 0.141838 -0.017883
v 181.764191 0.576439 -2.761967
v 181.764038 1.837776 -5.237495
v 181.764175 3.802345 -7.202087
v 181.764053 6.277840 -8.463425
v 181.764160 9.021919 -8.897995
v 181.764267 11.766029 -8.463371
v 181.764160 14.241524 -7.202072
v 181.764069 16.206093 -5.237484
v 181.764160 17.467430 -2.761974
v 181.764160 17.902016 -0.017883
v 181.764099 17.467430 2.726192
v 181.764252 16.206093 5.201656
v 181.764114 14.241524 7.166260
vt 0.234845 0.010091
vt 0.238322 0.016915
vt 0.215041 0.024480
vt 0.239521 0.024480
vt 0.229430 0.004675
vt 0.238322 0.032044
vt 0.222605 0.001198
vt 0.234845 0.038869
vt 0.215041 0.000000
vt 0.229430 0.044284
vt 0.207476 0.001198
vt 0.222605 0.047761
vt 0.200652 0.004675
vt 0.215041 0.048960
vt 0.195236 0.010091
vt 0.207476 0.047761
vt 0.191759 0.016915
vt 0.200652 0.044284
vt 0.190561 0.024480
vt 0.195236 0.038869
vt 0.191759 0.032044
vt 0.158193 0.047762
vt 0.151369 0.044284
vt 0.165758 0.024479
vt 0.145953 0.038868
vt 0.165758 0.048960
vt 0.142476 0.032044
vt 0.173322 0.047762
vt 0.141278 0.024479
vt 0.180146 0.044284
vt 0.142476 0.016914
vt 0.185562 0.038868
vt 0.145953 0.010091
vt 0.189039 0.032044
vt 0.151369 0.004675
vt 0.190238 0.024479
vt 0.158193 0.001198
vt 0.189039 0.016914
vt 0.165758 0.000000
vt 0.185562 0.010091
vt 0.173322 0.001198
vt 0.180147 0.004675
vt 0.068438 0.000000
vt 0.075263 0.000000
vt 0.075263 0.000483
vt 0.068438 0.000483
vt 0.080678 0.000000
vt 0.080678 0.000483
vt 0.075263 0.999430
vt 0.068438 0.999429
vt 0.060874 0.000000
vt 0.060874 0.000483
vt 0.080678 0.999429
vt 0.075263 0.999999
vt 0.068438 0.999999
vt 0.060874 0.999429
vt 0.053309 0.000000
vt 0.053309 0.000483
vt 0.080678 0.999999
vt 0.060874 1.000000
vt 0.053309 0.999429
vt 0.046485 0.000001
vt 0.046485 0.000483
vt 0.053309 0.999999
vt 0.046485 0.999430
vt 0.041069 0.000000
vt 0.041069 0.000483
vt 0.046485 1.000000
vt 0.041069 0.999429
vt 0.041069 0.999999
vt 0.005416 0.000000
vt 0.012240 0.000001
vt 0.012240 0.000483
vt 0.005416 0.000483
vt 0.019805 0.000000
vt 0.019805 0.000483
vt 0.012240 0.999430
vt 0.005416 0.999430
vt 0.000000 0.000001
vt 0.000000 0.000483
vt 0.027369 0.000001
vt 0.027369 0.000483
vt 0.019805 0.999429
vt 0.012240 1.000000
vt 0.005416 0.999999
vt 0.000000 0.999429
vt 0.034193 0.000000
vt 0.034193 0.000483
vt 0.027369 0.999430
vt 0.019805 0.999999
vt 0.000000 1.000000
vt 0.039609 0.000001
vt 0.039609 0.000483
vt 0.034193 0.999429
vt 0.027369 1.000000
vt 0.039609 0.999429
vt 0.034193 0.999999
vt 0.039609 1.000000
vt 0.082138 0.000000
vt 0.088962 0.000001
vt 0.088963 0.000483
vt 0.082138 0.000483
vt 0.096527 0.000000
vt 0.096527 0.000483
vt 0.088963 0.999430
vt 0.082139 0.999429
vt 0.104092 0.000000
vt 0.104092 0.000484
vt 0.096528 0.999429
vt 0.088963 1.000000
vt 0.082138 0.999999
vt 0.110916 0.000001
vt 0.110916 0.000483
vt 0.104093 0.999430
vt 0.096528 1.000000
vt 0.110916 0.999429
vt 0.104092 0.999999
vt 0.110915 1.000000
vt 0.111708 0.000001
vt 0.118532 0.000000
vt 0.118532 0.000483
vt 0.111708 0.000483
vt 0.126097 0.000000
vt 0.126097 0.000483
vt 0.118531 0.999430
vt 0.111708 0.999429
vt 0.133662 0.000001
vt 0.133662 0.000483
vt 0.126096 0.999429
vt 0.118532 0.999999
vt 0.111709 1.000000
vt 0.140486 0.000000
vt 0.140486 0.000483
vt 0.133661 0.999430
vt 0.126097 1.000000
vt 0.140485 0.999429
vt 0.133661 1.000000
vt 0.140486 0.999999
vn -0.000074 0.951049 -0.309040
vn -0.000022 0.809015 -0.587787
vn -0.000001 0.809010 -0.587795
vn -0.000000 0.951049 -0.309041
vn -0.000020 0.587892 -0.808940
vn -0.000000 0.587787 -0.809016
vn -0.000029 0.309034 -0.951051
vn -0.000000 0.309009 -0.951059
vn -0.000003 -0.000100 -1.000000
vn 0.000000 0.000014 -1.000000
vn 0.000018 -0.308891 -0.951097
vn 0.000000 -0.309020 -0.951055
vn 0.000011 -0.587790 -0.809014
vn 0.000000 -0.587794 -0.809010
vn 0.000039 -0.809026 -0.587773
vn 0.000000 -0.809013 -0.587791
vn 0.000083 -0.951060 -0.309006
vn 0.000000 -0.951062 -0.309001
vn 0.000087 -1.000000 0.000000
vn 0.000000 -1.000000 0.000000
vn 0.000083 -0.951057 0.309015
vn 0.000000 -0.951060 0.309005
vn 0.000039 -0.809015 0.587788
vn 0.000000 -0.809009 0.587796
vn 0.000008 -0.587780 0.809021
vn 0.000000 -0.587791 0.809013
vn 0.000015 -0.308899 0.951095
vn 0.000000 -0.309034 0.951051
vn -0.000003 -0.000108 1.000000
vn 0.000000 0.000005 1.000000
vn -0.000031 0.309047 0.951047
vn -0.000000 0.309021 0.951055
vn -0.000022 0.587792 0.809012
vn -0.000000 0.587791 0.809013
vn 0.000000 0.809014 0.587790
vn -0.000001 0.809009 0.587797
vn -0.000044 0.951092 0.308908
vn -0.000000 0.951047 0.309047
vn -0.000095 1.000000 -0.000001
vn -0.000000 1.000000 -0.000001
vn 1.000000 0.000010 -0.000006
vn 1.000000 -0.000005 -0.000016
vn 1.000000 -0.000011 0.000002
vn 1.000000 -0.000040 -0.000031
vn 1.000000 0.000015 -0.000041
vn 1.000000 0.000045 0.000000
vn 1.000000 -0.000090 0.000015
vn 1.000000 -0.000030 -0.000041
vn 1.000000 -0.000008 -0.000010
vn 1.000000 -0.000044 -0.000032
vn 1.000000 -0.000003 0.000000
vn 1.000000 -0.000041 0.000029
vn 1.000000 -0.000010 0.000007
vn 1.000000 -0.000035 0.000040
vn 1.000000 -0.000080 -0.000016
vn 1.000000 0.000055 0.000000
vn 1.000000 0.000020 0.000040
vn 1.000000 -0.000000 0.000004
vn 1.000000 0.000035 0.000024
vn 1.000000 -0.000015 0.000071
vn 1.000000 0.000000 0.000011
vn -1.000000 0.000029 -0.000086
vn -1.000000 0.000036 -0.000026
vn -1.000000 0.000006 -0.000002
vn -1.000000 0.000078 -0.000013
vn -1.000000 0.000095 0.000016
vn -1.000000 -0.000045 0.000000
vn -1.000000 -0.000015 -0.000040
vn -1.000000 0.000000 -0.000003
vn -1.000000 -0.000035 -0.000022
vn -1.000000 -0.000006 0.000015
vn -1.000000 -0.000053 0.000000
vn -1.000000 -0.000010 -0.000012
vn -1.000000 -0.000036 0.000025
vn -1.000000 -0.000003 0.000004
vn -1.000000 -0.000020 0.000041
vn -1.000000 -0.000050 0.000000
vn -1.000000 0.000080 -0.000015
vn -1.000000 0.000030 0.000040
vn -1.000000 0.000008 0.000008
vn -1.000000 0.000038 0.000031
vn -1.000000 0.000000 -0.000011
vn -0.000000 -1.000000 0.000000
vn -0.000000 -0.951060 0.309008
vn -0.000984 -0.951053 0.309026
vn -0.001034 -0.999999 0.000000
vn -0.000000 -0.951061 -0.309004
vn -0.000984 -0.951053 -0.309026
vn -0.000000 -0.809017 -0.587785
vn -0.000837 -0.808919 -0.587919
vn -0.000000 -0.587795 -0.809010
vn -0.000607 -0.587743 -0.809047
vn 0.000000 -0.309020 -0.951056
vn -0.000318 -0.308930 -0.951085
vn 0.000000 0.000015 -1.000000
vn 0.000001 0.000114 -1.000000
vn -0.000000 0.309009 -0.951059
vn 0.000320 0.309002 -0.951061
vn -0.000000 0.587785 -0.809017
vn 0.000608 0.587853 -0.808968
vn -0.000000 0.809010 -0.587795
vn 0.000836 0.809034 -0.587762
vn 0.000000 0.951048 -0.309044
vn 0.000983 0.951081 -0.308940
vn 0.000000 1.000000 0.000001
vn 0.001033 1.000000 0.000001
vn 0.000000 0.951045 0.309053
vn 0.000983 0.951077 0.308953
vn -0.000000 0.809009 0.587796
vn 0.000837 0.809034 0.587762
vn -0.000000 0.587791 0.809013
vn 0.000608 0.587857 0.808965
vn -0.000000 0.309022 0.951055
vn 0.000319 0.309015 0.951057
vn 0.000000 0.000007 1.000000
vn -0.000001 0.000108 1.000000
vn 0.000000 -0.309034 0.951051
vn -0.000320 -0.308948 0.951079
vn -0.000000 -0.587792 0.809012
vn -0.000607 -0.587726 0.809060
vn -0.000000 -0.809014 0.587789
vn -0.000836 -0.808910 0.587932
s 1
g Long_pipe_001
usemtl pCylinder335SG
f 1/43/1 2/44/2 77/45/3 78/46/4
f 2/44/2 3/47/5 76/48/6 77/45/3
f 3/99/5 4/100/7 75/101/8 76/102/6
f 4/100/7 5/103/9 74/104/10 75/101/8
f 5/103/9 6/107/11 73/108/12 74/104/10
f 6/107/11 7/112/13 72/113/14 73/108/12
f 7/79/13 8/71/15 71/74/16 72/80/14
f 8/71/15 9/72/17 70/73/18 71/74/16
f 9/72/17 10/75/19 69/76/20 70/73/18
f 10/75/19 11/81/21 68/82/22 69/76/20
f 11/81/21 12/87/23 67/88/24 68/82/22
f 12/87/23 13/92/25 66/93/26 67/88/24
f 13/119/25 14/120/27 65/121/28 66/122/26
f 14/120/27 15/123/29 64/124/30 65/121/28
f 15/123/29 16/127/31 63/128/32 64/124/30
f 16/127/31 17/132/33 82/133/34 63/128/32
f 17/66/33 18/62/35 81/63/36 82/67/34
f 18/62/35 19/57/37 80/58/38 81/63/36
f 19/57/37 20/51/39 79/52/40 80/58/38
f 20/51/39 1/43/1 78/46/4 79/52/40
s 2
f 2/1/41 1/2/42 41/3/43
f 3/5/44 2/1/41 41/3/43
f 4/7/45 3/5/44 41/3/43
f 5/9/46 4/7/45 41/3/43
f 6/11/47 5/9/46 41/3/43
f 7/13/48 6/11/47 41/3/43
f 8/15/49 7/13/48 41/3/43
f 9/17/50 8/15/49 41/3/43
f 10/19/51 9/17/50 41/3/43
f 11/21/52 10/19/51 41/3/43
f 12/20/53 11/21/52 41/3/43
f 13/18/54 12/20/53 41/3/43
f 14/16/55 13/18/54 41/3/43
f 15/14/56 14/16/55 41/3/43
f 16/12/57 15/14/56 41/3/43
f 17/10/58 16/12/57 41/3/43
f 18/8/59 17/10/58 41/3/43
f 19/6/60 18/8/59 41/3/43
f 20/4/61 19/6/60 41/3/43
f 1/2/42 20/4/61 41/3/43
s 3
f 21/22/62 22/23/63 42/24/64
f 22/23/63 23/25/65 42/24/64
f 23/25/65 24/27/66 42/24/64
f 24/27/66 25/29/67 42/24/64
f 25/29/67 26/31/68 42/24/64
f 26/31/68 27/33/69 42/24/64
f 27/33/69 28/35/70 42/24/64
f 28/35/70 29/37/71 42/24/64
f 29/37/71 30/39/72 42/24/64
f 30/39/72 31/41/73 42/24/64
f 31/41/73 32/42/74 42/24/64
f 32/42/74 33/40/75 42/24/64
f 33/40/75 34/38/76 42/24/64
f 34/38/76 35/36/77 42/24/64
f 35/36/77 36/34/78 42/24/64
f 36/34/78 37/32/79 42/24/64
f 37/32/79 38/30/80 42/24/64
f 38/30/80 39/28/81 42/24/64
f 39/28/81 40/26/82 42/24/64
f 40/26/82 21/22/62 42/24/64
s 1
f 44/83/83 43/89/84 31/95/85 30/90/86
f 45/77/87 44/83/83 30/90/86 29/84/88
f 46/78/89 45/77/87 29/84/88 28/85/90
f 47/86/91 46/78/89 28/85/90 27/91/92
f 48/114/93 47/116/91 27/118/92 26/117/94
f 49/109/95 48/114/93 26/117/94 25/115/96
f 50/105/97 49/109/95 25/115/96 24/110/98
f 51/106/99 50/105/97 24/110/98 23/111/100
f 52/49/101 51/53/99 23/59/100 22/54/102
f 53/50/103 52/49/101 22/54/102 21/55/104
f 54/56/105 53/50/103 21/55/104 40/60/106
f 55/61/107 54/56/105 40/60/106 39/64/108
f 56/65/109 55/61/107 39/64/108 38/68/110
f 57/69/111 56/65/109 38/68/110 37/70/112
f 58/134/113 57/136/111 37/138/112 36/137/114
f 59/129/115 58/134/113 36/137/114 35/135/116
f 60/125/117 59/129/115 35/135/116 34/130/118
f 61/126/119 60/125/117 34/130/118 33/131/120
f 62/94/121 61/96/119 33/98/120 32/97/122
f 43/89/84 62/94/121 32/97/122 31/95/85
f 64/124/30 63/128/32 58/134/113 59/129/115
f 65/121/28 64/124/30 59/129/115 60/125/117
f 66/122/26 65/121/28 60/125/117 61/126/119
f 67/88/24 66/93/26 61/96/119 62/94/121
f 68/82/22 67/88/24 62/94/121 43/89/84
f 69/76/20 68/82/22 43/89/84 44/83/83
f 70/73/18 69/76/20 44/83/83 45/77/87
f 71/74/16 70/73/18 45/77/87 46/78/89
f 72/80/14 71/74/16 46/78/89 47/86/91
f 73/108/12 72/113/14 47/116/91 48/114/93
f 74/104/10 73/108/12 48/114/93 49/109/95
f 75/101/8 74/104/10 49/109/95 50/105/97
f 76/102/6 75/101/8 50/105/97 51/106/99
f 77/45/3 76/48/6 51/53/99 52/49/101
f 78/46/4 77/45/3 52/49/101 53/50/103
f 79/52/40 78/46/4 53/50/103 54/56/105
f 80/58/38 79/52/40 54/56/105 55/61/107
f 81/63/36 80/58/38 55/61/107 56/65/109
f 82/67/34 81/63/36 56/65/109 57/69/111
f 63/128/32 82/133/34 57/136/111 58/134/113
