# This file uses meters as units for non-parametric coordinates.

mtllib Mid ground area UP.mtl
g default
v 468.298706 -68.480629 -757.008789
v 907.500122 -68.480629 -757.008789
v 468.298706 -50.671623 -757.008789
v 907.500122 -50.671623 -757.008789
v 468.298706 -50.671623 -1388.878906
v 907.500122 -50.671623 -1388.878906
v 468.298706 -68.480629 -1388.878906
v 907.500122 -68.480629 -1388.878906
v -237.670944 -68.948586 -1388.878906
v -237.670944 -68.948586 -757.008789
v -237.670944 -51.139580 -757.008789
v -237.670944 -51.139580 -1388.878906
v 468.299011 -68.948578 -293.595703
v 468.299011 -51.139565 -293.595703
v -237.670944 -51.139580 -293.595703
v -237.670944 -68.948586 -293.595703
v 468.299011 -68.948578 757.272461
v 907.500122 -68.948578 757.272461
v 468.299011 -51.139565 757.272461
v 907.500122 -51.139565 757.272461
v 468.299011 -51.139565 326.253906
v 907.500122 -51.139565 326.253906
v 468.299011 -68.948578 326.253906
v 907.500122 -68.948578 326.253906
v 907.500122 -51.139565 -293.595703
v 907.500122 -68.948578 -293.595703
v -237.670944 -51.139580 326.616211
v -237.670944 -68.948586 326.616211
v 470.998779 -68.948586 1330.679688
v 910.591431 -68.948586 1330.679688
v 470.998779 -51.139580 1330.679688
v 910.591431 -51.139580 1330.679688
v 470.998779 -51.139580 1024.540527
v 910.591431 -51.139580 1024.540527
v 470.998779 -68.948586 1024.540527
v 910.591431 -68.948586 1024.540527
v 470.998779 -68.948586 1389.815918
v 910.591431 -68.948586 1389.815918
v 910.591431 -51.139580 1389.815918
v 470.998779 -51.139580 1389.815918
v -237.670944 -68.948586 1330.679688
v -237.670944 -51.139580 1330.679688
v -237.670944 -68.948586 1389.815918
v -237.670944 -51.139580 1389.815918
v -876.485474 -68.948586 1330.679688
v -876.485474 -51.139580 1330.679688
v -876.485474 -68.948586 1389.815918
v -876.485474 -51.139580 1389.815918
v -876.485474 -68.948586 326.616211
v -876.485474 -51.139580 326.616211
v -876.485474 -68.948586 -757.008789
v -876.485474 -51.139580 -757.008789
v -876.485474 -68.948586 -1388.878906
v -876.485474 -51.139580 -1388.878906
v -876.485474 -51.139580 -293.595703
v -876.485474 -68.948586 -293.595703
vt 0.675829 0.188530
vt 0.675829 0.017408
vt 0.680652 0.017408
vt 0.680652 0.188530
vt 0.683383 0.017408
vt 0.688206 0.017408
vt 0.688079 0.142909
vt 0.683256 0.142909
vt 0.987750 0.284595
vt 0.987750 0.167867
vt 0.992573 0.167867
vt 0.992573 0.284595
vt 0.987750 0.000000
vt 0.992573 0.000000
vt 0.992573 0.356976
vt 0.987750 0.356976
vt 0.987750 0.439884
vt 0.992573 0.439884
vt 0.992573 0.455900
vt 0.987750 0.455900
vt 0.987750 0.729310
vt 0.987750 0.612582
vt 0.992573 0.612582
vt 0.992573 0.729310
vt 0.987750 0.540200
vt 0.992573 0.540200
vt 0.987750 0.457292
vt 0.992573 0.457292
vt 0.977720 0.016015
vt 0.972897 0.016015
vt 0.972897 0.000000
vt 0.977720 0.000000
vt 0.977720 0.287935
vt 0.972897 0.287935
vt 0.977720 0.455900
vt 0.972897 0.455900
vt 0.977720 0.581401
vt 0.972897 0.581401
vt 0.977720 0.752523
vt 0.972897 0.752523
vt 1.000000 0.271919
vt 0.995177 0.271919
vt 0.995177 0.000000
vt 1.000000 0.000000
vt 0.850641 0.581401
vt 0.969585 0.581401
vt 0.969585 0.752523
vt 0.850641 0.752523
vt 0.659451 0.752523
vt 0.659451 0.581401
vt 0.486448 0.581401
vt 0.486448 0.752523
vt 0.659451 0.455900
vt 0.850641 0.455900
vt 0.486448 0.455900
vt 0.850641 0.288033
vt 0.659451 0.287935
vt 0.486448 0.287935
vt 0.969585 0.288033
vt 0.969585 0.455900
vt 0.486448 0.016015
vt 0.659451 0.016015
vt 0.850641 0.171305
vt 0.969585 0.171305
vt 0.659451 0.000000
vt 0.486448 0.000000
vt 0.851373 0.098923
vt 0.970423 0.098923
vt 0.851373 0.000000
vt 0.851373 0.016015
vt 0.970423 0.016015
vt 0.970423 0.000000
vt 0.364193 0.000000
vt 0.483137 0.000000
vt 0.483137 0.171122
vt 0.364193 0.171122
vt 0.173003 0.171122
vt 0.173003 0.000000
vt 0.364193 0.296623
vt 0.173003 0.296623
vt 0.000000 0.171122
vt 0.000000 0.000000
vt 0.364193 0.464490
vt 0.173003 0.464589
vt 0.000000 0.296623
vt 0.483137 0.464490
vt 0.483137 0.296623
vt 0.000000 0.464589
vt 0.483137 0.581218
vt 0.364193 0.581218
vt 0.173003 0.736508
vt 0.000000 0.736508
vt 0.483974 0.653600
vt 0.364924 0.653600
vt 0.173003 0.752523
vt 0.000000 0.752523
vt 0.483974 0.736508
vt 0.364924 0.736508
vt 0.364924 0.752523
vt 0.483974 0.752523
vt 0.698109 0.136352
vt 0.698109 0.017408
vt 0.702932 0.017408
vt 0.702932 0.136352
vt 0.980324 0.118944
vt 0.980324 0.000000
vt 0.985147 0.000000
vt 0.985147 0.118944
vt 0.985273 0.310134
vt 0.980450 0.310134
vt 0.985273 0.483137
vt 0.980450 0.483137
vt 0.690683 0.136352
vt 0.690683 0.017408
vt 0.695506 0.017408
vt 0.695506 0.136352
vt 0.668402 0.017408
vt 0.673225 0.017408
vt 0.673225 0.208598
vt 0.668402 0.208598
vt 0.980324 0.603580
vt 0.980324 0.484530
vt 0.985147 0.484530
vt 0.985147 0.603580
vt 0.985147 0.795501
vt 0.980324 0.795501
vt 0.985147 0.968504
vt 0.980324 0.968504
vt 0.660976 0.017408
vt 0.665799 0.017408
vt 0.665799 0.209329
vt 0.660976 0.209329
vn 0.000000 0.000000 1.000000
vn 0.000000 0.000000 1.000000
vn 0.000000 0.000000 1.000000
vn 0.000000 0.000000 1.000000
vn 0.000000 1.000000 0.000000
vn 0.000000 1.000000 0.000000
vn 0.000000 1.000000 0.000000
vn 0.000000 1.000000 0.000000
vn 0.000000 0.000000 -1.000000
vn 0.000000 0.000000 -1.000000
vn 0.000000 0.000000 -1.000000
vn 0.000000 0.000000 -1.000000
vn 0.000000 -1.000000 0.000000
vn 0.000000 -1.000000 0.000000
vn 0.000000 -1.000000 0.000000
vn 0.000000 -1.000000 0.000000
vn 1.000000 0.000000 0.000000
vn 1.000000 0.000000 0.000000
vn 1.000000 0.000000 0.000000
vn 1.000000 0.000000 0.000000
vn 0.000663 -1.000000 0.000000
vn 0.000663 -1.000000 0.000000
vn 0.000663 -1.000000 0.000000
vn 0.000663 -1.000000 0.000000
vn -0.000663 1.000000 0.000000
vn -0.000663 1.000000 0.000000
vn -0.000663 1.000000 0.000000
vn -0.000663 1.000000 0.000000
vn -0.000000 0.000000 -1.000000
vn -0.000000 0.000000 -1.000000
vn -0.000000 0.000000 -1.000000
vn -0.000000 0.000000 -1.000000
vn 1.000000 0.000000 -0.000001
vn 1.000000 0.000000 -0.000001
vn 1.000000 0.000000 -0.000001
vn 1.000000 0.000000 -0.000001
vn -0.000331 1.000000 0.000505
vn -0.000331 1.000000 0.000505
vn -0.000331 1.000000 0.000505
vn -0.000331 1.000000 0.000505
vn 0.000331 -1.000000 -0.000505
vn 0.000331 -1.000000 -0.000505
vn 0.000331 -1.000000 -0.000505
vn 0.000331 -1.000000 -0.000505
vn 0.000000 1.000000 0.000000
vn 0.000000 1.000000 0.000000
vn 0.000000 1.000000 0.000000
vn 0.000000 1.000000 0.000000
vn 0.000000 0.000000 -1.000000
vn 0.000000 0.000000 -1.000000
vn 0.000000 0.000000 -1.000000
vn 0.000000 0.000000 -1.000000
vn 0.000000 -1.000000 0.000000
vn 0.000000 -1.000000 0.000000
vn 0.000000 -1.000000 0.000000
vn 0.000000 -1.000000 0.000000
vn 1.000000 0.000000 0.000000
vn 1.000000 0.000000 0.000000
vn 1.000000 0.000000 0.000000
vn 1.000000 0.000000 0.000000
vn -1.000000 0.000000 0.000000
vn -1.000000 0.000000 0.000000
vn -1.000000 0.000000 0.000000
vn -1.000000 0.000000 0.000000
vn 0.000000 1.000000 0.000000
vn 0.000000 1.000000 0.000000
vn 0.000000 1.000000 0.000000
vn 0.000000 1.000000 0.000000
vn 1.000000 0.000000 0.000000
vn 1.000000 0.000000 0.000000
vn 1.000000 0.000000 0.000000
vn 1.000000 0.000000 0.000000
vn 0.000000 -1.000000 0.000000
vn 0.000000 -1.000000 0.000000
vn 0.000000 -1.000000 0.000000
vn 0.000000 -1.000000 0.000000
vn 0.000513 0.000000 1.000000
vn 0.000513 0.000000 1.000000
vn 0.000513 0.000000 1.000000
vn 0.000513 0.000000 1.000000
vn -0.000000 1.000000 0.000000
vn -0.000000 1.000000 0.000000
vn -0.000000 1.000000 0.000000
vn -0.000000 1.000000 0.000000
vn 0.000000 -1.000000 0.000000
vn 0.000000 -1.000000 0.000000
vn 0.000000 -1.000000 0.000000
vn 0.000000 -1.000000 0.000000
vn 0.000000 0.000000 1.000000
vn 0.000000 0.000000 1.000000
vn 0.000000 0.000000 1.000000
vn 0.000000 0.000000 1.000000
vn 0.000000 1.000000 0.000000
vn 0.000000 1.000000 0.000000
vn 0.000000 1.000000 0.000000
vn 0.000000 1.000000 0.000000
vn 0.000000 -1.000000 0.000000
vn 0.000000 -1.000000 0.000000
vn 0.000000 -1.000000 0.000000
vn 0.000000 -1.000000 0.000000
vn 1.000000 0.000000 0.000000
vn 1.000000 0.000000 0.000000
vn 1.000000 0.000000 0.000000
vn 1.000000 0.000000 0.000000
vn -1.000000 0.000000 0.000000
vn -1.000000 0.000000 0.000000
vn -1.000000 0.000000 0.000000
vn -1.000000 0.000000 0.000000
vn 0.000000 -1.000000 0.000000
vn 0.000000 -1.000000 0.000000
vn 0.000000 -1.000000 0.000000
vn 0.000000 -1.000000 0.000000
vn 1.000000 0.000000 0.000000
vn 1.000000 0.000000 0.000000
vn 1.000000 0.000000 0.000000
vn 1.000000 0.000000 0.000000
vn 0.000000 1.000000 0.000000
vn 0.000000 1.000000 0.000000
vn 0.000000 1.000000 0.000000
vn 0.000000 1.000000 0.000000
vn -1.000000 0.000000 0.000000
vn -1.000000 0.000000 0.000000
vn -1.000000 0.000000 0.000000
vn -1.000000 0.000000 0.000000
vn 0.000000 0.000000 -1.000000
vn 0.000000 0.000000 -1.000000
vn 0.000000 0.000000 -1.000000
vn 0.000000 0.000000 -1.000000
vn 0.000000 -1.000000 0.000000
vn 0.000000 -1.000000 0.000000
vn 0.000000 -1.000000 0.000000
vn 0.000000 -1.000000 0.000000
vn 0.000000 0.000000 1.000000
vn 0.000000 0.000000 1.000000
vn 0.000000 0.000000 1.000000
vn 0.000000 0.000000 1.000000
vn 0.000000 1.000000 0.000000
vn 0.000000 1.000000 0.000000
vn 0.000000 1.000000 0.000000
vn 0.000000 1.000000 0.000000
vn 0.000000 0.000000 -1.000000
vn 0.000000 0.000000 -1.000000
vn 0.000000 0.000000 -1.000000
vn 0.000000 0.000000 -1.000000
vn 0.000000 -1.000000 0.000000
vn 0.000000 -1.000000 0.000000
vn 0.000000 -1.000000 0.000000
vn 0.000000 -1.000000 0.000000
vn 0.000000 0.000000 1.000000
vn 0.000000 0.000000 1.000000
vn 0.000000 0.000000 1.000000
vn 0.000000 0.000000 1.000000
vn 0.000000 1.000000 0.000000
vn 0.000000 1.000000 0.000000
vn 0.000000 1.000000 0.000000
vn 0.000000 1.000000 0.000000
vn 1.000000 0.000000 0.000000
vn 1.000000 0.000000 0.000000
vn 1.000000 0.000000 0.000000
vn 1.000000 0.000000 0.000000
vn 0.000000 -1.000000 0.000000
vn 0.000000 -1.000000 0.000000
vn 0.000000 -1.000000 0.000000
vn 0.000000 -1.000000 0.000000
vn -1.000000 0.000000 0.000000
vn -1.000000 0.000000 0.000000
vn -1.000000 0.000000 0.000000
vn -1.000000 0.000000 0.000000
vn 0.000000 1.000000 0.000000
vn 0.000000 1.000000 0.000000
vn 0.000000 1.000000 0.000000
vn 0.000000 1.000000 0.000000
vn 0.000000 -1.000000 0.000000
vn 0.000000 -1.000000 0.000000
vn 0.000000 -1.000000 0.000000
vn 0.000000 -1.000000 0.000000
vn -1.000000 0.000000 0.000000
vn -1.000000 0.000000 0.000000
vn -1.000000 0.000000 0.000000
vn -1.000000 0.000000 0.000000
vn 0.000000 1.000000 0.000000
vn 0.000000 1.000000 0.000000
vn 0.000000 1.000000 0.000000
vn 0.000000 1.000000 0.000000
vn 0.000000 -1.000000 0.000000
vn 0.000000 -1.000000 0.000000
vn 0.000000 -1.000000 0.000000
vn 0.000000 -1.000000 0.000000
vn -1.000000 0.000000 0.000000
vn -1.000000 0.000000 0.000000
vn -1.000000 0.000000 0.000000
vn -1.000000 0.000000 0.000000
vn 0.000000 1.000000 0.000000
vn 0.000000 1.000000 0.000000
vn 0.000000 1.000000 0.000000
vn 0.000000 1.000000 0.000000
vn 0.000000 1.000000 0.000000
vn 0.000000 1.000000 0.000000
vn 0.000000 1.000000 0.000000
vn 0.000000 1.000000 0.000000
vn 0.999933 0.000000 -0.011566
vn 0.999933 0.000000 -0.011566
vn 0.999933 0.000000 -0.011566
vn 0.999933 0.000000 -0.011566
vn 0.000000 -1.000000 -0.000000
vn 0.000000 -1.000000 -0.000000
vn 0.000000 -1.000000 -0.000000
vn 0.000000 -1.000000 -0.000000
vn -0.999949 0.000000 0.010101
vn -0.999949 0.000000 0.010101
vn -0.999949 0.000000 0.010101
vn -0.999949 0.000000 0.010101
vn -1.000000 0.000000 0.000000
vn -1.000000 0.000000 0.000000
vn 0.000000 -1.000000 0.000000
vn 0.000000 -1.000000 0.000000
vn 0.000000 1.000000 0.000000
vn 0.000000 1.000000 0.000000
s off
g MID_Ground_area
usemtl initialShadingGroup
f 1/101/1 2/102/2 4/103/3 3/104/4
f 3/45/5 4/46/6 6/47/7 5/48/8
f 5/105/9 6/106/10 8/107/11 7/108/12
f 7/73/13 8/74/14 2/75/15 1/76/16
f 2/1/17 8/2/18 6/3/19 4/4/20
f 7/73/21 1/76/22 10/77/23 9/78/24
f 3/45/25 5/48/26 12/49/27 11/50/28
f 5/105/29 7/108/30 9/109/31 12/110/32
f 1/5/33 3/6/34 14/7/35 13/8/36
f 3/45/37 11/50/38 15/53/39 14/54/40
f 10/77/41 1/76/42 13/79/43 16/80/44
f 19/63/45 20/64/46 22/59/47 21/56/48
f 14/113/49 25/114/50 26/115/51 13/116/52
f 23/83/53 24/86/54 18/89/55 17/90/56
f 18/9/57 24/10/58 22/11/59 20/12/60
f 23/21/61 17/22/62 19/23/63 21/24/64
f 21/56/65 22/59/66 25/60/67 14/54/68
f 22/11/69 24/10/70 26/13/71 25/14/72
f 24/86/73 23/83/74 13/79/75 26/87/76
f 23/117/77 21/118/78 27/119/79 28/120/80
f 21/56/81 14/54/82 15/53/83 27/57/84
f 13/79/85 23/83/86 28/84/87 16/80/88
f 37/121/89 38/122/90 39/123/91 40/124/92
f 31/70/93 32/71/94 34/68/95 33/67/96
f 35/94/97 36/93/98 30/97/99 29/98/100
f 30/17/101 36/16/102 34/15/103 32/18/104
f 35/25/105 29/27/106 31/28/107 33/26/108
f 29/98/109 30/97/110 38/100/111 37/99/112
f 30/17/113 32/18/114 39/19/115 38/20/116
f 32/71/117 31/70/118 40/69/119 39/72/120
f 46/29/121 45/30/122 47/31/123 48/32/124
f 31/129/125 29/130/126 41/131/127 42/132/128
f 29/98/129 37/99/130 43/95/131 41/91/132
f 37/121/133 40/124/134 44/125/135 43/126/136
f 40/69/137 31/70/138 42/62/139 44/65/140
f 12/110/141 9/109/142 53/111/143 54/112/144
f 41/91/145 43/95/146 47/96/147 45/92/148
f 43/126/149 44/125/150 48/127/151 47/128/152
f 44/65/153 42/62/154 46/61/155 48/66/156
f 42/41/157 41/42/158 28/43/159 27/44/160
f 41/91/161 45/92/162 49/88/163 28/84/164
f 45/30/165 46/29/166 50/33/167 49/34/168
f 46/61/169 42/62/170 27/57/171 50/58/172
s 1
f 28/84/173 49/88/174 56/85/175 16/80/176
s 2
f 49/34/177 50/33/178 55/35/179 56/36/180
s 3
f 50/58/181 27/57/182 15/53/183 55/55/184
s off
f 10/77/185 51/81/186 53/82/187 9/78/188
f 51/38/189 52/37/190 54/39/191 53/40/192
f 52/51/193 11/50/194 12/49/195 54/52/196
f 33/67/197 34/68/198 20/64/199 19/63/200
f 34/15/201 36/16/202 18/9/203 20/12/204
f 36/93/205 35/94/206 17/90/207 18/89/208
f 35/25/209 33/26/210 19/23/211 17/22/212
s 2
f 56/36/180 55/35/179 52/37/213 51/38/214
s 1
f 16/80/176 56/85/175 51/81/215 10/77/216
s 3
f 55/55/184 15/53/183 11/50/217 52/51/218
