# This file uses meters as units for non-parametric coordinates.

mtllib Sign_plane.mtl
g default
v -337.178711 1.641002 134.668655
v -112.730896 1.641002 336.671692
v 111.716881 1.641002 336.671692
v 336.164673 1.641002 134.668655
v -337.178711 1.641002 107.734901
v -112.730896 1.641002 269.337341
v 111.716881 1.641002 269.337341
v 336.164673 1.641002 107.734901
v -337.178711 1.641002 80.801323
v -112.730896 1.641002 202.003006
v 111.716881 1.641002 202.003006
v 336.164673 1.641002 80.801239
v -337.178711 1.641002 53.867451
v -112.730896 1.641002 134.668671
v 111.716881 1.641002 134.668671
v 336.164673 1.641002 53.867451
v -337.178711 1.641002 26.933725
v -112.730896 1.641002 67.334335
v 111.716881 1.641002 67.334335
v 336.164673 1.641002 26.933725
v -337.178711 1.641002 0.000000
v -112.730896 1.641002 0.000000
v 111.716881 1.641002 0.000000
v 336.164673 1.641002 0.000000
v -337.178711 1.641002 -26.933725
v -112.730896 1.641002 -67.334335
v 111.716881 1.641002 -67.334335
v 336.164673 1.641002 -26.933725
v -337.178711 1.641002 -53.867451
v -112.730896 1.641002 -134.668671
v 111.716881 1.641002 -134.668671
v 336.164673 1.641002 -53.867451
v -337.178711 1.641002 -80.801323
v -112.730896 1.641002 -202.003006
v 111.716881 1.641002 -202.003006
v 336.164673 1.641002 -80.801239
v -337.178711 1.641002 -107.734901
v -112.730896 1.641002 -269.337341
v 111.716881 1.641002 -269.337341
v 336.164673 1.641002 -107.734901
v -337.178711 1.641002 -134.668655
v -112.730896 1.641002 -336.671692
v 111.716881 1.641002 -336.671692
v 336.164673 1.641002 -134.668655
vt 0.000000 0.000000
vt 0.333333 0.000000
vt 0.666667 0.000000
vt 1.000000 0.000000
vt 0.000000 0.100000
vt 0.333333 0.100000
vt 0.666667 0.100000
vt 1.000000 0.100000
vt 0.000000 0.200000
vt 0.333333 0.200000
vt 0.666667 0.200000
vt 1.000000 0.200000
vt 0.000000 0.300000
vt 0.333333 0.300000
vt 0.666667 0.300000
vt 1.000000 0.300000
vt 0.000000 0.400000
vt 0.333333 0.400000
vt 0.666667 0.400000
vt 1.000000 0.400000
vt 0.000000 0.500000
vt 0.333333 0.500000
vt 0.666667 0.500000
vt 1.000000 0.500000
vt 0.000000 0.600000
vt 0.333333 0.600000
vt 0.666667 0.600000
vt 1.000000 0.600000
vt 0.000000 0.700000
vt 0.333333 0.700000
vt 0.666667 0.700000
vt 1.000000 0.700000
vt 0.000000 0.800000
vt 0.333333 0.800000
vt 0.666667 0.800000
vt 1.000000 0.800000
vt 0.000000 0.900000
vt 0.333333 0.900000
vt 0.666667 0.900000
vt 1.000000 0.900000
vt 0.000000 1.000000
vt 0.333333 1.000000
vt 0.666667 1.000000
vt 1.000000 1.000000
vn 0.000000 1.000000 0.000000
vn 0.000000 1.000000 0.000000
vn 0.000000 1.000000 0.000000
vn 0.000000 1.000000 0.000000
vn 0.000000 1.000000 0.000000
vn 0.000000 1.000000 0.000000
vn 0.000000 1.000000 0.000000
vn 0.000000 1.000000 0.000000
vn 0.000000 1.000000 0.000000
vn 0.000000 1.000000 0.000000
vn 0.000000 1.000000 0.000000
vn 0.000000 1.000000 0.000000
vn 0.000000 1.000000 0.000000
vn 0.000000 1.000000 0.000000
vn 0.000000 1.000000 0.000000
vn 0.000000 1.000000 0.000000
vn 0.000000 1.000000 0.000000
vn 0.000000 1.000000 0.000000
vn 0.000000 1.000000 0.000000
vn 0.000000 1.000000 0.000000
vn 0.000000 1.000000 0.000000
vn 0.000000 1.000000 0.000000
vn 0.000000 1.000000 0.000000
vn 0.000000 1.000000 0.000000
vn 0.000000 1.000000 0.000000
vn 0.000000 1.000000 0.000000
vn 0.000000 1.000000 0.000000
vn 0.000000 1.000000 0.000000
vn 0.000000 1.000000 0.000000
vn 0.000000 1.000000 0.000000
vn 0.000000 1.000000 0.000000
vn 0.000000 1.000000 0.000000
vn 0.000000 1.000000 0.000000
vn 0.000000 1.000000 0.000000
vn 0.000000 1.000000 0.000000
vn 0.000000 1.000000 0.000000
vn 0.000000 1.000000 0.000000
vn 0.000000 1.000000 0.000000
vn 0.000000 1.000000 0.000000
vn 0.000000 1.000000 0.000000
vn 0.000000 1.000000 0.000000
vn 0.000000 1.000000 0.000000
vn 0.000000 1.000000 0.000000
vn 0.000000 1.000000 0.000000
s 1
g Sign_plane
usemtl initialShadingGroup
f 1/1/1 2/2/2 6/6/3 5/5/4
f 2/2/2 3/3/5 7/7/6 6/6/3
f 3/3/5 4/4/7 8/8/8 7/7/6
f 5/5/4 6/6/3 10/10/9 9/9/10
f 6/6/3 7/7/6 11/11/11 10/10/9
f 7/7/6 8/8/8 12/12/12 11/11/11
f 9/9/10 10/10/9 14/14/13 13/13/14
f 10/10/9 11/11/11 15/15/15 14/14/13
f 11/11/11 12/12/12 16/16/16 15/15/15
f 13/13/14 14/14/13 18/18/17 17/17/18
f 14/14/13 15/15/15 19/19/19 18/18/17
f 15/15/15 16/16/16 20/20/20 19/19/19
f 17/17/18 18/18/17 22/22/21 21/21/22
f 18/18/17 19/19/19 23/23/23 22/22/21
f 19/19/19 20/20/20 24/24/24 23/23/23
f 21/21/22 22/22/21 26/26/25 25/25/26
f 22/22/21 23/23/23 27/27/27 26/26/25
f 23/23/23 24/24/24 28/28/28 27/27/27
f 25/25/26 26/26/25 30/30/29 29/29/30
f 26/26/25 27/27/27 31/31/31 30/30/29
f 27/27/27 28/28/28 32/32/32 31/31/31
f 29/29/30 30/30/29 34/34/33 33/33/34
f 30/30/29 31/31/31 35/35/35 34/34/33
f 31/31/31 32/32/32 36/36/36 35/35/35
f 33/33/34 34/34/33 38/38/37 37/37/38
f 34/34/33 35/35/35 39/39/39 38/38/37
f 35/35/35 36/36/36 40/40/40 39/39/39
f 37/37/38 38/38/37 42/42/41 41/41/42
f 38/38/37 39/39/39 43/43/43 42/42/41
f 39/39/39 40/40/40 44/44/44 43/43/43
