# This file uses meters as units for non-parametric coordinates.

mtllib Slum_area_ground_01.mtl
g default
v -1210.484863 4.078979 1177.298706
v -1210.484863 23.958984 1197.178711
v -1230.364746 23.958984 1177.298706
v 1229.748047 23.958984 1177.298706
v 1209.868164 23.958984 1197.178711
v 1209.868164 4.078979 1177.298706
v 1209.868164 48.261169 1177.298706
v 1209.868164 28.381165 1197.178711
v 1229.748047 28.381165 1177.298706
v -1230.364746 28.381165 1177.298706
v -1210.484863 28.381165 1197.178711
v -1210.484863 48.261169 1177.298706
v 1209.868164 28.381165 -1196.815430
v 1209.868164 48.261169 -1176.935425
v 1229.748047 28.381165 -1176.935425
v -1230.364746 28.381165 -1176.935425
v -1210.484863 48.261169 -1176.935425
v -1210.484863 28.381165 -1196.815430
v 1209.868164 4.078979 -1176.935425
v 1209.868164 23.958984 -1196.815430
v 1229.748047 23.958984 -1176.935425
v -1230.364746 23.958984 -1176.935425
v -1210.484863 23.958984 -1196.815430
v -1210.484863 4.078979 -1176.935425
vt 0.013430 0.990459
vt 0.013430 0.504685
vt 0.014343 0.504685
vt 0.014343 0.990459
vt 0.009328 0.990459
vt 0.009328 0.504685
vt 0.014343 0.500583
vt 0.013430 0.500583
vt 0.018445 0.990459
vt 0.018445 0.504685
vt 0.013430 0.994561
vt 0.014343 0.994561
vt 0.004102 0.990459
vt 0.004102 0.504685
vt 0.005014 0.504685
vt 0.005014 0.990459
vt 0.000000 0.504685
vt 0.000000 0.990459
vt 0.004102 0.500583
vt 0.005014 0.500583
vt 0.009117 0.504685
vt 0.009117 0.990459
vt 0.005014 0.994561
vt 0.004102 0.994561
vt 0.498485 0.499417
vt 0.498485 0.000000
vt 0.984259 0.000000
vt 0.984259 0.499417
vt 0.494383 0.000000
vt 0.494383 0.499417
vt 0.988361 0.000000
vt 0.988361 0.499417
vt 0.004102 0.499417
vt 0.004102 0.000000
vt 0.489876 0.000000
vt 0.489876 0.499417
vt 0.000000 0.000000
vt 0.000000 0.499417
vt 0.493978 0.499417
vt 0.493978 0.000000
vt 0.018656 1.000000
vt 0.018656 0.500583
vt 0.019568 0.500583
vt 0.019568 1.000000
vt 0.021765 1.000000
vt 0.021765 0.500583
vt 0.022678 0.500583
vt 0.022678 1.000000
vn -0.707108 -0.707105 0.000000
vn -0.707108 -0.707105 0.000000
vn -0.707108 -0.707105 0.000000
vn -0.707108 -0.707105 0.000000
vn 0.000000 -0.707107 0.707107
vn 0.000000 -0.707107 0.707107
vn 0.000000 -0.707107 0.707107
vn 0.000000 -0.707107 0.707107
vn -0.707109 0.000000 0.707104
vn -0.707109 0.000000 0.707104
vn -0.707109 0.000000 0.707104
vn -0.707109 0.000000 0.707104
vn 0.707110 -0.707104 0.000000
vn 0.707110 -0.707104 0.000000
vn 0.707110 -0.707104 0.000000
vn 0.707110 -0.707104 0.000000
vn 0.707109 0.000000 0.707104
vn 0.707109 0.000000 0.707104
vn 0.707109 0.000000 0.707104
vn 0.707109 0.000000 0.707104
vn 0.707110 0.707104 0.000000
vn 0.707110 0.707104 0.000000
vn 0.707110 0.707104 0.000000
vn 0.707110 0.707104 0.000000
vn 0.000000 0.707107 0.707107
vn 0.000000 0.707107 0.707107
vn 0.000000 0.707107 0.707107
vn 0.000000 0.707107 0.707107
vn -0.707108 0.707105 0.000000
vn -0.707108 0.707105 0.000000
vn -0.707108 0.707105 0.000000
vn -0.707108 0.707105 0.000000
vn 0.707109 0.000000 -0.707104
vn 0.707109 0.000000 -0.707104
vn 0.707109 0.000000 -0.707104
vn 0.707109 0.000000 -0.707104
vn 0.000000 0.707107 -0.707107
vn 0.000000 0.707107 -0.707107
vn 0.000000 0.707107 -0.707107
vn 0.000000 0.707107 -0.707107
vn -0.707109 0.000000 -0.707104
vn -0.707109 0.000000 -0.707104
vn -0.707109 0.000000 -0.707104
vn -0.707109 0.000000 -0.707104
vn 0.000000 -0.707107 -0.707107
vn 0.000000 -0.707107 -0.707107
vn 0.000000 -0.707107 -0.707107
vn 0.000000 -0.707107 -0.707107
vn 0.000000 0.000000 1.000000
vn 0.000000 0.000000 1.000000
vn 0.000000 0.000000 1.000000
vn 0.000000 0.000000 1.000000
vn 0.000000 1.000000 0.000000
vn 0.000000 1.000000 0.000000
vn 0.000000 1.000000 0.000000
vn 0.000000 1.000000 0.000000
vn 0.000000 0.000000 -1.000000
vn 0.000000 0.000000 -1.000000
vn 0.000000 0.000000 -1.000000
vn 0.000000 0.000000 -1.000000
vn 0.000000 -1.000000 0.000000
vn 0.000000 -1.000000 0.000000
vn 0.000000 -1.000000 0.000000
vn 0.000000 -1.000000 0.000000
vn 1.000000 0.000000 0.000000
vn 1.000000 0.000000 0.000000
vn 1.000000 0.000000 0.000000
vn 1.000000 0.000000 0.000000
vn -1.000000 0.000000 0.000000
vn -1.000000 0.000000 0.000000
vn -1.000000 0.000000 0.000000
vn -1.000000 0.000000 0.000000
vn -0.577357 -0.577346 0.577348
vn -0.577357 -0.577346 0.577348
vn -0.577357 -0.577346 0.577348
vn 0.577357 -0.577346 0.577348
vn 0.577357 -0.577346 0.577348
vn 0.577357 -0.577346 0.577348
vn 0.577357 0.577346 0.577348
vn 0.577357 0.577346 0.577348
vn 0.577357 0.577346 0.577348
vn -0.577357 0.577346 0.577348
vn -0.577357 0.577346 0.577348
vn -0.577357 0.577346 0.577348
vn 0.577354 0.577348 -0.577350
vn 0.577354 0.577348 -0.577350
vn 0.577353 0.577348 -0.577350
vn -0.577353 0.577348 -0.577350
vn -0.577354 0.577348 -0.577350
vn -0.577354 0.577348 -0.577350
vn 0.577354 -0.577348 -0.577350
vn 0.577354 -0.577348 -0.577350
vn 0.577353 -0.577348 -0.577350
vn -0.577353 -0.577348 -0.577350
vn -0.577354 -0.577348 -0.577350
vn -0.577354 -0.577348 -0.577350
s off
g Slum_area_ground_01
usemtl Slum_areaSG
f 1/17/1 3/14/2 22/13/3 24/18/4
f 2/39/5 1/36/6 6/35/7 5/40/8
f 3/14/9 2/19/10 11/20/11 10/15/12
f 4/1/13 6/5/14 19/6/15 21/2/16
f 5/11/17 4/1/18 9/4/19 8/12/20
f 7/9/21 9/4/22 15/3/23 14/10/24
f 8/29/25 7/26/26 12/25/27 11/30/28
f 10/15/29 12/21/30 17/22/31 16/16/32
f 13/7/33 15/3/34 21/2/35 20/8/36
f 14/27/37 13/31/38 18/32/39 17/28/40
f 16/16/41 18/23/42 23/24/43 22/13/44
f 20/37/45 19/34/46 24/33/47 23/38/48
f 2/41/49 5/42/50 8/43/51 11/44/52
f 12/25/53 7/26/54 14/27/55 17/28/56
f 18/45/57 13/46/58 20/47/59 23/48/60
f 24/33/61 19/34/62 6/35/63 1/36/64
f 4/1/65 21/2/66 15/3/67 9/4/68
f 22/13/69 3/14/70 10/15/71 16/16/72
f 1/17/73 2/19/74 3/14/75
f 4/1/76 5/11/77 6/5/78
f 7/9/79 8/12/80 9/4/81
f 10/15/82 11/20/83 12/21/84
f 13/7/85 14/10/86 15/3/87
f 16/16/88 17/22/89 18/23/90
f 19/6/91 20/8/92 21/2/93
f 22/13/94 23/24/95 24/18/96
