# This file uses meters as units for non-parametric coordinates.

mtllib Slum_house_12.mtl
g default
v -674.802979 6.591309 210.598389
v -674.802979 416.226685 210.598389
v -642.685547 416.226685 182.678467
v -642.685547 6.591309 182.678467
v -666.427734 6.591309 182.678467
v -674.802979 6.591309 191.054443
v -666.427734 416.226685 182.678467
v -674.802979 416.226685 191.054443
v -642.685547 416.226685 202.222412
v -651.060791 416.226685 210.598389
v -651.060791 6.591309 210.598389
v -642.685547 6.591309 202.222412
v -684.238037 0.283325 -223.261963
v -684.238037 0.283325 218.233154
v -684.238037 9.044922 -223.261963
v -684.238037 9.044922 218.233154
v 672.045410 9.044922 -223.261963
v 672.045410 9.044922 218.233154
v 672.045410 0.283325 -223.261963
v 672.045410 0.283325 218.233154
v -642.708984 6.591309 188.359131
v -642.708984 6.591309 197.851318
v -642.708984 416.226685 188.359131
v -642.708984 416.226685 197.851318
v -459.735352 416.226685 188.359131
v -459.735352 416.226685 197.851318
v -459.735352 6.591309 188.359131
v -459.735352 6.591309 197.851318
v -642.708984 6.591309 -197.149658
v -642.708984 6.591309 -187.657471
v -642.708984 416.226685 -197.149658
v -642.708984 416.226685 -187.657471
v 638.035645 416.226685 -197.149658
v 638.035645 416.226685 -187.657471
v 638.035645 6.591309 -197.149658
v 638.035645 6.591309 -187.657471
v -244.533691 6.591309 188.359131
v -244.532959 6.591309 197.851318
v -244.533691 416.226685 188.359131
v -244.532959 416.226685 197.851318
v 642.808594 416.226685 188.359131
v 642.808594 416.226685 197.851318
v 642.808594 6.591309 188.359131
v 642.808594 6.591309 197.851318
v -688.807617 414.490479 -223.261963
v -688.807617 414.490479 218.236084
v -688.807617 423.251831 -223.261963
v -688.807617 423.251831 218.236084
v 685.230469 423.251831 -223.261963
v 685.230225 423.251831 218.233154
v 685.230469 414.490479 -223.261963
v 685.230225 414.490479 218.233154
v 638.021240 6.591309 182.678467
v 638.021240 416.226685 182.678467
v 670.138184 416.226685 210.598389
v 670.138184 6.591309 210.598389
v 646.396973 6.591309 210.598389
v 638.021240 6.591309 202.222412
v 646.396973 416.226685 210.598389
v 638.021240 416.226685 202.222412
v 661.763672 416.226685 182.678467
v 670.138184 416.226685 191.054443
v 661.763672 6.591309 182.678467
v 670.138184 6.591309 191.054443
v -663.898682 6.591309 -187.273682
v -663.898682 6.591309 188.236084
v -663.898682 416.226685 -187.273682
v -663.898682 416.226685 188.236084
v -654.155273 416.226685 -187.273682
v -654.155273 416.226685 188.236084
v -654.155273 6.591309 -187.273682
v -654.155273 6.591309 188.236084
v -674.802979 6.591309 -208.918213
v -674.802979 416.226685 -208.918213
v -642.685547 416.226685 -180.998291
v -642.685547 6.591309 -180.998291
v -666.427734 6.591309 -180.998291
v -674.802979 6.591309 -189.371338
v -666.427734 416.226685 -180.998291
v -674.802979 416.226685 -189.371338
v -651.060791 416.226685 -208.918213
v -642.685547 416.226685 -200.542236
v -651.060791 6.591309 -208.918213
v -642.685547 6.591309 -200.542236
v 638.021240 6.591309 -180.998291
v 638.021240 416.226685 -180.998291
v 670.138184 416.226685 -208.918213
v 670.138184 6.591309 -208.918213
v 646.396973 6.591309 -208.918213
v 638.021240 6.591309 -200.542236
v 646.396973 416.226685 -208.918213
v 638.021240 416.226685 -200.542236
v 670.138184 416.226685 -189.371338
v 661.763672 416.226685 -180.998291
v 661.763672 6.591309 -180.998291
v 670.138184 6.591309 -189.371338
vt 0.974219 0.320820
vt 0.974219 0.161130
vt 0.981838 0.161130
vt 0.981838 0.320820
vt 0.970954 0.161130
vt 0.970954 0.320820
vt 0.993351 0.320820
vt 0.985733 0.320820
vt 0.985733 0.161130
vt 0.993351 0.161130
vt 0.982467 0.320820
vt 0.982467 0.161130
vt 0.863497 0.655500
vt 0.863497 0.483389
vt 0.866912 0.483389
vt 0.866912 0.655500
vt 0.870750 0.483389
vt 0.870750 0.655500
vt 0.867334 0.655500
vt 0.867334 0.483389
vt 0.921063 0.322260
vt 0.924763 0.322260
vt 0.924763 0.481950
vt 0.921063 0.481950
vt 0.920926 0.481950
vt 0.917225 0.481950
vt 0.917225 0.322260
vt 0.920926 0.322260
vt 0.855821 0.483389
vt 0.859522 0.483389
vt 0.859522 0.643080
vt 0.855821 0.643080
vt 0.917088 0.481950
vt 0.913388 0.481950
vt 0.913388 0.322260
vt 0.917088 0.322260
vt 0.851983 0.483389
vt 0.855684 0.483389
vt 0.855684 0.643080
vt 0.851983 0.643080
vt 0.863359 0.643080
vt 0.859659 0.643080
vt 0.859659 0.483389
vt 0.863359 0.483389
vt 0.871172 0.655501
vt 0.871172 0.483389
vt 0.874588 0.483389
vt 0.874588 0.655501
vt 0.878425 0.483389
vt 0.878425 0.655500
vt 0.875010 0.655500
vt 0.875010 0.483389
vt 0.947927 0.000000
vt 0.955546 0.000000
vt 0.955546 0.159691
vt 0.947927 0.159691
vt 0.958812 0.000000
vt 0.958812 0.159691
vt 0.967060 0.000000
vt 0.967060 0.159691
vt 0.959441 0.159691
vt 0.959441 0.000000
vt 0.970325 0.159691
vt 0.970325 0.000000
vt 0.345399 0.530167
vt 0.491786 0.530167
vt 0.491786 0.689858
vt 0.345399 0.689858
vt 0.641459 0.689858
vt 0.495071 0.689858
vt 0.495071 0.530167
vt 0.641459 0.530167
vt 0.970954 0.000000
vt 0.978574 0.000000
vt 0.978574 0.159691
vt 0.970954 0.159691
vt 0.981838 0.000000
vt 0.981838 0.159691
vt 0.990086 0.000000
vt 0.990086 0.159691
vt 0.982467 0.159691
vt 0.982467 0.000000
vt 0.993351 0.159691
vt 0.993351 0.000000
vt 0.951193 0.320820
vt 0.951193 0.161130
vt 0.958812 0.161130
vt 0.958812 0.320820
vt 0.947927 0.161130
vt 0.947927 0.320820
vt 0.970325 0.320820
vt 0.962705 0.320820
vt 0.962705 0.161130
vt 0.970325 0.161130
vt 0.959441 0.320820
vt 0.959441 0.161130
vt 0.970954 0.483389
vt 0.978573 0.483389
vt 0.970954 0.492645
vt 0.981838 0.486654
vt 0.974219 0.495910
vt 0.981838 0.495910
vt 0.947927 0.495910
vt 0.947927 0.486654
vt 0.955546 0.495910
vt 0.958812 0.492645
vt 0.951193 0.483389
vt 0.958812 0.483389
vt 0.517509 0.528728
vt 0.345399 0.528728
vt 0.345399 0.000000
vt 0.517509 0.000000
vt 0.518098 0.000000
vt 0.690209 0.000000
vt 0.690209 0.528728
vt 0.518098 0.528728
vt 0.894061 0.554719
vt 0.890361 0.554719
vt 0.890361 0.483389
vt 0.894061 0.483389
vt 0.886523 0.483389
vt 0.890224 0.483389
vt 0.890224 0.554719
vt 0.886523 0.554719
vt 0.932439 0.499280
vt 0.928739 0.499280
vt 0.928739 0.000000
vt 0.932439 0.000000
vt 0.924901 0.000000
vt 0.928601 0.000000
vt 0.928601 0.499280
vt 0.924901 0.499280
vt 0.901737 0.668178
vt 0.898036 0.668177
vt 0.898036 0.322260
vt 0.901737 0.322260
vt 0.901874 0.322260
vt 0.905575 0.322260
vt 0.905575 0.668177
vt 0.901874 0.668178
vt 0.344811 0.535650
vt 0.172699 0.535650
vt 0.172700 0.000000
vt 0.344811 0.000000
vt 0.000000 0.000000
vt 0.172111 0.000000
vt 0.172112 0.535650
vt 0.000000 0.535650
vt 0.970325 0.509870
vt 0.962706 0.509870
vt 0.970325 0.500614
vt 0.959441 0.506604
vt 0.967060 0.497349
vt 0.959441 0.497349
vt 0.993351 0.497349
vt 0.993351 0.506604
vt 0.985732 0.497349
vt 0.982467 0.500614
vt 0.990086 0.509869
vt 0.982467 0.509869
vt 0.882685 0.629777
vt 0.882685 0.483389
vt 0.886484 0.483389
vt 0.886484 0.629777
vt 0.882646 0.483389
vt 0.882646 0.629777
vt 0.878848 0.629777
vt 0.878848 0.483389
vt 0.993352 0.495910
vt 0.985731 0.495910
vt 0.993352 0.486654
vt 0.982467 0.492645
vt 0.990086 0.483389
vt 0.982467 0.483389
vt 0.970325 0.483389
vt 0.970325 0.492645
vt 0.962706 0.483389
vt 0.959441 0.486654
vt 0.967061 0.495910
vt 0.959441 0.495910
vt 0.947927 0.497349
vt 0.955548 0.497349
vt 0.947927 0.506604
vt 0.958812 0.500614
vt 0.951193 0.509870
vt 0.958812 0.509870
vt 0.970954 0.509870
vt 0.970954 0.500614
vt 0.978573 0.509870
vt 0.981838 0.506604
vt 0.974218 0.497349
vt 0.981838 0.497349
vt 0.875010 0.322260
vt 0.884265 0.322260
vt 0.884265 0.481950
vt 0.875010 0.481950
vt 0.968696 0.481950
vt 0.959441 0.481950
vt 0.959441 0.322260
vt 0.968696 0.322260
vt 0.944090 0.528728
vt 0.944090 0.000000
vt 0.947505 0.000000
vt 0.947505 0.528728
vt 0.943668 0.000000
vt 0.943668 0.528728
vt 0.940252 0.528728
vt 0.940252 0.000000
vt 0.851983 0.000000
vt 0.923313 0.000000
vt 0.923313 0.159691
vt 0.851983 0.159691
vt 0.923313 0.320821
vt 0.851983 0.320821
vt 0.851983 0.161130
vt 0.923313 0.161130
vt 0.690797 0.499280
vt 0.690797 0.000000
vt 0.850488 0.000000
vt 0.850488 0.499280
vt 0.850488 0.500720
vt 0.850488 1.000000
vt 0.690797 1.000000
vt 0.690797 0.500720
vt 0.161186 0.883006
vt 0.161186 0.537089
vt 0.320877 0.537089
vt 0.320877 0.883006
vt 0.159691 0.537089
vt 0.159691 0.883007
vt 0.000000 0.883007
vt 0.000000 0.537089
vt 0.936414 0.535649
vt 0.936414 0.000000
vt 0.939830 0.000000
vt 0.939830 0.535649
vt 0.935992 0.000000
vt 0.935992 0.535650
vt 0.932576 0.535650
vt 0.932576 0.000000
vt 0.970954 0.481950
vt 0.970954 0.322260
vt 0.980209 0.322260
vt 0.980209 0.481950
vt 0.861239 0.322260
vt 0.861239 0.481950
vt 0.851983 0.481950
vt 0.851983 0.322260
vt 0.909550 0.322260
vt 0.913348 0.322260
vt 0.913348 0.481950
vt 0.909550 0.481950
vt 0.909510 0.481950
vt 0.905712 0.481950
vt 0.905712 0.322260
vt 0.909510 0.322260
vt 0.947927 0.481950
vt 0.947927 0.322260
vt 0.957183 0.322260
vt 0.957183 0.481950
vt 0.895779 0.322260
vt 0.895779 0.481950
vt 0.886523 0.481950
vt 0.886523 0.322260
vt 0.863497 0.322260
vt 0.872752 0.322260
vt 0.872752 0.481950
vt 0.863497 0.481950
vt 0.991722 0.481950
vt 0.982467 0.481950
vt 0.982467 0.322260
vt 0.991722 0.322260
vn -1.000000 0.000000 0.000000
vn -1.000000 0.000000 0.000000
vn -1.000000 0.000000 0.000000
vn -1.000000 0.000000 0.000000
vn 1.000000 0.000000 -0.000000
vn 1.000000 0.000000 -0.000000
vn 1.000000 0.000000 -0.000000
vn 1.000000 0.000000 -0.000000
vn 0.000000 -1.000000 0.000000
vn 0.000000 -1.000000 0.000000
vn 0.000000 -1.000000 0.000000
vn 0.000000 -1.000000 0.000000
vn 0.000000 -1.000000 0.000000
vn 0.000000 -1.000000 0.000000
vn 0.000000 0.000000 1.000000
vn 0.000000 0.000000 1.000000
vn 0.000000 0.000000 1.000000
vn 0.000000 0.000000 1.000000
vn -0.000000 0.000000 -1.000000
vn -0.000000 0.000000 -1.000000
vn -0.000000 0.000000 -1.000000
vn -0.000000 0.000000 -1.000000
vn 0.000001 1.000000 -0.000000
vn 0.000001 1.000000 -0.000000
vn 0.000001 1.000000 -0.000000
vn 0.000001 1.000000 -0.000000
vn 0.000001 1.000000 -0.000000
vn 0.000001 1.000000 -0.000000
vn -0.707095 0.000000 -0.707119
vn -0.707095 0.000000 -0.707119
vn -0.707095 0.000000 -0.707119
vn -0.707095 0.000000 -0.707119
vn 0.707095 0.000000 0.707119
vn 0.707095 0.000000 0.707119
vn 0.707095 0.000000 0.707119
vn 0.707095 0.000000 0.707119
vn -1.000000 0.000000 0.000000
vn -1.000000 0.000000 0.000000
vn -1.000000 0.000000 0.000000
vn -1.000000 0.000000 0.000000
vn 0.000000 1.000000 0.000000
vn 0.000000 1.000000 0.000000
vn 0.000000 1.000000 0.000000
vn 0.000000 1.000000 0.000000
vn 1.000000 0.000000 -0.000000
vn 1.000000 0.000000 -0.000000
vn 1.000000 0.000000 -0.000000
vn 1.000000 0.000000 -0.000000
vn 0.000000 -1.000000 0.000000
vn 0.000000 -1.000000 0.000000
vn 0.000000 -1.000000 0.000000
vn 0.000000 -1.000000 0.000000
vn 0.000000 0.000000 1.000000
vn 0.000000 0.000000 1.000000
vn 0.000000 0.000000 1.000000
vn 0.000000 0.000000 1.000000
vn -0.000000 0.000000 -1.000000
vn -0.000000 0.000000 -1.000000
vn -0.000000 0.000000 -1.000000
vn -0.000000 0.000000 -1.000000
vn -1.000000 0.000000 0.000000
vn -1.000000 0.000000 0.000000
vn -1.000000 0.000000 0.000000
vn -1.000000 0.000000 0.000000
vn 0.000000 1.000000 0.000000
vn 0.000000 1.000000 0.000000
vn 0.000000 1.000000 0.000000
vn 0.000000 1.000000 0.000000
vn 1.000000 0.000000 -0.000000
vn 1.000000 0.000000 -0.000000
vn 1.000000 0.000000 -0.000000
vn 1.000000 0.000000 -0.000000
vn 0.000000 -1.000000 0.000000
vn 0.000000 -1.000000 0.000000
vn 0.000000 -1.000000 0.000000
vn 0.000000 -1.000000 0.000000
vn 0.000000 0.000000 1.000000
vn 0.000000 0.000000 1.000000
vn 0.000000 0.000000 1.000000
vn 0.000000 0.000000 1.000000
vn -0.000000 0.000000 -1.000000
vn -0.000000 0.000000 -1.000000
vn -0.000000 0.000000 -1.000000
vn -0.000000 0.000000 -1.000000
vn -1.000000 0.000000 0.000000
vn -1.000000 0.000000 0.000000
vn -1.000000 0.000000 0.000000
vn -1.000000 0.000000 0.000000
vn 0.000000 1.000000 0.000000
vn 0.000000 1.000000 0.000000
vn 0.000000 1.000000 0.000000
vn 0.000000 1.000000 0.000000
vn 1.000000 0.000000 -0.000000
vn 1.000000 0.000000 -0.000000
vn 1.000000 0.000000 -0.000000
vn 1.000000 0.000000 -0.000000
vn 0.000000 -1.000000 0.000000
vn 0.000000 -1.000000 0.000000
vn 0.000000 -1.000000 0.000000
vn 0.000000 -1.000000 0.000000
vn 0.000000 0.000000 1.000000
vn 0.000000 0.000000 1.000000
vn 0.000000 0.000000 1.000000
vn 0.000000 0.000000 1.000000
vn -0.000000 0.000000 -1.000000
vn -0.000000 0.000000 -1.000000
vn -0.000000 0.000000 -1.000000
vn -0.000000 0.000000 -1.000000
vn -1.000000 0.000000 0.000000
vn -1.000000 0.000000 0.000000
vn -1.000000 0.000000 0.000000
vn -1.000000 0.000000 0.000000
vn 0.000000 1.000000 0.000000
vn 0.000000 1.000000 0.000000
vn 0.000000 1.000000 0.000000
vn 0.000000 1.000000 0.000000
vn 1.000000 0.000000 -0.000000
vn 1.000000 0.000000 -0.000000
vn 1.000000 0.000000 -0.000000
vn 1.000000 0.000000 -0.000000
vn 0.000000 -1.000000 0.000000
vn 0.000000 -1.000000 0.000000
vn 0.000000 -1.000000 0.000000
vn 0.000000 -1.000000 0.000000
vn 0.000000 0.000000 1.000000
vn 0.000000 0.000000 1.000000
vn 0.000000 0.000000 1.000000
vn 0.000000 0.000000 1.000000
vn -0.000000 0.000000 -1.000000
vn -0.000000 0.000000 -1.000000
vn -0.000000 0.000000 -1.000000
vn -0.000000 0.000000 -1.000000
vn -1.000000 0.000000 0.000000
vn -1.000000 0.000000 0.000000
vn -1.000000 0.000000 0.000000
vn -1.000000 0.000000 0.000000
vn 0.000000 1.000000 0.000000
vn 0.000000 1.000000 0.000000
vn 0.000000 1.000000 0.000000
vn 0.000000 1.000000 0.000000
vn 1.000000 0.000000 -0.000000
vn 1.000000 0.000000 -0.000000
vn 1.000000 0.000000 -0.000000
vn 1.000000 0.000000 -0.000000
vn 0.000000 -1.000000 0.000000
vn 0.000000 -1.000000 0.000000
vn 0.000000 -1.000000 0.000000
vn 0.000000 -1.000000 0.000000
vn 0.000000 0.000000 1.000000
vn 0.000000 0.000000 1.000000
vn 0.000000 0.000000 1.000000
vn 0.000000 0.000000 1.000000
vn -0.000000 0.000000 -1.000000
vn -0.000000 0.000000 -1.000000
vn -0.000000 0.000000 -1.000000
vn -0.000000 0.000000 -1.000000
vn -1.000000 0.000000 0.000000
vn -1.000000 0.000000 0.000000
vn -1.000000 0.000000 0.000000
vn -1.000000 0.000000 0.000000
vn 0.000001 1.000000 -0.000000
vn 0.000001 1.000000 -0.000000
vn 0.000001 1.000000 -0.000000
vn 0.000001 1.000000 -0.000000
vn 0.000001 1.000000 -0.000000
vn 0.000001 1.000000 -0.000000
vn 1.000000 0.000000 -0.000000
vn 1.000000 0.000000 -0.000000
vn 1.000000 0.000000 -0.000000
vn 1.000000 0.000000 -0.000000
vn 0.000000 0.000000 1.000000
vn 0.000000 0.000000 1.000000
vn 0.000000 0.000000 1.000000
vn 0.000000 0.000000 1.000000
vn -0.000000 0.000000 -1.000000
vn -0.000000 0.000000 -1.000000
vn -0.000000 0.000000 -1.000000
vn -0.000000 0.000000 -1.000000
vn 0.000000 -1.000000 0.000000
vn 0.000000 -1.000000 0.000000
vn 0.000000 -1.000000 0.000000
vn 0.000000 -1.000000 0.000000
vn 0.000000 -1.000000 0.000000
vn 0.000000 -1.000000 0.000000
vn -0.707095 0.000000 0.707119
vn -0.707095 0.000000 0.707119
vn -0.707095 0.000000 0.707119
vn -0.707095 0.000000 0.707119
vn 0.707095 0.000000 -0.707119
vn 0.707095 0.000000 -0.707119
vn 0.707095 0.000000 -0.707119
vn 0.707095 0.000000 -0.707119
vn -1.000000 0.000000 0.000000
vn -1.000000 0.000000 0.000000
vn -1.000000 0.000000 0.000000
vn -1.000000 0.000000 0.000000
vn 0.000000 1.000000 0.000000
vn 0.000000 1.000000 0.000000
vn 0.000000 1.000000 0.000000
vn 0.000000 1.000000 0.000000
vn 1.000000 0.000000 -0.000000
vn 1.000000 0.000000 -0.000000
vn 1.000000 0.000000 -0.000000
vn 1.000000 0.000000 -0.000000
vn 0.000000 -1.000000 0.000000
vn 0.000000 -1.000000 0.000000
vn 0.000000 -1.000000 0.000000
vn 0.000000 -1.000000 0.000000
vn 0.000000 0.000000 1.000000
vn 0.000000 0.000000 1.000000
vn 0.000000 0.000000 1.000000
vn 0.000000 0.000000 1.000000
vn -0.000000 0.000000 -1.000000
vn -0.000000 0.000000 -1.000000
vn -0.000000 0.000000 -1.000000
vn -0.000000 0.000000 -1.000000
vn -1.000000 0.000000 0.000000
vn -1.000000 0.000000 0.000000
vn -1.000000 0.000000 0.000000
vn -1.000000 0.000000 0.000000
vn 0.000001 1.000000 -0.000000
vn 0.000001 1.000000 -0.000000
vn 0.000001 1.000000 -0.000000
vn 0.000001 1.000000 -0.000000
vn 0.000001 1.000000 -0.000000
vn 0.000001 1.000000 -0.000000
vn 1.000000 0.000000 -0.000000
vn 1.000000 0.000000 -0.000000
vn 1.000000 0.000000 -0.000000
vn 1.000000 0.000000 -0.000000
vn 0.000000 0.000000 1.000000
vn 0.000000 0.000000 1.000000
vn 0.000000 0.000000 1.000000
vn 0.000000 0.000000 1.000000
vn -0.000000 0.000000 -1.000000
vn -0.000000 0.000000 -1.000000
vn -0.000000 0.000000 -1.000000
vn -0.000000 0.000000 -1.000000
vn 0.000000 -1.000000 0.000000
vn 0.000000 -1.000000 0.000000
vn 0.000000 -1.000000 0.000000
vn 0.000000 -1.000000 0.000000
vn 0.000000 -1.000000 0.000000
vn 0.000000 -1.000000 0.000000
vn -0.707095 0.000000 0.707119
vn -0.707095 0.000000 0.707119
vn -0.707095 0.000000 0.707119
vn -0.707095 0.000000 0.707119
vn 0.707095 0.000000 -0.707119
vn 0.707095 0.000000 -0.707119
vn 0.707095 0.000000 -0.707119
vn 0.707095 0.000000 -0.707119
vn -1.000000 0.000000 0.000000
vn -1.000000 0.000000 0.000000
vn -1.000000 0.000000 0.000000
vn -1.000000 0.000000 0.000000
vn 1.000000 0.000000 -0.000000
vn 1.000000 0.000000 -0.000000
vn 1.000000 0.000000 -0.000000
vn 1.000000 0.000000 -0.000000
vn 0.000000 -1.000000 0.000000
vn 0.000000 -1.000000 0.000000
vn 0.000000 -1.000000 0.000000
vn 0.000000 -1.000000 0.000000
vn 0.000000 -1.000000 0.000000
vn 0.000000 -1.000000 0.000000
vn 0.000000 0.000000 1.000000
vn 0.000000 0.000000 1.000000
vn 0.000000 0.000000 1.000000
vn 0.000000 0.000000 1.000000
vn -0.000000 0.000000 -1.000000
vn -0.000000 0.000000 -1.000000
vn -0.000000 0.000000 -1.000000
vn -0.000000 0.000000 -1.000000
vn 0.000001 1.000000 -0.000000
vn 0.000001 1.000000 -0.000000
vn 0.000001 1.000000 -0.000000
vn 0.000001 1.000000 -0.000000
vn 0.000001 1.000000 -0.000000
vn 0.000001 1.000000 -0.000000
vn -0.707095 0.000000 -0.707119
vn -0.707095 0.000000 -0.707119
vn -0.707095 0.000000 -0.707119
vn -0.707095 0.000000 -0.707119
vn 0.707095 0.000000 0.707119
vn 0.707095 0.000000 0.707119
vn 0.707095 0.000000 0.707119
vn 0.707095 0.000000 0.707119
s off
g Slum_house_12
usemtl noBev556SG
f 8/1/1 6/2/2 1/3/3 2/4/4
f 3/7/5 9/8/6 12/9/7 4/10/8
s 1
f 4/97/9 12/98/10 5/99/11
f 12/98/10 11/100/12 5/99/11
f 5/99/11 11/100/12 6/101/13
f 11/100/12 1/102/14 6/101/13
s off
f 1/193/15 11/194/16 10/195/17 2/196/18
f 4/197/19 5/198/20 7/199/21 3/200/22
s 2
f 2/103/23 10/104/24 8/105/25
f 8/105/25 10/104/24 7/106/26
f 10/104/24 9/107/27 7/106/26
f 7/106/26 9/107/27 3/108/28
s off
f 5/5/29 6/2/30 8/1/31 7/6/32
f 9/8/33 10/11/34 11/12/35 12/9/36
f 13/13/37 14/14/38 16/15/39 15/16/40
f 15/109/41 16/110/42 18/111/43 17/112/44
f 17/17/45 18/18/46 20/19/47 19/20/48
f 19/113/49 20/114/50 14/115/51 13/116/52
f 14/201/53 20/202/54 18/203/55 16/204/56
f 19/205/57 13/206/58 15/207/59 17/208/60
f 21/21/61 22/22/62 24/23/63 23/24/64
f 23/117/65 24/118/66 26/119/67 25/120/68
f 25/25/69 26/26/70 28/27/71 27/28/72
f 27/121/73 28/122/74 22/123/75 21/124/76
f 22/209/77 28/210/78 26/211/79 24/212/80
f 27/213/81 21/214/82 23/215/83 25/216/84
f 29/29/85 30/30/86 32/31/87 31/32/88
f 31/125/89 32/126/90 34/127/91 33/128/92
f 33/33/93 34/34/94 36/35/95 35/36/96
f 35/129/97 36/130/98 30/131/99 29/132/100
f 30/217/101 36/218/102 34/219/103 32/220/104
f 35/221/105 29/222/106 31/223/107 33/224/108
f 37/37/109 38/38/110 40/39/111 39/40/112
f 39/133/113 40/134/114 42/135/115 41/136/116
f 41/41/117 42/42/118 44/43/119 43/44/120
f 43/137/121 44/138/122 38/139/123 37/140/124
f 38/225/125 44/226/126 42/227/127 40/228/128
f 43/229/129 37/230/130 39/231/131 41/232/132
f 45/45/133 46/46/134 48/47/135 47/48/136
f 47/141/137 48/142/138 50/143/139 49/144/140
f 49/49/141 50/50/142 52/51/143 51/52/144
f 51/145/145 52/146/146 46/147/147 45/148/148
f 46/233/149 52/234/150 50/235/151 48/236/152
f 51/237/153 45/238/154 47/239/155 49/240/156
f 53/53/157 58/54/158 60/55/159 54/56/160
s 3
f 54/149/161 60/150/162 61/151/163
f 60/150/162 59/152/164 61/151/163
f 61/151/163 59/152/164 62/153/165
f 59/152/164 55/154/166 62/153/165
s off
f 64/59/167 62/60/168 55/61/169 56/62/170
f 59/241/171 57/242/172 56/243/173 55/244/174
f 61/245/175 63/246/176 53/247/177 54/248/178
s 4
f 56/155/179 57/156/180 64/157/181
f 64/157/181 57/156/180 63/158/182
f 57/156/180 58/159/183 63/158/182
f 63/158/182 58/159/183 53/160/184
s off
f 58/54/185 57/57/186 59/58/187 60/55/188
f 61/63/189 62/60/190 64/59/191 63/64/192
f 65/65/193 66/66/194 68/67/195 67/68/196
f 67/161/197 68/162/198 70/163/199 69/164/200
f 69/69/201 70/70/202 72/71/203 71/72/204
f 71/165/205 72/166/206 66/167/207 65/168/208
f 66/249/209 72/250/210 70/251/211 68/252/212
f 71/253/213 65/254/214 67/255/215 69/256/216
f 73/73/217 78/74/218 80/75/219 74/76/220
s 5
f 74/169/221 80/170/222 81/171/223
f 80/170/222 79/172/224 81/171/223
f 81/171/223 79/172/224 82/173/225
f 79/172/224 75/174/226 82/173/225
s off
f 84/79/227 82/80/228 75/81/229 76/82/230
f 79/257/231 77/258/232 76/259/233 75/260/234
f 81/261/235 83/262/236 73/263/237 74/264/238
s 6
f 76/175/239 77/176/240 84/177/241
f 84/177/241 77/176/240 83/178/242
f 77/176/240 78/179/243 83/178/242
f 83/178/242 78/179/243 73/180/244
s off
f 78/74/245 77/77/246 79/78/247 80/75/248
f 81/83/249 82/80/250 84/79/251 83/84/252
f 92/85/253 90/86/254 85/87/255 86/88/256
f 87/91/257 93/92/258 96/93/259 88/94/260
s 7
f 88/181/261 96/182/262 89/183/263
f 96/182/262 95/184/264 89/183/263
f 89/183/263 95/184/264 90/185/265
f 95/184/264 85/186/266 90/185/265
s off
f 85/265/267 95/266/268 94/267/269 86/268/270
f 88/269/271 89/270/272 91/271/273 87/272/274
s 8
f 86/187/275 94/188/276 92/189/277
f 92/189/277 94/188/276 91/190/278
f 94/188/276 93/191/279 91/190/278
f 91/190/278 93/191/279 87/192/280
s off
f 89/89/281 90/86/282 92/85/283 91/90/284
f 93/92/285 94/95/286 95/96/287 96/93/288
