# This file uses centimeters as units for non-parametric coordinates.

mtllib vending_machine_plane_glow.mtl
g default
v -1.734482 4.469982 1.786088
v -1.235680 4.469982 1.786088
v 1.214469 4.469982 1.786088
v 1.692061 4.469982 1.786088
v -1.734482 4.584142 1.786088
v -1.235680 4.753824 1.786088
v 1.214469 4.753824 1.786088
v 1.692061 4.584142 1.786088
v -1.734482 4.786098 1.786088
v -1.235680 5.087158 1.786088
v 1.214469 5.087158 1.786088
v 1.692061 4.786098 1.786088
v -1.734482 4.953865 1.786088
v -1.235680 5.420491 1.786088
v 1.214469 5.420491 1.786088
v 1.692061 4.953865 1.786088
vt 0.000000 0.000000
vt 0.333333 0.000000
vt 0.666667 0.000000
vt 1.000000 0.000000
vt 0.000000 0.333333
vt 0.333333 0.333333
vt 0.666667 0.333333
vt 1.000000 0.333333
vt 0.000000 0.666667
vt 0.333333 0.666667
vt 0.666667 0.666667
vt 1.000000 0.666667
vt 0.000000 1.000000
vt 0.333333 1.000000
vt 0.666667 1.000000
vt 1.000000 1.000000
vn 0.000000 0.000000 1.000000
vn 0.000000 0.000000 1.000000
vn 0.000000 -0.000000 1.000000
vn 0.000000 -0.000000 1.000000
vn 0.000000 0.000000 1.000000
vn -0.000000 -0.000000 1.000000
vn 0.000000 0.000000 1.000000
vn -0.000000 -0.000000 1.000000
vn -0.000000 -0.000000 1.000000
vn 0.000000 -0.000000 1.000000
vn 0.000000 -0.000000 1.000000
vn -0.000000 -0.000000 1.000000
vn -0.000000 0.000000 1.000000
vn -0.000000 0.000000 1.000000
vn 0.000000 0.000000 1.000000
vn 0.000000 0.000000 1.000000
s 1
g vending_machine_plane
usemtl initialShadingGroup
f 1/1/1 2/2/2 6/6/3 5/5/4
f 2/2/2 3/3/5 7/7/6 6/6/3
f 3/3/5 4/4/7 8/8/8 7/7/6
f 5/5/4 6/6/3 10/10/9 9/9/10
f 6/6/3 7/7/6 11/11/11 10/10/9
f 7/7/6 8/8/8 12/12/12 11/11/11
f 9/9/10 10/10/9 14/14/13 13/13/14
f 10/10/9 11/11/11 15/15/15 14/14/13
f 11/11/11 12/12/12 16/16/16 15/15/15
