# Exported from ProBuilder
# http://www.procore3d.com/probuilder
# 6/26/2018 1:16:11 PM

mtllib ./buildings009_(217).mtl
o buildings009 (217)

g buildings009 (217)
v 358.1202 0.6799998 -54.43618
v 355.0882 0.6799998 -57.70129
v 358.1202 11.16986 -54.43618
v 355.0882 11.16986 -57.70129
v 355.0882 0.6799998 -57.70129
v 357.8378 0.6799998 -60.25453
v 355.0882 11.16986 -57.70129
v 357.8378 11.13523 -60.25453
v 357.8378 0.6799998 -60.25453
v 360.8698 0.6799998 -56.98943
v 357.8378 11.13523 -60.25453
v 360.8698 11.13523 -56.98943
v 360.8698 0.6799998 -56.98943
v 358.1202 0.6799998 -54.43618
v 360.8698 11.13523 -56.98943
v 358.1202 11.16986 -54.43618
v 358.1202 11.16986 -54.43618
v 355.0882 11.16986 -57.70129
v 360.8698 11.13523 -56.98943
v 357.8378 11.13523 -60.25453
v 360.8698 0.6799998 -56.98943
v 357.8378 0.6799998 -60.25453
v 358.1202 0.6799998 -54.43618
v 355.0882 0.6799998 -57.70129

vn -0.4582604 0 0.4255408
vn -0.4582604 0 0.4255408
vn -0.4582604 0 0.4255408
vn -0.4582604 0 0.4255408
vn -0.5053295 0 -0.5441841
vn -0.5053295 0 -0.5441841
vn -0.5053295 0 -0.5441841
vn -0.5053295 0 -0.5441841
vn 0.4582604 0 -0.4255408
vn 0.4582604 0 -0.4255408
vn 0.4582604 0 -0.4255408
vn 0.4582604 0 -0.4255408
vn 0.5053295 0 0.5441841
vn 0.5053295 0 0.5441841
vn 0.5053295 0 0.5441841
vn 0.5053295 0 0.5441841
vn 0.004229226 0.6253434 -0.003927261
vn 0.004229226 0.6253434 -0.003927261
vn 0.004229226 0.6253434 -0.003927261
vn 0.004229226 0.6253434 -0.003927261
vn 0 -0.62537 0
vn 0 -0.62537 0
vn 0 -0.62537 0
vn 0 -0.62537 0

vt 3.000006 -9.393489
vt -2.999994 -9.393489
vt 3.000006 7.380351
vt -2.999994 7.380351
vt 3.000004 -9.393489
vt -2.999996 -9.393489
vt 3.000004 7.380351
vt -2.999996 7.324975
vt 2.999994 -9.393489
vt -3.000006 -9.393489
vt 2.999994 7.324975
vt -3.000006 7.324975
vt 2.999996 -9.393489
vt -3.000004 -9.393489
vt 2.999996 7.324975
vt -3.000004 7.380351
vt -3.000006 3.067988
vt 2.999994 3.067988
vt -3.000006 -2.932267
vt 2.999994 -2.932267
vt 3.000006 -2.999996
vt -2.999994 -2.999996
vt 3.000006 3.000004
vt -2.999994 3.000004

g buildings009 (217)
usemtl Buildings
f 3/3/3 4/4/4 2/2/2 1/1/1
f 7/7/7 8/8/8 6/6/6 5/5/5
f 11/11/11 12/12/12 10/10/10 9/9/9
f 15/15/15 16/16/16 14/14/14 13/13/13
f 19/19/19 20/20/20 18/18/18 17/17/17
f 23/23/23 24/24/24 22/22/22 21/21/21

