# Exported from ProBuilder
# http://www.procore3d.com/probuilder
# 6/26/2018 1:16:19 PM

mtllib ./buildings009_(140).mtl
o buildings009 (140)

g buildings009 (140)
v 310.1498 11.4 42.49428
v 310.1498 11.4 40.49788
v 310.1498 15.29748 42.49428
v 310.1498 15.29748 40.49788
v 310.1498 11.4 40.49788
v 312.0142 11.4 40.49788
v 310.1498 15.29748 40.49788
v 312.0142 15.29748 40.49788
v 312.0142 11.4 40.49788
v 312.0142 11.4 42.49428
v 312.0142 15.29748 40.49788
v 312.0142 15.29748 42.49428
v 312.0142 11.4 42.49428
v 310.1498 11.4 42.49428
v 312.0142 15.29748 42.49428
v 310.1498 15.29748 42.49428
v 310.1498 15.29748 42.49428
v 310.1498 15.29748 40.49788
v 312.0142 15.29748 42.49428
v 312.0142 15.29748 40.49788
v 312.0142 11.4 42.49428
v 312.0142 11.4 40.49788
v 310.1498 11.4 42.49428
v 310.1498 11.4 40.49788

vn -0.3107215 0 -3.704089E-08
vn -0.3107215 0 -3.704089E-08
vn -0.3107215 0 -3.704089E-08
vn -0.3107215 0 -3.704089E-08
vn 3.966495E-08 0 -0.3327338
vn 3.966495E-08 0 -0.3327338
vn 3.966495E-08 0 -0.3327338
vn 3.966495E-08 0 -0.3327338
vn 0.3107215 0 3.704089E-08
vn 0.3107215 0 3.704089E-08
vn 0.3107215 0 3.704089E-08
vn 0.3107215 0 3.704089E-08
vn -3.966495E-08 0 0.3327338
vn -3.966495E-08 0 0.3327338
vn -3.966495E-08 0 0.3327338
vn -3.966495E-08 0 0.3327338
vn 0 0.1948741 0
vn 0 0.1948741 0
vn 0 0.1948741 0
vn 0 0.1948741 0
vn 0 -0.1948741 0
vn 0 -0.1948741 0
vn 0 -0.1948741 0
vn 0 -0.1948741 0

vt 2.999996 -10
vt -3.000004 -10
vt 2.999996 10
vt -3.000004 10
vt 3.000009 -10
vt -2.999991 -10
vt 3.000009 10
vt -2.999991 10
vt 3.000004 -10
vt -2.999996 -10
vt 3.000004 10
vt -2.999996 10
vt 2.999991 -10
vt -3.000009 -10
vt 2.999991 10
vt -3.000009 10
vt -2.999996 3.000009
vt 3.000004 3.000009
vt -2.999996 -2.999991
vt 3.000004 -2.999991
vt 2.999996 -2.999991
vt -3.000004 -2.999991
vt 2.999996 3.000009
vt -3.000004 3.000009

g buildings009 (140)
usemtl Buildings
f 3/3/3 4/4/4 2/2/2 1/1/1
f 7/7/7 8/8/8 6/6/6 5/5/5
f 11/11/11 12/12/12 10/10/10 9/9/9
f 15/15/15 16/16/16 14/14/14 13/13/13
f 19/19/19 20/20/20 18/18/18 17/17/17
f 23/23/23 24/24/24 22/22/22 21/21/21

