# Exported from ProBuilder
# http://www.procore3d.com/probuilder
# 6/26/2018 1:16:15 PM

mtllib ./buildings009_(364).mtl
o buildings009 (364)

g buildings009 (364)
v 369.0045 -22.45732 27.12649
v 348.4945 -22.45732 27.12649
v 369.0045 -22.45732 31.15692
v 348.4945 -22.45732 31.15692
v 342.3904 -22.45732 27.12649
v 342.3904 -21.67129 27.12649
v 342.3904 -22.45732 31.15692
v 342.3904 -21.67129 31.15692
v 348.4945 -21.67129 27.12649
v 369.0045 -21.67129 27.12649
v 348.4945 -21.67129 31.15692
v 369.0045 -21.67129 31.15692
v 384.7976 -21.67129 27.12649
v 384.7976 -22.45732 27.12649
v 384.7976 -21.67129 31.15692
v 384.7976 -22.45732 31.15692
v 369.0045 -22.45732 31.15692
v 348.4945 -22.45732 31.15692
v 369.0045 -21.67129 31.15692
v 348.4945 -21.67129 31.15692
v 369.0045 -21.67129 27.12649
v 348.4945 -21.67129 27.12649
v 369.0045 -22.45732 27.12649
v 348.4945 -22.45732 27.12649
v 348.4945 -22.45732 -10.0052
v 348.4945 -21.67129 -10.0052
v 342.3904 -22.45732 -10.0052
v 342.3904 -21.67129 -10.0052
v 348.4945 -22.45732 31.15692
v 348.4945 -22.45732 27.12649
v 342.3904 -22.45732 31.15692
v 342.3904 -22.45732 27.12649
v 348.4945 -21.67129 27.12649
v 348.4945 -21.67129 31.15692
v 342.3904 -21.67129 27.12649
v 342.3904 -21.67129 31.15692
v 348.4945 -21.67129 31.15692
v 348.4945 -22.45732 31.15692
v 342.3904 -21.67129 31.15692
v 342.3904 -22.45732 31.15692
v 348.4945 -22.45732 27.12649
v 348.4945 -21.67129 27.12649
v 348.4945 -22.45732 -3.359927
v 348.4945 -21.67129 -3.359927
v 342.3904 -22.45732 27.12649
v 348.4945 -22.45732 27.12649
v 342.3904 -22.45732 -3.359927
v 348.4945 -22.45732 -3.359927
v 348.4945 -21.67129 27.12649
v 342.3904 -21.67129 27.12649
v 348.4945 -21.67129 -3.359927
v 342.3904 -21.67129 -3.359927
v 342.3904 -21.67129 27.12649
v 342.3904 -22.45732 27.12649
v 342.3904 -21.67129 -3.359927
v 342.3904 -22.45732 -3.359927
v 348.4945 -22.45732 -3.359927
v 348.4945 -21.67129 -3.359927
v 348.4945 -22.45732 -10.0052
v 348.4945 -21.67129 -10.0052
v 342.3904 -22.45732 -3.359927
v 348.4945 -22.45732 -3.359927
v 342.3904 -22.45732 -10.0052
v 348.4945 -22.45732 -10.0052
v 348.4945 -21.67129 -3.359927
v 342.3904 -21.67129 -3.359927
v 348.4945 -21.67129 -10.0052
v 342.3904 -21.67129 -10.0052
v 342.3904 -21.67129 -3.359927
v 342.3904 -22.45732 -3.359927
v 342.3904 -21.67129 -10.0052
v 342.3904 -22.45732 -10.0052
v 369.0045 -21.67129 27.12649
v 369.0045 -22.45732 27.12649
v 380.6063 -21.67129 27.12649
v 380.6063 -22.45732 27.12649
v 369.0045 -21.67129 31.15692
v 369.0045 -21.67129 27.12649
v 380.6063 -21.67129 31.15692
v 380.6063 -21.67129 27.12649
v 369.0045 -22.45732 27.12649
v 369.0045 -22.45732 31.15692
v 380.6063 -22.45732 27.12649
v 380.6063 -22.45732 31.15692
v 369.0045 -22.45732 31.15692
v 369.0045 -21.67129 31.15692
v 380.6063 -22.45732 31.15692
v 380.6063 -21.67129 31.15692
v 380.6063 -21.67129 9.437685
v 380.6063 -22.45732 9.437685
v 384.7976 -21.67129 9.437685
v 384.7976 -22.45732 9.437685
v 380.6063 -21.67129 31.15692
v 380.6063 -21.67129 27.12649
v 384.7976 -21.67129 31.15692
v 384.7976 -21.67129 27.12649
v 380.6063 -22.45732 27.12649
v 380.6063 -22.45732 31.15692
v 384.7976 -22.45732 27.12649
v 384.7976 -22.45732 31.15692
v 380.6063 -22.45732 31.15692
v 380.6063 -21.67129 31.15692
v 384.7976 -22.45732 31.15692
v 384.7976 -21.67129 31.15692
v 380.6063 -21.67129 27.12649
v 380.6063 -22.45732 27.12649
v 380.6063 -21.67129 9.437685
v 380.6063 -22.45732 9.437685
v 384.7976 -21.67129 27.12649
v 380.6063 -21.67129 27.12649
v 384.7976 -21.67129 9.437685
v 380.6063 -21.67129 9.437685
v 380.6063 -22.45732 27.12649
v 384.7976 -22.45732 27.12649
v 380.6063 -22.45732 9.437685
v 384.7976 -22.45732 9.437685
v 384.7976 -22.45732 27.12649
v 384.7976 -21.67129 27.12649
v 384.7976 -22.45732 9.437685
v 384.7976 -21.67129 9.437685

vn 0 -0.8578727 -1.022664E-07
vn 0 -0.8578727 -1.022664E-07
vn 0 -0.8578727 -1.022664E-07
vn 0 -0.8578727 -1.022664E-07
vn -0.841821 0 0
vn -0.841821 0 0
vn -0.841821 0 0
vn -0.841821 0 0
vn 0 0.8578727 1.022664E-07
vn 0 0.8578727 1.022664E-07
vn 0 0.8578727 1.022664E-07
vn 0 0.8578727 1.022664E-07
vn 0.841821 0 0
vn 0.841821 0 0
vn 0.841821 0 0
vn 0.841821 0 0
vn 0 -2.402323E-08 0.2015215
vn 0 -2.402323E-08 0.2015215
vn 0 -2.402323E-08 0.2015215
vn 0 -2.402323E-08 0.2015215
vn 0 2.402323E-08 -0.2015215
vn 0 2.402323E-08 -0.2015215
vn 0 2.402323E-08 -0.2015215
vn 0 2.402323E-08 -0.2015215
vn 0 2.402322E-08 -0.2015214
vn 0 2.402322E-08 -0.2015214
vn 0 2.402322E-08 -0.2015214
vn 0 2.402322E-08 -0.2015214
vn 0 -0.8578728 -1.022664E-07
vn 0 -0.8578728 -1.022664E-07
vn 0 -0.8578728 -1.022664E-07
vn 0 -0.8578728 -1.022664E-07
vn 0 0.8578728 1.022664E-07
vn 0 0.8578728 1.022664E-07
vn 0 0.8578728 1.022664E-07
vn 0 0.8578728 1.022664E-07
vn 0 -2.402322E-08 0.2015214
vn 0 -2.402322E-08 0.2015214
vn 0 -2.402322E-08 0.2015214
vn 0 -2.402322E-08 0.2015214
vn 0.841821 0 0
vn 0.841821 0 0
vn 0.841821 0 0
vn 0.841821 0 0
vn 0 -0.8578728 -9.527926E-08
vn 0 -0.8578728 -9.527926E-08
vn 0 -0.8578728 -9.527926E-08
vn 0 -0.8578728 -9.527926E-08
vn 0 0.8578728 9.527926E-08
vn 0 0.8578728 9.527926E-08
vn 0 0.8578728 9.527926E-08
vn 0 0.8578728 9.527926E-08
vn -0.841821 0 0
vn -0.841821 0 0
vn -0.841821 0 0
vn -0.841821 0 0
vn 0.841821 0 0
vn 0.841821 0 0
vn 0.841821 0 0
vn 0.841821 0 0
vn 0 -0.8578728 -1.022664E-07
vn 0 -0.8578728 -1.022664E-07
vn 0 -0.8578728 -1.022664E-07
vn 0 -0.8578728 -1.022664E-07
vn 0 0.8578728 1.022664E-07
vn 0 0.8578728 1.022664E-07
vn 0 0.8578728 1.022664E-07
vn 0 0.8578728 1.022664E-07
vn -0.841821 0 0
vn -0.841821 0 0
vn -0.841821 0 0
vn -0.841821 0 0
vn 0 2.402323E-08 -0.2015215
vn 0 2.402323E-08 -0.2015215
vn 0 2.402323E-08 -0.2015215
vn 0 2.402323E-08 -0.2015215
vn 0 0.8578728 1.022664E-07
vn 0 0.8578728 1.022664E-07
vn 0 0.8578728 1.022664E-07
vn 0 0.8578728 1.022664E-07
vn 0 -0.8578728 -1.022664E-07
vn 0 -0.8578728 -1.022664E-07
vn 0 -0.8578728 -1.022664E-07
vn 0 -0.8578728 -1.022664E-07
vn 0 -2.402323E-08 0.2015215
vn 0 -2.402323E-08 0.2015215
vn 0 -2.402323E-08 0.2015215
vn 0 -2.402323E-08 0.2015215
vn 0 2.402323E-08 -0.2015215
vn 0 2.402323E-08 -0.2015215
vn 0 2.402323E-08 -0.2015215
vn 0 2.402323E-08 -0.2015215
vn 0 0.8578728 1.022664E-07
vn 0 0.8578728 1.022664E-07
vn 0 0.8578728 1.022664E-07
vn 0 0.8578728 1.022664E-07
vn 0 -0.8578728 -1.022664E-07
vn 0 -0.8578728 -1.022664E-07
vn 0 -0.8578728 -1.022664E-07
vn 0 -0.8578728 -1.022664E-07
vn 0 -2.402323E-08 0.2015215
vn 0 -2.402323E-08 0.2015215
vn 0 -2.402323E-08 0.2015215
vn 0 -2.402323E-08 0.2015215
vn -0.841821 0 0
vn -0.841821 0 0
vn -0.841821 0 0
vn -0.841821 0 0
vn 0 0.8578728 9.460316E-08
vn 0 0.8578728 9.460316E-08
vn 0 0.8578728 9.460316E-08
vn 0 0.8578728 9.460316E-08
vn 0 -0.8578728 -9.460316E-08
vn 0 -0.8578728 -9.460316E-08
vn 0 -0.8578728 -9.460316E-08
vn 0 -0.8578728 -9.460316E-08
vn 0.841821 0 0
vn 0.841821 0 0
vn 0.841821 0 0
vn 0.841821 0 0

vt 21.36387 -10
vt -3 -10
vt 21.36387 10
vt -3 10
vt -2.299505 -10
vt -3.215758 -10
vt -2.299505 10
vt -3.215758 10
vt 3 -10
vt -21.36387 -10
vt 3 10
vt -21.36387 10
vt 3.215758 -10
vt 2.299505 -10
vt 3.215758 10
vt 2.299505 10
vt -21.36387 -2.299505
vt 3 -2.299505
vt -21.36387 -3.215758
vt 3 -3.215758
vt 21.36387 -3.215758
vt -3 -3.215758
vt 21.36387 -2.299505
vt -3 -2.299505
vt -3 -2.2995
vt -3 -3.215753
vt -10.25105 -2.2995
vt -10.25105 -3.215753
vt -3 10
vt -3 -10
vt -10.25105 10
vt -10.25105 -10
vt 3 -10
vt 3 10
vt 10.25105 -10
vt 10.25105 10
vt 3 -3.215758
vt 3 -2.299505
vt 10.25105 -3.215758
vt 10.25105 -2.299505
vt 2.299505 -10
vt 3.215758 -10
vt 2.2995 -161.2813
vt 3.215753 -161.2813
vt -10.25105 -10
vt -3 -10
vt -10.25105 -161.2813
vt -3 -161.2813
vt 3 -10
vt 10.25105 -10
vt 3 -161.2813
vt 10.25105 -161.2813
vt -3.215758 -10
vt -2.299505 -10
vt -3.215753 -161.2813
vt -2.2995 -161.2813
vt 2.2995 -161.2813
vt 3.215753 -161.2813
vt 2.2995 -194.2568
vt 3.215753 -194.2568
vt -10.25105 -161.2813
vt -3 -161.2813
vt -10.25105 -194.2568
vt -3 -194.2568
vt 3 -161.2813
vt 10.25105 -161.2813
vt 3 -194.2568
vt 10.25105 -194.2568
vt -3.215753 -161.2813
vt -2.2995 -161.2813
vt -3.215753 -194.2568
vt -2.2995 -194.2568
vt 21.36387 -3.215758
vt 21.36387 -2.299505
vt 35.14561 -3.215758
vt 35.14561 -2.299505
vt -21.36387 10
vt -21.36387 -10
vt -35.14561 10
vt -35.14561 -10
vt 21.36387 -10
vt 21.36387 10
vt 35.14561 -10
vt 35.14561 10
vt -21.36387 -2.299505
vt -21.36387 -3.215758
vt -35.14561 -2.299505
vt -35.14561 -3.215758
vt 35.14561 -3.215755
vt 35.14561 -2.299502
vt 40.12446 -3.215755
vt 40.12446 -2.299502
vt -35.14561 10
vt -35.14561 -10
vt -40.12446 10
vt -40.12446 -10
vt 35.14561 -10
vt 35.14561 10
vt 40.12446 -10
vt 40.12446 10
vt -35.14561 -2.299505
vt -35.14561 -3.215758
vt -40.12446 -2.299505
vt -40.12446 -3.215758
vt -3.215758 -10
vt -2.299505 -10
vt -3.215755 -97.77631
vt -2.299502 -97.77631
vt -40.12446 -10
vt -35.14561 -10
vt -40.12446 -97.77631
vt -35.14561 -97.77631
vt 35.14561 -10
vt 40.12446 -10
vt 35.14561 -97.77631
vt 40.12446 -97.77631
vt 2.299505 -10
vt 3.215758 -10
vt 2.299502 -97.77631
vt 3.215755 -97.77631

g buildings009 (364)
usemtl Buildings
f 3/3/3 4/4/4 2/2/2 1/1/1
f 7/7/7 8/8/8 6/6/6 5/5/5
f 11/11/11 12/12/12 10/10/10 9/9/9
f 15/15/15 16/16/16 14/14/14 13/13/13
f 19/19/19 20/20/20 18/18/18 17/17/17
f 23/23/23 24/24/24 22/22/22 21/21/21
f 27/27/27 28/28/28 26/26/26 25/25/25
f 31/31/31 32/32/32 30/30/30 29/29/29
f 35/35/35 36/36/36 34/34/34 33/33/33
f 39/39/39 40/40/40 38/38/38 37/37/37
f 43/43/43 44/44/44 42/42/42 41/41/41
f 47/47/47 48/48/48 46/46/46 45/45/45
f 51/51/51 52/52/52 50/50/50 49/49/49
f 55/55/55 56/56/56 54/54/54 53/53/53
f 59/59/59 60/60/60 58/58/58 57/57/57
f 63/63/63 64/64/64 62/62/62 61/61/61
f 67/67/67 68/68/68 66/66/66 65/65/65
f 71/71/71 72/72/72 70/70/70 69/69/69
f 75/75/75 76/76/76 74/74/74 73/73/73
f 79/79/79 80/80/80 78/78/78 77/77/77
f 83/83/83 84/84/84 82/82/82 81/81/81
f 87/87/87 88/88/88 86/86/86 85/85/85
f 91/91/91 92/92/92 90/90/90 89/89/89
f 95/95/95 96/96/96 94/94/94 93/93/93
f 99/99/99 100/100/100 98/98/98 97/97/97
f 103/103/103 104/104/104 102/102/102 101/101/101
f 107/107/107 108/108/108 106/106/106 105/105/105
f 111/111/111 112/112/112 110/110/110 109/109/109
f 115/115/115 116/116/116 114/114/114 113/113/113
f 119/119/119 120/120/120 118/118/118 117/117/117

