# Exported from ProBuilder
# http://www.procore3d.com/probuilder
# 6/26/2018 1:16:12 PM

mtllib ./buildings009_(451).mtl
o buildings009 (451)

g buildings009 (451)
v 400.2321 9.291735 -10.02757
v 381.1978 9.291735 -10.02757
v 400.2321 9.928265 -10.02757
v 381.1978 9.928265 -10.02757
v 362.8229 9.291735 -10.02757
v 362.8229 9.291735 -27.41116
v 362.8229 9.928265 -10.02757
v 362.8229 9.928265 -27.41116
v 381.1978 9.291735 -31.64399
v 400.2321 9.291735 -31.64399
v 381.1978 9.928265 -31.64399
v 400.2321 9.928265 -31.64399
v 400.2321 9.291735 -27.41116
v 400.2321 9.291735 -10.02757
v 400.2321 9.928265 -27.41116
v 400.2321 9.928265 -10.02757
v 400.2321 9.928265 -10.02757
v 381.1978 9.928265 -10.02757
v 400.2321 9.928265 -27.41116
v 381.1978 9.928265 -27.41116
v 400.2321 9.291735 -27.41116
v 381.1978 9.291735 -27.41116
v 400.2321 9.291735 -10.02757
v 381.1978 9.291735 -10.02757
v 381.1978 9.291735 -27.41116
v 400.2321 9.291735 -27.41116
v 381.1978 9.291735 -31.64399
v 400.2321 9.291735 -31.64399
v 381.1978 9.928265 -27.41116
v 381.1978 9.291735 -27.41116
v 381.1978 9.928265 -31.64399
v 381.1978 9.291735 -31.64399
v 400.2321 9.291735 -27.41116
v 400.2321 9.928265 -27.41116
v 400.2321 9.291735 -31.64399
v 400.2321 9.928265 -31.64399
v 400.2321 9.928265 -27.41116
v 381.1978 9.928265 -27.41116
v 400.2321 9.928265 -31.64399
v 381.1978 9.928265 -31.64399
v 381.1978 9.291735 -10.02757
v 381.1978 9.291735 -27.41116
v 368.1972 9.291735 -10.02757
v 368.1972 9.291735 -27.41116
v 381.1978 9.928265 -10.02757
v 381.1978 9.291735 -10.02757
v 368.1972 9.928265 -10.02757
v 368.1972 9.291735 -10.02757
v 381.1978 9.291735 -27.41116
v 381.1978 9.928265 -27.41116
v 368.1972 9.291735 -27.41116
v 368.1972 9.928265 -27.41116
v 381.1978 9.928265 -27.41116
v 381.1978 9.928265 -10.02757
v 368.1972 9.928265 -27.41116
v 368.1972 9.928265 -10.02757
v 368.1972 9.291735 -10.02757
v 368.1972 9.291735 -27.41116
v 362.8229 9.291735 -10.02757
v 362.8229 9.291735 -27.41116
v 368.1972 9.928265 -10.02757
v 368.1972 9.291735 -10.02757
v 362.8229 9.928265 -10.02757
v 362.8229 9.291735 -10.02757
v 368.1972 9.291735 -27.41116
v 368.1972 9.928265 -27.41116
v 362.8229 9.291735 -27.41116
v 362.8229 9.928265 -27.41116
v 368.1972 9.928265 -27.41116
v 368.1972 9.928265 -10.02757
v 362.8229 9.928265 -27.41116
v 362.8229 9.928265 -10.02757

vn 0 0 0.8578727
vn 0 0 0.8578727
vn 0 0 0.8578727
vn 0 0 0.8578727
vn -0.9038224 0 0
vn -0.9038224 0 0
vn -0.9038224 0 0
vn -0.9038224 0 0
vn 0 0 -0.8578727
vn 0 0 -0.8578727
vn 0 0 -0.8578727
vn 0 0 -0.8578727
vn 0.9038224 0 0
vn 0.9038224 0 0
vn 0.9038224 0 0
vn 0.9038224 0 0
vn 0 0.0318265 0
vn 0 0.0318265 0
vn 0 0.0318265 0
vn 0 0.0318265 0
vn 0 -0.0318265 0
vn 0 -0.0318265 0
vn 0 -0.0318265 0
vn 0 -0.0318265 0
vn 0 -0.0318265 0
vn 0 -0.0318265 0
vn 0 -0.0318265 0
vn 0 -0.0318265 0
vn -0.9038224 0 0
vn -0.9038224 0 0
vn -0.9038224 0 0
vn -0.9038224 0 0
vn 0.9038224 0 0
vn 0.9038224 0 0
vn 0.9038224 0 0
vn 0.9038224 0 0
vn 0 0.0318265 0
vn 0 0.0318265 0
vn 0 0.0318265 0
vn 0 0.0318265 0
vn 0 -0.0318265 0
vn 0 -0.0318265 0
vn 0 -0.0318265 0
vn 0 -0.0318265 0
vn 0 0 0.8578727
vn 0 0 0.8578727
vn 0 0 0.8578727
vn 0 0 0.8578727
vn 0 0 -0.8578727
vn 0 0 -0.8578727
vn 0 0 -0.8578727
vn 0 0 -0.8578727
vn 0 0.0318265 0
vn 0 0.0318265 0
vn 0 0.0318265 0
vn 0 0.0318265 0
vn 0 -0.0318265 0
vn 0 -0.0318265 0
vn 0 -0.0318265 0
vn 0 -0.0318265 0
vn 0 0 0.8578727
vn 0 0 0.8578727
vn 0 0 0.8578727
vn 0 0 0.8578727
vn 0 0 -0.8578727
vn 0 0 -0.8578727
vn 0 0 -0.8578727
vn 0 0 -0.8578727
vn 0 0.0318265 0
vn 0 0.0318265 0
vn 0 0.0318265 0
vn 0 0.0318265 0

vt -1.878563 -10
vt -22.93838 -10
vt -1.878563 10
vt -22.93838 10
vt 2.999998 -10
vt -17.26361 -10
vt 2.999998 10
vt -17.26361 10
vt 22.93838 -10
vt 1.878563 -10
vt 22.93838 10
vt 1.878563 10
vt 17.26361 -10
vt -2.999998 -10
vt 17.26361 10
vt -2.999998 10
vt 1.878563 2.999998
vt 22.93838 2.999998
vt 1.878563 -17.26361
vt 22.93838 -17.26361
vt -1.878563 -17.26361
vt -22.93838 -17.26361
vt -1.878563 2.999998
vt -22.93838 2.999998
vt -22.93838 -17.26361
vt -1.878563 -17.26361
vt -22.93838 -22.19771
vt -1.878563 -22.19771
vt -17.26361 10
vt -17.26361 -10
vt -22.19771 10
vt -22.19771 -10
vt 17.26361 -10
vt 17.26361 10
vt 22.19771 -10
vt 22.19771 10
vt 1.878563 -17.26361
vt 22.93838 -17.26361
vt 1.878563 -22.19771
vt 22.93838 -22.19771
vt -22.93838 2.999998
vt -22.93838 -17.26361
vt -37.32238 2.999998
vt -37.32238 -17.26361
vt -22.93838 10
vt -22.93838 -10
vt -37.32238 10
vt -37.32238 -10
vt 22.93838 -10
vt 22.93838 10
vt 37.32238 -10
vt 37.32238 10
vt 22.93838 -17.26361
vt 22.93838 2.999998
vt 37.32238 -17.26361
vt 37.32238 2.999998
vt -37.32238 2.999998
vt -37.32238 -17.26361
vt -43.26853 2.999998
vt -43.26853 -17.26361
vt -37.32238 10
vt -37.32238 -10
vt -43.26853 10
vt -43.26853 -10
vt 37.32238 -10
vt 37.32238 10
vt 43.26853 -10
vt 43.26853 10
vt 37.32238 -17.26361
vt 37.32238 2.999998
vt 43.26853 -17.26361
vt 43.26853 2.999998

g buildings009 (451)
usemtl Buildings
f 3/3/3 4/4/4 2/2/2 1/1/1
f 7/7/7 8/8/8 6/6/6 5/5/5
f 11/11/11 12/12/12 10/10/10 9/9/9
f 15/15/15 16/16/16 14/14/14 13/13/13
f 19/19/19 20/20/20 18/18/18 17/17/17
f 23/23/23 24/24/24 22/22/22 21/21/21
f 27/27/27 28/28/28 26/26/26 25/25/25
f 31/31/31 32/32/32 30/30/30 29/29/29
f 35/35/35 36/36/36 34/34/34 33/33/33
f 39/39/39 40/40/40 38/38/38 37/37/37
f 43/43/43 44/44/44 42/42/42 41/41/41
f 47/47/47 48/48/48 46/46/46 45/45/45
f 51/51/51 52/52/52 50/50/50 49/49/49
f 55/55/55 56/56/56 54/54/54 53/53/53
f 59/59/59 60/60/60 58/58/58 57/57/57
f 63/63/63 64/64/64 62/62/62 61/61/61
f 67/67/67 68/68/68 66/66/66 65/65/65
f 71/71/71 72/72/72 70/70/70 69/69/69

