# Exported from ProBuilder
# http://www.procore3d.com/probuilder
# 6/26/2018 1:16:10 PM

mtllib ./buildings009_(261).mtl
o buildings009 (261)

g buildings009 (261)
v 412.37 1.449135 58.93438
v 406.37 1.449135 58.93438
v 412.37 5.95401 58.93438
v 406.37 5.95401 58.93438
v 406.37 1.449135 58.93438
v 406.37 1.449135 49.00327
v 406.37 5.95401 58.93438
v 406.37 5.95401 49.00327
v 406.37 1.449135 49.00327
v 412.37 1.449135 49.00327
v 406.37 5.95401 49.00327
v 412.37 5.95401 49.00327
v 412.37 1.449135 49.00327
v 412.37 1.449135 58.93438
v 412.37 5.95401 49.00327
v 412.37 5.95401 58.93438
v 412.37 5.95401 58.93438
v 406.37 5.95401 58.93438
v 412.37 5.95401 49.00327
v 406.37 5.95401 49.00327
v 412.37 1.449135 49.00327
v 406.37 1.449135 49.00327
v 412.37 1.449135 58.93438
v 406.37 1.449135 58.93438

vn 0 0 1.655185
vn 0 0 1.655185
vn 0 0 1.655185
vn 0 0 1.655185
vn -1 0 0
vn -1 0 0
vn -1 0 0
vn -1 0 0
vn 0 0 -1.655185
vn 0 0 -1.655185
vn 0 0 -1.655185
vn 0 0 -1.655185
vn 1 0 0
vn 1 0 0
vn 1 0 0
vn 1 0 0
vn 0 0.3440864 0
vn 0 0.3440864 0
vn 0 0.3440864 0
vn 0 0.3440864 0
vn 0 -0.3440864 0
vn 0 -0.3440864 0
vn 0 -0.3440864 0
vn 0 -0.3440864 0

vt 3 -10
vt -3 -10
vt 3 3.092277
vt -3 3.092277
vt 3 -10
vt -3 -10
vt 3 3.092277
vt -3 3.092277
vt 3 -10
vt -3 -10
vt 3 3.092277
vt -3 3.092277
vt 3 -10
vt -3 -10
vt 3 3.092277
vt -3 3.092277
vt -3 3
vt 3 3
vt -3 -3
vt 3 -3
vt 3 -3
vt -3 -3
vt 3 3
vt -3 3

g buildings009 (261)
usemtl Buildings
f 3/3/3 4/4/4 2/2/2 1/1/1
f 7/7/7 8/8/8 6/6/6 5/5/5
f 11/11/11 12/12/12 10/10/10 9/9/9
f 15/15/15 16/16/16 14/14/14 13/13/13
f 19/19/19 20/20/20 18/18/18 17/17/17
f 23/23/23 24/24/24 22/22/22 21/21/21

