# Exported from ProBuilder
# http://www.procore3d.com/probuilder
# 6/26/2018 1:16:07 PM

mtllib ./buildings009_(315).mtl
o buildings009 (315)

g buildings009 (315)
v 333.1654 0.6800001 60.34826
v 333.1654 0.6800001 55.97203
v 333.1654 9.757388 60.34826
v 333.1654 9.757388 55.97203
v 333.1654 0.6800001 55.97203
v 335.7264 0.6800001 55.97203
v 333.1654 9.757388 55.97203
v 335.7264 9.757388 55.97203
v 335.7264 0.6800001 55.97203
v 335.7264 0.6800001 60.34826
v 335.7264 9.757388 55.97203
v 335.7264 9.757388 60.34826
v 335.7264 0.6800001 60.34826
v 333.1654 0.6800001 60.34826
v 335.7264 9.757388 60.34826
v 333.1654 9.757388 60.34826
v 333.1654 9.757388 60.34826
v 333.1654 9.757388 55.97203
v 335.7264 9.757388 60.34826
v 335.7264 9.757388 55.97203
v 335.7264 0.6800001 60.34826
v 335.7264 0.6800001 55.97203
v 333.1654 0.6800001 60.34826
v 333.1654 0.6800001 55.97203

vn -0.9490215 0 -1.242784E-07
vn -0.9490215 0 -1.242784E-07
vn -0.9490215 0 -1.242784E-07
vn -0.9490215 0 -1.242784E-07
vn 8.805202E-08 0 -0.7386339
vn 8.805202E-08 0 -0.7386339
vn 8.805202E-08 0 -0.7386339
vn 8.805202E-08 0 -0.7386339
vn 0.9490215 0 1.131322E-07
vn 0.9490215 0 1.131322E-07
vn 0.9490215 0 1.131322E-07
vn 0.9490215 0 1.131322E-07
vn -8.805202E-08 0 0.7386339
vn -8.805202E-08 0 0.7386339
vn -8.805202E-08 0 0.7386339
vn -8.805202E-08 0 0.7386339
vn 0 0.3783337 0
vn 0 0.3783337 0
vn 0 0.3783337 0
vn 0 0.3783337 0
vn 0 -0.3783337 0
vn 0 -0.3783337 0
vn 0 -0.3783337 0
vn 0 -0.3783337 0

vt 2.999999 -10
vt -2.924761 -10
vt 2.999999 13.99307
vt -2.924761 13.99307
vt -0.3014507 -10
vt -3.000003 -10
vt -0.3014507 13.99307
vt -3.000003 13.99307
vt 2.924761 -10
vt -2.999999 -10
vt 2.924761 13.99307
vt -2.999999 13.99307
vt 3.000003 -10
vt 0.3014506 -10
vt 3.000003 13.99307
vt 0.3014506 13.99307
vt -2.999999 -0.3014506
vt 2.924761 -0.3014507
vt -2.999999 -3.000003
vt 2.924761 -3.000003
vt 2.999999 -3.000003
vt -2.924761 -3.000003
vt 2.999999 -0.3014506
vt -2.924761 -0.3014507

g buildings009 (315)
usemtl Buildings
f 3/3/3 4/4/4 2/2/2 1/1/1
f 7/7/7 8/8/8 6/6/6 5/5/5
f 11/11/11 12/12/12 10/10/10 9/9/9
f 15/15/15 16/16/16 14/14/14 13/13/13
f 19/19/19 20/20/20 18/18/18 17/17/17
f 23/23/23 24/24/24 22/22/22 21/21/21

