# Exported from ProBuilder
# http://www.procore3d.com/probuilder
# 6/26/2018 1:16:14 PM

mtllib ./buildings009_(458).mtl
o buildings009 (458)

g buildings009 (458)
v 317.2528 0.679999 -16.74563
v 317.2528 0.679999 -22.88509
v 317.2528 22.98195 -16.74563
v 317.2528 22.98195 -22.88509
v 317.2528 0.679999 -22.88509
v 320.5252 0.679999 -22.88509
v 317.2528 22.98195 -22.88509
v 320.5252 20.84303 -22.88509
v 320.5252 0.679999 -22.88509
v 320.5252 0.679999 -16.74563
v 320.5252 20.84303 -22.88509
v 320.5252 20.84303 -16.74563
v 320.5252 0.679999 -16.74563
v 317.2528 0.679999 -16.74563
v 320.5252 20.84303 -16.74563
v 317.2528 22.98195 -16.74563
v 317.2528 22.98195 -16.74563
v 317.2528 22.98195 -22.88509
v 320.5252 20.84303 -16.74563
v 320.5252 20.84303 -22.88509
v 320.5252 0.679999 -16.74563
v 320.5252 0.679999 -22.88509
v 317.2528 0.679999 -16.74563
v 317.2528 0.679999 -22.88509

vn -0.5454092 0 -6.501784E-08
vn -0.5454092 0 -6.501784E-08
vn -0.5454092 0 -6.501784E-08
vn -0.5454092 0 -6.501784E-08
vn 1.2198E-07 0 -1.023242
vn 1.2198E-07 0 -1.023242
vn 1.2198E-07 0 -1.023242
vn 1.2198E-07 0 -1.023242
vn 0.5454092 0 6.501784E-08
vn 0.5454092 0 6.501784E-08
vn 0.5454092 0 6.501784E-08
vn 0.5454092 0 6.501784E-08
vn -1.2198E-07 0 1.023242
vn -1.2198E-07 0 1.023242
vn -1.2198E-07 0 1.023242
vn -1.2198E-07 0 1.023242
vn 0.1660822 1.062141 1.979855E-08
vn 0.1660822 1.062141 1.979855E-08
vn 0.1660822 1.062141 1.979855E-08
vn 0.1660822 1.062141 1.979855E-08
vn 0 -1.115098 0
vn 0 -1.115098 0
vn 0 -1.115098 0
vn 0 -1.115098 0

vt 3 -10
vt -3 -10
vt 3 9.999999
vt -3 9.999999
vt 3.000005 -10
vt -2.999995 -10
vt 3.000005 9.999999
vt -2.999995 8.081848
vt 3 -10
vt -3 -10
vt 3 8.081848
vt -3 8.081848
vt 2.999995 -10
vt -3.000005 -10
vt 2.999995 8.081848
vt -3.000005 9.999999
vt -3 5.902627
vt 3 5.902627
vt -3 -0.3965236
vt 3 -0.3965236
vt 3 -2.999995
vt -3 -2.999995
vt 3 3.000005
vt -3 3.000005

g buildings009 (458)
usemtl Buildings
f 3/3/3 4/4/4 2/2/2 1/1/1
f 7/7/7 8/8/8 6/6/6 5/5/5
f 11/11/11 12/12/12 10/10/10 9/9/9
f 15/15/15 16/16/16 14/14/14 13/13/13
f 19/19/19 20/20/20 18/18/18 17/17/17
f 23/23/23 24/24/24 22/22/22 21/21/21

