# Exported from ProBuilder
# http://www.procore3d.com/probuilder
# 6/26/2018 1:16:16 PM

mtllib ./buildings009_(139).mtl
o buildings009 (139)

g buildings009 (139)
v 300.6698 8.16 41.47428
v 300.6699 8.16 40.40572
v 300.6698 10.31796 41.47428
v 300.6699 10.31796 40.40572
v 300.6699 8.16 40.40572
v 301.2862 8.16 40.40572
v 300.6699 10.31796 40.40572
v 301.2862 10.31796 40.40572
v 301.2862 8.16 40.40572
v 301.2862 8.16 41.47428
v 301.2862 10.31796 40.40572
v 301.2862 10.31796 41.47428
v 301.2862 8.16 41.47428
v 300.6698 8.16 41.47428
v 301.2862 10.31796 41.47428
v 300.6698 10.31796 41.47428
v 300.6698 10.31796 41.47428
v 300.6699 10.31796 40.40572
v 301.2862 10.31796 41.47428
v 301.2862 10.31796 40.40572
v 301.2862 8.16 41.47428
v 301.2862 8.16 40.40572
v 300.6698 8.16 41.47428
v 300.6699 8.16 40.40572

vn -0.1027271 0 -1.224602E-08
vn -0.1027271 0 -1.224602E-08
vn -0.1027271 0 -1.224602E-08
vn -0.1027271 0 -1.224602E-08
vn 2.123032E-08 0 -0.1780929
vn 2.123032E-08 0 -0.1780929
vn 2.123032E-08 0 -0.1780929
vn 2.123032E-08 0 -0.1780929
vn 0.1027271 0 1.224602E-08
vn 0.1027271 0 1.224602E-08
vn 0.1027271 0 1.224602E-08
vn 0.1027271 0 1.224602E-08
vn -2.123032E-08 0 0.1780929
vn -2.123032E-08 0 0.1780929
vn -2.123032E-08 0 0.1780929
vn -2.123032E-08 0 0.1780929
vn 0 0.1078978 0
vn 0 0.1078978 0
vn 0 0.1078978 0
vn 0 0.1078978 0
vn 0 -0.1078978 0
vn 0 -0.1078978 0
vn 0 -0.1078978 0
vn 0 -0.1078978 0

vt 3.000002 -10
vt -2.999998 -10
vt 3.000002 9.999999
vt -2.999998 9.999999
vt 3.000004 -10
vt -2.999996 -10
vt 3.000004 9.999999
vt -2.999996 9.999999
vt 2.999998 -10
vt -3.000002 -10
vt 2.999998 9.999999
vt -3.000002 9.999999
vt 2.999996 -10
vt -3.000004 -10
vt 2.999996 9.999999
vt -3.000004 9.999999
vt -3.000002 3.000004
vt 2.999998 3.000004
vt -3.000002 -2.999996
vt 2.999998 -2.999996
vt 3.000002 -2.999996
vt -2.999998 -2.999996
vt 3.000002 3.000004
vt -2.999998 3.000004

g buildings009 (139)
usemtl Buildings
f 3/3/3 4/4/4 2/2/2 1/1/1
f 7/7/7 8/8/8 6/6/6 5/5/5
f 11/11/11 12/12/12 10/10/10 9/9/9
f 15/15/15 16/16/16 14/14/14 13/13/13
f 19/19/19 20/20/20 18/18/18 17/17/17
f 23/23/23 24/24/24 22/22/22 21/21/21

