# Exported from ProBuilder
# http://www.procore3d.com/probuilder
# 6/26/2018 1:16:14 PM

mtllib ./buildings009_(441).mtl
o buildings009 (441)

g buildings009 (441)
v 384.6115 0.8099985 -36.874
v 379.2792 0.8099985 -36.874
v 384.6115 55.78092 -36.874
v 379.2792 55.78092 -36.874
v 379.2792 0.8099985 -36.874
v 379.2792 0.8099985 -44.0848
v 379.2792 55.78092 -36.874
v 379.2792 55.78092 -44.0848
v 379.2792 0.8099985 -44.0848
v 384.6115 0.8099985 -44.0848
v 379.2792 55.78092 -44.0848
v 384.6115 55.78092 -44.0848
v 384.6115 0.8099985 -44.0848
v 384.6115 0.8099985 -36.874
v 384.6115 55.78092 -44.0848
v 384.6115 55.78092 -36.874
v 384.6115 55.78092 -36.874
v 379.2792 55.78092 -36.874
v 384.6115 55.78092 -44.0848
v 379.2792 55.78092 -44.0848
v 384.6115 0.8099985 -44.0848
v 379.2792 0.8099985 -44.0848
v 384.6115 0.8099985 -36.874
v 379.2792 0.8099985 -36.874

vn 0 0 0.8578727
vn 0 0 0.8578727
vn 0 0 0.8578727
vn 0 0 0.8578727
vn -0.9038224 0 0
vn -0.9038224 0 0
vn -0.9038224 0 0
vn -0.9038224 0 0
vn 0 0 -0.8578727
vn 0 0 -0.8578727
vn 0 0 -0.8578727
vn 0 0 -0.8578727
vn 0.9038224 0 0
vn 0.9038224 0 0
vn 0.9038224 0 0
vn 0.9038224 0 0
vn 0 2.05564 0
vn 0 2.05564 0
vn 0 2.05564 0
vn 0 2.05564 0
vn 0 -2.05564 0
vn 0 -2.05564 0
vn 0 -2.05564 0
vn 0 -2.05564 0

vt 3 -10
vt -2.899667 -10
vt 3 16.74151
vt -2.899667 16.74151
vt 5.405437 -10
vt -3.000002 -10
vt 5.405437 16.74151
vt -3.000002 16.74151
vt 2.899667 -10
vt -3 -10
vt 2.899667 16.74151
vt -3 16.74151
vt 3.000002 -10
vt -5.405437 -10
vt 3.000002 16.74151
vt -5.405437 16.74151
vt -3 5.405437
vt 2.899667 5.405437
vt -3 -3.000002
vt 2.899667 -3.000002
vt 3 -3.000002
vt -2.899667 -3.000002
vt 3 5.405437
vt -2.899667 5.405437

g buildings009 (441)
usemtl Buildings
f 3/3/3 4/4/4 2/2/2 1/1/1
f 7/7/7 8/8/8 6/6/6 5/5/5
f 11/11/11 12/12/12 10/10/10 9/9/9
f 15/15/15 16/16/16 14/14/14 13/13/13
f 19/19/19 20/20/20 18/18/18 17/17/17
f 23/23/23 24/24/24 22/22/22 21/21/21

