# Exported from ProBuilder
# http://www.procore3d.com/probuilder
# 6/26/2018 1:16:09 PM

mtllib ./buildings009_(445).mtl
o buildings009 (445)

g buildings009 (445)
v 400.2814 0.8099998 -22.96636
v 394.8585 0.8099998 -22.96636
v 400.2814 9.225744 -22.91782
v 394.8585 9.225744 -22.91782
v 390.8889 0.8099998 -22.96636
v 390.8889 0.8099998 -26.07479
v 390.8889 9.225744 -22.91782
v 390.8889 9.225744 -26.07479
v 394.8585 0.8099998 -26.07479
v 400.2814 0.8099998 -26.07479
v 394.8585 9.225744 -26.07479
v 400.2814 9.225744 -26.07479
v 400.2814 0.8099998 -26.07479
v 400.2814 0.8099998 -22.96636
v 400.2814 9.225744 -26.07479
v 400.2814 9.225744 -22.91782
v 400.2814 9.225744 -22.91782
v 394.8585 9.225744 -22.91782
v 400.2814 9.225744 -26.07479
v 394.8585 9.225744 -26.07479
v 400.2814 0.8099998 -26.07479
v 394.8585 0.8099998 -26.07479
v 400.2814 0.8099998 -22.96636
v 394.8585 0.8099998 -22.96636
v 394.8585 0.8099998 -22.96636
v 394.8585 0.8099998 -26.07479
v 390.8889 0.8099998 -22.96636
v 390.8889 0.8099998 -26.07479
v 394.8585 9.225744 -9.90668
v 394.8585 0.8099991 -9.95522
v 390.8889 9.225744 -9.90668
v 390.8889 0.8099991 -9.95522
v 394.8585 0.8099998 -26.07479
v 394.8585 9.225744 -26.07479
v 390.8889 0.8099998 -26.07479
v 390.8889 9.225744 -26.07479
v 394.8585 9.225744 -26.07479
v 394.8585 9.225744 -22.91782
v 390.8889 9.225744 -26.07479
v 390.8889 9.225744 -22.91782
v 394.8585 9.225744 -22.91782
v 394.8585 0.8099998 -22.96636
v 394.8585 9.225744 -13.11406
v 394.8585 0.8099991 -13.1626
v 390.8889 9.225744 -22.91782
v 394.8585 9.225744 -22.91782
v 390.8889 9.225744 -13.11406
v 394.8585 9.225744 -13.11406
v 394.8585 0.8099998 -22.96636
v 390.8889 0.8099998 -22.96636
v 394.8585 0.8099991 -13.1626
v 390.8889 0.8099991 -13.1626
v 390.8889 0.8099998 -22.96636
v 390.8889 9.225744 -22.91782
v 390.8889 0.8099991 -13.1626
v 390.8889 9.225744 -13.11406
v 394.8585 9.225744 -13.11406
v 394.8585 0.8099991 -13.1626
v 394.8585 9.225744 -9.90668
v 394.8585 0.8099991 -9.95522
v 390.8889 9.225744 -13.11406
v 394.8585 9.225744 -13.11406
v 390.8889 9.225744 -9.90668
v 394.8585 9.225744 -9.90668
v 394.8585 0.8099991 -13.1626
v 390.8889 0.8099991 -13.1626
v 394.8585 0.8099991 -9.95522
v 390.8889 0.8099991 -9.95522
v 381.1492 0.8099991 -13.1626
v 381.1492 9.225744 -13.11406
v 381.1492 0.8099991 -9.95522
v 381.1492 9.225744 -9.90668
v 390.8889 0.8099991 -13.1626
v 390.8889 9.225744 -13.11406
v 383.4915 0.8099991 -13.1626
v 383.4915 9.225744 -13.11406
v 390.8889 0.8099991 -9.95522
v 390.8889 0.8099991 -13.1626
v 383.4915 0.8099991 -9.95522
v 383.4915 0.8099991 -13.1626
v 390.8889 9.225744 -13.11406
v 390.8889 9.225744 -9.90668
v 383.4915 9.225744 -13.11406
v 383.4915 9.225744 -9.90668
v 390.8889 9.225744 -9.90668
v 390.8889 0.8099991 -9.95522
v 383.4915 9.225744 -9.90668
v 383.4915 0.8099991 -9.95522
v 383.4915 0.8099998 -31.71545
v 383.4915 9.225744 -31.66691
v 381.1492 0.8099998 -31.71545
v 381.1492 9.225744 -31.66691
v 383.4915 0.8099991 -9.95522
v 383.4915 0.8099991 -13.1626
v 381.1492 0.8099991 -9.95522
v 381.1492 0.8099991 -13.1626
v 383.4915 9.225744 -13.11406
v 383.4915 9.225744 -9.90668
v 381.1492 9.225744 -13.11406
v 381.1492 9.225744 -9.90668
v 383.4915 9.225744 -9.90668
v 383.4915 0.8099991 -9.95522
v 381.1492 9.225744 -9.90668
v 381.1492 0.8099991 -9.95522
v 383.4915 0.8099991 -13.1626
v 383.4915 9.225744 -13.11406
v 383.4915 0.8099998 -27.61548
v 383.4915 9.225744 -27.56694
v 381.1492 0.8099991 -13.1626
v 383.4915 0.8099991 -13.1626
v 381.1492 0.8099998 -27.61548
v 383.4915 0.8099998 -27.61548
v 383.4915 9.225744 -13.11406
v 381.1492 9.225744 -13.11406
v 383.4915 9.225744 -27.56694
v 381.1492 9.225744 -27.56694
v 381.1492 9.225744 -13.11406
v 381.1492 0.8099991 -13.1626
v 381.1492 9.225744 -27.56694
v 381.1492 0.8099998 -27.61548
v 383.4915 0.8099998 -27.61548
v 383.4915 9.225744 -27.56694
v 383.4915 0.8099998 -31.71545
v 383.4915 9.225744 -31.66691
v 381.1492 0.8099998 -27.61548
v 383.4915 0.8099998 -27.61548
v 381.1492 0.8099998 -31.71545
v 383.4915 0.8099998 -31.71545
v 383.4915 9.225744 -27.56694
v 381.1492 9.225744 -27.56694
v 383.4915 9.225744 -31.66691
v 381.1492 9.225744 -31.66691
v 372.1806 9.225744 -27.56694
v 372.1806 0.8099998 -27.61548
v 372.1806 9.225744 -31.66691
v 372.1806 0.8099998 -31.71545
v 381.1492 9.225744 -27.56694
v 381.1492 0.8099998 -27.61548
v 372.1806 9.225744 -27.56694
v 372.1806 0.8099998 -27.61548
v 381.1492 9.225744 -31.66691
v 381.1492 9.225744 -27.56694
v 372.1806 9.225744 -31.66691
v 372.1806 9.225744 -27.56694
v 381.1492 0.8099998 -27.61548
v 381.1492 0.8099998 -31.71545
v 372.1806 0.8099998 -27.61548
v 372.1806 0.8099998 -31.71545
v 381.1492 0.8099998 -31.71545
v 381.1492 9.225744 -31.66691
v 372.1806 0.8099998 -31.71545
v 372.1806 9.225744 -31.66691

vn 0 -0.003743669 0.8578619
vn 0 -0.003743669 0.8578619
vn 0 -0.003743669 0.8578619
vn 0 -0.003743669 0.8578619
vn -0.9038224 0 0
vn -0.9038224 0 0
vn -0.9038224 0 0
vn -0.9038224 0 0
vn 0 0 -0.8578727
vn 0 0 -0.8578727
vn 0 0 -0.8578727
vn 0 0 -0.8578727
vn 0.9038224 0 0
vn 0.9038224 0 0
vn 0.9038224 0 0
vn 0.9038224 0 0
vn 0 0.7462192 0
vn 0 0.7462192 0
vn 0 0.7462192 0
vn 0 0.7462192 0
vn 0 -0.7462192 0
vn 0 -0.7462192 0
vn 0 -0.7462192 0
vn 0 -0.7462192 0
vn 0 -0.7462192 0
vn 0 -0.7462192 0
vn 0 -0.7462192 0
vn 0 -0.7462192 0
vn 0 -0.003743771 0.8578619
vn 0 -0.003743771 0.8578619
vn 0 -0.003743771 0.8578619
vn 0 -0.003743771 0.8578619
vn 0 0 -0.8578727
vn 0 0 -0.8578727
vn 0 0 -0.8578727
vn 0 0 -0.8578727
vn 0 0.7462192 0
vn 0 0.7462192 0
vn 0 0.7462192 0
vn 0 0.7462192 0
vn 0.9038224 0 0
vn 0.9038224 0 0
vn 0.9038224 0 0
vn 0.9038224 0 0
vn 0 0.7462192 3.579506E-08
vn 0 0.7462192 3.579506E-08
vn 0 0.7462192 3.579506E-08
vn 0 0.7462192 3.579506E-08
vn 0 -0.7462192 -7.159013E-08
vn 0 -0.7462192 -7.159013E-08
vn 0 -0.7462192 -7.159013E-08
vn 0 -0.7462192 -7.159013E-08
vn -0.9038224 0 0
vn -0.9038224 0 0
vn -0.9038224 0 0
vn -0.9038224 0 0
vn 0.9038224 0 0
vn 0.9038224 0 0
vn 0.9038224 0 0
vn 0.9038224 0 0
vn 0 0.7462192 -1.914709E-07
vn 0 0.7462192 -1.914709E-07
vn 0 0.7462192 -1.914709E-07
vn 0 0.7462192 -1.914709E-07
vn 0 -0.7462192 0
vn 0 -0.7462192 0
vn 0 -0.7462192 0
vn 0 -0.7462192 0
vn -0.9038224 0 0
vn -0.9038224 0 0
vn -0.9038224 0 0
vn -0.9038224 0 0
vn 0 0.003743771 -0.8578618
vn 0 0.003743771 -0.8578618
vn 0 0.003743771 -0.8578618
vn 0 0.003743771 -0.8578618
vn 0 -0.7462192 0
vn 0 -0.7462192 0
vn 0 -0.7462192 0
vn 0 -0.7462192 0
vn 0 0.7462192 -1.914709E-07
vn 0 0.7462192 -1.914709E-07
vn 0 0.7462192 -1.914709E-07
vn 0 0.7462192 -1.914709E-07
vn 0 -0.003743771 0.8578619
vn 0 -0.003743771 0.8578619
vn 0 -0.003743771 0.8578619
vn 0 -0.003743771 0.8578619
vn 0 0.003743771 -0.8578619
vn 0 0.003743771 -0.8578619
vn 0 0.003743771 -0.8578619
vn 0 0.003743771 -0.8578619
vn 0 -0.7462192 0
vn 0 -0.7462192 0
vn 0 -0.7462192 0
vn 0 -0.7462192 0
vn 0 0.7462192 -1.914709E-07
vn 0 0.7462192 -1.914709E-07
vn 0 0.7462192 -1.914709E-07
vn 0 0.7462192 -1.914709E-07
vn 0 -0.003743771 0.8578618
vn 0 -0.003743771 0.8578618
vn 0 -0.003743771 0.8578618
vn 0 -0.003743771 0.8578618
vn 0.9038224 0 0
vn 0.9038224 0 0
vn 0.9038224 0 0
vn 0.9038224 0 0
vn 0 -0.7462192 -4.856141E-08
vn 0 -0.7462192 -4.856141E-08
vn 0 -0.7462192 -4.856141E-08
vn 0 -0.7462192 -4.856141E-08
vn 0 0.7462192 2.428071E-08
vn 0 0.7462192 2.428071E-08
vn 0 0.7462192 2.428071E-08
vn 0 0.7462192 2.428071E-08
vn -0.9038224 0 0
vn -0.9038224 0 0
vn -0.9038224 0 0
vn -0.9038224 0 0
vn 0.9038224 0 0
vn 0.9038224 0 0
vn 0.9038224 0 0
vn 0.9038224 0 0
vn 0 -0.7462192 0
vn 0 -0.7462192 0
vn 0 -0.7462192 0
vn 0 -0.7462192 0
vn 0 0.7462192 -2.13981E-08
vn 0 0.7462192 -2.13981E-08
vn 0 0.7462192 -2.13981E-08
vn 0 0.7462192 -2.13981E-08
vn -0.9038224 0 0
vn -0.9038224 0 0
vn -0.9038224 0 0
vn -0.9038224 0 0
vn 0 -0.003743771 0.8578619
vn 0 -0.003743771 0.8578619
vn 0 -0.003743771 0.8578619
vn 0 -0.003743771 0.8578619
vn 0 0.7462192 -2.13981E-08
vn 0 0.7462192 -2.13981E-08
vn 0 0.7462192 -2.13981E-08
vn 0 0.7462192 -2.13981E-08
vn 0 -0.7462192 0
vn 0 -0.7462192 0
vn 0 -0.7462192 0
vn 0 -0.7462192 0
vn 0 0.003743771 -0.8578619
vn 0 0.003743771 -0.8578619
vn 0 0.003743771 -0.8578619
vn 0 0.003743771 -0.8578619

vt 3 -9.996747
vt -3 -9.996747
vt 3 1.28124
vt -3 1.28124
vt 0.6234174 -10
vt -3.000002 -10
vt 0.6799974 1.277845
vt -3.000002 1.277845
vt 3 -10
vt -3 -10
vt 3 1.277845
vt -3 1.277845
vt 3.000002 -10
vt -0.6234174 -10
vt 3.000002 1.277845
vt -0.6799974 1.277845
vt -3 0.6799974
vt 3 0.6799974
vt -3 -3.000002
vt 3 -3.000002
vt 3 -3.000002
vt -3 -3.000002
vt 3 0.6234174
vt -3 0.6234174
vt -3 0.6234174
vt -3 -3.000002
vt -7.392089 0.6234174
vt -7.392089 -3.000002
vt -3 1.357332
vt -3 -9.920656
vt -7.392089 1.357332
vt -7.392089 -9.920656
vt 3 -10
vt 3 1.277845
vt 7.392089 -10
vt 7.392089 1.277845
vt 3 -3.000002
vt 3 0.6799974
vt 7.392089 -3.000002
vt 7.392089 0.6799974
vt -0.6799974 1.277845
vt -0.6234174 -10
vt -12.10799 1.277844
vt -12.0514 -10
vt 7.392089 0.6799973
vt 3 0.6799973
vt 7.392089 12.10799
vt 3 12.10799
vt -3 0.6234183
vt -7.392089 0.6234183
vt -3 12.05141
vt -7.392089 12.05141
vt 0.6234174 -10
vt 0.6799974 1.277845
vt 12.0514 -10
vt 12.10799 1.277844
vt -12.10799 1.277844
vt -12.0514 -10
vt -15.84675 1.277845
vt -15.79017 -10
vt 7.392089 12.10799
vt 3 12.10799
vt 7.392089 15.84675
vt 3 15.84675
vt -3 12.0514
vt -7.392089 12.0514
vt -3 15.79017
vt -7.392089 15.79017
vt 12.0514 -10
vt 12.10799 1.277844
vt 15.79017 -10
vt 15.84675 1.277845
vt 7.392089 -9.939413
vt 7.392089 1.338574
vt 15.57664 -9.939413
vt 15.57664 1.338574
vt -7.392089 15.79017
vt -7.392089 12.0514
vt -15.57664 15.79017
vt -15.57664 12.0514
vt 7.392089 12.10799
vt 7.392089 15.84675
vt 15.57664 12.10799
vt 15.57664 15.84675
vt -7.392089 1.357332
vt -7.392089 -9.920656
vt -15.57664 1.357332
vt -15.57664 -9.920656
vt 15.57664 -10.04791
vt 15.57664 1.230074
vt 18.16816 -10.04791
vt 18.16816 1.230074
vt -15.57664 15.79017
vt -15.57664 12.0514
vt -18.16816 15.79017
vt -18.16816 12.0514
vt 15.57664 12.10799
vt 15.57664 15.84675
vt 18.16816 12.10799
vt 18.16816 15.84675
vt -15.57664 1.357332
vt -15.57664 -9.920656
vt -18.16816 1.357332
vt -18.16816 -9.920656
vt -12.0514 -10
vt -12.10799 1.277844
vt 4.795944 -10
vt 4.739363 1.277845
vt -18.16816 12.05141
vt -15.57664 12.05141
vt -18.16816 -4.795944
vt -15.57664 -4.795944
vt 15.57664 12.10799
vt 18.16816 12.10799
vt 15.57664 -4.739363
vt 18.16816 -4.739363
vt 12.10799 1.277844
vt 12.0514 -10
vt -4.739363 1.277845
vt -4.795944 -10
vt 4.795944 -10
vt 4.739363 1.277845
vt 9.575172 -10
vt 9.518591 1.277845
vt -18.16816 -4.795944
vt -15.57664 -4.795944
vt -18.16816 -9.575172
vt -15.57664 -9.575172
vt 15.57664 -4.739363
vt 18.16816 -4.739363
vt 15.57664 -9.518591
vt 18.16816 -9.518591
vt -4.739363 1.277845
vt -4.795944 -10
vt -9.518591 1.277845
vt -9.575172 -10
vt -18.16816 1.254051
vt -18.16816 -10.02394
vt -28.09111 1.254051
vt -28.09111 -10.02394
vt 18.16816 -9.518591
vt 18.16816 -4.739363
vt 28.09111 -9.518591
vt 28.09111 -4.739363
vt -18.16816 -4.795944
vt -18.16816 -9.575172
vt -28.09111 -4.795944
vt -28.09111 -9.575172
vt 18.16816 -10.04791
vt 18.16816 1.230074
vt 28.09111 -10.04791
vt 28.09111 1.230074

g buildings009 (445)
usemtl Buildings
f 3/3/3 4/4/4 2/2/2 1/1/1
f 7/7/7 8/8/8 6/6/6 5/5/5
f 11/11/11 12/12/12 10/10/10 9/9/9
f 15/15/15 16/16/16 14/14/14 13/13/13
f 19/19/19 20/20/20 18/18/18 17/17/17
f 23/23/23 24/24/24 22/22/22 21/21/21
f 27/27/27 28/28/28 26/26/26 25/25/25
f 31/31/31 32/32/32 30/30/30 29/29/29
f 35/35/35 36/36/36 34/34/34 33/33/33
f 39/39/39 40/40/40 38/38/38 37/37/37
f 43/43/43 44/44/44 42/42/42 41/41/41
f 47/47/47 48/48/48 46/46/46 45/45/45
f 51/51/51 52/52/52 50/50/50 49/49/49
f 55/55/55 56/56/56 54/54/54 53/53/53
f 59/59/59 60/60/60 58/58/58 57/57/57
f 63/63/63 64/64/64 62/62/62 61/61/61
f 67/67/67 68/68/68 66/66/66 65/65/65
f 71/71/71 72/72/72 70/70/70 69/69/69
f 75/75/75 76/76/76 74/74/74 73/73/73
f 79/79/79 80/80/80 78/78/78 77/77/77
f 83/83/83 84/84/84 82/82/82 81/81/81
f 87/87/87 88/88/88 86/86/86 85/85/85
f 91/91/91 92/92/92 90/90/90 89/89/89
f 95/95/95 96/96/96 94/94/94 93/93/93
f 99/99/99 100/100/100 98/98/98 97/97/97
f 103/103/103 104/104/104 102/102/102 101/101/101
f 107/107/107 108/108/108 106/106/106 105/105/105
f 111/111/111 112/112/112 110/110/110 109/109/109
f 115/115/115 116/116/116 114/114/114 113/113/113
f 119/119/119 120/120/120 118/118/118 117/117/117
f 123/123/123 124/124/124 122/122/122 121/121/121
f 127/127/127 128/128/128 126/126/126 125/125/125
f 131/131/131 132/132/132 130/130/130 129/129/129
f 135/135/135 136/136/136 134/134/134 133/133/133
f 139/139/139 140/140/140 138/138/138 137/137/137
f 143/143/143 144/144/144 142/142/142 141/141/141
f 147/147/147 148/148/148 146/146/146 145/145/145
f 151/151/151 152/152/152 150/150/150 149/149/149

