# Exported from ProBuilder
# http://www.procore3d.com/probuilder
# 6/26/2018 1:16:12 PM

mtllib ./buildings009_(239).mtl
o buildings009 (239)

g buildings009 (239)
v 390.7514 -42.73 20.33169
v 385.0714 -42.73 20.33169
v 390.7514 -22.39022 20.33169
v 385.0714 -22.39022 20.33169
v 385.0714 -42.73 20.33169
v 385.0714 -42.73 16.0091
v 385.0714 -22.39022 20.33169
v 385.0714 -22.39022 16.0091
v 385.0714 -42.73 16.0091
v 390.7514 -42.73 16.0091
v 385.0714 -22.39022 16.0091
v 390.7514 -22.39022 16.0091
v 390.7514 -42.73 16.0091
v 390.7514 -42.73 20.33169
v 390.7514 -22.39022 16.0091
v 390.7514 -22.39022 20.33169
v 390.7514 -22.39022 20.33169
v 385.0714 -22.39022 20.33169
v 390.7514 -22.39022 16.0091
v 385.0714 -22.39022 16.0091
v 390.7514 -42.73 16.0091
v 385.0714 -42.73 16.0091
v 390.7514 -42.73 20.33169
v 385.0714 -42.73 20.33169

vn 0 0 1.014204
vn 0 0 1.014204
vn 0 0 1.014204
vn 0 0 1.014204
vn -1.204367 0 0
vn -1.204367 0 0
vn -1.204367 0 0
vn -1.204367 0 0
vn 0 0 -1.014204
vn 0 0 -1.014204
vn 0 0 -1.014204
vn 0 0 -1.014204
vn 1.204367 0 0
vn 1.204367 0 0
vn 1.204367 0 0
vn 1.204367 0 0
vn 0 1.55044 0
vn 0 1.55044 0
vn 0 1.55044 0
vn 0 1.55044 0
vn 0 -1.55044 0
vn 0 -1.55044 0
vn 0 -1.55044 0
vn 0 -1.55044 0

vt 3 -10
vt -1.716163 -10
vt 3 3.118711
vt -1.716163 3.118711
vt 1.26205 -10
vt -2.999999 -10
vt 1.26205 3.118711
vt -2.999999 3.118711
vt 1.716163 -10
vt -3 -10
vt 1.716163 3.118711
vt -3 3.118711
vt 2.999999 -10
vt -1.26205 -10
vt 2.999999 3.118711
vt -1.26205 3.118711
vt -3 1.26205
vt 1.716163 1.26205
vt -3 -2.999999
vt 1.716163 -2.999999
vt 3 -2.999999
vt -1.716163 -2.999999
vt 3 1.26205
vt -1.716163 1.26205

g buildings009 (239)
usemtl Buildings
f 3/3/3 4/4/4 2/2/2 1/1/1
f 7/7/7 8/8/8 6/6/6 5/5/5
f 11/11/11 12/12/12 10/10/10 9/9/9
f 15/15/15 16/16/16 14/14/14 13/13/13
f 19/19/19 20/20/20 18/18/18 17/17/17
f 23/23/23 24/24/24 22/22/22 21/21/21

