# Exported from ProBuilder
# http://www.procore3d.com/probuilder
# 6/26/2018 1:16:07 PM

mtllib ./buildings009_(462).mtl
o buildings009 (462)

g buildings009 (462)
v 351.8302 19.72559 -48.13618
v 348.7982 19.72559 -51.40129
v 351.8302 31.47441 -48.13618
v 348.7982 31.47441 -51.40129
v 348.7982 19.72559 -51.40129
v 351.5478 19.72559 -53.95453
v 348.7982 31.47441 -51.40129
v 351.5478 30.26762 -53.95453
v 351.5478 19.72559 -53.95453
v 354.5798 19.72559 -50.68943
v 351.5478 30.26762 -53.95453
v 354.5798 30.26762 -50.68943
v 354.5798 19.72559 -50.68943
v 351.8302 19.72559 -48.13618
v 354.5798 30.26762 -50.68943
v 351.8302 31.47441 -48.13618
v 351.8302 31.47441 -48.13618
v 348.7982 31.47441 -51.40129
v 354.5798 30.26762 -50.68943
v 351.5478 30.26762 -53.95453
v 354.5798 19.72559 -50.68943
v 351.5478 19.72559 -53.95453
v 351.8302 19.72559 -48.13618
v 348.7982 19.72559 -51.40129

vn -0.4582604 0 0.4255408
vn -0.4582604 0 0.4255408
vn -0.4582604 0 0.4255408
vn -0.4582604 0 0.4255408
vn -0.5053295 0 -0.5441841
vn -0.5053295 0 -0.5441841
vn -0.5053295 0 -0.5441841
vn -0.5053295 0 -0.5441841
vn 0.4582604 0 -0.4255408
vn 0.4582604 0 -0.4255408
vn 0.4582604 0 -0.4255408
vn 0.4582604 0 -0.4255408
vn 0.5053295 0 0.5441841
vn 0.5053295 0 0.5441841
vn 0.5053295 0 0.5441841
vn 0.5053295 0 0.5441841
vn 0.1403076 0.5953369 -0.1302897
vn 0.1403076 0.5953369 -0.1302897
vn 0.1403076 0.5953369 -0.1302897
vn 0.1403076 0.5953369 -0.1302897
vn 0 -0.62537 0
vn 0 -0.62537 0
vn 0 -0.62537 0
vn 0 -0.62537 0

vt 3.000006 -9.393489
vt -2.999994 -9.393489
vt 3.000006 9.393489
vt -2.999994 9.393489
vt 3.000004 -9.393489
vt -2.999996 -9.393489
vt 3.000004 9.393489
vt -2.999996 7.463769
vt 2.999994 -9.393489
vt -3.000006 -9.393489
vt 2.999994 7.463769
vt -3.000006 7.463769
vt 2.999996 -9.393489
vt -3.000004 -9.393489
vt 2.999996 7.463769
vt -3.000004 9.393489
vt -3.000006 5.731975
vt 2.999994 5.731975
vt -3.000006 -0.5707085
vt 2.999994 -0.5707085
vt 3.000006 -2.999996
vt -2.999994 -2.999996
vt 3.000006 3.000004
vt -2.999994 3.000004

g buildings009 (462)
usemtl Buildings
f 3/3/3 4/4/4 2/2/2 1/1/1
f 7/7/7 8/8/8 6/6/6 5/5/5
f 11/11/11 12/12/12 10/10/10 9/9/9
f 15/15/15 16/16/16 14/14/14 13/13/13
f 19/19/19 20/20/20 18/18/18 17/17/17
f 23/23/23 24/24/24 22/22/22 21/21/21

