# Exported from ProBuilder
# http://www.procore3d.com/probuilder
# 6/26/2018 1:16:19 PM

mtllib ./buildings009_(330).mtl
o buildings009 (330)

g buildings009 (330)
v 300.5443 5.493188 9.828629
v 300.5443 5.493188 1.060935
v 300.5443 9.971811 9.828629
v 300.5443 9.971811 1.060935
v 300.5443 5.493188 1.060935
v 304.6344 5.493188 1.060935
v 300.5443 9.971811 1.060935
v 304.6344 9.971811 1.060935
v 301.0545 5.524013 1.834984
v 301.0545 5.524013 9.05458
v 301.0545 9.211851 1.834984
v 301.0545 9.211851 9.05458
v 304.6344 5.493188 9.828629
v 300.5443 5.493188 9.828629
v 304.6344 9.971811 9.828629
v 300.5443 9.971811 9.828629
v 300.5443 9.971811 9.828629
v 300.5443 9.971811 1.060935
v 304.6344 9.971811 9.828629
v 304.6344 9.971811 1.060935
v 304.6344 5.493188 9.828629
v 304.6344 5.493188 1.060935
v 300.5443 5.493188 9.828629
v 300.5443 5.493188 1.060935
v 304.6344 5.493188 1.060935
v 304.6344 5.493188 9.828629
v 304.6345 5.524013 1.834985
v 304.6345 5.524013 9.05458
v 304.6344 9.971811 1.060935
v 304.6344 5.493188 1.060935
v 304.6345 9.211851 1.834985
v 304.6345 5.524013 1.834985
v 304.6344 5.493188 9.828629
v 304.6344 9.971811 9.828629
v 304.6345 5.524013 9.05458
v 304.6345 9.211851 9.05458
v 304.6344 9.971811 9.828629
v 304.6344 9.971811 1.060935
v 304.6345 9.211851 9.05458
v 304.6345 9.211851 1.834985
v 304.6345 5.524013 1.834985
v 304.6345 5.524013 9.05458
v 302.313 5.524013 1.834984
v 302.313 5.524013 9.05458
v 304.6345 9.211851 1.834985
v 304.6345 5.524013 1.834985
v 302.313 9.211851 1.834984
v 302.313 5.524013 1.834984
v 304.6345 5.524013 9.05458
v 304.6345 9.211851 9.05458
v 302.313 5.524013 9.05458
v 302.313 9.211851 9.05458
v 304.6345 9.211851 9.05458
v 304.6345 9.211851 1.834985
v 302.313 9.211851 9.05458
v 302.313 9.211851 1.834984
v 302.313 5.524013 1.834984
v 302.313 5.524013 9.05458
v 301.0545 5.524013 1.834984
v 301.0545 5.524013 9.05458
v 302.313 9.211851 1.834984
v 302.313 5.524013 1.834984
v 301.0545 9.211851 1.834984
v 301.0545 5.524013 1.834984
v 302.313 5.524013 9.05458
v 302.313 9.211851 9.05458
v 301.0545 5.524013 9.05458
v 301.0545 9.211851 9.05458
v 302.313 9.211851 9.05458
v 302.313 9.211851 1.834984
v 301.0545 9.211851 9.05458
v 301.0545 9.211851 1.834984

vn -0.6816813 0 -8.126273E-08
vn -0.6816813 0 -8.126273E-08
vn -0.6816813 0 -8.126273E-08
vn -0.6816813 0 -8.126273E-08
vn 7.336441E-08 0 -0.6154253
vn 7.336441E-08 0 -0.6154253
vn 7.336441E-08 0 -0.6154253
vn 7.336441E-08 0 -0.6154253
vn 0.6816813 0 8.126273E-08
vn 0.6816813 0 8.126273E-08
vn 0.6816813 0 8.126273E-08
vn 0.6816813 0 8.126273E-08
vn -7.336441E-08 0 0.6154253
vn -7.336441E-08 0 0.6154253
vn -7.336441E-08 0 0.6154253
vn -7.336441E-08 0 0.6154253
vn 0 0.3783337 0
vn 0 0.3783337 0
vn 0 0.3783337 0
vn 0 0.3783337 0
vn 0 -0.3783337 0
vn 0 -0.3783337 0
vn 0 -0.3783337 0
vn 0 -0.3783337 0
vn 0.6816807 -0.0004638745 8.126267E-08
vn 0.6816808 -0.0004638745 8.126268E-08
vn 0.6816807 -0.0004638745 8.126267E-08
vn 0.6816807 -0.0004638745 8.126267E-08
vn 0.6816813 0 -4.879931E-05
vn 0.6816813 0 -4.879931E-05
vn 0.6816812 0 -4.879931E-05
vn 0.6816813 0 -4.879931E-05
vn 0.6816813 0 4.896183E-05
vn 0.6816812 0 4.896183E-05
vn 0.6816813 0 4.896183E-05
vn 0.6816813 0 4.896183E-05
vn 0.6816813 1.88154E-05 8.126273E-08
vn 0.6816813 1.88154E-05 8.126273E-08
vn 0.6816813 1.88154E-05 8.126273E-08
vn 0.6816813 1.88154E-05 8.126273E-08
vn 0 0.3783337 0
vn 0 0.3783337 0
vn 0 0.3783337 0
vn 0 0.3783337 0
vn -7.336441E-08 0 0.6154253
vn -7.336441E-08 0 0.6154253
vn -7.336441E-08 0 0.6154253
vn -7.336441E-08 0 0.6154253
vn 7.336441E-08 0 -0.6154253
vn 7.336441E-08 0 -0.6154253
vn 7.336441E-08 0 -0.6154253
vn 7.336441E-08 0 -0.6154253
vn 0 -0.3783337 0
vn 0 -0.3783337 0
vn 0 -0.3783337 0
vn 0 -0.3783337 0
vn 0 0.3783337 0
vn 0 0.3783337 0
vn 0 0.3783337 0
vn 0 0.3783337 0
vn -7.336441E-08 0 0.6154253
vn -7.336441E-08 0 0.6154253
vn -7.336441E-08 0 0.6154253
vn -7.336441E-08 0 0.6154253
vn 7.336441E-08 0 -0.6154253
vn 7.336441E-08 0 -0.6154253
vn 7.336441E-08 0 -0.6154253
vn 7.336441E-08 0 -0.6154253
vn 0 -0.3783337 0
vn 0 -0.3783337 0
vn 0 -0.3783337 0
vn 0 -0.3783337 0

vt 2.999999 -7.075267
vt -11.24656 -7.075267
vt 2.999999 4.762492
vt -11.24656 4.762492
vt 2.999997 -7.075267
vt -3.000003 -7.075267
vt 2.999997 4.762492
vt -3.000003 4.762492
vt 9.988813 -6.993792
vt -1.742252 -6.993792
vt 9.988813 2.753789
vt -1.742252 2.753789
vt 3.000003 -7.075267
vt -2.999997 -7.075267
vt 3.000003 4.762492
vt -2.999997 4.762492
vt -2.999999 2.999997
vt 11.24656 2.999997
vt -2.999999 -3.000003
vt 11.24656 -3.000003
vt 2.999999 -3.000003
vt -11.24656 -3.000003
vt 2.999999 2.999997
vt -11.24656 2.999997
vt 11.24656 -7.071584
vt -2.999999 -7.071584
vt 9.988813 -6.990108
vt -1.742252 -6.990108
vt 11.24632 4.762492
vt 11.24632 -7.075267
vt 9.988575 2.753789
vt 9.988575 -6.993792
vt -2.999761 -7.075267
vt -2.999761 4.762492
vt -1.742014 -6.993792
vt -1.742014 2.753789
vt -2.999999 4.762343
vt 11.24656 4.762343
vt -1.742252 2.75364
vt 9.988813 2.75364
vt 9.988813 -3.000103
vt -1.742252 -3.000103
vt 9.988813 0.4053515
vt -1.742252 0.4053515
vt 3.000103 2.753789
vt 3.000103 -6.993792
vt -0.4053515 2.753789
vt -0.4053515 -6.993792
vt -3.000103 -6.993792
vt -3.000103 2.753789
vt 0.4053515 -6.993792
vt 0.4053515 2.753789
vt 1.742252 -3.000103
vt -9.988813 -3.000103
vt 1.742252 0.4053515
vt -9.988813 0.4053515
vt 9.988813 0.4053515
vt -1.742252 0.4053515
vt 9.988813 2.251567
vt -1.742252 2.251567
vt -0.4053515 2.753789
vt -0.4053515 -6.993792
vt -2.251567 2.753789
vt -2.251567 -6.993792
vt 0.4053515 -6.993792
vt 0.4053515 2.753789
vt 2.251567 -6.993792
vt 2.251567 2.753789
vt 1.742252 0.4053515
vt -9.988813 0.4053515
vt 1.742252 2.251567
vt -9.988813 2.251567

g buildings009 (330)
usemtl Buildings
f 3/3/3 4/4/4 2/2/2 1/1/1
f 7/7/7 8/8/8 6/6/6 5/5/5
f 11/11/11 12/12/12 10/10/10 9/9/9
f 15/15/15 16/16/16 14/14/14 13/13/13
f 19/19/19 20/20/20 18/18/18 17/17/17
f 23/23/23 24/24/24 22/22/22 21/21/21
f 27/27/27 28/28/28 26/26/26 25/25/25
f 31/31/31 32/32/32 30/30/30 29/29/29
f 35/35/35 36/36/36 34/34/34 33/33/33
f 39/39/39 40/40/40 38/38/38 37/37/37
f 43/43/43 44/44/44 42/42/42 41/41/41
f 47/47/47 48/48/48 46/46/46 45/45/45
f 51/51/51 52/52/52 50/50/50 49/49/49
f 55/55/55 56/56/56 54/54/54 53/53/53
f 59/59/59 60/60/60 58/58/58 57/57/57
f 63/63/63 64/64/64 62/62/62 61/61/61
f 67/67/67 68/68/68 66/66/66 65/65/65
f 71/71/71 72/72/72 70/70/70 69/69/69

