# Exported from ProBuilder
# http://www.procore3d.com/probuilder
# 6/26/2018 1:16:15 PM

mtllib ./buildings009_(428).mtl
o buildings009 (428)

g buildings009 (428)
v 336.7411 0.6800007 -47.3367
v 326.4368 0.6800007 -47.3367
v 336.7411 17.34627 -47.3367
v 326.4368 17.34627 -47.3367
v 326.4368 0.6800007 -47.3367
v 326.4368 0.6800007 -56.01402
v 326.4368 17.34627 -47.3367
v 326.4368 17.34627 -56.01402
v 326.4368 0.6800007 -56.01402
v 336.7411 0.6800007 -56.01402
v 326.4368 17.34627 -56.01402
v 336.7411 17.34627 -56.01402
v 336.7411 0.6800007 -56.01402
v 336.7411 0.6800007 -47.3367
v 336.7411 17.34627 -56.01402
v 336.7411 17.34627 -47.3367
v 333.7723 26.95223 -50.13962
v 329.4057 26.95223 -50.13962
v 333.7723 26.95223 -53.21111
v 329.4057 26.95223 -53.21111
v 336.7411 0.6800007 -56.01402
v 326.4368 0.6800007 -56.01402
v 336.7411 0.6800007 -47.3367
v 326.4368 0.6800007 -47.3367
v 336.7411 17.34627 -47.3367
v 326.4368 17.34627 -47.3367
v 335.7107 17.34636 -48.20443
v 327.4673 17.34636 -48.20443
v 336.7411 17.34627 -56.01402
v 336.7411 17.34627 -47.3367
v 335.7107 17.34636 -55.14629
v 335.7107 17.34636 -48.20443
v 326.4368 17.34627 -47.3367
v 326.4368 17.34627 -56.01402
v 327.4673 17.34636 -48.20443
v 327.4673 17.34636 -55.14629
v 326.4368 17.34627 -56.01402
v 336.7411 17.34627 -56.01402
v 327.4673 17.34636 -55.14629
v 335.7107 17.34636 -55.14629
v 335.7107 17.34636 -48.20443
v 327.4673 17.34636 -48.20443
v 333.7723 26.95223 -50.13962
v 329.4057 26.95223 -50.13962
v 335.7107 17.34636 -55.14629
v 335.7107 17.34636 -48.20443
v 333.7723 26.95223 -53.21111
v 333.7723 26.95223 -50.13962
v 327.4673 17.34636 -48.20443
v 327.4673 17.34636 -55.14629
v 329.4057 26.95223 -50.13962
v 329.4057 26.95223 -53.21111
v 327.4673 17.34636 -55.14629
v 335.7107 17.34636 -55.14629
v 329.4057 26.95223 -53.21111
v 333.7723 26.95223 -53.21111

vn 0 0 1.44622
vn 0 0 1.44622
vn 0 0 1.44622
vn 0 0 1.44622
vn -1.717386 0 0
vn -1.717386 0 0
vn -1.717386 0 0
vn -1.717386 0 0
vn 0 0 -1.44622
vn 0 0 -1.44622
vn 0 0 -1.44622
vn 0 0 -1.44622
vn 1.717386 0 0
vn 1.717386 0 0
vn 1.717386 0 0
vn 1.717386 0 0
vn 0 0.8333136 0
vn 0 0.8333136 0
vn 0 0.8333136 0
vn 0 0.8333136 0
vn 0 -0.8333136 0
vn 0 -0.8333136 0
vn 0 -0.8333136 0
vn 0 -0.8333136 0
vn 0 0.8333136 0.0002390654
vn 0 0.8333136 0.0002390654
vn 0 0.8333136 0.0002390654
vn 0 0.8333136 0.0002390654
vn 0.0002838901 0.8333136 0
vn 0.0002838901 0.8333136 0
vn 0.0002838901 0.8333136 0
vn 0.0002838901 0.8333136 0
vn -0.0002838901 0.8333136 0
vn -0.0002838901 0.8333136 0
vn -0.0002838901 0.8333136 0
vn -0.0002838901 0.8333136 0
vn 0 0.8333136 -0.0002390654
vn 0 0.8333136 -0.0002390654
vn 0 0.8333136 -0.0002390654
vn 0 0.8333136 -0.0002390654
vn 0 0.09608634 1.436574
vn 0 0.09608634 1.436574
vn 0 0.09608635 1.436574
vn 0 0.09608634 1.436574
vn 1.709213 0.0812058 0
vn 1.709213 0.0812058 0
vn 1.709213 0.08120581 0
vn 1.709213 0.0812058 0
vn -1.709213 0.0812058 0
vn -1.709213 0.0812058 0
vn -1.709213 0.08120581 0
vn -1.709213 0.0812058 0
vn 0 0.09608634 -1.436574
vn 0 0.09608635 -1.436574
vn 0 0.09608635 -1.436574
vn 0 0.09608634 -1.436574

vt 3.000001 -15.76371
vt -2.999999 -15.76371
vt 3.000001 4.23629
vt -2.999999 4.23629
vt 3 -15.76371
vt -3 -15.76371
vt 3 4.23629
vt -3 4.23629
vt 2.999999 -15.76371
vt -3.000001 -15.76371
vt 2.999999 4.23629
vt -3.000001 4.23629
vt 3 -15.76371
vt -3 -15.76371
vt 3 4.23629
vt -3 4.23629
vt -1.2713 1.061902
vt 1.271297 1.061902
vt -1.2713 -1.061901
vt 1.271297 -1.061901
vt 3.000001 -3
vt -2.999999 -3
vt 3.000001 3
vt -2.999999 3
vt -3.000001 2.9993
vt 2.999999 2.9993
vt -2.400002 2.3993
vt 2.399999 2.3993
vt -2.999301 -3
vt -2.999301 3
vt -2.399301 -2.4
vt -2.399301 2.400001
vt 2.999298 3
vt 2.999298 -3
vt 2.399298 2.400001
vt 2.399298 -2.4
vt 2.999999 -2.999299
vt -3.000001 -2.999299
vt 2.399999 -2.399299
vt -2.400002 -2.399299
vt 2.400002 3.931397
vt -2.399999 3.931397
vt 1.2713 15.53612
vt -1.271297 15.53612
vt 2.4 3.982348
vt -2.400001 3.982348
vt 1.061901 15.5648
vt -1.061902 15.5648
vt 2.400001 3.982348
vt -2.4 3.982348
vt 1.061902 15.5648
vt -1.061901 15.5648
vt 2.399999 3.931397
vt -2.400002 3.931397
vt 1.271297 15.53612
vt -1.2713 15.53612

g buildings009 (428)
usemtl Buildings
f 3/3/3 4/4/4 2/2/2 1/1/1
f 7/7/7 8/8/8 6/6/6 5/5/5
f 11/11/11 12/12/12 10/10/10 9/9/9
f 15/15/15 16/16/16 14/14/14 13/13/13
f 19/19/19 20/20/20 18/18/18 17/17/17
f 23/23/23 24/24/24 22/22/22 21/21/21
f 27/27/27 28/28/28 26/26/26 25/25/25
f 31/31/31 32/32/32 30/30/30 29/29/29
f 35/35/35 36/36/36 34/34/34 33/33/33
f 39/39/39 40/40/40 38/38/38 37/37/37
f 43/43/43 44/44/44 42/42/42 41/41/41
f 47/47/47 48/48/48 46/46/46 45/45/45
f 51/51/51 52/52/52 50/50/50 49/49/49
f 55/55/55 56/56/56 54/54/54 53/53/53

