# Exported from ProBuilder
# http://www.procore3d.com/probuilder
# 6/26/2018 1:16:13 PM

mtllib ./buildings009_(229).mtl
o buildings009 (229)

g buildings009 (229)
v 319.4587 1.013047 -52.83913
v 313.3193 1.013047 -52.83913
v 319.4587 15.32695 -52.83913
v 313.3193 15.32695 -52.83913
v 313.3193 1.013047 -52.83913
v 313.3193 1.013047 -56.11159
v 313.3193 15.32695 -52.83913
v 313.3193 15.32695 -56.11159
v 313.3193 1.013047 -56.11159
v 319.4587 1.013047 -56.11159
v 313.3193 15.32695 -56.11159
v 319.4587 15.32695 -56.11159
v 319.4587 1.013047 -56.11159
v 319.4587 1.013047 -52.83913
v 319.4587 15.32695 -56.11159
v 319.4587 15.32695 -52.83913
v 319.4587 15.32695 -52.83913
v 313.3193 15.32695 -52.83913
v 319.4587 15.32695 -56.11159
v 313.3193 15.32695 -56.11159
v 319.4587 1.013047 -56.11159
v 313.3193 1.013047 -56.11159
v 319.4587 1.013047 -52.83913
v 313.3193 1.013047 -52.83913

vn 0 0 0.5454091
vn 0 0 0.5454091
vn 0 0 0.5454091
vn 0 0 0.5454091
vn -1.023242 0 0
vn -1.023242 0 0
vn -1.023242 0 0
vn -1.023242 0 0
vn 0 0 -0.5454091
vn 0 0 -0.5454091
vn 0 0 -0.5454091
vn 0 0 -0.5454091
vn 1.023242 0 0
vn 1.023242 0 0
vn 1.023242 0 0
vn 1.023242 0 0
vn 0 0.7156953 0
vn 0 0.7156953 0
vn 0 0.7156953 0
vn 0 0.7156953 0
vn 0 -0.7156953 0
vn 0 -0.7156953 0
vn 0 -0.7156953 0
vn 0 -0.7156953 0

vt 3 -10
vt -3 -10
vt 3 9.999999
vt -3 9.999999
vt 3.000005 -10
vt -2.999995 -10
vt 3.000005 9.999999
vt -2.999995 9.999999
vt 3 -10
vt -3 -10
vt 3 9.999999
vt -3 9.999999
vt 2.999995 -10
vt -3.000005 -10
vt 2.999995 9.999999
vt -3.000005 9.999999
vt -3 3.000005
vt 3 3.000005
vt -3 -2.999995
vt 3 -2.999995
vt 3 -2.999995
vt -3 -2.999995
vt 3 3.000005
vt -3 3.000005

g buildings009 (229)
usemtl Buildings
f 3/3/3 4/4/4 2/2/2 1/1/1
f 7/7/7 8/8/8 6/6/6 5/5/5
f 11/11/11 12/12/12 10/10/10 9/9/9
f 15/15/15 16/16/16 14/14/14 13/13/13
f 19/19/19 20/20/20 18/18/18 17/17/17
f 23/23/23 24/24/24 22/22/22 21/21/21

