# Exported from ProBuilder
# http://www.procore3d.com/probuilder
# 6/26/2018 1:16:13 PM

mtllib ./buildings009_(376).mtl
o buildings009 (376)

g buildings009 (376)
v 391.5688 -22.72732 9.390855
v 391.5688 -22.72732 -12.62976
v 371.0912 -22.72732 9.390855
v 371.0912 -22.72732 -12.62976
v 391.5688 -22.72732 -12.62976
v 391.5688 -21.94129 -12.62976
v 371.0912 -22.72732 -12.62976
v 371.0912 -21.94129 -12.62976
v 391.5688 -21.94129 -12.62976
v 391.5688 -21.94129 9.390855
v 371.0912 -21.94129 -12.62976
v 371.0912 -21.94129 9.390855
v 391.5688 -21.94129 9.390855
v 391.5688 -22.72732 9.390855
v 371.0912 -21.94129 9.390855
v 371.0912 -22.72732 9.390855
v 371.0912 -22.72732 9.390855
v 371.0912 -22.72732 -12.62976
v 371.0912 -21.94129 9.390855
v 371.0912 -21.94129 -12.62976
v 391.5688 -21.94129 9.390855
v 391.5688 -21.94129 -12.62976
v 391.5688 -22.72732 9.390855
v 391.5688 -22.72732 -12.62976

vn 0 -0.8578726 0
vn 0 -0.8578726 0
vn 0 -0.8578726 0
vn 0 -0.8578726 0
vn 0 0 -0.9038224
vn 0 0 -0.9038224
vn 0 0 -0.9038224
vn 0 0 -0.9038224
vn 0 0.8578726 0
vn 0 0.8578726 0
vn 0 0.8578726 0
vn 0 0.8578726 0
vn 0 0 0.9038224
vn 0 0 0.9038224
vn 0 0 0.9038224
vn 0 0 0.9038224
vn -1.023879 0 0
vn -1.023879 0 0
vn -1.023879 0 0
vn -1.023879 0 0
vn 1.023879 0 0
vn 1.023879 0 0
vn 1.023879 0 0
vn 1.023879 0 0

vt 21.36387 -10
vt -3 -10
vt 21.36387 10
vt -3 10
vt -2.299505 -10
vt -3.215758 -10
vt -2.299505 10
vt -3.215758 10
vt 3 -10
vt -21.36387 -10
vt 3 10
vt -21.36387 10
vt 3.215758 -10
vt 2.299505 -10
vt 3.215758 10
vt 2.299505 10
vt -21.36387 -2.299505
vt 3 -2.299505
vt -21.36387 -3.215758
vt 3 -3.215758
vt 21.36387 -3.215758
vt -3 -3.215758
vt 21.36387 -2.299505
vt -3 -2.299505

g buildings009 (376)
usemtl Buildings
f 3/3/3 4/4/4 2/2/2 1/1/1
f 7/7/7 8/8/8 6/6/6 5/5/5
f 11/11/11 12/12/12 10/10/10 9/9/9
f 15/15/15 16/16/16 14/14/14 13/13/13
f 19/19/19 20/20/20 18/18/18 17/17/17
f 23/23/23 24/24/24 22/22/22 21/21/21

