# Exported from ProBuilder
# http://www.procore3d.com/probuilder
# 6/26/2018 1:16:18 PM

mtllib ./buildings009_(333).mtl
o buildings009 (333)

g buildings009 (333)
v 357.8454 4.191852 60.76698
v 357.8454 4.191852 58.36819
v 357.8454 9.889277 60.76698
v 357.8454 9.889277 58.36819
v 357.8454 4.191852 58.36819
v 360.4064 4.191852 58.36819
v 357.8454 9.889277 58.36819
v 360.4064 9.889277 58.36819
v 360.4064 4.191852 58.36819
v 360.4064 4.191852 60.76698
v 360.4064 9.889277 58.36819
v 360.4064 9.889277 60.76698
v 360.4064 4.191852 60.76698
v 357.8454 4.191852 60.76698
v 360.4064 9.889277 60.76698
v 357.8454 9.889277 60.76698
v 357.8454 9.889277 60.76698
v 357.8454 9.889277 58.36819
v 360.4064 9.889277 60.76698
v 360.4064 9.889277 58.36819
v 360.4064 4.191852 60.76698
v 360.4064 4.191852 58.36819
v 357.8454 4.191852 60.76698
v 357.8454 4.191852 58.36819

vn -0.9490216 0 -1.192419E-07
vn -0.9490216 0 -1.192419E-07
vn -0.9490216 0 -1.192419E-07
vn -0.9490216 0 -1.192419E-07
vn 4.826494E-08 0 -0.4048758
vn 4.826494E-08 0 -0.4048758
vn 4.826494E-08 0 -0.4048758
vn 4.826494E-08 0 -0.4048758
vn 0.9490216 0 1.131322E-07
vn 0.9490216 0 1.131322E-07
vn 0.9490216 0 1.131322E-07
vn 0.9490216 0 1.131322E-07
vn -4.826494E-08 0 0.4048758
vn -4.826494E-08 0 0.4048758
vn -4.826494E-08 0 0.4048758
vn -4.826494E-08 0 0.4048758
vn 0 0.2908148 0
vn 0 0.2908148 0
vn 0 0.2908148 0
vn 0 0.2908148 0
vn 0 -0.2908148 0
vn 0 -0.2908148 0
vn 0 -0.2908148 0
vn 0 -0.2908148 0

vt 2.999999 -10
vt -2.924761 -10
vt 2.999999 9.591249
vt -2.924761 9.591249
vt -0.3014507 -10
vt -3.000003 -10
vt -0.3014507 9.591249
vt -3.000003 9.591249
vt 2.924761 -10
vt -2.999999 -10
vt 2.924761 9.591249
vt -2.999999 9.591249
vt 3.000003 -10
vt 0.3014506 -10
vt 3.000003 9.591249
vt 0.3014506 9.591249
vt -2.999999 -0.3014506
vt 2.924761 -0.3014507
vt -2.999999 -3.000003
vt 2.924761 -3.000003
vt 2.999999 -3.000003
vt -2.924761 -3.000003
vt 2.999999 -0.3014506
vt -2.924761 -0.3014507

g buildings009 (333)
usemtl Buildings
f 3/3/3 4/4/4 2/2/2 1/1/1
f 7/7/7 8/8/8 6/6/6 5/5/5
f 11/11/11 12/12/12 10/10/10 9/9/9
f 15/15/15 16/16/16 14/14/14 13/13/13
f 19/19/19 20/20/20 18/18/18 17/17/17
f 23/23/23 24/24/24 22/22/22 21/21/21

