# Exported from ProBuilder
# http://www.procore3d.com/probuilder
# 6/26/2018 1:16:19 PM

mtllib ./buildings009_(266).mtl
o buildings009 (266)

g buildings009 (266)
v 414.48 15.47907 34.81883
v 408.48 15.47907 34.81883
v 414.48 22.66991 34.81883
v 408.48 22.66991 34.81883
v 408.48 15.47907 34.81883
v 408.48 15.47907 28.81883
v 408.48 22.66991 34.81883
v 408.48 22.66991 28.81883
v 408.48 15.47907 28.81883
v 414.48 15.47907 28.81883
v 408.48 22.66991 28.81883
v 414.48 22.66991 28.81883
v 414.48 15.47907 28.81883
v 414.48 15.47907 34.81883
v 414.48 22.66991 28.81883
v 414.48 22.66991 34.81883
v 414.48 22.66991 34.81883
v 408.48 22.66991 34.81883
v 414.48 22.66991 28.81883
v 408.48 22.66991 28.81883
v 414.48 15.47907 28.81883
v 408.48 15.47907 28.81883
v 414.48 15.47907 34.81883
v 408.48 15.47907 34.81883

vn 0 0 0.9999999
vn 0 0 0.9999999
vn 0 0 0.9999999
vn 0 0 0.9999999
vn -0.9999999 0 0
vn -0.9999999 0 0
vn -0.9999999 0 0
vn -0.9999999 0 0
vn 0 0 -0.9999999
vn 0 0 -0.9999999
vn 0 0 -0.9999999
vn 0 0 -0.9999999
vn 0.9999999 0 0
vn 0.9999999 0 0
vn 0.9999999 0 0
vn 0.9999999 0 0
vn 0 0.7770933 0
vn 0 0.7770933 0
vn 0 0.7770933 0
vn 0 0.7770933 0
vn 0 -0.7770933 0
vn 0 -0.7770933 0
vn 0 -0.7770933 0
vn 0 -0.7770933 0

vt 3 -10
vt -3 -10
vt 3 -0.7464911
vt -3 -0.7464911
vt 3 -10
vt -3 -10
vt 3 -0.7464911
vt -3 -0.7464911
vt 3 -10
vt -3 -10
vt 3 -0.7464911
vt -3 -0.7464911
vt 3 -10
vt -3 -10
vt 3 -0.7464911
vt -3 -0.7464911
vt -3 3
vt 3 3
vt -3 -3
vt 3 -3
vt 3 -3
vt -3 -3
vt 3 3
vt -3 3

g buildings009 (266)
usemtl Buildings
f 3/3/3 4/4/4 2/2/2 1/1/1
f 7/7/7 8/8/8 6/6/6 5/5/5
f 11/11/11 12/12/12 10/10/10 9/9/9
f 15/15/15 16/16/16 14/14/14 13/13/13
f 19/19/19 20/20/20 18/18/18 17/17/17
f 23/23/23 24/24/24 22/22/22 21/21/21

