# Exported from ProBuilder
# http://www.procore3d.com/probuilder
# 6/26/2018 1:16:16 PM

mtllib ./buildings009_(276).mtl
o buildings009 (276)

g buildings009 (276)
v 370.9349 9.374733 31.16372
v 366.8651 9.374733 31.16372
v 370.9349 19.38326 31.16372
v 366.8651 19.38326 31.16372
v 366.8651 9.374733 31.16372
v 366.8651 9.374733 21.72224
v 366.8651 19.38326 31.16372
v 366.8651 19.38326 21.72224
v 366.8651 9.374733 21.72224
v 370.9349 9.374733 21.72224
v 366.8651 19.38326 21.72224
v 370.9349 19.38326 21.72224
v 370.9349 9.374733 21.72224
v 370.9349 9.374733 31.16372
v 370.9349 19.38326 21.72224
v 370.9349 19.38326 31.16372
v 370.9349 19.38326 31.16372
v 366.8651 19.38326 31.16372
v 370.9349 19.38326 21.72224
v 366.8651 19.38326 21.72224
v 370.9349 9.374733 21.72224
v 366.8651 9.374733 21.72224
v 370.9349 9.374733 31.16372
v 366.8651 9.374733 31.16372

vn 0 0 3.502195
vn 0 0 3.502195
vn 0 0 3.502195
vn 0 0 3.502195
vn -0.6783043 0 0
vn -0.6783043 0 0
vn -0.6783043 0 0
vn -0.6783043 0 0
vn 0 0 -3.502195
vn 0 0 -3.502195
vn 0 0 -3.502195
vn 0 0 -3.502195
vn 0.6783043 0 0
vn 0.6783043 0 0
vn 0.6783043 0 0
vn 0.6783043 0 0
vn 0 0.7770933 0
vn 0 0.7770933 0
vn 0 0.7770933 0
vn 0 0.7770933 0
vn 0 -0.7770933 0
vn 0 -0.7770933 0
vn 0 -0.7770933 0
vn 0 -0.7770933 0

vt 3 -11.11227
vt -3 -11.11227
vt 3 1.767169
vt -3 1.767169
vt -0.3041238 -11.11227
vt -3 -11.11227
vt -0.3041238 1.767169
vt -3 1.767169
vt 3 -11.11227
vt -3 -11.11227
vt 3 1.767169
vt -3 1.767169
vt 3 -11.11227
vt 0.3041238 -11.11227
vt 3 1.767169
vt 0.3041238 1.767169
vt -3 -0.3041238
vt 3 -0.3041238
vt -3 -3
vt 3 -3
vt 3 -3
vt -3 -3
vt 3 -0.3041238
vt -3 -0.3041238

g buildings009 (276)
usemtl Buildings
f 3/3/3 4/4/4 2/2/2 1/1/1
f 7/7/7 8/8/8 6/6/6 5/5/5
f 11/11/11 12/12/12 10/10/10 9/9/9
f 15/15/15 16/16/16 14/14/14 13/13/13
f 19/19/19 20/20/20 18/18/18 17/17/17
f 23/23/23 24/24/24 22/22/22 21/21/21

