# Exported from ProBuilder
# http://www.procore3d.com/probuilder
# 6/26/2018 1:16:21 PM

mtllib ./buildings009_(242).mtl
o buildings009 (242)

g buildings009 (242)
v 380.3631 -42.73 22.09433
v 373.1369 -42.73 22.09433
v 380.3631 -11.72119 22.09433
v 373.1369 -11.72119 22.09433
v 373.1369 -42.73 22.09433
v 373.1369 -42.73 16.0091
v 373.1369 -11.72119 22.09433
v 373.1369 -11.72119 16.0091
v 373.1369 -42.73 16.0091
v 380.3631 -42.73 16.0091
v 373.1369 -11.72119 16.0091
v 380.3631 -11.72119 16.0091
v 380.3631 -42.73 16.0091
v 380.3631 -42.73 22.09433
v 380.3631 -11.72119 16.0091
v 380.3631 -11.72119 22.09433
v 380.3631 -11.72119 22.09433
v 373.1369 -11.72119 22.09433
v 380.3631 -11.72119 16.0091
v 373.1369 -11.72119 16.0091
v 380.3631 -42.73 16.0091
v 373.1369 -42.73 16.0091
v 380.3631 -42.73 22.09433
v 373.1369 -42.73 22.09433

vn 0 0 1.014204
vn 0 0 1.014204
vn 0 0 1.014204
vn 0 0 1.014204
vn -1.204367 0 0
vn -1.204367 0 0
vn -1.204367 0 0
vn -1.204367 0 0
vn 0 0 -1.014204
vn 0 0 -1.014204
vn 0 0 -1.014204
vn 0 0 -1.014204
vn 1.204367 0 0
vn 1.204367 0 0
vn 1.204367 0 0
vn 1.204367 0 0
vn 0 1.55044 0
vn 0 1.55044 0
vn 0 1.55044 0
vn 0 1.55044 0
vn 0 -1.55044 0
vn 0 -1.55044 0
vn 0 -1.55044 0
vn 0 -1.55044 0

vt 3 -10
vt -3 -10
vt 3 10
vt -3 10
vt 3.000001 -10
vt -2.999999 -10
vt 3.000001 10
vt -2.999999 10
vt 3 -10
vt -3 -10
vt 3 10
vt -3 10
vt 2.999999 -10
vt -3.000001 -10
vt 2.999999 10
vt -3.000001 10
vt -3 3.000001
vt 3 3.000001
vt -3 -2.999999
vt 3 -2.999999
vt 3 -2.999999
vt -3 -2.999999
vt 3 3.000001
vt -3 3.000001

g buildings009 (242)
usemtl Buildings
f 3/3/3 4/4/4 2/2/2 1/1/1
f 7/7/7 8/8/8 6/6/6 5/5/5
f 11/11/11 12/12/12 10/10/10 9/9/9
f 15/15/15 16/16/16 14/14/14 13/13/13
f 19/19/19 20/20/20 18/18/18 17/17/17
f 23/23/23 24/24/24 22/22/22 21/21/21

