# Exported from ProBuilder
# http://www.procore3d.com/probuilder
# 6/26/2018 1:16:18 PM

mtllib ./buildings009_(369).mtl
o buildings009 (369)

g buildings009 (369)
v 369.3141 -22.46732 26.37426
v 369.3141 -22.46732 -3.619754
v 347.8058 -22.46732 26.37426
v 347.8058 -22.46732 -3.619754
v 369.3141 -22.46732 -3.619754
v 369.3141 -21.68129 -3.619754
v 347.8058 -22.46732 -3.619754
v 347.8058 -21.68129 -3.619754
v 369.3141 -21.68129 -3.619754
v 369.3141 -21.68129 26.37426
v 347.8058 -21.68129 -3.619754
v 347.8058 -21.68129 26.37426
v 369.3141 -21.68129 27.41465
v 369.3141 -22.46732 27.41465
v 347.8058 -21.68129 27.41465
v 347.8058 -22.46732 27.41465
v 347.8058 -22.46732 26.37426
v 347.8058 -22.46732 -3.619754
v 347.8058 -21.68129 26.37426
v 347.8058 -21.68129 -3.619754
v 369.3141 -21.68129 26.37426
v 369.3141 -21.68129 -3.619754
v 369.3141 -22.46732 26.37426
v 369.3141 -22.46732 -3.619754
v 369.3141 -21.68129 26.37426
v 369.3141 -22.46732 26.37426
v 369.3141 -21.68129 27.41465
v 369.3141 -22.46732 27.41465
v 347.8058 -21.68129 26.37426
v 369.3141 -21.68129 26.37426
v 347.8058 -21.68129 27.41465
v 369.3141 -21.68129 27.41465
v 369.3141 -27.96988 26.37426
v 347.8058 -27.96988 26.37426
v 369.3141 -27.96988 27.41465
v 347.8058 -27.96988 27.41465
v 347.8058 -22.46732 26.37426
v 347.8058 -21.68129 26.37426
v 347.8058 -22.46732 27.41465
v 347.8058 -21.68129 27.41465
v 369.3141 -22.46732 26.37426
v 347.8058 -22.46732 26.37426
v 369.3141 -27.96988 26.37426
v 347.8058 -27.96988 26.37426
v 369.3141 -22.46732 27.41465
v 369.3141 -22.46732 26.37426
v 369.3141 -27.96988 27.41465
v 369.3141 -27.96988 26.37426
v 347.8058 -22.46732 26.37426
v 347.8058 -22.46732 27.41465
v 347.8058 -27.96988 26.37426
v 347.8058 -27.96988 27.41465
v 347.8058 -22.46732 27.41465
v 369.3141 -22.46732 27.41465
v 347.8058 -27.96988 27.41465
v 369.3141 -27.96988 27.41465

vn 0 -0.8578727 0
vn 0 -0.8578727 0
vn 0 -0.8578727 0
vn 0 -0.8578727 0
vn 0 0 -0.9038224
vn 0 0 -0.9038224
vn 0 0 -0.9038224
vn 0 0 -0.9038224
vn 0 0.8578727 0
vn 0 0.8578727 0
vn 0 0.8578727 0
vn 0 0.8578727 0
vn 0 0 0.9038224
vn 0 0 0.9038224
vn 0 0 0.9038224
vn 0 0 0.9038224
vn -1.07541 0 0
vn -1.07541 0 0
vn -1.07541 0 0
vn -1.07541 0 0
vn 1.07541 0 0
vn 1.07541 0 0
vn 1.07541 0 0
vn 1.07541 0 0
vn 1.07541 0 0
vn 1.07541 0 0
vn 1.07541 0 0
vn 1.07541 0 0
vn 0 0.8578726 0
vn 0 0.8578726 0
vn 0 0.8578726 0
vn 0 0.8578726 0
vn 0 -0.8578726 0
vn 0 -0.8578726 0
vn 0 -0.8578726 0
vn 0 -0.8578726 0
vn -1.07541 0 0
vn -1.07541 0 0
vn -1.07541 0 0
vn -1.07541 0 0
vn 0 0 -0.9038224
vn 0 0 -0.9038224
vn 0 0 -0.9038224
vn 0 0 -0.9038224
vn 1.07541 0 0
vn 1.07541 0 0
vn 1.07541 0 0
vn 1.07541 0 0
vn -1.07541 0 0
vn -1.07541 0 0
vn -1.07541 0 0
vn -1.07541 0 0
vn 0 0 0.9038224
vn 0 0 0.9038224
vn 0 0 0.9038224
vn 0 0 0.9038224

vt 30.18574 -10
vt -3 -10
vt 30.18574 10
vt -3 10
vt -2.299505 -10
vt -3.215758 -10
vt -2.299505 10
vt -3.215758 10
vt 3 -10
vt -30.18574 -10
vt 3 10
vt -30.18574 10
vt 3.215758 -10
vt 2.299505 -10
vt 3.215758 10
vt 2.299505 10
vt -30.18574 -2.299505
vt 3 -2.299505
vt -30.18574 -3.215758
vt 3 -3.215758
vt 30.18574 -3.215758
vt -3 -3.215758
vt 30.18574 -2.299505
vt -3 -2.299505
vt 30.18574 -3.215758
vt 30.18574 -2.299505
vt 31.33684 -3.215758
vt 31.33684 -2.299505
vt -30.18574 10
vt -30.18574 -10
vt -31.33684 10
vt -31.33684 -10
vt 30.18574 -10
vt 30.18574 10
vt 31.33684 -10
vt 31.33684 10
vt -30.18574 -2.299505
vt -30.18574 -3.215758
vt -31.33684 -2.299505
vt -31.33684 -3.215758
vt -2.299505 -10
vt -2.299505 10
vt 4.114691 -10
vt 4.114691 10
vt 31.33684 -2.299505
vt 30.18574 -2.299505
vt 31.33684 4.114691
vt 30.18574 4.114691
vt -30.18574 -2.299505
vt -31.33684 -2.299505
vt -30.18574 4.114691
vt -31.33684 4.114691
vt 2.299505 10
vt 2.299505 -10
vt -4.114691 10
vt -4.114691 -10

g buildings009 (369)
usemtl Buildings
f 3/3/3 4/4/4 2/2/2 1/1/1
f 7/7/7 8/8/8 6/6/6 5/5/5
f 11/11/11 12/12/12 10/10/10 9/9/9
f 15/15/15 16/16/16 14/14/14 13/13/13
f 19/19/19 20/20/20 18/18/18 17/17/17
f 23/23/23 24/24/24 22/22/22 21/21/21
f 27/27/27 28/28/28 26/26/26 25/25/25
f 31/31/31 32/32/32 30/30/30 29/29/29
f 35/35/35 36/36/36 34/34/34 33/33/33
f 39/39/39 40/40/40 38/38/38 37/37/37
f 43/43/43 44/44/44 42/42/42 41/41/41
f 47/47/47 48/48/48 46/46/46 45/45/45
f 51/51/51 52/52/52 50/50/50 49/49/49
f 55/55/55 56/56/56 54/54/54 53/53/53

