# Exported from ProBuilder
# http://www.procore3d.com/probuilder
# 6/26/2018 1:16:06 PM

mtllib ./buildings009_(133).mtl
o buildings009 (133)

g buildings009 (133)
v 303.5998 0.6800001 51.03427
v 301.3399 0.6800001 51.03427
v 303.5998 4.102281 51.03427
v 301.3399 4.102281 51.03427
v 301.3399 0.6800001 51.03427
v 301.3399 0.6800001 47.56162
v 301.3399 4.102281 51.03427
v 301.3399 4.102281 47.56162
v 301.3399 0.6800001 47.56162
v 303.5998 0.6800001 47.56162
v 301.3399 4.102281 47.56162
v 303.5998 4.102281 47.56162
v 303.5998 0.6800001 47.56162
v 303.5998 0.6800001 51.03427
v 303.5998 4.102281 47.56162
v 303.5998 4.102281 51.03427
v 303.5998 4.102281 51.03427
v 301.3399 4.102281 51.03427
v 303.5998 4.102281 47.56162
v 301.3399 4.102281 47.56162
v 303.5998 0.6800001 47.56162
v 301.3399 0.6800001 47.56162
v 303.5998 0.6800001 51.03427
v 301.3399 0.6800001 51.03427

vn 0 0 0.5787745
vn 0 0 0.5787745
vn 0 0 0.5787745
vn 0 0 0.5787745
vn -0.376653 0 0
vn -0.376653 0 0
vn -0.376653 0 0
vn -0.376653 0 0
vn 0 0 -0.5787745
vn 0 0 -0.5787745
vn 0 0 -0.5787745
vn 0 0 -0.5787745
vn 0.376653 0 0
vn 0.376653 0 0
vn 0.376653 0 0
vn 0.376653 0 0
vn 0 0.171114 0
vn 0 0.171114 0
vn 0 0.171114 0
vn 0 0.171114 0
vn 0 -0.171114 0
vn 0 -0.171114 0
vn 0 -0.171114 0
vn 0 -0.171114 0

vt 3 -9.999999
vt -3 -9.999999
vt 3 10
vt -3 10
vt 3.000001 -9.999999
vt -2.999999 -9.999999
vt 3.000001 10
vt -2.999999 10
vt 3 -9.999999
vt -3 -9.999999
vt 3 10
vt -3 10
vt 2.999999 -9.999999
vt -3.000001 -9.999999
vt 2.999999 10
vt -3.000001 10
vt -3 3.000001
vt 3 3.000001
vt -3 -2.999999
vt 3 -2.999999
vt 3 -2.999999
vt -3 -2.999999
vt 3 3.000001
vt -3 3.000001

g buildings009 (133)
usemtl Buildings
f 3/3/3 4/4/4 2/2/2 1/1/1
f 7/7/7 8/8/8 6/6/6 5/5/5
f 11/11/11 12/12/12 10/10/10 9/9/9
f 15/15/15 16/16/16 14/14/14 13/13/13
f 19/19/19 20/20/20 18/18/18 17/17/17
f 23/23/23 24/24/24 22/22/22 21/21/21

