# Exported from ProBuilder
# http://www.procore3d.com/probuilder
# 6/26/2018 1:16:07 PM

mtllib ./buildings009_(306).mtl
o buildings009 (306)

g buildings009 (306)
v 330.5251 0.6800001 33.28672
v 330.5251 0.6800001 32.958
v 330.5251 3.480612 33.28672
v 330.5251 3.480612 32.958
v 334.8626 0.6800001 32.958
v 337.0451 0.6800001 32.958
v 334.8626 3.480612 32.958
v 337.0451 3.480612 32.958
v 337.0451 0.6800001 32.958
v 337.0451 0.6800001 33.28672
v 337.0451 3.480612 32.958
v 337.0451 3.480612 33.28672
v 337.0451 0.6800001 33.28672
v 334.8626 0.6800001 33.28672
v 337.0451 3.480612 33.28672
v 334.8626 3.480612 33.28672
v 334.8626 6.449872 33.28672
v 334.8626 6.449872 32.958
v 337.0451 6.449872 33.28672
v 337.0451 6.449872 32.958
v 337.0451 0.6800001 33.28672
v 337.0451 0.6800001 32.958
v 334.8626 0.6800001 33.28672
v 334.8626 0.6800001 32.958
v 334.8626 0.6800001 33.28672
v 334.8626 0.6800001 32.958
v 330.5251 0.6800001 33.28672
v 330.5251 0.6800001 32.958
v 334.8626 3.480612 33.28672
v 334.8626 0.6800001 33.28672
v 330.5251 3.480612 33.28672
v 330.5251 0.6800001 33.28672
v 334.8626 0.6800001 32.958
v 334.8626 3.480612 32.958
v 330.5251 0.6800001 32.958
v 330.5251 3.480612 32.958
v 334.8626 3.480612 32.958
v 334.8626 3.480612 33.28672
v 330.5251 3.480612 32.958
v 330.5251 3.480612 33.28672
v 334.8626 3.480612 33.28672
v 334.8626 3.480612 32.958
v 334.8626 6.449872 33.28672
v 334.8626 6.449872 32.958
v 337.0451 3.480612 33.28672
v 334.8626 3.480612 33.28672
v 337.0451 6.449872 33.28672
v 334.8626 6.449872 33.28672
v 334.8626 3.480612 32.958
v 337.0451 3.480612 32.958
v 334.8626 6.449872 32.958
v 337.0451 6.449872 32.958
v 337.0451 3.480612 32.958
v 337.0451 3.480612 33.28672
v 337.0451 6.449872 32.958
v 337.0451 6.449872 33.28672

vn -0.9490216 0 -1.131322E-07
vn -0.9490216 0 -1.131322E-07
vn -0.9490216 0 -1.131322E-07
vn -0.9490216 0 -1.131322E-07
vn 3.154981E-06 0 -0.05478646
vn 3.154981E-06 0 -0.05478646
vn 3.154981E-06 0 -0.05478646
vn 3.154981E-06 0 -0.05478646
vn 0.9490216 0 1.131322E-07
vn 0.9490216 0 1.131322E-07
vn 0.9490216 0 1.131322E-07
vn 0.9490216 0 1.131322E-07
vn -3.154981E-06 0 0.05478646
vn -3.154981E-06 0 0.05478646
vn -3.154981E-06 0 0.05478646
vn -3.154981E-06 0 0.05478646
vn 0 0.3783337 0
vn 0 0.3783337 0
vn 0 0.3783337 0
vn 0 0.3783337 0
vn 0 -0.3783337 0
vn 0 -0.3783337 0
vn 0 -0.3783337 0
vn 0 -0.3783337 0
vn 0 -0.3783337 0
vn 0 -0.3783337 0
vn 0 -0.3783337 0
vn 0 -0.3783337 0
vn 1.775651E-06 0 0.05478646
vn 1.775651E-06 0 0.05478646
vn 1.775651E-06 0 0.05478646
vn 1.775651E-06 0 0.05478646
vn -1.775651E-06 0 -0.05478646
vn -1.775651E-06 0 -0.05478646
vn -1.775651E-06 0 -0.05478646
vn -1.775651E-06 0 -0.05478646
vn 0 0.3783337 0
vn 0 0.3783337 0
vn 0 0.3783337 0
vn 0 0.3783337 0
vn -0.9490215 0 -1.131322E-07
vn -0.9490215 0 -1.131322E-07
vn -0.9490215 0 -1.131322E-07
vn -0.9490215 0 -1.131322E-07
vn -3.154981E-06 0 0.05478646
vn -3.154981E-06 0 0.05478646
vn -3.154981E-06 0 0.05478646
vn -3.154981E-06 0 0.05478646
vn 3.154981E-06 0 -0.05478646
vn 3.154981E-06 0 -0.05478646
vn 3.154981E-06 0 -0.05478646
vn 3.154981E-06 0 -0.05478646
vn 0.9490215 0 1.131322E-07
vn 0.9490215 0 1.131322E-07
vn 0.9490215 0 1.131322E-07
vn 0.9490215 0 1.131322E-07

vt 3 -10
vt -3 -10
vt 3 -2.597508
vt -3 -2.597508
vt -0.7003028 -10
vt -2.999993 -10
vt -0.7003028 -2.597508
vt -2.999993 -2.597508
vt 3.000001 -10
vt -2.999999 -10
vt 3.000001 -2.597508
vt -2.999999 -2.597508
vt 3.000013 -10
vt 0.7003227 -10
vt 3.000013 -2.597508
vt 0.7003227 -2.597508
vt -2.999992 -0.7003127
vt 3.000008 -0.7003127
vt -2.999999 -3.000003
vt 3.000001 -3.000003
vt 2.999999 -3.000003
vt -3.000001 -3.000003
vt 2.999992 -0.7003127
vt -3.000008 -0.7003127
vt 2.999992 -0.7003127
vt -3.000008 -0.7003127
vt 3 3.870219
vt -3 3.870219
vt 0.7003071 -2.597508
vt 0.7003071 -10
vt -3.870225 -2.597508
vt -3.870225 -10
vt -0.7003184 -10
vt -0.7003184 -2.597508
vt 3.870214 -10
vt 3.870214 -2.597508
vt 3.000008 -0.7003127
vt -2.999992 -0.7003127
vt 3 3.870219
vt -3 3.870219
vt 2.999992 -2.597508
vt -3.000008 -2.597508
vt 2.999992 5.250748
vt -3.000008 5.250748
vt 3.000013 -2.597508
vt 0.7003227 -2.597508
vt 3.000013 5.250748
vt 0.7003227 5.250748
vt -0.7003028 -2.597508
vt -2.999993 -2.597508
vt -0.7003028 5.250748
vt -2.999993 5.250748
vt 3.000001 -2.597508
vt -2.999999 -2.597508
vt 3.000001 5.250748
vt -2.999999 5.250748

g buildings009 (306)
usemtl Buildings
f 3/3/3 4/4/4 2/2/2 1/1/1
f 7/7/7 8/8/8 6/6/6 5/5/5
f 11/11/11 12/12/12 10/10/10 9/9/9
f 15/15/15 16/16/16 14/14/14 13/13/13
f 19/19/19 20/20/20 18/18/18 17/17/17
f 23/23/23 24/24/24 22/22/22 21/21/21
f 27/27/27 28/28/28 26/26/26 25/25/25
f 31/31/31 32/32/32 30/30/30 29/29/29
f 35/35/35 36/36/36 34/34/34 33/33/33
f 39/39/39 40/40/40 38/38/38 37/37/37
f 43/43/43 44/44/44 42/42/42 41/41/41
f 47/47/47 48/48/48 46/46/46 45/45/45
f 51/51/51 52/52/52 50/50/50 49/49/49
f 55/55/55 56/56/56 54/54/54 53/53/53

