# Exported from ProBuilder
# http://www.procore3d.com/probuilder
# 6/26/2018 1:16:07 PM

mtllib ./buildings009_(247).mtl
o buildings009 (247)

g buildings009 (247)
v 360.1799 -42.28013 17.65684
v 357.52 -42.28013 17.65684
v 360.1799 -27.95988 17.65684
v 357.52 -27.95988 17.65684
v 357.52 -42.28013 17.65684
v 357.52 -42.28013 15.58658
v 357.52 -27.95988 17.65684
v 357.52 -27.95988 15.58658
v 357.52 -42.28013 15.58658
v 360.1799 -42.28013 15.58658
v 357.52 -27.95988 15.58658
v 360.1799 -27.95988 15.58658
v 360.1799 -42.28013 15.58658
v 360.1799 -42.28013 17.65684
v 360.1799 -27.95988 15.58658
v 360.1799 -27.95988 17.65684
v 360.1799 -27.95988 17.65684
v 357.52 -27.95988 17.65684
v 360.1799 -27.95988 15.58658
v 357.52 -27.95988 15.58658
v 360.1799 -42.28013 15.58658
v 357.52 -42.28013 15.58658
v 360.1799 -42.28013 17.65684
v 357.52 -42.28013 17.65684

vn 0 0 0.3450439
vn 0 0 0.3450439
vn 0 0 0.3450439
vn 0 0 0.3450439
vn -0.44332 0 0
vn -0.44332 0 0
vn -0.44332 0 0
vn -0.44332 0 0
vn 0 0 -0.3450439
vn 0 0 -0.3450439
vn 0 0 -0.3450439
vn 0 0 -0.3450439
vn 0.44332 0 0
vn 0.44332 0 0
vn 0.44332 0 0
vn 0.44332 0 0
vn 0 0.7160125 0
vn 0 0.7160125 0
vn 0 0.7160125 0
vn 0 0.7160125 0
vn 0 -0.7160125 0
vn 0 -0.7160125 0
vn 0 -0.7160125 0
vn 0 -0.7160125 0

vt 3 -10
vt -3 -10
vt 3 10
vt -3 10
vt 2.999998 -10
vt -3.000002 -10
vt 2.999998 10
vt -3.000002 10
vt 3 -10
vt -3 -10
vt 3 10
vt -3 10
vt 3.000002 -10
vt -2.999998 -10
vt 3.000002 10
vt -2.999998 10
vt -3 2.999998
vt 3 2.999998
vt -3 -3.000002
vt 3 -3.000002
vt 3 -3.000002
vt -3 -3.000002
vt 3 2.999998
vt -3 2.999998

g buildings009 (247)
usemtl Buildings
f 3/3/3 4/4/4 2/2/2 1/1/1
f 7/7/7 8/8/8 6/6/6 5/5/5
f 11/11/11 12/12/12 10/10/10 9/9/9
f 15/15/15 16/16/16 14/14/14 13/13/13
f 19/19/19 20/20/20 18/18/18 17/17/17
f 23/23/23 24/24/24 22/22/22 21/21/21

