# Exported from ProBuilder
# http://www.procore3d.com/probuilder
# 6/26/2018 1:16:10 PM

mtllib ./buildings009_(443).mtl
o buildings009 (443)

g buildings009 (443)
v 371.2159 6.381735 -33.64681
v 363.5803 6.381735 -33.64681
v 371.2159 7.018265 -33.64681
v 363.5803 7.018265 -33.64681
v 363.5803 6.381735 -33.64681
v 363.5803 6.381735 -47.06863
v 363.5803 7.018265 -33.64681
v 363.5803 7.018265 -47.06863
v 363.5803 6.381735 -47.06863
v 371.2159 6.381735 -47.06863
v 363.5803 7.018265 -47.06863
v 371.2159 7.018265 -47.06863
v 371.2159 6.381735 -47.06863
v 371.2159 6.381735 -33.64681
v 371.2159 7.018265 -47.06863
v 371.2159 7.018265 -33.64681
v 371.2159 7.018265 -33.64681
v 363.5803 7.018265 -33.64681
v 371.2159 7.018265 -47.06863
v 363.5803 7.018265 -47.06863
v 371.2159 6.381735 -47.06863
v 363.5803 6.381735 -47.06863
v 371.2159 6.381735 -33.64681
v 363.5803 6.381735 -33.64681

vn 0 0 0.8578727
vn 0 0 0.8578727
vn 0 0 0.8578727
vn 0 0 0.8578727
vn -0.6100779 0 0
vn -0.6100779 0 0
vn -0.6100779 0 0
vn -0.6100779 0 0
vn 0 0 -0.8578727
vn 0 0 -0.8578727
vn 0 0 -0.8578727
vn 0 0 -0.8578727
vn 0.6100779 0 0
vn 0.6100779 0 0
vn 0.6100779 0 0
vn 0.6100779 0 0
vn 0 0.0318265 0
vn 0 0.0318265 0
vn 0 0.0318265 0
vn 0 0.0318265 0
vn 0 -0.0318265 0
vn 0 -0.0318265 0
vn 0 -0.0318265 0
vn 0 -0.0318265 0

vt -9.808692 -10
vt -22.32454 -10
vt -9.808692 10
vt -22.32454 10
vt 0.7511268 -10
vt -14.89434 -10
vt 0.7511268 10
vt -14.89434 10
vt 22.32454 -10
vt 9.808692 -10
vt 22.32454 10
vt 9.808692 10
vt 14.89434 -10
vt -0.7511268 -10
vt 14.89434 10
vt -0.7511268 10
vt 9.808692 0.7511268
vt 22.32454 0.7511268
vt 9.808692 -14.89434
vt 22.32454 -14.89434
vt -9.808692 -14.89434
vt -22.32454 -14.89434
vt -9.808692 0.7511268
vt -22.32454 0.7511268

g buildings009 (443)
usemtl Buildings
f 3/3/3 4/4/4 2/2/2 1/1/1
f 7/7/7 8/8/8 6/6/6 5/5/5
f 11/11/11 12/12/12 10/10/10 9/9/9
f 15/15/15 16/16/16 14/14/14 13/13/13
f 19/19/19 20/20/20 18/18/18 17/17/17
f 23/23/23 24/24/24 22/22/22 21/21/21

