# Exported from ProBuilder
# http://www.procore3d.com/probuilder
# 6/26/2018 1:16:20 PM

mtllib ./buildings009_(113).mtl
o buildings009 (113)

g buildings009 (113)
v 405.52 0.6600005 5.748828
v 399.7589 0.6600005 5.748828
v 405.52 7.225219 5.748828
v 399.7589 7.225219 5.748828
v 399.7589 0.6600005 5.748828
v 399.7589 0.6600005 0.8974124
v 399.7589 7.225219 5.748828
v 399.7589 7.225219 0.8974124
v 399.7589 0.6600005 0.8974124
v 405.52 0.6600005 0.8974124
v 399.7589 7.225219 0.8974124
v 405.52 7.225219 0.8974124
v 405.52 0.6600005 0.8974124
v 405.52 0.6600005 5.748828
v 405.52 7.225219 0.8974124
v 405.52 7.225219 5.748828
v 405.52 7.225219 5.748828
v 399.7589 7.225219 5.748828
v 405.52 7.225219 0.8974124
v 399.7589 7.225219 0.8974124
v 405.52 0.6600005 0.8974124
v 399.7589 0.6600005 0.8974124
v 405.52 0.6600005 5.748828
v 399.7589 0.6600005 5.748828

vn 0 0 0.8085693
vn 0 0 0.8085693
vn 0 0 0.8085693
vn 0 0 0.8085693
vn -0.9601757 0 0
vn -0.9601757 0 0
vn -0.9601757 0 0
vn -0.9601757 0 0
vn 0 0 -0.8085693
vn 0 0 -0.8085693
vn 0 0 -0.8085693
vn 0 0 -0.8085693
vn 0.9601757 0 0
vn 0.9601757 0 0
vn 0.9601757 0 0
vn 0.9601757 0 0
vn 0 0.8085693 0
vn 0 0.8085693 0
vn 0 0.8085693 0
vn 0 0.8085693 0
vn 0 -0.8085693 0
vn 0 -0.8085693 0
vn 0 -0.8085693 0
vn 0 -0.8085693 0

vt 3.000001 -9.999999
vt -2.999999 -9.999999
vt 3.000001 -1.880448
vt -2.999999 -1.880448
vt 3 -9.999999
vt -3 -9.999999
vt 3 -1.880448
vt -3 -1.880448
vt 2.999999 -9.999999
vt -3.000001 -9.999999
vt 2.999999 -1.880448
vt -3.000001 -1.880448
vt 3 -9.999999
vt -3 -9.999999
vt 3 -1.880448
vt -3 -1.880448
vt -3.000001 3
vt 2.999999 3
vt -3.000001 -3
vt 2.999999 -3
vt 3.000001 -3
vt -2.999999 -3
vt 3.000001 3
vt -2.999999 3

g buildings009 (113)
usemtl Buildings
f 3/3/3 4/4/4 2/2/2 1/1/1
f 7/7/7 8/8/8 6/6/6 5/5/5
f 11/11/11 12/12/12 10/10/10 9/9/9
f 15/15/15 16/16/16 14/14/14 13/13/13
f 19/19/19 20/20/20 18/18/18 17/17/17
f 23/23/23 24/24/24 22/22/22 21/21/21

