# Exported from ProBuilder
# http://www.procore3d.com/probuilder
# 6/26/2018 1:16:17 PM

mtllib ./buildings009_(319).mtl
o buildings009 (319)

g buildings009 (319)
v 326.7023 17.29233 38.23452
v 326.7023 22.06522 30.13019
v 326.7023 17.46472 38.23452
v 326.7023 22.23761 30.13019
v 326.7023 22.06522 16.65755
v 332.3964 22.06522 16.65755
v 326.7023 22.23761 16.65755
v 332.3964 22.23761 16.65755
v 332.3964 22.06522 30.13019
v 332.3964 17.29233 38.23452
v 332.3964 22.23761 30.13019
v 332.3964 17.46472 38.23452
v 332.3964 17.29233 56.28216
v 326.7023 17.29233 56.28216
v 332.3964 17.46472 56.28216
v 326.7023 17.46472 56.28216
v 326.7023 17.46472 38.23452
v 326.7023 22.23761 30.13019
v 332.3964 17.46472 38.23452
v 332.3964 22.23761 30.13019
v 332.3964 17.29233 38.23452
v 332.3964 22.06522 30.13019
v 326.7023 17.29233 38.23452
v 326.7023 22.06522 30.13019
v 332.3964 17.29233 38.23452
v 326.7023 17.29233 38.23452
v 332.3964 17.29233 56.28216
v 326.7023 17.29233 56.28216
v 332.3964 17.46472 38.23452
v 332.3964 17.29233 38.23452
v 332.3964 17.46472 56.28216
v 332.3964 17.29233 56.28216
v 326.7023 17.29233 38.23452
v 326.7023 17.46472 38.23452
v 326.7023 17.29233 56.28216
v 326.7023 17.46472 56.28216
v 326.7023 17.46472 38.23452
v 332.3964 17.46472 38.23452
v 326.7023 17.46472 56.28216
v 332.3964 17.46472 56.28216
v 326.7023 22.06522 30.13019
v 332.3964 22.06522 30.13019
v 326.7023 22.06522 16.65755
v 332.3964 22.06522 16.65755
v 326.7023 22.23761 30.13019
v 326.7023 22.06522 30.13019
v 326.7023 22.23761 16.65755
v 326.7023 22.06522 16.65755
v 332.3964 22.06522 30.13019
v 332.3964 22.23761 30.13019
v 332.3964 22.06522 16.65755
v 332.3964 22.23761 16.65755
v 332.3964 22.23761 30.13019
v 326.7023 22.23761 30.13019
v 332.3964 22.23761 16.65755
v 326.7023 22.23761 16.65755

vn -0.9490216 0 -1.131322E-07
vn -0.9490216 0 -1.131322E-07
vn -0.9490216 0 -1.131322E-07
vn -0.9490216 0 -1.131322E-07
vn 1.610186E-07 0 -1.350722
vn 1.610186E-07 0 -1.350722
vn 1.610186E-07 0 -1.350722
vn 1.610186E-07 0 -1.350722
vn 0.9490216 0 1.131322E-07
vn 0.9490216 0 1.131322E-07
vn 0.9490215 0 1.131322E-07
vn 0.9490216 0 1.131322E-07
vn -1.610186E-07 0 1.350722
vn -1.610186E-07 0 1.350722
vn -1.610186E-07 0 1.350722
vn -1.610186E-07 0 1.350722
vn -1.609955E-07 0.0002283338 1.350528
vn -1.609955E-07 0.0002283338 1.350528
vn -1.609955E-07 0.0002283338 1.350528
vn -1.609955E-07 0.0002283338 1.350528
vn 1.609955E-07 -0.0002283338 -1.350528
vn 1.609955E-07 -0.0002283338 -1.350528
vn 1.609955E-07 -0.0002283338 -1.350528
vn 1.609955E-07 -0.0002283338 -1.350528
vn 0 -0.01347819 0
vn 0 -0.01347819 0
vn 0 -0.01347819 0
vn 0 -0.01347819 0
vn 0.9490216 0 -7.377488E-09
vn 0.9490216 0 -7.377488E-09
vn 0.9490216 0 -7.377488E-09
vn 0.9490216 0 -7.377488E-09
vn -0.9490216 0 7.377488E-09
vn -0.9490216 0 7.377488E-09
vn -0.9490216 0 7.377488E-09
vn -0.9490216 0 7.377488E-09
vn 0 0.01347819 0
vn 0 0.01347819 0
vn 0 0.01347819 0
vn 0 0.01347819 0
vn 0 -0.01347819 0
vn 0 -0.01347819 0
vn 0 -0.01347819 0
vn 0 -0.01347819 0
vn -0.9490216 0 4.829986E-08
vn -0.9490216 0 4.829986E-08
vn -0.9490216 0 4.829986E-08
vn -0.9490216 0 4.829986E-08
vn 0.9490216 0 -4.829986E-08
vn 0.9490216 0 -4.829986E-08
vn 0.9490216 0 -4.829986E-08
vn 0.9490216 0 -4.829986E-08
vn 0 0.01347819 0
vn 0 0.01347819 0
vn 0 0.01347819 0
vn 0 0.01347819 0

vt 2.999999 -364.1198
vt -3.000001 -10
vt 2.999999 -351.3294
vt -3.000001 2.790384
vt 2.999998 -10
vt -3.000002 -10
vt 2.999998 2.790384
vt -3.000002 2.790384
vt 3.000001 -10
vt -2.999999 -364.1198
vt 3.000001 2.790384
vt -2.999999 -351.3294
vt 3.000004 -364.1198
vt -2.999996 -364.1198
vt 3.000004 -351.3294
vt -2.999996 -351.3294
vt -2.999997 -351.3298
vt -2.999997 2.840807
vt 3.000003 -351.3298
vt 3.000003 2.840807
vt -3.000003 -364.1184
vt -3.000003 -9.947742
vt 2.999997 -364.1184
vt 2.999997 -9.947742
vt 2.999999 -3.000003
vt 2.999999 2.999997
vt 16.36147 -3.000004
vt 16.36147 2.999996
vt -3 -351.3294
vt -3 -364.1198
vt -16.36147 -351.3294
vt -16.36147 -364.1198
vt 2.999999 -364.1198
vt 2.999999 -351.3294
vt 16.36147 -364.1198
vt 16.36147 -351.3294
vt -2.999999 2.999997
vt -2.999999 -3.000003
vt -16.36147 2.999996
vt -16.36147 -3.000004
vt -3.000001 2.999997
vt -3.000001 -3.000003
vt -12.97439 2.999998
vt -12.97439 -3.000002
vt -3.000001 2.790384
vt -3.000001 -10
vt -12.97439 2.790384
vt -12.97439 -10
vt 3 -10
vt 3 2.790384
vt 12.97439 -10
vt 12.97439 2.790384
vt 3.000001 -3.000003
vt 3.000001 2.999997
vt 12.97439 -3.000002
vt 12.97439 2.999998

g buildings009 (319)
usemtl Buildings
f 3/3/3 4/4/4 2/2/2 1/1/1
f 7/7/7 8/8/8 6/6/6 5/5/5
f 11/11/11 12/12/12 10/10/10 9/9/9
f 15/15/15 16/16/16 14/14/14 13/13/13
f 19/19/19 20/20/20 18/18/18 17/17/17
f 23/23/23 24/24/24 22/22/22 21/21/21
f 27/27/27 28/28/28 26/26/26 25/25/25
f 31/31/31 32/32/32 30/30/30 29/29/29
f 35/35/35 36/36/36 34/34/34 33/33/33
f 39/39/39 40/40/40 38/38/38 37/37/37
f 43/43/43 44/44/44 42/42/42 41/41/41
f 47/47/47 48/48/48 46/46/46 45/45/45
f 51/51/51 52/52/52 50/50/50 49/49/49
f 55/55/55 56/56/56 54/54/54 53/53/53

