# Exported from ProBuilder
# http://www.procore3d.com/probuilder
# 6/26/2018 1:16:06 PM

mtllib ./buildings009_(263).mtl
o buildings009 (263)

g buildings009 (263)
v 422.5849 15.26505 52.92686
v 402.095 15.26505 52.92686
v 422.5849 15.55374 52.92686
v 402.095 15.55374 52.92686
v 402.095 15.26505 52.92686
v 402.095 15.26505 29.25078
v 402.095 15.55374 52.92686
v 402.095 15.55374 29.25078
v 402.095 15.26505 29.25078
v 422.5849 15.26505 29.25078
v 402.095 15.55374 29.25078
v 422.5849 15.55374 29.25078
v 422.5849 15.26505 29.25078
v 422.5849 15.26505 52.92686
v 422.5849 15.55374 29.25078
v 422.5849 15.55374 52.92686
v 422.5849 15.55374 52.92686
v 402.095 15.55374 52.92686
v 422.5849 15.55374 29.25078
v 402.095 15.55374 29.25078
v 422.5849 15.26505 29.25078
v 402.095 15.26505 29.25078
v 422.5849 15.26505 52.92686
v 402.095 15.26505 52.92686

vn 0 0 3.946012
vn 0 0 3.946012
vn 0 0 3.946012
vn 0 0 3.946012
vn -3.414991 0 0
vn -3.414991 0 0
vn -3.414991 0 0
vn -3.414991 0 0
vn 0 0 -3.946012
vn 0 0 -3.946012
vn 0 0 -3.946012
vn 0 0 -3.946012
vn 3.414991 0 0
vn 3.414991 0 0
vn 3.414991 0 0
vn 3.414991 0 0
vn 0 0.01749484 0
vn 0 0.01749484 0
vn 0 0.01749484 0
vn 0 0.01749484 0
vn 0 -0.01749484 0
vn 0 -0.01749484 0
vn 0 -0.01749484 0
vn 0 -0.01749484 0

vt 3 -10
vt -3 -10
vt 3 6.501606
vt -3 6.501606
vt 3 -10
vt -3 -10
vt 3 6.501606
vt -3 6.501606
vt 3 -10
vt -3 -10
vt 3 6.501606
vt -3 6.501606
vt 3 -10
vt -3 -10
vt 3 6.501606
vt -3 6.501606
vt -3 3
vt 3 3
vt -3 -3
vt 3 -3
vt 3 -3
vt -3 -3
vt 3 3
vt -3 3

g buildings009 (263)
usemtl Buildings
f 3/3/3 4/4/4 2/2/2 1/1/1
f 7/7/7 8/8/8 6/6/6 5/5/5
f 11/11/11 12/12/12 10/10/10 9/9/9
f 15/15/15 16/16/16 14/14/14 13/13/13
f 19/19/19 20/20/20 18/18/18 17/17/17
f 23/23/23 24/24/24 22/22/22 21/21/21

