# Exported from ProBuilder
# http://www.procore3d.com/probuilder
# 6/26/2018 1:16:05 PM

mtllib ./buildings009_(258).mtl
o buildings009 (258)

g buildings009 (258)
v 386.4153 0.7776229 54.38881
v 370.8847 0.7776229 54.38881
v 386.4153 9.298479 54.38881
v 370.8847 9.298479 54.38881
v 370.8847 0.7776229 54.38881
v 370.8847 0.7776229 48.38881
v 370.8847 9.298479 54.38881
v 370.8847 4.22361 48.38881
v 370.8847 0.7776229 48.38881
v 386.4153 0.7776229 48.38881
v 370.8847 4.22361 48.38881
v 386.4153 4.22361 48.38881
v 386.4153 0.7776229 48.38881
v 386.4153 0.7776229 54.38881
v 386.4153 4.22361 48.38881
v 386.4153 9.298479 54.38881
v 386.4153 9.298479 54.38881
v 370.8847 9.298479 54.38881
v 386.4153 4.22361 48.38881
v 370.8847 4.22361 48.38881
v 386.4153 0.7776229 48.38881
v 370.8847 0.7776229 48.38881
v 386.4153 0.7776229 54.38881
v 370.8847 0.7776229 54.38881

vn 0 0 1
vn 0 0 1
vn 0 0 1
vn 0 0 1
vn -2.588434 0 0
vn -2.588434 0 0
vn -2.588434 0 0
vn -2.588434 0 0
vn 0 0 -1
vn 0 0 -1
vn 0 0 -1
vn 0 0 -1
vn 2.588434 0 0
vn 2.588434 0 0
vn 2.588434 0 0
vn 2.588434 0 0
vn 0 0.2250745 -0.8757601
vn 0 0.2250745 -0.8757601
vn 0 0.2250745 -0.8757601
vn 0 0.2250745 -0.8757601
vn 0 -0.4662377 0
vn 0 -0.4662377 0
vn 0 -0.4662377 0
vn 0 -0.4662377 0

vt 3 -10
vt -3 -10
vt 3 8.275778
vt -3 8.275778
vt 3 -10
vt -3 -10
vt 3 8.275778
vt -3 -2.608947
vt 3 -10
vt -3 -10
vt 3 -2.608947
vt -3 -2.608947
vt 3 -10
vt -3 -10
vt 3 -2.608947
vt -3 8.275778
vt -3 8.695836
vt 3 8.695836
vt -3 -3.733052
vt 3 -3.733052
vt 3 -3
vt -3 -3
vt 3 3
vt -3 3

g buildings009 (258)
usemtl Buildings
f 3/3/3 4/4/4 2/2/2 1/1/1
f 7/7/7 8/8/8 6/6/6 5/5/5
f 11/11/11 12/12/12 10/10/10 9/9/9
f 15/15/15 16/16/16 14/14/14 13/13/13
f 19/19/19 20/20/20 18/18/18 17/17/17
f 23/23/23 24/24/24 22/22/22 21/21/21

