# Exported from ProBuilder
# http://www.procore3d.com/probuilder
# 6/26/2018 1:16:13 PM

mtllib ./buildings009_(280).mtl
o buildings009 (280)

g buildings009 (280)
v 421.7879 10.23121 19.54271
v 417.3321 10.23121 19.54271
v 421.7879 6.044099 19.54271
v 417.3321 6.044099 19.54271
v 417.3321 10.23121 19.54271
v 417.3321 10.23121 23.29493
v 417.3321 6.044099 19.54271
v 417.3321 6.044099 23.29493
v 417.3321 10.23121 23.29493
v 421.7879 10.23121 23.29493
v 417.3321 6.044099 23.29493
v 421.7879 6.044099 23.29493
v 421.7879 10.23121 23.29493
v 421.7879 10.23121 19.54271
v 421.7879 6.044099 23.29493
v 421.7879 6.044099 19.54271
v 420.8076 -0.09758539 20.3682
v 418.3124 -0.09758539 20.3682
v 420.8076 -0.09758539 22.46945
v 418.3124 -0.09758539 22.46945
v 421.7879 10.23121 23.29493
v 417.3321 10.23121 23.29493
v 421.7879 10.23121 19.54271
v 417.3321 10.23121 19.54271
v 421.7879 6.044099 19.54271
v 417.3321 6.044099 19.54271
v 420.8076 6.044057 20.3682
v 418.3124 6.044057 20.3682
v 421.7879 6.044099 23.29493
v 421.7879 6.044099 19.54271
v 420.8076 6.044057 22.46945
v 420.8076 6.044057 20.3682
v 417.3321 6.044099 19.54271
v 417.3321 6.044099 23.29493
v 418.3124 6.044057 20.3682
v 418.3124 6.044057 22.46945
v 417.3321 6.044099 23.29493
v 421.7879 6.044099 23.29493
v 418.3124 6.044057 22.46945
v 420.8076 6.044057 22.46945
v 420.8076 6.044057 20.3682
v 418.3124 6.044057 20.3682
v 420.8076 0.9928574 20.3682
v 418.3124 0.9928574 20.3682
v 420.8076 6.044057 22.46945
v 420.8076 6.044057 20.3682
v 420.8076 0.9928574 22.46945
v 420.8076 0.9928574 20.3682
v 418.3124 6.044057 20.3682
v 418.3124 6.044057 22.46945
v 418.3124 0.9928574 20.3682
v 418.3124 0.9928574 22.46945
v 418.3124 6.044057 22.46945
v 420.8076 6.044057 22.46945
v 418.3124 0.9928574 22.46945
v 420.8076 0.9928574 22.46945
v 420.8076 0.9928574 20.3682
v 418.3124 0.9928574 20.3682
v 420.8076 -0.09758539 20.3682
v 418.3124 -0.09758539 20.3682
v 420.8076 0.9928574 22.46945
v 420.8076 0.9928574 20.3682
v 420.8076 -0.09758539 22.46945
v 420.8076 -0.09758539 20.3682
v 418.3124 0.9928574 20.3682
v 418.3124 0.9928574 22.46945
v 418.3124 -0.09758539 20.3682
v 418.3124 -0.09758539 22.46945
v 418.3124 0.9928574 22.46945
v 420.8076 0.9928574 22.46945
v 418.3124 -0.09758539 22.46945
v 420.8076 -0.09758539 22.46945

vn 0 0 -0.62537
vn 0 0 -0.62537
vn 0 0 -0.62537
vn 0 0 -0.62537
vn -0.7426266 0 0
vn -0.7426266 0 0
vn -0.7426266 0 0
vn -0.7426266 0 0
vn 0 0 0.62537
vn 0 0 0.62537
vn 0 0 0.62537
vn 0 0 0.62537
vn 0.7426266 0 0
vn 0.7426266 0 0
vn 0.7426266 0 0
vn 0.7426266 0 0
vn 0 -0.4241209 0
vn 0 -0.4241209 0
vn 0 -0.4241209 0
vn 0 -0.4241209 0
vn 0 0.4241209 0
vn 0 0.4241209 0
vn 0 0.4241209 0
vn 0 0.4241209 0
vn 0 -0.4241209 -4.737733E-05
vn 0 -0.4241209 -4.737732E-05
vn 0 -0.4241209 -4.737733E-05
vn 0 -0.4241209 -4.737733E-05
vn 5.626055E-05 -0.4241209 0
vn 5.626055E-05 -0.4241209 0
vn 5.626056E-05 -0.4241209 0
vn 5.626055E-05 -0.4241209 0
vn -5.626055E-05 -0.4241209 0
vn -5.626055E-05 -0.4241209 0
vn -5.626056E-05 -0.4241209 0
vn -5.626055E-05 -0.4241209 0
vn 0 -0.4241209 4.737733E-05
vn 0 -0.4241209 4.737732E-05
vn 0 -0.4241209 4.737733E-05
vn 0 -0.4241209 4.737733E-05
vn 0 0 -0.62537
vn 0 0 -0.62537
vn 0 0 -0.62537
vn 0 0 -0.62537
vn 0.7426266 0 0
vn 0.7426266 0 0
vn 0.7426266 0 0
vn 0.7426266 0 0
vn -0.7426266 0 0
vn -0.7426266 0 0
vn -0.7426266 0 0
vn -0.7426266 0 0
vn 0 0 0.62537
vn 0 0 0.62537
vn 0 0 0.62537
vn 0 0 0.62537
vn 0 0 -0.62537
vn 0 0 -0.62537
vn 0 0 -0.62537
vn 0 0 -0.62537
vn 0.7426266 0 0
vn 0.7426266 0 0
vn 0.7426266 0 0
vn 0.7426266 0 0
vn -0.7426266 0 0
vn -0.7426266 0 0
vn -0.7426266 0 0
vn -0.7426266 0 0
vn 0 0 0.62537
vn 0 0 0.62537
vn 0 0 0.62537
vn 0 0 0.62537

vt 3 -10
vt -3 -10
vt 3 -0.1275573
vt -3 -0.1275573
vt 2.999999 -10
vt -3.000001 -10
vt 2.999999 -0.1275573
vt -3.000001 -0.1275573
vt 3 -10
vt -3 -10
vt 3 -0.1275573
vt -3 -0.1275573
vt 3.000001 -10
vt -2.999999 -10
vt 3.000001 -0.1275573
vt -2.999999 -0.1275573
vt -1.68 1.679999
vt 1.68 1.679999
vt -1.68 -1.680001
vt 1.68 -1.680001
vt 3 -3.000001
vt -3 -3.000001
vt 3 2.999999
vt -3 2.999999
vt -3 3.000009
vt 3 3.000009
vt -1.68 1.680009
vt 1.68 1.680009
vt -3.00001 -3.000001
vt -3.00001 2.999999
vt -1.68001 -1.680001
vt -1.68001 1.679999
vt 3.00001 2.999999
vt 3.00001 -3.000001
vt 1.68001 1.679999
vt 1.68001 -1.680001
vt 3 -3.000011
vt -3 -3.000011
vt 1.68 -1.680011
vt -1.68 -1.680011
vt 1.68 -0.1274573
vt -1.68 -0.1274573
vt 1.68 11.78235
vt -1.68 11.78235
vt 1.680001 -0.1274573
vt -1.679999 -0.1274573
vt 1.680001 11.78235
vt -1.679999 11.78235
vt 1.679999 -0.1274573
vt -1.680001 -0.1274573
vt 1.679999 11.78235
vt -1.680001 11.78235
vt 1.68 -0.1274573
vt -1.68 -0.1274573
vt 1.68 11.78235
vt -1.68 11.78235
vt 1.68 11.78235
vt -1.68 11.78235
vt 1.68 14.35342
vt -1.68 14.35342
vt 1.680001 11.78235
vt -1.679999 11.78235
vt 1.680001 14.35342
vt -1.679999 14.35342
vt 1.679999 11.78235
vt -1.680001 11.78235
vt 1.679999 14.35342
vt -1.680001 14.35342
vt 1.68 11.78235
vt -1.68 11.78235
vt 1.68 14.35342
vt -1.68 14.35342

g buildings009 (280)
usemtl Buildings
f 3/3/3 4/4/4 2/2/2 1/1/1
f 7/7/7 8/8/8 6/6/6 5/5/5
f 11/11/11 12/12/12 10/10/10 9/9/9
f 15/15/15 16/16/16 14/14/14 13/13/13
f 19/19/19 20/20/20 18/18/18 17/17/17
f 23/23/23 24/24/24 22/22/22 21/21/21
f 27/27/27 28/28/28 26/26/26 25/25/25
f 31/31/31 32/32/32 30/30/30 29/29/29
f 35/35/35 36/36/36 34/34/34 33/33/33
f 39/39/39 40/40/40 38/38/38 37/37/37
f 43/43/43 44/44/44 42/42/42 41/41/41
f 47/47/47 48/48/48 46/46/46 45/45/45
f 51/51/51 52/52/52 50/50/50 49/49/49
f 55/55/55 56/56/56 54/54/54 53/53/53
f 59/59/59 60/60/60 58/58/58 57/57/57
f 63/63/63 64/64/64 62/62/62 61/61/61
f 67/67/67 68/68/68 66/66/66 65/65/65
f 71/71/71 72/72/72 70/70/70 69/69/69

