# Exported from ProBuilder
# http://www.procore3d.com/probuilder
# 6/26/2018 1:16:12 PM

mtllib ./buildings009_(299).mtl
o buildings009 (299)

g buildings009 (299)
v 310.9229 7.150638 60.41701
v 300.2731 7.150638 60.41701
v 310.9229 7.549362 60.41701
v 300.2731 7.549362 60.41701
v 300.2731 7.150638 60.41701
v 300.2731 7.150638 52.54299
v 300.2731 7.549362 60.41701
v 300.2731 7.549362 52.54299
v 300.2731 7.150638 52.54299
v 310.9229 7.150638 52.54299
v 300.2731 7.549362 52.54299
v 310.9229 7.549362 52.54299
v 310.9229 7.150638 52.54299
v 310.9229 7.150638 60.41701
v 310.9229 7.549362 52.54299
v 310.9229 7.549362 60.41701
v 310.9229 7.549362 60.41701
v 300.2731 7.549362 60.41701
v 310.9229 7.549362 52.54299
v 300.2731 7.549362 52.54299
v 310.9229 7.150638 52.54299
v 300.2731 7.150638 52.54299
v 310.9229 7.150638 60.41701
v 300.2731 7.150638 60.41701

vn 0 0 1.312337
vn 0 0 1.312337
vn 0 0 1.312337
vn 0 0 1.312337
vn -1.774978 0 0
vn -1.774978 0 0
vn -1.774978 0 0
vn -1.774978 0 0
vn 0 0 -1.312337
vn 0 0 -1.312337
vn 0 0 -1.312337
vn 0 0 -1.312337
vn 1.774978 0 0
vn 1.774978 0 0
vn 1.774978 0 0
vn 1.774978 0 0
vn 0 0.01993623 0
vn 0 0.01993623 0
vn 0 0.01993623 0
vn 0 0.01993623 0
vn 0 -0.01993623 0
vn 0 -0.01993623 0
vn 0 -0.01993623 0
vn 0 -0.01993623 0

vt 3 -10
vt -3 -10
vt 3 10
vt -3 10
vt 3.000004 -10
vt -2.999996 -10
vt 3.000004 10
vt -2.999996 10
vt 3 -10
vt -3 -10
vt 3 10
vt -3 10
vt 2.999996 -10
vt -3.000004 -10
vt 2.999996 10
vt -3.000004 10
vt -3 3.000004
vt 3 3.000004
vt -3 -2.999996
vt 3 -2.999996
vt 3 -2.999996
vt -3 -2.999996
vt 3 3.000004
vt -3 3.000004

g buildings009 (299)
usemtl Buildings
f 3/3/3 4/4/4 2/2/2 1/1/1
f 7/7/7 8/8/8 6/6/6 5/5/5
f 11/11/11 12/12/12 10/10/10 9/9/9
f 15/15/15 16/16/16 14/14/14 13/13/13
f 19/19/19 20/20/20 18/18/18 17/17/17
f 23/23/23 24/24/24 22/22/22 21/21/21

