# Exported from ProBuilder
# http://www.procore3d.com/probuilder
# 6/26/2018 1:16:09 PM

mtllib ./buildings009_(268).mtl
o buildings009 (268)

g buildings009 (268)
v 380.5625 0.3190663 58.14193
v 365.9375 0.3190663 58.14193
v 380.5625 9.463254 58.14193
v 365.9375 9.463254 58.14193
v 365.9375 0.3190663 58.14193
v 365.9375 0.3190663 54.3357
v 365.9375 9.463254 58.14193
v 365.9375 9.463254 54.3357
v 365.9375 0.3190663 54.3357
v 380.5625 0.3190663 54.3357
v 365.9375 9.463254 54.3357
v 380.5625 9.463254 54.3357
v 380.5625 0.3190663 54.3357
v 380.5625 0.3190663 58.14193
v 380.5625 9.463254 54.3357
v 380.5625 9.463254 58.14193
v 380.5625 9.463254 58.14193
v 365.9375 9.463254 58.14193
v 380.5625 9.463254 54.3357
v 365.9375 9.463254 54.3357
v 380.5625 0.3190663 54.3357
v 365.9375 0.3190663 54.3357
v 380.5625 0.3190663 58.14193
v 365.9375 0.3190663 58.14193

vn 0 0 0.6343726
vn 0 0 0.6343726
vn 0 0 0.6343726
vn 0 0 0.6343726
vn -2.437504 0 0
vn -2.437504 0 0
vn -2.437504 0 0
vn -2.437504 0 0
vn 0 0 -0.6343726
vn 0 0 -0.6343726
vn 0 0 -0.6343726
vn 0 0 -0.6343726
vn 2.437504 0 0
vn 2.437504 0 0
vn 2.437504 0 0
vn 2.437504 0 0
vn 0 0.7770933 0
vn 0 0.7770933 0
vn 0 0.7770933 0
vn 0 0.7770933 0
vn 0 -0.7770933 0
vn 0 -0.7770933 0
vn 0 -0.7770933 0
vn 0 -0.7770933 0

vt 3 -10
vt -3 -10
vt 3 1.767169
vt -3 1.767169
vt 3 -10
vt -3 -10
vt 3 1.767169
vt -3 1.767169
vt 3 -10
vt -3 -10
vt 3 1.767169
vt -3 1.767169
vt 3 -10
vt -3 -10
vt 3 1.767169
vt -3 1.767169
vt -3 3
vt 3 3
vt -3 -3
vt 3 -3
vt 3 -3
vt -3 -3
vt 3 3
vt -3 3

g buildings009 (268)
usemtl Buildings
f 3/3/3 4/4/4 2/2/2 1/1/1
f 7/7/7 8/8/8 6/6/6 5/5/5
f 11/11/11 12/12/12 10/10/10 9/9/9
f 15/15/15 16/16/16 14/14/14 13/13/13
f 19/19/19 20/20/20 18/18/18 17/17/17
f 23/23/23 24/24/24 22/22/22 21/21/21

