# Exported from ProBuilder
# http://www.procore3d.com/probuilder
# 6/26/2018 1:16:20 PM

mtllib ./buildings009_(328).mtl
o buildings009 (328)

g buildings009 (328)
v 302.6343 0.7905077 19.30884
v 302.6343 0.7905077 14.07578
v 302.6343 12.31904 19.30884
v 302.6343 12.31904 14.07578
v 302.6343 0.7905077 14.07578
v 307.812 0.7905077 14.07578
v 302.6343 12.31904 14.07578
v 307.812 12.31904 14.07578
v 307.812 0.7905077 14.07578
v 307.812 0.7905077 19.30884
v 307.812 12.31904 14.07578
v 307.812 12.31904 19.30884
v 307.812 0.7905077 19.30884
v 302.6343 0.7905077 19.30884
v 307.812 12.31904 19.30884
v 302.6343 12.31904 19.30884
v 302.6343 12.31904 19.30884
v 302.6343 12.31904 14.07578
v 307.812 12.31904 19.30884
v 307.812 12.31904 14.07578
v 307.812 0.7905077 19.30884
v 307.812 0.7905077 14.07578
v 302.6343 0.7905077 19.30884
v 302.6343 0.7905077 14.07578

vn -0.6708905 0 -7.997637E-08
vn -0.6708905 0 -7.997637E-08
vn -0.6708905 0 -7.997637E-08
vn -0.6708905 0 -7.997637E-08
vn 6.224649E-08 0 -0.5221614
vn 6.224649E-08 0 -0.5221614
vn 6.224649E-08 0 -0.5221614
vn 6.224649E-08 0 -0.5221614
vn 0.6708905 0 7.997637E-08
vn 0.6708905 0 7.997637E-08
vn 0.6708905 0 7.997637E-08
vn 0.6708905 0 7.997637E-08
vn -6.224649E-08 0 0.5221614
vn -6.224649E-08 0 0.5221614
vn -6.224649E-08 0 0.5221614
vn -6.224649E-08 0 0.5221614
vn 0 0.1409492 0
vn 0 0.1409492 0
vn 0 0.1409492 0
vn 0 0.1409492 0
vn 0 -0.1409492 0
vn 0 -0.1409492 0
vn 0 -0.1409492 0
vn 0 -0.1409492 0

vt 2.999999 -10
vt -7.021922 -10
vt 2.999999 71.79211
vt -7.021922 71.79211
vt 4.717705 -10
vt -3.000003 -10
vt 4.717705 71.79211
vt -3.000003 71.79211
vt 7.021922 -10
vt -2.999999 -10
vt 7.021922 71.79211
vt -2.999999 71.79211
vt 3.000003 -10
vt -4.717705 -10
vt 3.000003 71.79211
vt -4.717705 71.79211
vt -2.999999 4.717705
vt 7.021922 4.717705
vt -2.999999 -3.000003
vt 7.021922 -3.000003
vt 2.999999 -3.000003
vt -7.021922 -3.000003
vt 2.999999 4.717705
vt -7.021922 4.717705

g buildings009 (328)
usemtl Buildings
f 3/3/3 4/4/4 2/2/2 1/1/1
f 7/7/7 8/8/8 6/6/6 5/5/5
f 11/11/11 12/12/12 10/10/10 9/9/9
f 15/15/15 16/16/16 14/14/14 13/13/13
f 19/19/19 20/20/20 18/18/18 17/17/17
f 23/23/23 24/24/24 22/22/22 21/21/21

