# Exported from ProBuilder
# http://www.procore3d.com/probuilder
# 6/26/2018 1:16:20 PM

mtllib ./buildings009_(368).mtl
o buildings009 (368)

g buildings009 (368)
v 344.0673 -33.54732 15.65411
v 344.0673 -33.54732 9.412663
v 338.171 -33.54732 15.65411
v 338.171 -33.54732 9.412663
v 344.0673 -33.54732 9.412663
v 344.0673 -32.76129 9.412663
v 338.171 -33.54732 9.412663
v 338.171 -32.76129 9.412663
v 344.0673 -32.76129 9.412663
v 344.0673 -32.76129 15.65411
v 338.171 -32.76129 9.412663
v 338.171 -32.76129 15.65411
v 344.0673 -32.76129 15.65411
v 344.0673 -33.54732 15.65411
v 338.171 -32.76129 15.65411
v 338.171 -33.54732 15.65411
v 338.171 -33.54732 15.65411
v 338.171 -33.54732 9.412663
v 338.171 -32.76129 15.65411
v 338.171 -32.76129 9.412663
v 390.7692 -32.67498 15.65411
v 390.7692 -32.66043 9.412663
v 390.7692 -33.45373 15.65411
v 390.7692 -33.36178 9.412663
v 344.0673 -32.76129 15.65411
v 344.0673 -32.76129 9.412663
v 349.1498 -29.65837 15.65411
v 349.1498 -29.64381 9.412663
v 344.0673 -33.54732 15.65411
v 344.0673 -32.76129 15.65411
v 349.1498 -30.43711 15.65411
v 349.1498 -29.65837 15.65411
v 344.0673 -32.76129 9.412663
v 344.0673 -33.54732 9.412663
v 349.1498 -29.64381 9.412663
v 349.1498 -30.34516 9.412663
v 344.0673 -33.54732 9.412663
v 344.0673 -33.54732 15.65411
v 349.1498 -30.34516 9.412663
v 349.1498 -30.43711 15.65411
v 349.1498 -29.65837 15.65411
v 349.1498 -29.64381 9.412663
v 368.5181 -29.65837 15.65411
v 368.5181 -29.64381 9.412663
v 349.1498 -30.43711 15.65411
v 349.1498 -29.65837 15.65411
v 368.5181 -30.43711 15.65411
v 368.5181 -29.65837 15.65411
v 349.1498 -29.64381 9.412663
v 349.1498 -30.34516 9.412663
v 368.5181 -29.64381 9.412663
v 368.5181 -30.34516 9.412663
v 349.1498 -30.34516 9.412663
v 349.1498 -30.43711 15.65411
v 368.5181 -30.34516 9.412663
v 368.5181 -30.43711 15.65411
v 368.5181 -29.65837 15.65411
v 368.5181 -29.64381 9.412663
v 372.4039 -32.67498 15.65411
v 372.4039 -32.66043 9.412663
v 368.5181 -30.43711 15.65411
v 368.5181 -29.65837 15.65411
v 372.4039 -33.45373 15.65411
v 372.4039 -32.67498 15.65411
v 368.5181 -29.64381 9.412663
v 368.5181 -30.34516 9.412663
v 372.4039 -32.66043 9.412663
v 372.4039 -33.36178 9.412663
v 368.5181 -30.34516 9.412663
v 368.5181 -30.43711 15.65411
v 372.4039 -33.36178 9.412663
v 372.4039 -33.45373 15.65411
v 372.4039 -32.67498 15.65411
v 372.4039 -32.66043 9.412663
v 390.7692 -32.67498 15.65411
v 390.7692 -32.66043 9.412663
v 372.4039 -33.45373 15.65411
v 372.4039 -32.67498 15.65411
v 390.7692 -33.45373 15.65411
v 390.7692 -32.67498 15.65411
v 372.4039 -32.66043 9.412663
v 372.4039 -33.36178 9.412663
v 390.7692 -32.66043 9.412663
v 390.7692 -33.36178 9.412663
v 372.4039 -33.36178 9.412663
v 372.4039 -33.45373 15.65411
v 390.7692 -33.36178 9.412663
v 390.7692 -33.45373 15.65411

vn -1.399175E-07 -0.8578727 -1.038444E-08
vn -1.399175E-07 -0.8578727 -1.038445E-08
vn -1.399175E-07 -0.8578727 -1.038444E-08
vn -1.399175E-07 -0.8578727 -1.038444E-08
vn 0 0 -0.5213919
vn 0 0 -0.5213919
vn 0 0 -0.521392
vn 0 0 -0.5213919
vn 1.399175E-07 0.8578727 1.038445E-08
vn 1.399175E-07 0.8578727 1.038445E-08
vn 1.399175E-07 0.8578727 1.038445E-08
vn 1.399175E-07 0.8578727 1.038445E-08
vn 0 0 0.5213919
vn 0 0 0.5213919
vn 0 0 0.5213919
vn 0 0 0.5213919
vn -0.8319014 0 0
vn -0.8319014 0 0
vn -0.8319014 0 0
vn -0.8319014 0 0
vn 0.8319014 0 0
vn 0.8319014 0 0
vn 0.8319014 0 0
vn 0.8319014 0 0
vn -0.4245393 0.7377551 0.0003177118
vn -0.4252732 0.7373055 8.924995E-09
vn -0.4238038 0.738204 0.0006358014
vn -0.4245393 0.7377551 0.0003177118
vn 0 0 0.521392
vn 0 0 0.521392
vn 0 0 0.521392
vn 0 0 0.521392
vn -1.318384E-08 2.949203E-08 -0.521392
vn 0 0 -0.521392
vn -2.795947E-08 6.254486E-08 -0.521392
vn -1.318384E-08 2.949203E-08 -0.521392
vn 0.4291511 -0.7349048 -0.001999662
vn 0.4245399 -0.7377549 -8.930434E-09
vn 0.4337028 -0.7320359 -0.003983703
vn 0.4291511 -0.7349048 -0.001999662
vn 0 0.8578718 0.0007388733
vn 0 0.8578718 0.0007388733
vn 0 0.8578718 0.0007388733
vn 0 0.8578718 0.0007388733
vn 0 0 0.521392
vn 0 0 0.521392
vn 0 0 0.521392
vn 0 0 0.521392
vn -1.242202E-15 6.254488E-08 -0.521392
vn -2.484402E-15 6.254485E-08 -0.521392
vn 0 6.254492E-08 -0.5213919
vn -1.242202E-15 6.254488E-08 -0.521392
vn 3.411663E-08 -0.8578383 -0.004668306
vn 3.415827E-08 -0.8578383 -0.004668306
vn 3.407499E-08 -0.8578383 -0.004668306
vn 3.411663E-08 -0.8578383 -0.004668306
vn 0.5003369 0.6853707 0.0005903014
vn 0.5003369 0.6853707 0.0005903004
vn 0.5003369 0.6853707 0.0005903025
vn 0.5003369 0.6853707 0.0005903014
vn 0 0 0.521392
vn 0 0 0.521392
vn 0 0 0.521392
vn 0 0 0.521392
vn 4.56593E-08 6.254493E-08 -0.521392
vn 4.565928E-08 6.254492E-08 -0.5213919
vn 4.56593E-08 6.254494E-08 -0.521392
vn 4.56593E-08 6.254493E-08 -0.521392
vn -0.5003245 -0.6853536 -0.00372966
vn -0.5003245 -0.6853536 -0.003729654
vn -0.5003244 -0.6853536 -0.003729666
vn -0.5003245 -0.6853536 -0.00372966
vn 0 0.8578718 0.0007388733
vn 0 0.8578718 0.0007388733
vn 0 0.8578718 0.0007388733
vn 0 0.8578718 0.0007388733
vn 0 0 0.521392
vn 0 0 0.521392
vn 0 0 0.521392
vn 0 0 0.521392
vn 0 6.254491E-08 -0.521392
vn 0 6.254491E-08 -0.521392
vn 0 6.254491E-08 -0.521392
vn 0 6.254491E-08 -0.521392
vn 0 -0.8578383 -0.004668316
vn 0 -0.8578383 -0.004668316
vn 0 -0.8578383 -0.004668316
vn 0 -0.8578383 -0.004668316

vt 12.60549 2.912227
vt 0.6347455 2.912227
vt 12.60549 10
vt 0.6347455 10
vt -2.299504 2.912226
vt -3.215757 2.912226
vt -2.299505 10
vt -3.215758 10
vt -0.6347455 2.912227
vt -12.60549 2.912227
vt -0.6347455 10
vt -12.60549 10
vt 3.215757 2.912226
vt 2.299504 2.912226
vt 3.215758 10
vt 2.299505 10
vt -12.60549 -2.299505
vt -0.6347455 -2.299505
vt -12.60549 -3.215758
vt -0.6347455 -3.215758
vt 12.60549 -3.316361
vt 0.6347456 -3.333325
vt 12.60549 -2.408596
vt 0.6347455 -2.515781
vt -12.60549 0.8677518
vt -0.6347455 0.8677518
vt -12.60549 -6.232195
vt -0.6347455 -6.240837
vt 2.299504 2.912226
vt 3.215757 2.912226
vt 5.924991 -3.19732
vt 6.832756 -3.197321
vt -3.215757 2.912226
vt -2.299504 2.912226
vt -6.84972 -3.197321
vt -6.032176 -3.19732
vt 0.6347455 1.286263
vt 12.60549 1.286263
vt 0.6347454 -5.873303
vt 12.60549 -5.817422
vt -12.59579 -3.197321
vt -0.6250381 -3.197321
vt -12.59579 -26.47924
vt -0.6250381 -26.47924
vt 5.924991 -3.19732
vt 6.832756 -3.197321
vt 5.924992 -26.47924
vt 6.832756 -26.47924
vt -6.84972 -3.197321
vt -6.032176 -3.19732
vt -6.84972 -26.47924
vt -6.032176 -26.47924
vt 0.5807108 -3.197321
vt 12.55194 -3.197321
vt 0.5807108 -26.47924
vt 12.55194 -26.47924
vt -12.59579 -17.03457
vt -0.6250381 -17.03457
vt -12.60078 -22.88121
vt -0.6300213 -22.88121
vt 5.924992 -26.47924
vt 6.832756 -26.47924
vt 2.408596 -31.15024
vt 3.316361 -31.15024
vt -6.84972 -26.47924
vt -6.032176 -26.47924
vt -3.333325 -31.15024
vt -2.515781 -31.15024
vt 0.5807107 -17.52393
vt 12.55193 -17.52393
vt 0.6121949 -23.37049
vt 12.58342 -23.37049
vt -12.60078 -31.15024
vt -0.6300213 -31.15024
vt -12.60078 -53.22648
vt -0.6300213 -53.22648
vt 2.408596 -31.15024
vt 3.316361 -31.15024
vt 2.408596 -53.22648
vt 3.316361 -53.22648
vt -3.333325 -31.15024
vt -2.515781 -31.15024
vt -3.333325 -53.22648
vt -2.515781 -53.22648
vt 0.6121949 -31.15024
vt 12.58342 -31.15024
vt 0.6121949 -53.22648
vt 12.58342 -53.22648

g buildings009 (368)
usemtl Buildings
f 3/3/3 4/4/4 2/2/2 1/1/1
f 7/7/7 8/8/8 6/6/6 5/5/5
f 11/11/11 12/12/12 10/10/10 9/9/9
f 15/15/15 16/16/16 14/14/14 13/13/13
f 19/19/19 20/20/20 18/18/18 17/17/17
f 23/23/23 24/24/24 22/22/22 21/21/21
f 27/27/27 28/28/28 26/26/26 25/25/25
f 31/31/31 32/32/32 30/30/30 29/29/29
f 35/35/35 36/36/36 34/34/34 33/33/33
f 39/39/39 40/40/40 38/38/38 37/37/37
f 43/43/43 44/44/44 42/42/42 41/41/41
f 47/47/47 48/48/48 46/46/46 45/45/45
f 51/51/51 52/52/52 50/50/50 49/49/49
f 55/55/55 56/56/56 54/54/54 53/53/53
f 59/59/59 60/60/60 58/58/58 57/57/57
f 63/63/63 64/64/64 62/62/62 61/61/61
f 67/67/67 68/68/68 66/66/66 65/65/65
f 71/71/71 72/72/72 70/70/70 69/69/69
f 75/75/75 76/76/76 74/74/74 73/73/73
f 79/79/79 80/80/80 78/78/78 77/77/77
f 83/83/83 84/84/84 82/82/82 81/81/81
f 87/87/87 88/88/88 86/86/86 85/85/85

