# Exported from ProBuilder
# http://www.procore3d.com/probuilder
# 6/26/2018 1:16:09 PM

mtllib ./buildings009_(452).mtl
o buildings009 (452)

g buildings009 (452)
v 390.8298 36.08174 -26.01756
v 385.7458 36.08174 -26.01756
v 390.8298 36.71827 -26.01756
v 385.7458 36.71827 -26.01756
v 385.7458 36.08174 -26.01756
v 385.7458 34.8399 -30.15943
v 385.7458 36.71827 -26.01756
v 385.7458 35.47643 -30.15943
v 385.7458 34.8399 -30.15943
v 390.8298 34.8399 -30.15943
v 385.7458 35.47643 -30.15943
v 390.8298 35.47643 -30.15943
v 390.8298 34.8399 -30.15943
v 390.8298 36.08174 -26.01756
v 390.8298 35.47643 -30.15943
v 390.8298 36.71827 -26.01756
v 390.8298 36.71827 -26.01756
v 385.7458 36.71827 -26.01756
v 390.8298 35.47643 -30.15943
v 385.7458 35.47643 -30.15943
v 390.8298 34.8399 -30.15943
v 385.7458 34.8399 -30.15943
v 390.8298 36.08174 -26.01756
v 385.7458 36.08174 -26.01756

vn 0 0 0.8578727
vn 0 0 0.8578727
vn 0 0 0.8578727
vn 0 0 0.8578727
vn -0.4615557 0 0
vn -0.4615557 0 0
vn -0.4615556 0 0
vn -0.4615557 0 0
vn 0 0 -0.8578727
vn 0 0 -0.8578727
vn 0 0 -0.8578727
vn 0 0 -0.8578727
vn 0.4615557 0 0
vn 0.4615556 0 0
vn 0.4615557 0 0
vn 0.4615557 0 0
vn 0 0.003908289 -0.8513798
vn 0 0.003908289 -0.8513798
vn 0 0.003908289 -0.8513798
vn 0 0.003908289 -0.8513798
vn 0 -0.003908291 0.8513799
vn 0 -0.003908291 0.8513799
vn 0 -0.003908291 0.8513799
vn 0 -0.003908291 0.8513799

vt -6.188293 -10
vt -17.20326 -10
vt -6.188293 10
vt -17.20326 10
vt 2.999998 -10
vt -1.828077 -49.01904
vt 2.999998 10
vt -1.828077 -29.01905
vt 17.20326 -49.01904
vt 6.188293 -49.01904
vt 17.20326 -29.01905
vt 6.188293 -29.01905
vt 1.828077 -49.01904
vt -2.999998 -10
vt 1.828077 -29.01905
vt -2.999998 10
vt 6.188293 10.29271
vt 17.20326 10.29271
vt 6.188293 -29.02391
vt 17.20326 -29.02391
vt -6.188293 -48.87252
vt -17.20326 -48.87252
vt -6.188293 -9.555915
vt -17.20326 -9.555915

g buildings009 (452)
usemtl Buildings
f 3/3/3 4/4/4 2/2/2 1/1/1
f 7/7/7 8/8/8 6/6/6 5/5/5
f 11/11/11 12/12/12 10/10/10 9/9/9
f 15/15/15 16/16/16 14/14/14 13/13/13
f 19/19/19 20/20/20 18/18/18 17/17/17
f 23/23/23 24/24/24 22/22/22 21/21/21

