# Exported from ProBuilder
# http://www.procore3d.com/probuilder
# 6/26/2018 1:16:19 PM

mtllib ./buildings009_(464).mtl
o buildings009 (464)

g buildings009 (464)
v 324.5087 0.5678946 -0.9465863
v 318.3693 0.5678946 -0.9465863
v 324.5087 9.992105 -0.9465863
v 318.3693 9.992105 -0.9465863
v 318.3693 0.5678946 -0.9465863
v 318.3693 0.5678946 -6.604124
v 318.3693 9.992105 -0.9465863
v 318.3693 9.992105 -6.604124
v 318.3693 0.5678946 -6.604124
v 324.5087 0.5678946 -6.604124
v 318.3693 9.992105 -6.604124
v 324.5087 9.992105 -6.604124
v 324.5087 0.5678946 -6.604124
v 324.5087 0.5678946 -0.9465863
v 324.5087 9.992105 -6.604124
v 324.5087 9.992105 -0.9465863
v 324.5087 9.992105 -0.9465863
v 318.3693 9.992105 -0.9465863
v 324.5087 9.992105 -6.604124
v 318.3693 9.992105 -6.604124
v 324.5087 0.5678946 -6.604124
v 318.3693 0.5678946 -6.604124
v 324.5087 0.5678946 -0.9465863
v 318.3693 0.5678946 -0.9465863

vn 0 0 0.9429229
vn 0 0 0.9429229
vn 0 0 0.9429229
vn 0 0 0.9429229
vn -1.023242 0 0
vn -1.023242 0 0
vn -1.023242 0 0
vn -1.023242 0 0
vn 0 0 -0.9429229
vn 0 0 -0.9429229
vn 0 0 -0.9429229
vn 0 0 -0.9429229
vn 1.023242 0 0
vn 1.023242 0 0
vn 1.023242 0 0
vn 1.023242 0 0
vn 0 0.4712105 0
vn 0 0.4712105 0
vn 0 0.4712105 0
vn 0 0.4712105 0
vn 0 -0.4712105 0
vn 0 -0.4712105 0
vn 0 -0.4712105 0
vn 0 -0.4712105 0

vt 3 -10
vt -3 -10
vt 3 9.999999
vt -3 9.999999
vt 3.000005 -10
vt -2.999995 -10
vt 3.000005 9.999999
vt -2.999995 9.999999
vt 3 -10
vt -3 -10
vt 3 9.999999
vt -3 9.999999
vt 2.999995 -10
vt -3.000005 -10
vt 2.999995 9.999999
vt -3.000005 9.999999
vt -3 3.000005
vt 3 3.000005
vt -3 -2.999995
vt 3 -2.999995
vt 3 -2.999995
vt -3 -2.999995
vt 3 3.000005
vt -3 3.000005

g buildings009 (464)
usemtl Buildings
f 3/3/3 4/4/4 2/2/2 1/1/1
f 7/7/7 8/8/8 6/6/6 5/5/5
f 11/11/11 12/12/12 10/10/10 9/9/9
f 15/15/15 16/16/16 14/14/14 13/13/13
f 19/19/19 20/20/20 18/18/18 17/17/17
f 23/23/23 24/24/24 22/22/22 21/21/21

