# Exported from ProBuilder
# http://www.procore3d.com/probuilder
# 6/26/2018 1:16:18 PM

mtllib ./buildings009_(138).mtl
o buildings009 (138)

g buildings009 (138)
v 300.6698 0.6800001 42.20427
v 300.6698 0.6800001 38.88042
v 300.6698 8.246674 42.20427
v 300.6698 8.246674 38.88042
v 300.6698 0.6800001 38.88042
v 301.8689 0.6800001 38.88042
v 300.6698 8.246674 38.88042
v 301.8689 8.246674 38.88042
v 301.8689 0.6800001 38.88042
v 301.8689 0.6800001 42.20427
v 301.8689 8.246674 38.88042
v 301.8689 8.246674 42.20427
v 301.8689 0.6800001 42.20427
v 300.6698 0.6800001 42.20427
v 301.8689 8.246674 42.20427
v 300.6698 8.246674 42.20427
v 300.6698 8.246674 42.20427
v 300.6698 8.246674 38.88042
v 301.8689 8.246674 42.20427
v 301.8689 8.246674 38.88042
v 301.8689 0.6800001 42.20427
v 301.8689 0.6800001 38.88042
v 300.6698 0.6800001 42.20427
v 300.6698 0.6800001 38.88042

vn -0.1998397 0 -2.382275E-08
vn -0.1998397 0 -2.382275E-08
vn -0.1998397 0 -2.382275E-08
vn -0.1998397 0 -2.382275E-08
vn 6.603904E-08 0 -0.5539757
vn 6.603904E-08 0 -0.5539757
vn 6.603904E-08 0 -0.5539757
vn 6.603904E-08 0 -0.5539757
vn 0.1998397 0 2.382275E-08
vn 0.1998397 0 2.382275E-08
vn 0.1998397 0 2.382275E-08
vn 0.1998397 0 2.382275E-08
vn -6.603904E-08 0 0.5539757
vn -6.603904E-08 0 0.5539757
vn -6.603904E-08 0 0.5539757
vn -6.603904E-08 0 0.5539757
vn 0 0.3783337 0
vn 0 0.3783337 0
vn 0 0.3783337 0
vn 0 0.3783337 0
vn 0 -0.3783337 0
vn 0 -0.3783337 0
vn 0 -0.3783337 0
vn 0 -0.3783337 0

vt 3 -10
vt -3 -10
vt 3 10
vt -3 10
vt 2.999993 -10
vt -3.000007 -10
vt 2.999993 10
vt -3.000007 10
vt 3 -10
vt -3 -10
vt 3 10
vt -3 10
vt 3.000007 -10
vt -2.999993 -10
vt 3.000007 10
vt -2.999993 10
vt -3 2.999993
vt 3 2.999993
vt -3 -3.000007
vt 3 -3.000007
vt 3 -3.000007
vt -3 -3.000007
vt 3 2.999993
vt -3 2.999993

g buildings009 (138)
usemtl Buildings
f 3/3/3 4/4/4 2/2/2 1/1/1
f 7/7/7 8/8/8 6/6/6 5/5/5
f 11/11/11 12/12/12 10/10/10 9/9/9
f 15/15/15 16/16/16 14/14/14 13/13/13
f 19/19/19 20/20/20 18/18/18 17/17/17
f 23/23/23 24/24/24 22/22/22 21/21/21

