# Exported from ProBuilder
# http://www.procore3d.com/probuilder
# 6/26/2018 1:16:04 PM

mtllib ./buildings009_(122).mtl
o buildings009 (122)

g buildings009 (122)
v 363.2826 0.6599994 25.40549
v 361.3865 0.6599994 25.40549
v 363.2826 4.689342 25.40549
v 361.3865 4.689342 25.40549
v 361.3865 0.6599994 25.40549
v 361.3865 0.6599994 17.79151
v 361.3865 4.689342 25.40549
v 361.3865 9.378463 17.79151
v 361.3865 0.6599994 17.79151
v 363.2826 0.6599994 17.79151
v 361.3865 9.378463 17.79151
v 363.2826 9.378463 17.79151
v 363.2826 0.6599994 17.79151
v 363.2826 0.6599994 25.40549
v 363.2826 9.378463 17.79151
v 363.2826 4.689342 25.40549
v 363.2826 4.689342 25.40549
v 361.3865 4.689342 25.40549
v 363.2826 9.378463 17.79151
v 361.3865 9.378463 17.79151
v 363.2826 0.6599994 17.79151
v 361.3865 0.6599994 17.79151
v 363.2826 0.6599994 25.40549
v 361.3865 0.6599994 25.40549

vn 0 0 0.4606272
vn 0 0 0.4606272
vn 0 0 0.4606272
vn 0 0 0.4606272
vn -0.5108553 0 0
vn -0.5108553 0 0
vn -0.5108553 0 0
vn -0.5108553 0 0
vn 0 0 -0.4606272
vn 0 0 -0.4606272
vn 0 0 -0.4606272
vn 0 0 -0.4606272
vn 0.5108553 0 0
vn 0.5108553 0 0
vn 0.5108553 0 0
vn 0.5108553 0 0
vn 0 0.5578087 0.1930927
vn 0 0.5578087 0.1930927
vn 0 0.5578087 0.1930927
vn 0 0.5578087 0.1930927
vn 0 -0.614397 0
vn 0 -0.614397 0
vn 0 -0.614397 0
vn 0 -0.614397 0

vt 3 -10
vt -0.7115265 -10
vt 3 -3.441793
vt -0.7115265 -3.441793
vt 12.43639 -10
vt -4.093194 -10
vt 12.43639 -3.441793
vt -4.093194 4.190276
vt 0.7115265 -10
vt -3 -10
vt 0.7115265 4.190276
vt -3 4.190276
vt 4.093194 -10
vt -12.43639 -10
vt 4.093194 4.190276
vt -12.43639 -3.441793
vt -3 12.73374
vt 0.7115265 12.73374
vt -3 -5.47274
vt 0.7115265 -5.47274
vt 3 -4.093194
vt -0.7115265 -4.093194
vt 3 12.43639
vt -0.7115265 12.43639

g buildings009 (122)
usemtl Buildings
f 3/3/3 4/4/4 2/2/2 1/1/1
f 7/7/7 8/8/8 6/6/6 5/5/5
f 11/11/11 12/12/12 10/10/10 9/9/9
f 15/15/15 16/16/16 14/14/14 13/13/13
f 19/19/19 20/20/20 18/18/18 17/17/17
f 23/23/23 24/24/24 22/22/22 21/21/21

