# Exported from ProBuilder
# http://www.procore3d.com/probuilder
# 6/26/2018 1:16:05 PM

mtllib ./buildings009_(362).mtl
o buildings009 (362)

g buildings009 (362)
v 360.8427 -42.73 3.790859
v 360.8427 -42.73 -4.117235
v 360.8427 -22.25241 3.790859
v 360.8427 -22.25241 -4.117235
v 360.8427 -42.73 -4.117235
v 361.6287 -42.73 -4.117235
v 360.8427 -22.25241 -4.117235
v 361.6287 -22.25241 -4.117235
v 361.6287 -42.73 -4.117235
v 361.6287 -42.73 3.790859
v 361.6287 -22.25241 -4.117235
v 361.6287 -22.25241 3.790859
v 361.6287 -42.73 3.790859
v 360.8427 -42.73 3.790859
v 361.6287 -22.25241 3.790859
v 360.8427 -22.25241 3.790859
v 360.8427 -22.25241 3.790859
v 360.8427 -22.25241 -4.117235
v 361.6287 -22.25241 3.790859
v 361.6287 -22.25241 -4.117235
v 361.6287 -42.73 3.790859
v 361.6287 -42.73 -4.117235
v 360.8427 -42.73 3.790859
v 360.8427 -42.73 -4.117235

vn -0.8578728 0 -1.268947E-07
vn -0.8578728 0 -1.268947E-07
vn -0.8578728 0 -1.268947E-07
vn -0.8578728 0 -1.268947E-07
vn 1.07744E-07 0 -0.9038225
vn 1.07744E-07 0 -0.9038225
vn 1.07744E-07 0 -0.9038225
vn 1.07744E-07 0 -0.9038225
vn 0.8578728 0 1.268947E-07
vn 0.8578728 0 1.268947E-07
vn 0.8578728 0 1.268947E-07
vn 0.8578728 0 1.268947E-07
vn -1.07744E-07 0 0.9038225
vn -1.07744E-07 0 0.9038225
vn -1.07744E-07 0 0.9038225
vn -1.07744E-07 0 0.9038225
vn 0 1.023879 0
vn 0 1.023879 0
vn 0 1.023879 0
vn 0 1.023879 0
vn 0 -1.023879 0
vn 0 -1.023879 0
vn 0 -1.023879 0
vn 0 -1.023879 0

vt 21.36387 -10
vt 12.61426 -10
vt 21.36387 10
vt 12.61426 10
vt -2.299506 -10
vt -3.215759 -10
vt -2.299506 10
vt -3.215759 10
vt -12.61426 -10
vt -21.36387 -10
vt -12.61426 10
vt -21.36387 10
vt 3.215758 -10
vt 2.299505 -10
vt 3.215758 10
vt 2.299505 10
vt -21.36387 -2.299505
vt -12.61426 -2.299506
vt -21.36387 -3.215758
vt -12.61426 -3.215759
vt 21.36387 -3.215758
vt 12.61426 -3.215759
vt 21.36387 -2.299505
vt 12.61426 -2.299506

g buildings009 (362)
usemtl Buildings
f 3/3/3 4/4/4 2/2/2 1/1/1
f 7/7/7 8/8/8 6/6/6 5/5/5
f 11/11/11 12/12/12 10/10/10 9/9/9
f 15/15/15 16/16/16 14/14/14 13/13/13
f 19/19/19 20/20/20 18/18/18 17/17/17
f 23/23/23 24/24/24 22/22/22 21/21/21

