# Exported from ProBuilder
# http://www.procore3d.com/probuilder
# 6/26/2018 1:16:19 PM

mtllib ./buildings009_(152).mtl
o buildings009 (152)

g buildings009 (152)
v 354.1255 17.68539 60.73428
v 346.6333 17.68539 60.73428
v 354.1255 27.55462 60.73428
v 346.6333 27.55462 60.73428
v 346.6333 17.68539 60.73428
v 346.6333 17.68539 54.42508
v 346.6333 27.55462 60.73428
v 346.6333 27.55462 54.42508
v 346.6333 17.68539 54.42508
v 354.1255 17.68539 54.42508
v 346.6333 27.55462 54.42508
v 354.1255 27.55462 54.42508
v 354.1255 17.68539 54.42508
v 354.1255 17.68539 60.73428
v 354.1255 27.55462 54.42508
v 354.1255 27.55462 60.73428
v 354.1255 27.55462 60.73428
v 346.6333 27.55462 60.73428
v 354.1255 27.55462 54.42508
v 346.6333 27.55462 54.42508
v 354.1255 17.68539 54.42508
v 346.6333 17.68539 54.42508
v 354.1255 17.68539 60.73428
v 346.6333 17.68539 60.73428

vn 0 0 1.051534
vn 0 0 1.051534
vn 0 0 1.051534
vn 0 0 1.051534
vn -1.248696 0 0
vn -1.248696 0 0
vn -1.248696 0 0
vn -1.248696 0 0
vn 0 0 -1.051534
vn 0 0 -1.051534
vn 0 0 -1.051534
vn 0 0 -1.051534
vn 1.248696 0 0
vn 1.248696 0 0
vn 1.248696 0 0
vn 1.248696 0 0
vn 0 0.4934614 0
vn 0 0.4934614 0
vn 0 0.4934614 0
vn 0 0.4934614 0
vn 0 -0.4934614 0
vn 0 -0.4934614 0
vn 0 -0.4934614 0
vn 0 -0.4934614 0

vt 2.999998 -10
vt -3.000002 -10
vt 2.999998 9.999999
vt -3.000002 9.999999
vt 3.000001 -10
vt -2.999999 -10
vt 3.000001 9.999999
vt -2.999999 9.999999
vt 3.000002 -10
vt -2.999998 -10
vt 3.000002 9.999999
vt -2.999998 9.999999
vt 2.999999 -10
vt -3.000001 -10
vt 2.999999 9.999999
vt -3.000001 9.999999
vt -2.999998 3.000001
vt 3.000002 3.000001
vt -2.999998 -2.999999
vt 3.000002 -2.999999
vt 2.999998 -2.999999
vt -3.000002 -2.999999
vt 2.999998 3.000001
vt -3.000002 3.000001

g buildings009 (152)
usemtl Buildings
f 3/3/3 4/4/4 2/2/2 1/1/1
f 7/7/7 8/8/8 6/6/6 5/5/5
f 11/11/11 12/12/12 10/10/10 9/9/9
f 15/15/15 16/16/16 14/14/14 13/13/13
f 19/19/19 20/20/20 18/18/18 17/17/17
f 23/23/23 24/24/24 22/22/22 21/21/21

