# Exported from ProBuilder
# http://www.procore3d.com/probuilder
# 6/26/2018 1:16:14 PM

mtllib ./buildings009_(331).mtl
o buildings009 (331)

g buildings009 (331)
v 352.8905 68.769 16.33868
v 352.8905 68.769 21.29926
v 352.8905 69.06446 16.33868
v 352.8905 69.06446 21.29926
v 346.7754 68.769 21.29926
v 328.64 68.769 21.29926
v 346.7754 69.06446 21.29926
v 328.64 69.06446 21.29926
v 328.64 68.769 21.29926
v 328.64 68.769 16.33868
v 328.64 69.06446 21.29926
v 328.64 69.06446 16.33868
v 328.64 68.769 16.33868
v 346.7754 68.769 16.33868
v 328.64 69.06446 16.33868
v 346.7754 69.06446 16.33868
v 346.7754 69.06446 16.33868
v 346.7754 69.06446 21.29926
v 328.64 69.06446 16.33868
v 328.64 69.06446 21.29926
v 328.64 68.769 16.33868
v 328.64 68.769 21.29926
v 346.7754 68.769 16.33868
v 346.7754 68.769 21.29926
v 346.7754 68.769 16.33868
v 346.7754 68.769 21.29926
v 352.8905 68.769 16.33868
v 352.8905 68.769 21.29926
v 346.7754 69.06446 1.869482
v 346.7754 68.769 1.869482
v 352.8905 69.06446 1.869481
v 352.8905 68.769 1.869481
v 346.7754 68.769 21.29926
v 346.7754 69.06446 21.29926
v 352.8905 68.769 21.29926
v 352.8905 69.06446 21.29926
v 346.7754 69.06446 21.29926
v 346.7754 69.06446 16.33868
v 352.8905 69.06446 21.29926
v 352.8905 69.06446 16.33868
v 346.7754 69.06446 16.33868
v 346.7754 68.769 16.33868
v 346.7754 69.06446 1.869482
v 346.7754 68.769 1.869482
v 352.8905 69.06446 16.33868
v 346.7754 69.06446 16.33868
v 352.8905 69.06446 1.869481
v 346.7754 69.06446 1.869482
v 346.7754 68.769 16.33868
v 352.8905 68.769 16.33868
v 346.7754 68.769 1.869482
v 352.8905 68.769 1.869481
v 352.8905 68.769 16.33868
v 352.8905 69.06446 16.33868
v 352.8905 68.769 1.869481
v 352.8905 69.06446 1.869481

vn 1.257063 0 -1.498535E-07
vn 1.257063 0 -1.498535E-07
vn 1.257063 0 -1.498535E-07
vn 1.257063 0 -1.498535E-07
vn -4.596303E-07 0 1.02385
vn -4.596303E-07 0 1.02385
vn -4.596303E-07 0 1.02385
vn -4.596303E-07 0 1.02385
vn -1.257063 0 1.498535E-07
vn -1.257063 0 1.498535E-07
vn -1.257063 0 1.498535E-07
vn -1.257063 0 1.498535E-07
vn 4.596303E-07 0 -1.02385
vn 4.596303E-07 0 -1.02385
vn 4.596303E-07 0 -1.02385
vn 4.596303E-07 0 -1.02385
vn 0 0.0231001 0
vn 0 0.0231001 0
vn 0 0.0231001 0
vn 0 0.0231001 0
vn 0 -0.0231001 0
vn 0 -0.0231001 0
vn 0 -0.0231001 0
vn 0 -0.0231001 0
vn 0 -0.0231001 0
vn 0 -0.0231001 0
vn 0 -0.0231001 0
vn 0 -0.0231001 0
vn -1.220525E-07 0 -1.02385
vn -1.220525E-07 0 -1.02385
vn -1.220525E-07 0 -1.02385
vn -1.220525E-07 0 -1.02385
vn 1.220525E-07 0 1.02385
vn 1.220525E-07 0 1.02385
vn 1.220525E-07 0 1.02385
vn 1.220525E-07 0 1.02385
vn 0 0.0231001 0
vn 0 0.0231001 0
vn 0 0.0231001 0
vn 0 0.0231001 0
vn -1.257063 0 1.498535E-07
vn -1.257063 0 1.498535E-07
vn -1.257063 0 1.498535E-07
vn -1.257063 0 1.498535E-07
vn 0 0.0231001 0
vn 0 0.0231001 0
vn 0 0.0231001 0
vn 0 0.0231001 0
vn 0 -0.0231001 0
vn 0 -0.0231001 0
vn 0 -0.0231001 0
vn 0 -0.0231001 0
vn 1.257063 0 -1.498535E-07
vn 1.257063 0 -1.498535E-07
vn 1.257063 0 -1.498535E-07
vn 1.257063 0 -1.498535E-07

vt 2.035136 -10
vt -2.809893 -10
vt 2.035136 2.790384
vt -2.809893 2.790384
vt 4.022111 -10
vt -10.40465 -10
vt 4.022111 2.790384
vt -10.40465 2.790384
vt 2.809886 -10
vt -2.035142 -10
vt 2.809886 2.790384
vt -2.035142 2.790384
vt 10.40465 -10
vt -4.022109 -10
vt 10.40465 2.790384
vt -4.022109 2.790384
vt -2.035136 4.02211
vt 2.809893 4.02211
vt -2.035142 -10.40465
vt 2.809886 -10.40465
vt 2.035142 -10.40465
vt -2.809886 -10.40465
vt 2.035136 4.02211
vt -2.809893 4.02211
vt 2.035136 4.02211
vt -2.809893 4.02211
vt 2.035136 8.886673
vt -2.809893 8.886673
vt -4.02211 2.790384
vt -4.02211 -10
vt -8.886673 2.790384
vt -8.886673 -10
vt 4.02211 -10
vt 4.02211 2.790384
vt 8.886673 -10
vt 8.886673 2.790384
vt 2.809893 4.02211
vt -2.035136 4.02211
vt 2.809893 8.886673
vt -2.035136 8.886673
vt -2.035136 2.790384
vt -2.035136 -10
vt -16.16728 2.790384
vt -16.16728 -10
vt -2.035136 8.886673
vt -2.035136 4.02211
vt -16.16728 8.886673
vt -16.16728 4.02211
vt 2.035136 4.02211
vt 2.035136 8.886673
vt 16.16728 4.02211
vt 16.16728 8.886673
vt 2.035136 -10
vt 2.035136 2.790384
vt 16.16728 -10
vt 16.16728 2.790384

g buildings009 (331)
usemtl Buildings
f 3/3/3 4/4/4 2/2/2 1/1/1
f 7/7/7 8/8/8 6/6/6 5/5/5
f 11/11/11 12/12/12 10/10/10 9/9/9
f 15/15/15 16/16/16 14/14/14 13/13/13
f 19/19/19 20/20/20 18/18/18 17/17/17
f 23/23/23 24/24/24 22/22/22 21/21/21
f 27/27/27 28/28/28 26/26/26 25/25/25
f 31/31/31 32/32/32 30/30/30 29/29/29
f 35/35/35 36/36/36 34/34/34 33/33/33
f 39/39/39 40/40/40 38/38/38 37/37/37
f 43/43/43 44/44/44 42/42/42 41/41/41
f 47/47/47 48/48/48 46/46/46 45/45/45
f 51/51/51 52/52/52 50/50/50 49/49/49
f 55/55/55 56/56/56 54/54/54 53/53/53

