# Exported from ProBuilder
# http://www.procore3d.com/probuilder
# 6/26/2018 1:16:18 PM

mtllib ./buildings009_(250).mtl
o buildings009 (250)

g buildings009 (250)
v 384.2058 11.96826 16.24881
v 378.95 11.96826 16.24881
v 384.2058 12.55174 16.24881
v 378.95 12.55174 16.24881
v 378.95 11.96826 16.24881
v 378.95 11.96826 13.80884
v 378.95 12.55174 16.24881
v 378.95 12.55174 13.80884
v 378.95 11.96826 13.80884
v 384.2058 11.96826 13.80884
v 378.95 12.55174 13.80884
v 384.2058 12.55174 13.80884
v 386.4969 11.96826 13.80884
v 386.4969 11.96826 16.24881
v 386.4969 12.55174 13.80884
v 386.4969 12.55174 16.24881
v 384.2058 12.55174 16.24881
v 378.95 12.55174 16.24881
v 384.2058 12.55174 13.80884
v 378.95 12.55174 13.80884
v 384.2058 11.96826 13.80884
v 378.95 11.96826 13.80884
v 384.2058 11.96826 16.24881
v 378.95 11.96826 16.24881
v 384.2058 11.96826 13.80884
v 384.2058 11.96826 16.24881
v 386.4969 11.96826 13.80884
v 386.4969 11.96826 16.24881
v 384.2058 12.55174 13.80884
v 384.2058 11.96826 13.80884
v 386.4969 12.55174 13.80884
v 386.4969 11.96826 13.80884
v 384.2058 11.96826 25.18519
v 384.2058 12.55174 25.18519
v 386.4969 11.96826 25.18519
v 386.4969 12.55174 25.18519
v 384.2058 12.55174 16.24881
v 384.2058 12.55174 13.80884
v 386.4969 12.55174 16.24881
v 386.4969 12.55174 13.80884
v 384.2058 11.96826 16.24881
v 384.2058 12.55174 16.24881
v 384.2058 11.96826 25.18519
v 384.2058 12.55174 25.18519
v 386.4969 11.96826 16.24881
v 384.2058 11.96826 16.24881
v 386.4969 11.96826 25.18519
v 384.2058 11.96826 25.18519
v 384.2058 12.55174 16.24881
v 386.4969 12.55174 16.24881
v 384.2058 12.55174 25.18519
v 386.4969 12.55174 25.18519
v 386.4969 12.55174 16.24881
v 386.4969 11.96826 16.24881
v 386.4969 12.55174 25.18519
v 386.4969 11.96826 25.18519

vn 0 0 0.4066612
vn 0 0 0.4066612
vn 0 0 0.4066612
vn 0 0 0.4066612
vn -1 0 0
vn -1 0 0
vn -1 0 0
vn -1 0 0
vn 0 0 -0.4066612
vn 0 0 -0.4066612
vn 0 0 -0.4066612
vn 0 0 -0.4066612
vn 1 0 0
vn 1 0 0
vn 1 0 0
vn 1 0 0
vn 0 0.0291743 0
vn 0 0.0291743 0
vn 0 0.0291743 0
vn 0 0.0291743 0
vn 0 -0.0291743 0
vn 0 -0.0291743 0
vn 0 -0.0291743 0
vn 0 -0.0291743 0
vn 0 -0.0291743 0
vn 0 -0.0291743 0
vn 0 -0.0291743 0
vn 0 -0.0291743 0
vn 0 0 -0.4066612
vn 0 0 -0.4066612
vn 0 0 -0.4066612
vn 0 0 -0.4066612
vn 0 0 0.4066612
vn 0 0 0.4066612
vn 0 0 0.4066612
vn 0 0 0.4066612
vn 0 0.0291743 0
vn 0 0.0291743 0
vn 0 0.0291743 0
vn 0 0.0291743 0
vn -1 0 0
vn -1 0 0
vn -1 0 0
vn -1 0 0
vn 0 -0.02917429 0
vn 0 -0.02917429 0
vn 0 -0.02917429 0
vn 0 -0.02917429 0
vn 0 0.02917429 0
vn 0 0.02917429 0
vn 0 0.02917429 0
vn 0 0.02917429 0
vn 1 0 0
vn 1 0 0
vn 1 0 0
vn 1 0 0

vt 2.255756 -10
vt -3 -10
vt 2.255756 10
vt -3 10
vt 3 -10
vt -3 -10
vt 3 10
vt -3 10
vt 3 -10
vt -2.255756 -10
vt 3 10
vt -2.255756 10
vt 3 -10
vt -3 -10
vt 3 10
vt -3 10
vt -2.255756 3
vt 3 3
vt -2.255756 -3
vt 3 -3
vt 2.255756 -3
vt -3 -3
vt 2.255756 3
vt -3 3
vt 2.255756 -3
vt 2.255756 3
vt 4.546853 -3
vt 4.546853 3
vt -2.255756 10
vt -2.255756 -10
vt -4.546853 10
vt -4.546853 -10
vt 2.255756 -10
vt 2.255756 10
vt 4.546853 -10
vt 4.546853 10
vt -2.255756 3
vt -2.255756 -3
vt -4.546853 3
vt -4.546853 -3
vt 3 -10
vt 3 10
vt 24.97502 -10
vt 24.97502 10
vt 4.546853 3
vt 2.255756 3
vt 4.546853 24.97502
vt 2.255756 24.97502
vt -2.255756 3
vt -4.546853 3
vt -2.255756 24.97502
vt -4.546853 24.97502
vt -3 10
vt -3 -10
vt -24.97502 10
vt -24.97502 -10

g buildings009 (250)
usemtl Buildings
f 3/3/3 4/4/4 2/2/2 1/1/1
f 7/7/7 8/8/8 6/6/6 5/5/5
f 11/11/11 12/12/12 10/10/10 9/9/9
f 15/15/15 16/16/16 14/14/14 13/13/13
f 19/19/19 20/20/20 18/18/18 17/17/17
f 23/23/23 24/24/24 22/22/22 21/21/21
f 27/27/27 28/28/28 26/26/26 25/25/25
f 31/31/31 32/32/32 30/30/30 29/29/29
f 35/35/35 36/36/36 34/34/34 33/33/33
f 39/39/39 40/40/40 38/38/38 37/37/37
f 43/43/43 44/44/44 42/42/42 41/41/41
f 47/47/47 48/48/48 46/46/46 45/45/45
f 51/51/51 52/52/52 50/50/50 49/49/49
f 55/55/55 56/56/56 54/54/54 53/53/53

