# Exported from ProBuilder
# http://www.procore3d.com/probuilder
# 6/26/2018 1:16:05 PM

mtllib ./buildings009_(399).mtl
o buildings009 (399)

g buildings009 (399)
v 412.2515 0.8099985 -45.83756
v 406.8286 0.8099985 -45.83756
v 412.2515 28.23944 -45.83756
v 406.8286 28.23944 -45.83756
v 406.8286 0.8099985 -45.83756
v 406.8286 0.8099985 -50.98479
v 406.8286 28.23944 -45.83756
v 406.8286 28.23944 -50.98479
v 406.8286 0.8099985 -50.98479
v 412.2515 0.8099985 -50.98479
v 406.8286 28.23944 -50.98479
v 412.2515 28.23944 -50.98479
v 412.2515 0.8099985 -50.98479
v 412.2515 0.8099985 -45.83756
v 412.2515 28.23944 -50.98479
v 412.2515 28.23944 -45.83756
v 412.2515 28.23944 -45.83756
v 406.8286 28.23944 -45.83756
v 412.2515 28.23944 -50.98479
v 406.8286 28.23944 -50.98479
v 412.2515 0.8099985 -50.98479
v 406.8286 0.8099985 -50.98479
v 412.2515 0.8099985 -45.83756
v 406.8286 0.8099985 -45.83756

vn 0 0 0.8578727
vn 0 0 0.8578727
vn 0 0 0.8578727
vn 0 0 0.8578727
vn -0.9038224 0 0
vn -0.9038224 0 0
vn -0.9038224 0 0
vn -0.9038224 0 0
vn 0 0 -0.8578727
vn 0 0 -0.8578727
vn 0 0 -0.8578727
vn 0 0 -0.8578727
vn 0.9038224 0 0
vn 0.9038224 0 0
vn 0.9038224 0 0
vn 0.9038224 0 0
vn 0 2.05564 0
vn 0 2.05564 0
vn 0 2.05564 0
vn 0 2.05564 0
vn 0 -2.05564 0
vn 0 -2.05564 0
vn 0 -2.05564 0
vn 0 -2.05564 0

vt 3 -10
vt -3 -10
vt 3 3.343504
vt -3 3.343504
vt 2.999998 -10
vt -3.000002 -10
vt 2.999998 3.343504
vt -3.000002 3.343504
vt 3 -10
vt -3 -10
vt 3 3.343504
vt -3 3.343504
vt 3.000002 -10
vt -2.999998 -10
vt 3.000002 3.343504
vt -2.999998 3.343504
vt -3 2.999998
vt 3 2.999998
vt -3 -3.000002
vt 3 -3.000002
vt 3 -3.000002
vt -3 -3.000002
vt 3 2.999998
vt -3 2.999998

g buildings009 (399)
usemtl Buildings
f 3/3/3 4/4/4 2/2/2 1/1/1
f 7/7/7 8/8/8 6/6/6 5/5/5
f 11/11/11 12/12/12 10/10/10 9/9/9
f 15/15/15 16/16/16 14/14/14 13/13/13
f 19/19/19 20/20/20 18/18/18 17/17/17
f 23/23/23 24/24/24 22/22/22 21/21/21

