# Exported from ProBuilder
# http://www.procore3d.com/probuilder
# 6/26/2018 1:16:06 PM

mtllib ./buildings009_(262).mtl
o buildings009 (262)

g buildings009 (262)
v 394.2744 1.449135 61.58882
v 394.2744 1.449135 55.58882
v 394.2744 9.248192 61.58882
v 394.2744 9.248192 55.58882
v 394.2744 1.449135 55.58882
v 404.2055 1.449135 55.58882
v 394.2744 9.248192 55.58882
v 404.2055 9.248192 55.58882
v 404.2055 1.449135 55.58882
v 404.2055 1.449135 61.58882
v 404.2055 9.248192 55.58882
v 404.2055 9.248192 61.58882
v 404.2055 1.449135 61.58882
v 394.2744 1.449135 61.58882
v 404.2055 9.248192 61.58882
v 394.2744 9.248192 61.58882
v 394.2744 9.248192 61.58882
v 394.2744 9.248192 55.58882
v 404.2055 9.248192 61.58882
v 404.2055 9.248192 55.58882
v 404.2055 1.449135 61.58882
v 404.2055 1.449135 55.58882
v 394.2744 1.449135 61.58882
v 394.2744 1.449135 55.58882

vn -1.655185 0 -1.973134E-07
vn -1.655185 0 -1.973134E-07
vn -1.655185 0 -1.973134E-07
vn -1.655185 0 -1.973134E-07
vn 1.192093E-07 0 -1
vn 1.192093E-07 0 -1
vn 1.192093E-07 0 -1
vn 1.192093E-07 0 -1
vn 1.655185 0 1.973134E-07
vn 1.655185 0 1.973134E-07
vn 1.655185 0 1.973134E-07
vn 1.655185 0 1.973134E-07
vn -1.192093E-07 0 1
vn -1.192093E-07 0 1
vn -1.192093E-07 0 1
vn -1.192093E-07 0 1
vn 0 0.3440864 0
vn 0 0.3440864 0
vn 0 0.3440864 0
vn 0 0.3440864 0
vn 0 -0.3440864 0
vn 0 -0.3440864 0
vn 0 -0.3440864 0
vn 0 -0.3440864 0

vt 3 -10
vt -3 -10
vt 3 12.66598
vt -3 12.66598
vt 3 -10
vt -3 -10
vt 3 12.66598
vt -3 12.66598
vt 3 -10
vt -3 -10
vt 3 12.66598
vt -3 12.66598
vt 3 -10
vt -3 -10
vt 3 12.66598
vt -3 12.66598
vt -3 3
vt 3 3
vt -3 -3
vt 3 -3
vt 3 -3
vt -3 -3
vt 3 3
vt -3 3

g buildings009 (262)
usemtl Buildings
f 3/3/3 4/4/4 2/2/2 1/1/1
f 7/7/7 8/8/8 6/6/6 5/5/5
f 11/11/11 12/12/12 10/10/10 9/9/9
f 15/15/15 16/16/16 14/14/14 13/13/13
f 19/19/19 20/20/20 18/18/18 17/17/17
f 23/23/23 24/24/24 22/22/22 21/21/21

