# Exported from ProBuilder
# http://www.procore3d.com/probuilder
# 6/26/2018 1:16:17 PM

mtllib ./buildings009_(216).mtl
o buildings009 (216)

g buildings009 (216)
v 339.7802 0.6799998 -38.90618
v 336.7482 0.6799998 -42.17129
v 339.7802 11.68635 -38.90618
v 336.7482 11.68635 -42.17129
v 336.7482 0.6799998 -42.17129
v 339.4978 0.6799998 -44.72453
v 336.7482 11.68635 -42.17129
v 339.4978 13.1874 -44.72453
v 339.4978 0.6799998 -44.72453
v 342.5298 0.6799998 -41.45943
v 339.4978 13.1874 -44.72453
v 342.5298 13.1874 -41.45943
v 342.5298 0.6799998 -41.45943
v 339.7802 0.6799998 -38.90618
v 342.5298 13.1874 -41.45943
v 339.7802 11.68635 -38.90618
v 339.7802 11.68635 -38.90618
v 336.7482 11.68635 -42.17129
v 342.5298 13.1874 -41.45943
v 339.4978 13.1874 -44.72453
v 342.5298 0.6799998 -41.45943
v 339.4978 0.6799998 -44.72453
v 339.7802 0.6799998 -38.90618
v 336.7482 0.6799998 -42.17129

vn -0.4582604 0 0.4255408
vn -0.4582604 0 0.4255408
vn -0.4582604 0 0.4255408
vn -0.4582604 0 0.4255408
vn -0.5053295 0 -0.5441841
vn -0.5053295 0 -0.5441841
vn -0.5053295 0 -0.544184
vn -0.5053295 0 -0.5441841
vn 0.4582604 0 -0.4255408
vn 0.4582604 0 -0.4255408
vn 0.4582604 0 -0.4255408
vn 0.4582604 0 -0.4255408
vn 0.5053295 0 0.5441841
vn 0.5053295 0 0.544184
vn 0.5053295 0 0.5441841
vn 0.5053295 0 0.5441841
vn -0.1702096 0.5806328 0.1580567
vn -0.1702096 0.5806328 0.1580567
vn -0.1702096 0.5806328 0.1580567
vn -0.1702096 0.5806328 0.1580567
vn 0 -0.62537 0
vn 0 -0.62537 0
vn 0 -0.62537 0
vn 0 -0.62537 0

vt 3.000006 -10
vt -2.999994 -10
vt 3.000006 7.599739
vt -2.999994 7.599739
vt 3.000004 -10
vt -2.999996 -10
vt 3.000004 7.599739
vt -2.999996 10
vt 2.999994 -10
vt -3.000006 -10
vt 2.999994 10
vt -3.000006 10
vt 2.999996 -10
vt -3.000004 -10
vt 2.999996 10
vt -3.000004 7.599739
vt -3.000006 -0.03734523
vt 2.999994 -0.03734523
vt -3.000006 -6.49964
vt 2.999994 -6.49964
vt 3.000006 -2.999996
vt -2.999994 -2.999996
vt 3.000006 3.000004
vt -2.999994 3.000004

g buildings009 (216)
usemtl Buildings
f 3/3/3 4/4/4 2/2/2 1/1/1
f 7/7/7 8/8/8 6/6/6 5/5/5
f 11/11/11 12/12/12 10/10/10 9/9/9
f 15/15/15 16/16/16 14/14/14 13/13/13
f 19/19/19 20/20/20 18/18/18 17/17/17
f 23/23/23 24/24/24 22/22/22 21/21/21

