# Exported from ProBuilder
# http://www.procore3d.com/probuilder
# 6/26/2018 1:16:07 PM

mtllib ./buildings009_(473).mtl
o buildings009 (473)

g buildings009 (473)
v 303.367 0.3168593 -20.42191
v 303.367 0.3168593 -25.25211
v 303.367 9.403141 -20.42191
v 303.367 9.403141 -25.25211
v 303.367 0.3168593 -25.25211
v 306.935 0.3168593 -25.25211
v 303.367 9.403141 -25.25211
v 306.935 9.403141 -25.25211
v 306.935 0.3168593 -25.25211
v 306.935 0.3168593 -20.42191
v 306.935 9.403141 -25.25211
v 306.935 9.403141 -20.42191
v 306.935 0.3168593 -20.42191
v 303.367 0.3168593 -20.42191
v 306.935 9.403141 -20.42191
v 303.367 9.403141 -20.42191
v 303.367 9.403141 -20.42191
v 303.367 9.403141 -25.25211
v 306.935 9.403141 -20.42191
v 306.935 9.403141 -25.25211
v 306.935 0.3168593 -20.42191
v 306.935 0.3168593 -25.25211
v 303.367 0.3168593 -20.42191
v 303.367 0.3168593 -25.25211

vn -0.197352 0 -2.352619E-08
vn -0.197352 0 -2.352619E-08
vn -0.197352 0 -2.352619E-08
vn -0.197352 0 -2.352619E-08
vn 4.037749E-08 0 -0.338711
vn 4.037749E-08 0 -0.338711
vn 4.037749E-08 0 -0.338711
vn 4.037749E-08 0 -0.338711
vn 0.197352 0 2.352619E-08
vn 0.197352 0 2.352619E-08
vn 0.197352 0 2.352619E-08
vn 0.197352 0 2.352619E-08
vn -4.037749E-08 0 0.338711
vn -4.037749E-08 0 0.338711
vn -4.037749E-08 0 0.338711
vn -4.037749E-08 0 0.338711
vn 0 0.4543141 0
vn 0 0.4543141 0
vn 0 0.4543141 0
vn 0 0.4543141 0
vn 0 -0.4543141 0
vn 0 -0.4543141 0
vn 0 -0.4543141 0
vn 0 -0.4543141 0

vt -2.056446 -10
vt -16.31701 -10
vt -2.056446 10
vt -16.31701 10
vt 2.999998 -10
vt -15.07936 -10
vt 2.999998 10
vt -15.07936 10
vt 16.31701 -10
vt 2.056446 -10
vt 16.31701 10
vt 2.056446 10
vt 15.07936 -10
vt -2.999998 -10
vt 15.07936 10
vt -2.999998 10
vt 2.056446 2.999998
vt 16.31701 2.999998
vt 2.056446 -15.07936
vt 16.31701 -15.07936
vt -2.056446 -15.07936
vt -16.31701 -15.07936
vt -2.056446 2.999998
vt -16.31701 2.999998

g buildings009 (473)
usemtl Buildings
f 3/3/3 4/4/4 2/2/2 1/1/1
f 7/7/7 8/8/8 6/6/6 5/5/5
f 11/11/11 12/12/12 10/10/10 9/9/9
f 15/15/15 16/16/16 14/14/14 13/13/13
f 19/19/19 20/20/20 18/18/18 17/17/17
f 23/23/23 24/24/24 22/22/22 21/21/21

