# Exported from ProBuilder
# http://www.procore3d.com/probuilder
# 6/26/2018 1:16:13 PM

mtllib ./buildings009_(317).mtl
o buildings009 (317)

g buildings009 (317)
v 342.3523 0.8440246 24.47452
v 342.3523 5.616918 16.37019
v 342.3523 1.016417 24.47452
v 342.3523 5.789309 16.37019
v 342.3523 5.616918 16.37019
v 348.0464 5.616918 16.37019
v 342.3523 5.789309 16.37019
v 348.0464 5.789309 16.37019
v 348.0464 5.616918 16.37019
v 348.0464 0.8440246 24.47452
v 348.0464 5.789309 16.37019
v 348.0464 1.016417 24.47452
v 348.0464 0.8440246 24.47452
v 342.3523 0.8440246 24.47452
v 348.0464 1.016417 24.47452
v 342.3523 1.016417 24.47452
v 342.3523 1.016417 24.47452
v 342.3523 5.789309 16.37019
v 348.0464 1.016417 24.47452
v 348.0464 5.789309 16.37019
v 348.0464 0.8440246 24.47452
v 348.0464 5.616918 16.37019
v 342.3523 0.8440246 24.47452
v 342.3523 5.616918 16.37019

vn -0.9490216 0 -1.131322E-07
vn -0.9490216 0 -1.131322E-07
vn -0.9490216 0 -1.131322E-07
vn -0.9490216 0 -1.131322E-07
vn 1.610186E-07 0 -1.350722
vn 1.610186E-07 0 -1.350722
vn 1.610186E-07 0 -1.350722
vn 1.610186E-07 0 -1.350722
vn 0.9490216 0 1.131322E-07
vn 0.9490216 0 1.131322E-07
vn 0.9490215 0 1.131322E-07
vn 0.9490216 0 1.131322E-07
vn -1.610186E-07 0 1.350722
vn -1.610186E-07 0 1.350722
vn -1.610186E-07 0 1.350722
vn -1.610186E-07 0 1.350722
vn -1.609955E-07 0.0002283338 1.350528
vn -1.609955E-07 0.0002283338 1.350528
vn -1.609955E-07 0.0002283338 1.350528
vn -1.609955E-07 0.0002283338 1.350528
vn 1.609955E-07 -0.0002283338 -1.350528
vn 1.609955E-07 -0.0002283338 -1.350528
vn 1.609955E-07 -0.0002283338 -1.350528
vn 1.609955E-07 -0.0002283338 -1.350528

vt 2.999999 -364.1198
vt -3.000001 -10
vt 2.999999 -351.3294
vt -3.000001 2.790384
vt 2.999997 -10
vt -3.000003 -10
vt 2.999997 2.790384
vt -3.000003 2.790384
vt 3.000001 -10
vt -2.999999 -364.1198
vt 3.000001 2.790384
vt -2.999999 -351.3294
vt 3.000003 -364.1198
vt -2.999997 -364.1198
vt 3.000003 -351.3294
vt -2.999997 -351.3294
vt -2.999997 -351.3298
vt -2.999997 2.840807
vt 3.000003 -351.3298
vt 3.000003 2.840807
vt -3.000003 -364.1184
vt -3.000003 -9.947742
vt 2.999997 -364.1184
vt 2.999997 -9.947742

g buildings009 (317)
usemtl Buildings
f 3/3/3 4/4/4 2/2/2 1/1/1
f 7/7/7 8/8/8 6/6/6 5/5/5
f 11/11/11 12/12/12 10/10/10 9/9/9
f 15/15/15 16/16/16 14/14/14 13/13/13
f 19/19/19 20/20/20 18/18/18 17/17/17
f 23/23/23 24/24/24 22/22/22 21/21/21

