# Exported from ProBuilder
# http://www.procore3d.com/probuilder
# 6/26/2018 1:16:10 PM

mtllib ./buildings009_(366).mtl
o buildings009 (366)

g buildings009 (366)
v 352.9719 -42.73 -9.470974
v 341.326 -42.73 -9.470974
v 352.9719 -22.25241 -9.470974
v 341.326 -22.25241 -9.470974
v 341.326 -42.73 -9.470974
v 341.326 -42.73 -10.257
v 341.326 -22.25241 -9.470974
v 341.326 -22.25241 -10.257
v 341.326 -42.73 -10.257
v 352.9719 -42.73 -10.257
v 341.326 -22.25241 -10.257
v 352.9719 -22.25241 -10.257
v 352.9719 -42.73 -10.257
v 352.9719 -42.73 -9.470974
v 352.9719 -22.25241 -10.257
v 352.9719 -22.25241 -9.470974
v 352.9719 -22.25241 -9.470974
v 341.326 -22.25241 -9.470974
v 352.9719 -22.25241 -10.257
v 341.326 -22.25241 -10.257
v 352.9719 -42.73 -10.257
v 341.326 -42.73 -10.257
v 352.9719 -42.73 -9.470974
v 341.326 -42.73 -9.470974

vn 0 0 0.8578726
vn 0 0 0.8578726
vn 0 0 0.8578726
vn 0 0 0.8578726
vn -0.4779989 0 0
vn -0.4779989 0 0
vn -0.4779989 0 0
vn -0.4779989 0 0
vn 0 0 -0.8578726
vn 0 0 -0.8578726
vn 0 0 -0.8578726
vn 0 0 -0.8578726
vn 0.4779989 0 0
vn 0.4779989 0 0
vn 0.4779989 0 0
vn 0.4779989 0 0
vn 0 1.023879 0
vn 0 1.023879 0
vn 0 1.023879 0
vn 0 1.023879 0
vn 0 -1.023879 0
vn 0 -1.023879 0
vn 0 -1.023879 0
vn 0 -1.023879 0

vt 21.36387 -10
vt -3 -10
vt 21.36387 10
vt -3 10
vt -2.299505 -10
vt -3.215758 -10
vt -2.299505 10
vt -3.215758 10
vt 3 -10
vt -21.36387 -10
vt 3 10
vt -21.36387 10
vt 3.215758 -10
vt 2.299505 -10
vt 3.215758 10
vt 2.299505 10
vt -21.36387 -2.299505
vt 3 -2.299505
vt -21.36387 -3.215758
vt 3 -3.215758
vt 21.36387 -3.215758
vt -3 -3.215758
vt 21.36387 -2.299505
vt -3 -2.299505

g buildings009 (366)
usemtl Buildings
f 3/3/3 4/4/4 2/2/2 1/1/1
f 7/7/7 8/8/8 6/6/6 5/5/5
f 11/11/11 12/12/12 10/10/10 9/9/9
f 15/15/15 16/16/16 14/14/14 13/13/13
f 19/19/19 20/20/20 18/18/18 17/17/17
f 23/23/23 24/24/24 22/22/22 21/21/21

