# Exported from ProBuilder
# http://www.procore3d.com/probuilder
# 6/26/2018 1:16:18 PM

mtllib ./buildings009_(447).mtl
o buildings009 (447)

g buildings009 (447)
v 371.2159 34.73174 -33.01681
v 363.5803 34.73174 -33.01681
v 371.2159 35.36826 -33.01681
v 363.5803 35.36826 -33.01681
v 363.5803 34.73174 -33.01681
v 363.5803 34.73174 -46.43863
v 363.5803 35.36826 -33.01681
v 363.5803 35.36826 -46.43863
v 363.5803 34.73174 -51.47402
v 371.2159 34.73174 -51.47402
v 363.5803 35.36826 -51.47402
v 371.2159 35.36826 -51.47402
v 371.2159 34.73174 -46.43863
v 371.2159 34.73174 -33.01681
v 371.2159 35.36826 -46.43863
v 371.2159 35.36826 -33.01681
v 371.2159 35.36826 -33.01681
v 363.5803 35.36826 -33.01681
v 371.2159 35.36826 -46.43863
v 363.5803 35.36826 -46.43863
v 371.2159 34.73174 -46.43863
v 363.5803 34.73174 -46.43863
v 371.2159 34.73174 -33.01681
v 363.5803 34.73174 -33.01681
v 363.5803 34.73174 -46.43863
v 371.2159 34.73174 -46.43863
v 363.5803 34.73174 -51.47402
v 371.2159 34.73174 -51.47402
v 363.5803 35.36826 -46.43863
v 363.5803 34.73174 -46.43863
v 363.5803 35.36826 -51.47402
v 363.5803 34.73174 -51.47402
v 409.1555 34.73174 -46.43863
v 409.1555 35.36826 -46.43863
v 409.1555 34.73174 -51.47402
v 409.1555 35.36826 -51.47402
v 371.2159 35.36826 -46.43863
v 363.5803 35.36826 -46.43863
v 371.2159 35.36826 -51.47402
v 363.5803 35.36826 -51.47402
v 371.2159 34.73174 -46.43863
v 371.2159 35.36826 -46.43863
v 384.9229 34.73174 -46.43863
v 384.9229 35.36826 -46.43863
v 371.2159 34.73174 -51.47402
v 371.2159 34.73174 -46.43863
v 384.9229 34.73174 -51.47402
v 384.9229 34.73174 -46.43863
v 371.2159 35.36826 -46.43863
v 371.2159 35.36826 -51.47402
v 384.9229 35.36826 -46.43863
v 384.9229 35.36826 -51.47402
v 371.2159 35.36826 -51.47402
v 371.2159 34.73174 -51.47402
v 384.9229 35.36826 -51.47402
v 384.9229 34.73174 -51.47402
v 384.9229 34.73174 -46.43863
v 384.9229 35.36826 -46.43863
v 404.1441 34.73174 -46.43863
v 404.1441 35.36826 -46.43863
v 384.9229 34.73174 -51.47402
v 384.9229 34.73174 -46.43863
v 404.1441 34.73174 -51.47402
v 404.1441 34.73174 -46.43863
v 384.9229 35.36826 -46.43863
v 384.9229 35.36826 -51.47402
v 404.1441 35.36826 -46.43863
v 404.1441 35.36826 -51.47402
v 384.9229 35.36826 -51.47402
v 384.9229 34.73174 -51.47402
v 404.1441 35.36826 -51.47402
v 404.1441 34.73174 -51.47402
v 404.1441 29.0136 -9.773642
v 404.1441 29.65013 -9.773642
v 409.1555 29.0136 -9.773642
v 409.1555 29.65013 -9.773642
v 404.1441 34.73174 -51.47402
v 404.1441 34.73174 -46.43863
v 409.1555 34.73174 -51.47402
v 409.1555 34.73174 -46.43863
v 404.1441 35.36826 -46.43863
v 404.1441 35.36826 -51.47402
v 409.1555 35.36826 -46.43863
v 409.1555 35.36826 -51.47402
v 404.1441 35.36826 -51.47402
v 404.1441 34.73174 -51.47402
v 409.1555 35.36826 -51.47402
v 409.1555 34.73174 -51.47402
v 404.1441 34.73174 -46.43863
v 404.1441 35.36826 -46.43863
v 404.1441 34.73174 -37.59775
v 404.1441 35.36826 -37.59775
v 409.1555 34.73174 -46.43863
v 404.1441 34.73174 -46.43863
v 409.1555 34.73174 -37.59775
v 404.1441 34.73174 -37.59775
v 404.1441 35.36826 -46.43863
v 409.1555 35.36826 -46.43863
v 404.1441 35.36826 -37.59775
v 409.1555 35.36826 -37.59775
v 409.1555 35.36826 -46.43863
v 409.1555 34.73174 -46.43863
v 409.1555 35.36826 -37.59775
v 409.1555 34.73174 -37.59775
v 404.1441 34.73174 -37.59775
v 404.1441 35.36826 -37.59775
v 404.1441 34.73174 -20.22654
v 404.1441 35.36826 -20.22654
v 409.1555 34.73174 -37.59775
v 404.1441 34.73174 -37.59775
v 409.1555 34.73174 -20.22654
v 404.1441 34.73174 -20.22654
v 404.1441 35.36826 -37.59775
v 409.1555 35.36826 -37.59775
v 404.1441 35.36826 -20.22654
v 409.1555 35.36826 -20.22654
v 409.1555 35.36826 -37.59775
v 409.1555 34.73174 -37.59775
v 409.1555 35.36826 -20.22654
v 409.1555 34.73174 -20.22654
v 404.1441 34.73174 -20.22654
v 404.1441 35.36826 -20.22654
v 404.1441 29.0136 -9.773642
v 404.1441 29.65013 -9.773642
v 409.1555 34.73174 -20.22654
v 404.1441 34.73174 -20.22654
v 409.1555 29.0136 -9.773642
v 404.1441 29.0136 -9.773642
v 404.1441 35.36826 -20.22654
v 409.1555 35.36826 -20.22654
v 404.1441 29.65013 -9.773642
v 409.1555 29.65013 -9.773642
v 409.1555 35.36826 -20.22654
v 409.1555 34.73174 -20.22654
v 409.1555 29.65013 -9.773642
v 409.1555 29.0136 -9.773642

vn 0 0 0.8578727
vn 0 0 0.8578727
vn 0 0 0.8578727
vn 0 0 0.8578727
vn -0.6100779 0 0
vn -0.6100779 0 0
vn -0.6100779 0 0
vn -0.6100779 0 0
vn 0 0 -0.8578727
vn 0 0 -0.8578727
vn 0 0 -0.8578727
vn 0 0 -0.8578727
vn 0.6100779 0 0
vn 0.6100779 0 0
vn 0.6100779 0 0
vn 0.6100779 0 0
vn 0 0.0318265 0
vn 0 0.0318265 0
vn 0 0.0318265 0
vn 0 0.0318265 0
vn 0 -0.0318265 0
vn 0 -0.0318265 0
vn 0 -0.0318265 0
vn 0 -0.0318265 0
vn 0 -0.0318265 0
vn 0 -0.0318265 0
vn 0 -0.0318265 0
vn 0 -0.0318265 0
vn -0.6100779 0 0
vn -0.6100779 0 0
vn -0.6100779 0 0
vn -0.6100779 0 0
vn 0.6100779 0 0
vn 0.6100779 0 0
vn 0.6100779 0 0
vn 0.6100779 0 0
vn 0 0.0318265 0
vn 0 0.0318265 0
vn 0 0.0318265 0
vn 0 0.0318265 0
vn 0 0 0.8578727
vn 0 0 0.8578727
vn 0 0 0.8578727
vn 0 0 0.8578727
vn 0 -0.0318265 0
vn 0 -0.0318265 0
vn 0 -0.0318265 0
vn 0 -0.0318265 0
vn 0 0.0318265 0
vn 0 0.0318265 0
vn 0 0.0318265 0
vn 0 0.0318265 0
vn 0 0 -0.8578727
vn 0 0 -0.8578727
vn 0 0 -0.8578727
vn 0 0 -0.8578727
vn 0 0 0.8578727
vn 0 0 0.8578727
vn 0 0 0.8578727
vn 0 0 0.8578727
vn 0 -0.0318265 0
vn 0 -0.0318265 0
vn 0 -0.0318265 0
vn 0 -0.0318265 0
vn 0 0.0318265 0
vn 0 0.0318265 0
vn 0 0.0318265 0
vn 0 0.0318265 0
vn 0 0 -0.8578727
vn 0 0 -0.8578727
vn 0 0 -0.8578727
vn 0 0 -0.8578727
vn 0 0 0.8578726
vn 0 0 0.8578726
vn 0 0 0.8578726
vn 0 0 0.8578726
vn 0 -0.0318265 0
vn 0 -0.0318265 0
vn 0 -0.0318265 0
vn 0 -0.0318265 0
vn 0 0.0318265 0
vn 0 0.0318265 0
vn 0 0.0318265 0
vn 0 0.0318265 0
vn 0 0 -0.8578726
vn 0 0 -0.8578726
vn 0 0 -0.8578726
vn 0 0 -0.8578726
vn -0.6100779 0 0
vn -0.6100779 0 0
vn -0.6100779 0 0
vn -0.6100779 0 0
vn 0 -0.0318265 0
vn 0 -0.0318265 0
vn 0 -0.0318265 0
vn 0 -0.0318265 0
vn 0 0.0318265 0
vn 0 0.0318265 0
vn 0 0.0318265 0
vn 0 0.0318265 0
vn 0.6100779 0 0
vn 0.6100779 0 0
vn 0.6100779 0 0
vn 0.6100779 0 0
vn -0.6100779 0 0
vn -0.6100779 0 0
vn -0.6100779 0 0
vn -0.6100779 0 0
vn 0 -0.0318265 0
vn 0 -0.0318265 0
vn 0 -0.0318265 0
vn 0 -0.0318265 0
vn 0 0.0318265 0
vn 0 0.0318265 0
vn 0 0.0318265 0
vn 0 0.0318265 0
vn 0.6100779 0 0
vn 0.6100779 0 0
vn 0.6100779 0 0
vn 0.6100779 0 0
vn -0.6100779 0 0
vn -0.6100779 0 0
vn -0.6100779 0 0
vn -0.6100779 0 0
vn 0 -0.00215348 -0.8559067
vn 0 -0.00215348 -0.8559067
vn 0 -0.00215348 -0.8559067
vn 0 -0.00215348 -0.8559067
vn 0 0.00215348 0.8559067
vn 0 0.00215348 0.8559067
vn 0 0.00215348 0.8559067
vn 0 0.00215348 0.8559067
vn 0.6100778 0 0
vn 0.6100779 0 0
vn 0.6100779 0 0
vn 0.6100778 0 0

vt -9.808692 -10
vt -22.32454 -10
vt -9.808692 10
vt -22.32454 10
vt 0.7511268 -10
vt -14.89434 -10
vt 0.7511268 10
vt -14.89434 10
vt 22.32454 -10
vt 9.808692 -10
vt 22.32454 10
vt 9.808692 10
vt 14.89434 -10
vt -0.7511268 -10
vt 14.89434 10
vt -0.7511268 10
vt 9.808692 0.7511268
vt 22.32454 0.7511268
vt 9.808692 -14.89434
vt 22.32454 -14.89434
vt -9.808692 -14.89434
vt -22.32454 -14.89434
vt -9.808692 0.7511268
vt -22.32454 0.7511268
vt -22.32454 -14.89434
vt -9.808692 -14.89434
vt -22.32454 -20.76397
vt -9.808692 -20.76397
vt -14.89434 10
vt -14.89434 -10
vt -20.76397 10
vt -20.76397 -10
vt 14.89434 -10
vt 14.89434 10
vt 20.76397 -10
vt 20.76397 10
vt 9.808692 -14.89434
vt 22.32454 -14.89434
vt 9.808692 -20.76397
vt 22.32454 -20.76397
vt -9.808692 -10
vt -9.808692 10
vt 12.65898 -10
vt 12.65898 10
vt -9.808692 -20.76397
vt -9.808692 -14.89434
vt 12.65898 -20.76397
vt 12.65898 -14.89434
vt 9.808692 -14.89434
vt 9.808692 -20.76397
vt -12.65898 -14.89434
vt -12.65898 -20.76397
vt 9.808692 10
vt 9.808692 -10
vt -12.65898 10
vt -12.65898 -10
vt 12.65898 -10
vt 12.65898 10
vt 44.16512 -10
vt 44.16512 10
vt 12.65898 -20.76397
vt 12.65898 -14.89434
vt 44.16512 -20.76397
vt 44.16512 -14.89434
vt -12.65898 -14.89434
vt -12.65898 -20.76397
vt -44.16512 -14.89434
vt -44.16512 -20.76397
vt -12.65898 10
vt -12.65898 -10
vt -44.16512 10
vt -44.16512 -10
vt 44.16512 -189.6659
vt 44.16512 -169.6659
vt 52.37937 -189.6659
vt 52.37937 -169.6659
vt 44.16512 -20.76397
vt 44.16512 -14.89434
vt 52.37937 -20.76397
vt 52.37937 -14.89434
vt -44.16512 -14.89434
vt -44.16512 -20.76397
vt -52.37937 -14.89434
vt -52.37937 -20.76397
vt -44.16512 10
vt -44.16512 -10
vt -52.37937 10
vt -52.37937 -10
vt -14.89434 -10
vt -14.89434 10
vt -4.588759 -10
vt -4.588759 10
vt 52.37937 -14.89434
vt 44.16512 -14.89434
vt 52.37937 -4.588759
vt 44.16512 -4.588759
vt -44.16512 -14.89434
vt -52.37937 -14.89434
vt -44.16512 -4.588759
vt -52.37937 -4.588759
vt 14.89434 10
vt 14.89434 -10
vt 4.588759 10
vt 4.588759 -10
vt -4.588759 -10
vt -4.588759 10
vt 15.66041 -10
vt 15.66041 10
vt 52.37937 -4.588759
vt 44.16512 -4.588759
vt 52.37937 15.66041
vt 44.16512 15.66041
vt -44.16512 -4.588759
vt -52.37937 -4.588759
vt -44.16512 15.66041
vt -52.37937 15.66041
vt 4.588759 10
vt 4.588759 -10
vt -15.66041 10
vt -15.66041 -10
vt 15.66041 -10
vt 15.66041 10
vt 27.84509 -189.6659
vt 27.84509 -169.6659
vt -52.37937 -11.03671
vt -44.16512 -11.03671
vt -52.37937 -191.1153
vt -44.16512 -191.1153
vt 44.16512 8.917451
vt 52.37937 8.917451
vt 44.16512 -171.1612
vt 52.37937 -171.1612
vt -15.66041 10
vt -15.66041 -10
vt -27.84509 -169.6659
vt -27.84509 -189.6659

g buildings009 (447)
usemtl Buildings
f 3/3/3 4/4/4 2/2/2 1/1/1
f 7/7/7 8/8/8 6/6/6 5/5/5
f 11/11/11 12/12/12 10/10/10 9/9/9
f 15/15/15 16/16/16 14/14/14 13/13/13
f 19/19/19 20/20/20 18/18/18 17/17/17
f 23/23/23 24/24/24 22/22/22 21/21/21
f 27/27/27 28/28/28 26/26/26 25/25/25
f 31/31/31 32/32/32 30/30/30 29/29/29
f 35/35/35 36/36/36 34/34/34 33/33/33
f 39/39/39 40/40/40 38/38/38 37/37/37
f 43/43/43 44/44/44 42/42/42 41/41/41
f 47/47/47 48/48/48 46/46/46 45/45/45
f 51/51/51 52/52/52 50/50/50 49/49/49
f 55/55/55 56/56/56 54/54/54 53/53/53
f 59/59/59 60/60/60 58/58/58 57/57/57
f 63/63/63 64/64/64 62/62/62 61/61/61
f 67/67/67 68/68/68 66/66/66 65/65/65
f 71/71/71 72/72/72 70/70/70 69/69/69
f 75/75/75 76/76/76 74/74/74 73/73/73
f 79/79/79 80/80/80 78/78/78 77/77/77
f 83/83/83 84/84/84 82/82/82 81/81/81
f 87/87/87 88/88/88 86/86/86 85/85/85
f 91/91/91 92/92/92 90/90/90 89/89/89
f 95/95/95 96/96/96 94/94/94 93/93/93
f 99/99/99 100/100/100 98/98/98 97/97/97
f 103/103/103 104/104/104 102/102/102 101/101/101
f 107/107/107 108/108/108 106/106/106 105/105/105
f 111/111/111 112/112/112 110/110/110 109/109/109
f 115/115/115 116/116/116 114/114/114 113/113/113
f 119/119/119 120/120/120 118/118/118 117/117/117
f 123/123/123 124/124/124 122/122/122 121/121/121
f 127/127/127 128/128/128 126/126/126 125/125/125
f 131/131/131 132/132/132 130/130/130 129/129/129
f 135/135/135 136/136/136 134/134/134 133/133/133

