# Exported from ProBuilder
# http://www.procore3d.com/probuilder
# 6/26/2018 1:16:18 PM

mtllib ./buildings009_(304).mtl
o buildings009 (304)

g buildings009 (304)
v 322.1709 0.6800001 33.33636
v 322.1709 0.6800001 30.5249
v 322.1709 8.400116 33.33636
v 322.1709 8.400116 30.5249
v 322.1709 0.6800001 30.5249
v 327.8651 0.6800001 30.5249
v 322.1709 8.400116 30.5249
v 327.8651 8.400116 30.5249
v 327.8651 0.6800001 30.5249
v 327.8651 0.6800001 33.33636
v 327.8651 8.400116 30.5249
v 327.8651 8.400116 33.33636
v 327.8651 0.6800001 33.33636
v 322.1709 0.6800001 33.33636
v 327.8651 8.400116 33.33636
v 322.1709 8.400116 33.33636
v 322.1709 8.400116 33.33636
v 322.1709 8.400116 30.5249
v 327.8651 8.400116 33.33636
v 327.8651 8.400116 30.5249
v 327.8651 0.6800001 33.33636
v 327.8651 0.6800001 30.5249
v 322.1709 0.6800001 33.33636
v 322.1709 0.6800001 30.5249

vn -0.9490216 0 -1.131322E-07
vn -0.9490216 0 -1.131322E-07
vn -0.9490216 0 -1.131322E-07
vn -0.9490216 0 -1.131322E-07
vn 8.805202E-08 0 -0.7386339
vn 8.805202E-08 0 -0.7386339
vn 8.805202E-08 0 -0.7386339
vn 8.805202E-08 0 -0.7386339
vn 0.9490216 0 1.131322E-07
vn 0.9490216 0 1.131322E-07
vn 0.9490216 0 1.131322E-07
vn 0.9490216 0 1.131322E-07
vn -8.805202E-08 0 0.7386339
vn -8.805202E-08 0 0.7386339
vn -8.805202E-08 0 0.7386339
vn -8.805202E-08 0 0.7386339
vn 0 0.3783337 0
vn 0 0.3783337 0
vn 0 0.3783337 0
vn 0 0.3783337 0
vn 0 -0.3783337 0
vn 0 -0.3783337 0
vn 0 -0.3783337 0
vn 0 -0.3783337 0

vt 2.526774 -10
vt -1.27952 -10
vt 2.526774 10.40557
vt -1.27952 10.40557
vt 2.999997 -10
vt -3.000003 -10
vt 2.999997 10.40557
vt -3.000003 10.40557
vt 1.27952 -10
vt -2.526774 -10
vt 1.27952 10.40557
vt -2.526774 10.40557
vt 3.000003 -10
vt -2.999997 -10
vt 3.000003 10.40557
vt -2.999997 10.40557
vt -2.526774 2.999997
vt 1.27952 2.999997
vt -2.526774 -3.000003
vt 1.27952 -3.000003
vt 2.526774 -3.000003
vt -1.27952 -3.000003
vt 2.526774 2.999997
vt -1.27952 2.999997

g buildings009 (304)
usemtl Buildings
f 3/3/3 4/4/4 2/2/2 1/1/1
f 7/7/7 8/8/8 6/6/6 5/5/5
f 11/11/11 12/12/12 10/10/10 9/9/9
f 15/15/15 16/16/16 14/14/14 13/13/13
f 19/19/19 20/20/20 18/18/18 17/17/17
f 23/23/23 24/24/24 22/22/22 21/21/21

