# Exported from ProBuilder
# http://www.procore3d.com/probuilder
# 6/26/2018 1:16:10 PM

mtllib ./buildings009_(471).mtl
o buildings009 (471)

g buildings009 (471)
v 319.1103 28.47174 -16.76331
v 306.2213 28.47174 -16.76331
v 319.1103 29.10827 -16.76331
v 306.2213 29.10827 -16.76331
v 306.2213 28.47174 -16.76331
v 306.2213 28.47174 -20.3313
v 306.2213 29.10827 -16.76331
v 306.2213 29.10827 -20.3313
v 306.2213 28.47174 -20.3313
v 319.1103 28.47174 -20.3313
v 306.2213 29.10827 -20.3313
v 319.1103 29.10827 -20.3313
v 319.1103 28.47174 -20.3313
v 319.1103 28.47174 -16.76331
v 319.1103 29.10827 -20.3313
v 319.1103 29.10827 -16.76331
v 319.1103 29.10827 -16.76331
v 306.2213 29.10827 -16.76331
v 319.1103 29.10827 -20.3313
v 306.2213 29.10827 -20.3313
v 319.1103 28.47174 -20.3313
v 306.2213 28.47174 -20.3313
v 319.1103 28.47174 -16.76331
v 306.2213 28.47174 -16.76331

vn 0 0 0.197352
vn 0 0 0.197352
vn 0 0 0.197352
vn 0 0 0.197352
vn -0.9038224 0 0
vn -0.9038224 0 0
vn -0.9038224 0 0
vn -0.9038224 0 0
vn 0 0 -0.197352
vn 0 0 -0.197352
vn 0 0 -0.197352
vn 0 0 -0.197352
vn 0.9038224 0 0
vn 0.9038224 0 0
vn 0.9038224 0 0
vn 0.9038224 0 0
vn 0 0.0318265 0
vn 0 0.0318265 0
vn 0 0.0318265 0
vn 0 0.0318265 0
vn 0 -0.0318265 0
vn 0 -0.0318265 0
vn 0 -0.0318265 0
vn 0 -0.0318265 0

vt -2.056446 -10
vt -16.31701 -10
vt -2.056446 10
vt -16.31701 10
vt 2.999998 -10
vt -15.07936 -10
vt 2.999998 10
vt -15.07936 10
vt 16.31701 -10
vt 2.056446 -10
vt 16.31701 10
vt 2.056446 10
vt 15.07936 -10
vt -2.999998 -10
vt 15.07936 10
vt -2.999998 10
vt 2.056446 2.999998
vt 16.31701 2.999998
vt 2.056446 -15.07936
vt 16.31701 -15.07936
vt -2.056446 -15.07936
vt -16.31701 -15.07936
vt -2.056446 2.999998
vt -16.31701 2.999998

g buildings009 (471)
usemtl Buildings
f 3/3/3 4/4/4 2/2/2 1/1/1
f 7/7/7 8/8/8 6/6/6 5/5/5
f 11/11/11 12/12/12 10/10/10 9/9/9
f 15/15/15 16/16/16 14/14/14 13/13/13
f 19/19/19 20/20/20 18/18/18 17/17/17
f 23/23/23 24/24/24 22/22/22 21/21/21

