# Exported from ProBuilder
# http://www.procore3d.com/probuilder
# 6/26/2018 1:16:20 PM

mtllib ./buildings009_(115).mtl
o buildings009 (115)

g buildings009 (115)
v 403.3691 0.6599994 15.74883
v 399.7008 0.6599994 13.21942
v 403.3691 7.123442 15.74883
v 399.7008 7.123442 13.21942
v 399.7008 0.6599994 13.21942
v 401.8309 0.6599994 10.13039
v 399.7008 7.123442 13.21942
v 401.8309 7.123442 10.13039
v 401.8309 0.6599994 10.13039
v 405.4991 0.6599994 12.65979
v 401.8309 7.123442 10.13039
v 405.4991 7.123442 12.65979
v 405.4991 0.6599994 12.65979
v 403.3691 0.6599994 15.74883
v 405.4991 7.123442 12.65979
v 403.3691 7.123442 15.74883
v 403.3691 7.123442 15.74883
v 399.7008 7.123442 13.21942
v 405.4991 7.123442 12.65979
v 401.8309 7.123442 10.13039
v 405.4991 0.6599994 12.65979
v 401.8309 0.6599994 10.13039
v 403.3691 0.6599994 15.74883
v 399.7008 0.6599994 13.21942

vn -0.3550038 0 0.5148398
vn -0.3550038 0 0.5148398
vn -0.3550038 0 0.5148398
vn -0.3550038 0 0.5148398
vn -0.6113719 0 -0.4215669
vn -0.6113719 0 -0.4215669
vn -0.6113719 0 -0.4215669
vn -0.6113719 0 -0.4215669
vn 0.3550038 0 -0.5148398
vn 0.3550038 0 -0.5148398
vn 0.3550038 0 -0.5148398
vn 0.3550038 0 -0.5148398
vn 0.6113719 0 0.4215669
vn 0.6113719 0 0.4215669
vn 0.6113719 0 0.4215669
vn 0.6113719 0 0.4215669
vn 0 0.62537 0
vn 0 0.62537 0
vn 0 0.62537 0
vn 0 0.62537 0
vn 0 -0.62537 0
vn 0 -0.62537 0
vn 0 -0.62537 0
vn 0 -0.62537 0

vt 3 -10
vt -3 -10
vt 3 0.3353889
vt -3 0.3353889
vt 3 -10
vt -3 -10
vt 3 0.3353889
vt -3 0.3353889
vt 3 -10
vt -3 -10
vt 3 0.3353889
vt -3 0.3353889
vt 3 -10
vt -3 -10
vt 3 0.3353889
vt -3 0.3353889
vt -3 3
vt 3 3
vt -3 -3
vt 3 -3
vt 3 -3
vt -3 -3
vt 3 3
vt -3 3

g buildings009 (115)
usemtl Buildings
f 3/3/3 4/4/4 2/2/2 1/1/1
f 7/7/7 8/8/8 6/6/6 5/5/5
f 11/11/11 12/12/12 10/10/10 9/9/9
f 15/15/15 16/16/16 14/14/14 13/13/13
f 19/19/19 20/20/20 18/18/18 17/17/17
f 23/23/23 24/24/24 22/22/22 21/21/21

