# Exported from ProBuilder
# http://www.procore3d.com/probuilder
# 6/26/2018 1:16:06 PM

mtllib ./buildings009_(367).mtl
o buildings009 (367)

g buildings009 (367)
v 347.7027 -42.73 8.264837
v 347.7027 -42.73 -3.535918
v 347.7027 -22.25241 8.264837
v 347.7027 -22.25241 -3.535918
v 347.7027 -42.73 -3.535918
v 348.4887 -42.73 -3.535918
v 347.7027 -22.25241 -3.535918
v 348.4887 -22.25241 -3.535918
v 348.4887 -42.73 -3.535918
v 348.4887 -42.73 8.264838
v 348.4887 -22.25241 -3.535918
v 348.4887 -22.25241 8.264838
v 348.4887 -42.73 8.264838
v 347.7027 -42.73 8.264837
v 348.4887 -22.25241 8.264838
v 347.7027 -22.25241 8.264837
v 347.7027 -22.25241 8.264837
v 347.7027 -22.25241 -3.535918
v 348.4887 -22.25241 8.264838
v 348.4887 -22.25241 -3.535918
v 348.4887 -42.73 8.264838
v 348.4887 -42.73 -3.535918
v 347.7027 -42.73 8.264837
v 347.7027 -42.73 -3.535918

vn -0.8578728 0 -1.187707E-07
vn -0.8578728 0 -1.187707E-07
vn -0.8578728 0 -1.187707E-07
vn -0.8578728 0 -1.187707E-07
vn 1.07744E-07 0 -0.9038225
vn 1.07744E-07 0 -0.9038225
vn 1.07744E-07 0 -0.9038225
vn 1.07744E-07 0 -0.9038225
vn 0.8578728 0 1.187707E-07
vn 0.8578728 0 1.187707E-07
vn 0.8578728 0 1.187707E-07
vn 0.8578728 0 1.187707E-07
vn -1.07744E-07 0 0.9038225
vn -1.07744E-07 0 0.9038225
vn -1.07744E-07 0 0.9038225
vn -1.07744E-07 0 0.9038225
vn 0 1.023879 0
vn 0 1.023879 0
vn 0 1.023879 0
vn 0 1.023879 0
vn 0 -1.023879 0
vn 0 -1.023879 0
vn 0 -1.023879 0
vn 0 -1.023879 0

vt 12.60549 -10
vt -0.4510064 -10
vt 12.60549 10
vt -0.4510064 10
vt -2.299505 -10
vt -3.215758 -10
vt -2.299505 10
vt -3.215758 10
vt 0.4510064 -10
vt -12.60549 -10
vt 0.4510064 10
vt -12.60549 10
vt 3.215758 -10
vt 2.299505 -10
vt 3.215758 10
vt 2.299505 10
vt -12.60549 -2.299505
vt 0.4510064 -2.299505
vt -12.60549 -3.215758
vt 0.4510064 -3.215758
vt 12.60549 -3.215758
vt -0.4510064 -3.215758
vt 12.60549 -2.299505
vt -0.4510064 -2.299505

g buildings009 (367)
usemtl Buildings
f 3/3/3 4/4/4 2/2/2 1/1/1
f 7/7/7 8/8/8 6/6/6 5/5/5
f 11/11/11 12/12/12 10/10/10 9/9/9
f 15/15/15 16/16/16 14/14/14 13/13/13
f 19/19/19 20/20/20 18/18/18 17/17/17
f 23/23/23 24/24/24 22/22/22 21/21/21

