# Exported from ProBuilder
# http://www.procore3d.com/probuilder
# 6/26/2018 1:16:10 PM

mtllib ./buildings009_(325).mtl
o buildings009 (325)

g buildings009 (325)
v 304.8722 0.6800001 23.63826
v 304.8722 0.6800001 16.23573
v 304.8722 31.62471 23.63826
v 304.8722 31.62471 16.23573
v 304.8722 0.6800001 16.23573
v 312.1964 0.6800001 16.23573
v 304.8722 31.62471 16.23573
v 312.1964 31.62471 16.23573
v 312.1964 0.6800001 16.23573
v 312.1964 0.6800001 23.63826
v 312.1964 31.62471 16.23573
v 312.1964 31.62471 23.63826
v 312.1964 0.6800001 23.63826
v 304.8722 0.6800001 23.63826
v 312.1964 31.62471 23.63826
v 304.8722 31.62471 23.63826
v 304.8722 31.62471 23.63826
v 304.8722 31.62471 16.23573
v 312.1964 31.62471 23.63826
v 312.1964 31.62471 16.23573
v 312.1964 0.6800001 23.63826
v 312.1964 0.6800001 16.23573
v 304.8722 0.6800001 23.63826
v 304.8722 0.6800001 16.23573

vn -0.9490216 0 -1.131322E-07
vn -0.9490216 0 -1.131322E-07
vn -0.9490216 0 -1.131322E-07
vn -0.9490216 0 -1.131322E-07
vn 8.805201E-08 0 -0.7386339
vn 8.805201E-08 0 -0.7386339
vn 8.805201E-08 0 -0.7386339
vn 8.805201E-08 0 -0.7386339
vn 0.9490216 0 1.131322E-07
vn 0.9490216 0 1.131322E-07
vn 0.9490216 0 1.131322E-07
vn 0.9490216 0 1.131322E-07
vn -8.805201E-08 0 0.7386339
vn -8.805201E-08 0 0.7386339
vn -8.805201E-08 0 0.7386339
vn -8.805201E-08 0 0.7386339
vn 0 0.3783337 0
vn 0 0.3783337 0
vn 0 0.3783337 0
vn 0 0.3783337 0
vn 0 -0.3783337 0
vn 0 -0.3783337 0
vn 0 -0.3783337 0
vn 0 -0.3783337 0

vt 2.999999 -10
vt -7.021922 -10
vt 2.999999 71.79211
vt -7.021922 71.79211
vt 4.717705 -10
vt -3.000003 -10
vt 4.717705 71.79211
vt -3.000003 71.79211
vt 7.021922 -10
vt -2.999999 -10
vt 7.021922 71.79211
vt -2.999999 71.79211
vt 3.000003 -10
vt -4.717705 -10
vt 3.000003 71.79211
vt -4.717705 71.79211
vt -2.999999 4.717705
vt 7.021922 4.717705
vt -2.999999 -3.000003
vt 7.021922 -3.000003
vt 2.999999 -3.000003
vt -7.021922 -3.000003
vt 2.999999 4.717705
vt -7.021922 4.717705

g buildings009 (325)
usemtl Buildings
f 3/3/3 4/4/4 2/2/2 1/1/1
f 7/7/7 8/8/8 6/6/6 5/5/5
f 11/11/11 12/12/12 10/10/10 9/9/9
f 15/15/15 16/16/16 14/14/14 13/13/13
f 19/19/19 20/20/20 18/18/18 17/17/17
f 23/23/23 24/24/24 22/22/22 21/21/21

