# Exported from ProBuilder
# http://www.procore3d.com/probuilder
# 6/26/2018 1:16:09 PM

mtllib ./buildings009_(326).mtl
o buildings009 (326)

g buildings009 (326)
v 306.0394 20.09302 27.26054
v 306.0394 20.09302 21.78793
v 306.0394 49.15968 27.26054
v 306.0394 49.15968 21.78793
v 306.0394 20.09302 21.78793
v 311.4542 20.09302 21.78793
v 306.0394 49.15968 21.78793
v 311.4542 49.15968 21.78793
v 311.4542 20.09302 21.78793
v 311.4542 20.09302 27.26055
v 311.4542 49.15968 21.78793
v 311.4542 49.15968 27.26055
v 311.4542 20.09302 27.26055
v 306.0394 20.09302 27.26054
v 311.4542 49.15968 27.26055
v 306.0394 49.15968 27.26054
v 306.0394 49.15968 27.26054
v 306.0394 49.15968 21.78793
v 311.4542 49.15968 27.26055
v 311.4542 49.15968 21.78793
v 311.4542 20.09302 27.26055
v 311.4542 20.09302 21.78793
v 306.0394 20.09302 27.26054
v 306.0394 20.09302 21.78793

vn -0.7016014 0 -8.36374E-08
vn -0.7016014 0 -8.36374E-08
vn -0.7016014 0 -8.36374E-08
vn -0.7016014 0 -8.36374E-08
vn 6.509591E-08 0 -0.5460641
vn 6.509591E-08 0 -0.5460641
vn 6.509591E-08 0 -0.5460641
vn 6.509591E-08 0 -0.5460641
vn 0.7016014 0 8.36374E-08
vn 0.7016014 0 8.36374E-08
vn 0.7016014 0 8.36374E-08
vn 0.7016014 0 8.36374E-08
vn -6.509591E-08 0 0.5460641
vn -6.509591E-08 0 0.5460641
vn -6.509591E-08 0 0.5460641
vn -6.509591E-08 0 0.5460641
vn 0 0.279698 0
vn 0 0.279698 0
vn 0 0.279698 0
vn 0 0.279698 0
vn 0 -0.279698 0
vn 0 -0.279698 0
vn 0 -0.279698 0
vn 0 -0.279698 0

vt 2.999999 -10
vt -7.021922 -10
vt 2.999999 93.9216
vt -7.021922 93.9216
vt 4.717705 -10
vt -3.000003 -10
vt 4.717705 93.9216
vt -3.000003 93.9216
vt 7.021922 -10
vt -2.999999 -10
vt 7.021922 93.9216
vt -2.999999 93.9216
vt 3.000003 -10
vt -4.717705 -10
vt 3.000003 93.9216
vt -4.717705 93.9216
vt -2.999999 4.717705
vt 7.021922 4.717705
vt -2.999999 -3.000003
vt 7.021922 -3.000003
vt 2.999999 -3.000003
vt -7.021922 -3.000003
vt 2.999999 4.717705
vt -7.021922 4.717705

g buildings009 (326)
usemtl Buildings
f 3/3/3 4/4/4 2/2/2 1/1/1
f 7/7/7 8/8/8 6/6/6 5/5/5
f 11/11/11 12/12/12 10/10/10 9/9/9
f 15/15/15 16/16/16 14/14/14 13/13/13
f 19/19/19 20/20/20 18/18/18 17/17/17
f 23/23/23 24/24/24 22/22/22 21/21/21

