# Exported from ProBuilder
# http://www.procore3d.com/probuilder
# 6/26/2018 1:16:12 PM

mtllib ./buildings009_(222).mtl
o buildings009 (222)

g buildings009 (222)
v 379.0414 0.8099985 -48.51757
v 373.6185 0.8099985 -48.51757
v 379.0414 6.360708 -48.51757
v 373.6185 6.360708 -48.51757
v 373.6185 0.8099985 -48.51757
v 373.6185 0.8099985 -53.6648
v 373.6185 6.360708 -48.51757
v 373.6185 6.360708 -53.6648
v 373.6185 0.8099985 -53.6648
v 379.0414 0.8099985 -53.6648
v 373.6185 6.360708 -53.6648
v 379.0414 6.360708 -53.6648
v 379.0414 0.8099985 -53.6648
v 379.0414 0.8099985 -48.51757
v 379.0414 6.360708 -53.6648
v 379.0414 6.360708 -48.51757
v 379.0414 6.360708 -48.51757
v 373.6185 6.360708 -48.51757
v 379.0414 6.360708 -53.6648
v 373.6185 6.360708 -53.6648
v 379.0414 0.8099985 -53.6648
v 373.6185 0.8099985 -53.6648
v 379.0414 0.8099985 -48.51757
v 373.6185 0.8099985 -48.51757

vn 0 0 0.8578727
vn 0 0 0.8578727
vn 0 0 0.8578727
vn 0 0 0.8578727
vn -0.9038224 0 0
vn -0.9038224 0 0
vn -0.9038224 0 0
vn -0.9038224 0 0
vn 0 0 -0.8578727
vn 0 0 -0.8578727
vn 0 0 -0.8578727
vn 0 0 -0.8578727
vn 0.9038224 0 0
vn 0.9038224 0 0
vn 0.9038224 0 0
vn 0.9038224 0 0
vn 0 2.05564 0
vn 0 2.05564 0
vn 0 2.05564 0
vn 0 2.05564 0
vn 0 -2.05564 0
vn 0 -2.05564 0
vn 0 -2.05564 0
vn 0 -2.05564 0

vt 3 -10
vt -3 -10
vt 3 -7.299766
vt -3 -7.299766
vt 2.999998 -10
vt -3.000002 -10
vt 2.999998 -7.299766
vt -3.000002 -7.299766
vt 3 -10
vt -3 -10
vt 3 -7.299766
vt -3 -7.299766
vt 3.000002 -10
vt -2.999998 -10
vt 3.000002 -7.299766
vt -2.999998 -7.299766
vt -3 2.999998
vt 3 2.999998
vt -3 -3.000002
vt 3 -3.000002
vt 3 -3.000002
vt -3 -3.000002
vt 3 2.999998
vt -3 2.999998

g buildings009 (222)
usemtl Buildings
f 3/3/3 4/4/4 2/2/2 1/1/1
f 7/7/7 8/8/8 6/6/6 5/5/5
f 11/11/11 12/12/12 10/10/10 9/9/9
f 15/15/15 16/16/16 14/14/14 13/13/13
f 19/19/19 20/20/20 18/18/18 17/17/17
f 23/23/23 24/24/24 22/22/22 21/21/21

