# Exported from ProBuilder
# http://www.procore3d.com/probuilder
# 6/26/2018 1:16:07 PM

mtllib ./buildings009_(463).mtl
o buildings009 (463)

g buildings009 (463)
v 339.7916 1.167417 -13.37763
v 339.7916 1.167417 -23.68195
v 339.7916 34.83073 -13.37763
v 339.7916 34.83073 -23.68195
v 339.7916 1.167417 -23.68195
v 350.8276 1.167417 -23.62752
v 339.7916 34.83073 -23.68195
v 350.8276 35.69503 -23.62752
v 350.8276 1.167417 -23.62752
v 350.8276 1.167417 -13.3232
v 350.8276 35.69503 -23.62752
v 350.8276 35.69503 -13.3232
v 350.8276 1.167417 -13.3232
v 339.7916 1.167417 -13.37763
v 350.8276 35.69503 -13.3232
v 339.7916 34.83073 -13.37763
v 344.9532 54.11217 -16.29205
v 344.9532 54.11217 -20.65867
v 348.0247 54.03091 -16.29205
v 348.0247 54.03091 -20.65867
v 350.8276 1.167417 -13.3232
v 350.8276 1.167417 -23.62752
v 339.7916 1.167417 -13.37763
v 339.7916 1.167417 -23.68195
v 339.7916 34.83073 -13.37763
v 339.7916 34.83073 -23.68195
v 343.0181 38.39816 -14.35363
v 343.0181 38.39816 -22.59709
v 350.8276 35.69503 -13.3232
v 339.7916 34.83073 -13.37763
v 349.9599 38.3169 -14.35363
v 343.0181 38.39816 -14.35363
v 339.7916 34.83073 -23.68195
v 350.8276 35.69503 -23.62752
v 343.0181 38.39816 -22.59709
v 349.9599 38.3169 -22.59709
v 350.8276 35.69503 -23.62752
v 350.8276 35.69503 -13.3232
v 349.9599 38.3169 -22.59709
v 349.9599 38.3169 -14.35363
v 343.0181 38.39816 -14.35363
v 343.0181 38.39816 -22.59709
v 344.9532 54.11217 -16.29205
v 344.9532 54.11217 -20.65867
v 349.9599 38.3169 -14.35363
v 343.0181 38.39816 -14.35363
v 348.0247 54.03091 -16.29205
v 344.9532 54.11217 -16.29205
v 343.0181 38.39816 -22.59709
v 349.9599 38.3169 -22.59709
v 344.9532 54.11217 -20.65867
v 348.0247 54.03091 -20.65867
v 349.9599 38.3169 -22.59709
v 349.9599 38.3169 -14.35363
v 348.0247 54.03091 -20.65867
v 348.0247 54.03091 -16.29205

vn -1.44622 0 -1.724029E-07
vn -1.44622 0 -1.724029E-07
vn -1.44622 0 -1.724029E-07
vn -1.44622 0 -1.724029E-07
vn 0.006006511 0 -1.717372
vn 0.006006511 0 -1.717372
vn 0.00600651 0 -1.717372
vn 0.006006511 0 -1.717372
vn 1.44622 0 1.724029E-07
vn 1.44622 0 1.724029E-07
vn 1.44622 0 1.724029E-07
vn 1.44622 0 1.724029E-07
vn -0.006006511 0 1.717372
vn -0.00600651 0 1.717372
vn -0.006006511 0 1.717372
vn -0.006006511 0 1.717372
vn 0.05029639 1.098859 5.995796E-09
vn 0.05029639 1.098859 5.995796E-09
vn 0.05029639 1.098859 5.995796E-09
vn 0.05029639 1.098859 5.995796E-09
vn 0 -1.099524 0
vn 0 -1.099524 0
vn 0 -1.099524 0
vn 0 -1.099524 0
vn -1.191684 0.6229805 -1.420598E-07
vn -1.191684 0.6229806 -1.420598E-07
vn -1.191684 0.6229806 -1.420598E-07
vn -1.191684 0.6229805 -1.420598E-07
vn -0.02077277 0.227805 1.679941
vn -0.03392155 0.2068325 1.686247
vn 0.005453359 0.2692783 1.665075
vn -0.02077277 0.227805 1.679941
vn -0.01433642 0.2380268 -1.676575
vn -0.02978676 0.2628799 -1.667205
vn 0.004212776 0.2080032 -1.686369
vn -0.01433642 0.2380268 -1.676575
vn 1.402504 0.2682991 1.671914E-07
vn 1.402504 0.2682991 1.671915E-07
vn 1.402504 0.2682991 1.671915E-07
vn 1.402504 0.2682991 1.671914E-07
vn -1.439923 0.1024981 -1.716522E-07
vn -1.439923 0.1024981 -1.716522E-07
vn -1.439923 0.1024981 -1.716522E-07
vn -1.439923 0.1024981 -1.716522E-07
vn 0.002430607 0.08656672 1.712053
vn 0.001750483 0.08644294 1.71207
vn 0.00397495 0.08684771 1.712015
vn 0.002430607 0.08656672 1.712053
vn 0.002431015 0.08656672 -1.712053
vn 0.001755914 0.08669098 -1.712039
vn 0.003949699 0.08628713 -1.712084
vn 0.002431015 0.08656672 -1.712053
vn 1.439923 0.102498 1.716522E-07
vn 1.439923 0.102498 1.716522E-07
vn 1.439923 0.1024981 1.716522E-07
vn 1.439923 0.102498 1.716522E-07

vt 2.968309 -15.76371
vt -3.031691 -15.76371
vt 2.968309 14.85254
vt -3.031691 14.85254
vt 4.643523 -15.76371
vt -2.987514 -15.76371
vt 4.643523 14.85254
vt -2.987514 15.63861
vt 2.999999 -15.76371
vt -3.000001 -15.76371
vt 2.999999 15.63861
vt -3.000001 15.63861
vt 3.012433 -15.76371
vt -4.618605 -15.76371
vt 3.012433 15.63861
vt -4.618605 14.85254
vt -1.2713 2.187668
vt 1.271297 2.187668
vt -1.2713 0.06257934
vt 1.271297 0.06257934
vt 3.000001 -3
vt -2.999999 -3
vt 2.968309 4.630972
vt -3.031691 4.630972
vt 2.968309 9.614613
vt -3.031691 9.614613
vt 2.400002 13.55215
vt -2.399999 13.55215
vt 3.086612 14.50203
vt -4.542011 13.69287
vt 2.46929 16.95661
vt -2.32865 16.99506
vt 4.578415 13.91699
vt -3.050897 14.71963
vt 2.35858 17.22993
vt -2.440717 17.17415
vt 2.999999 14.43384
vt -3.000001 14.43384
vt 2.399999 16.89272
vt -2.400002 16.89272
vt 2.400002 17.79453
vt -2.399999 17.79453
vt 1.2713 32.14867
vt -1.271297 32.14867
vt 2.397075 17.77759
vt -2.402921 17.85173
vt 1.060352 32.11386
vt -1.06345 32.18774
vt 2.402913 17.85259
vt -2.397084 17.77846
vt 1.063445 32.18861
vt -1.060357 32.11473
vt 2.399999 17.72095
vt -2.400002 17.72095
vt 1.271297 32.07509
vt -1.2713 32.07509

g buildings009 (463)
usemtl Buildings
f 3/3/3 4/4/4 2/2/2 1/1/1
f 7/7/7 8/8/8 6/6/6 5/5/5
f 11/11/11 12/12/12 10/10/10 9/9/9
f 15/15/15 16/16/16 14/14/14 13/13/13
f 19/19/19 20/20/20 18/18/18 17/17/17
f 23/23/23 24/24/24 22/22/22 21/21/21
f 27/27/27 28/28/28 26/26/26 25/25/25
f 31/31/31 32/32/32 30/30/30 29/29/29
f 35/35/35 36/36/36 34/34/34 33/33/33
f 39/39/39 40/40/40 38/38/38 37/37/37
f 43/43/43 44/44/44 42/42/42 41/41/41
f 47/47/47 48/48/48 46/46/46 45/45/45
f 51/51/51 52/52/52 50/50/50 49/49/49
f 55/55/55 56/56/56 54/54/54 53/53/53

