# Exported from ProBuilder
# http://www.procore3d.com/probuilder
# 6/26/2018 1:16:05 PM

mtllib ./buildings009_(449).mtl
o buildings009 (449)

g buildings009 (449)
v 393.8303 59.65556 -8.265151
v 387.0297 59.65556 -8.265151
v 393.8303 92.7299 -8.265151
v 387.0297 92.7299 -8.265151
v 387.0297 59.65556 -8.265151
v 387.0297 59.65556 -15.11721
v 387.0297 92.7299 -8.265151
v 387.0297 92.7299 -15.11721
v 387.0297 59.65556 -15.11721
v 393.8303 59.65556 -15.11721
v 387.0297 92.7299 -15.11721
v 393.8303 92.7299 -15.11721
v 393.8303 59.65556 -15.11721
v 393.8303 59.65556 -8.265151
v 393.8303 92.7299 -15.11721
v 393.8303 92.7299 -8.265151
v 393.8303 92.7299 -8.265151
v 387.0297 92.7299 -8.265151
v 393.8303 92.7299 -15.11721
v 387.0297 92.7299 -15.11721
v 393.8303 59.65556 -15.11721
v 387.0297 59.65556 -15.11721
v 393.8303 59.65556 -8.265151
v 387.0297 59.65556 -8.265151

vn 0 0 1.14201
vn 0 0 1.14201
vn 0 0 1.14201
vn 0 0 1.14201
vn -1.133428 0 0
vn -1.133428 0 0
vn -1.133428 0 0
vn -1.133428 0 0
vn 0 0 -1.14201
vn 0 0 -1.14201
vn 0 0 -1.14201
vn 0 0 -1.14201
vn 1.133428 0 0
vn 1.133428 0 0
vn 1.133428 0 0
vn 1.133428 0 0
vn 0 0.4244439 0
vn 0 0.4244439 0
vn 0 0.4244439 0
vn 0 0.4244439 0
vn 0 -0.4244439 0
vn 0 -0.4244439 0
vn 0 -0.4244439 0
vn 0 -0.4244439 0

vt 3 -10
vt -3 -10
vt 3 67.92392
vt -3 67.92392
vt 2.999998 -10
vt -3.000002 -10
vt 2.999998 67.92392
vt -3.000002 67.92392
vt 3 -10
vt -3 -10
vt 3 67.92392
vt -3 67.92392
vt 3.000002 -10
vt -2.999998 -10
vt 3.000002 67.92392
vt -2.999998 67.92392
vt -3 2.999998
vt 3 2.999998
vt -3 -3.000002
vt 3 -3.000002
vt 3 -3.000002
vt -3 -3.000002
vt 3 2.999998
vt -3 2.999998

g buildings009 (449)
usemtl Buildings
f 3/3/3 4/4/4 2/2/2 1/1/1
f 7/7/7 8/8/8 6/6/6 5/5/5
f 11/11/11 12/12/12 10/10/10 9/9/9
f 15/15/15 16/16/16 14/14/14 13/13/13
f 19/19/19 20/20/20 18/18/18 17/17/17
f 23/23/23 24/24/24 22/22/22 21/21/21

