# Exported from ProBuilder
# http://www.procore3d.com/probuilder
# 6/26/2018 1:16:14 PM

mtllib ./buildings009_(245).mtl
o buildings009 (245)

g buildings009 (245)
v 358.8231 -22.1444 19.10433
v 351.5969 -22.1444 19.10433
v 358.8231 -10.41906 19.10433
v 351.5969 -10.41906 19.10433
v 351.5969 -22.1444 19.10433
v 351.5969 -22.1444 13.0191
v 351.5969 -10.41906 19.10433
v 351.5969 -10.41906 13.0191
v 351.5969 -22.1444 13.0191
v 358.8231 -22.1444 13.0191
v 351.5969 -10.41906 13.0191
v 358.8231 -10.41906 13.0191
v 358.8231 -22.1444 13.0191
v 358.8231 -22.1444 19.10433
v 358.8231 -10.41906 13.0191
v 358.8231 -10.41906 19.10433
v 358.8231 -10.41906 19.10433
v 351.5969 -10.41906 19.10433
v 358.8231 -10.41906 13.0191
v 351.5969 -10.41906 13.0191
v 358.8231 -22.1444 13.0191
v 351.5969 -22.1444 13.0191
v 358.8231 -22.1444 19.10433
v 351.5969 -22.1444 19.10433

vn 0 0 1.014204
vn 0 0 1.014204
vn 0 0 1.014204
vn 0 0 1.014204
vn -1.204367 0 0
vn -1.204367 0 0
vn -1.204367 0 0
vn -1.204367 0 0
vn 0 0 -1.014204
vn 0 0 -1.014204
vn 0 0 -1.014204
vn 0 0 -1.014204
vn 1.204367 0 0
vn 1.204367 0 0
vn 1.204367 0 0
vn 1.204367 0 0
vn 0 1.55044 0
vn 0 1.55044 0
vn 0 1.55044 0
vn 0 1.55044 0
vn 0 -1.55044 0
vn 0 -1.55044 0
vn 0 -1.55044 0
vn 0 -1.55044 0

vt 3 -10
vt -3 -10
vt 3 -2.43741
vt -3 -2.43741
vt 3.000001 -10
vt -2.999999 -10
vt 3.000001 -2.43741
vt -2.999999 -2.43741
vt 3 -10
vt -3 -10
vt 3 -2.43741
vt -3 -2.43741
vt 2.999999 -10
vt -3.000001 -10
vt 2.999999 -2.43741
vt -3.000001 -2.43741
vt -3 3.000001
vt 3 3.000001
vt -3 -2.999999
vt 3 -2.999999
vt 3 -2.999999
vt -3 -2.999999
vt 3 3.000001
vt -3 3.000001

g buildings009 (245)
usemtl Buildings
f 3/3/3 4/4/4 2/2/2 1/1/1
f 7/7/7 8/8/8 6/6/6 5/5/5
f 11/11/11 12/12/12 10/10/10 9/9/9
f 15/15/15 16/16/16 14/14/14 13/13/13
f 19/19/19 20/20/20 18/18/18 17/17/17
f 23/23/23 24/24/24 22/22/22 21/21/21

