# Exported from ProBuilder
# http://www.procore3d.com/probuilder
# 6/26/2018 1:16:09 PM

mtllib ./buildings009_(466).mtl
o buildings009 (466)

g buildings009 (466)
v 349.8601 1.19678 -3.923048
v 345.2178 1.19678 -3.923048
v 349.8601 6.543219 -3.923048
v 345.2178 6.543219 -3.923048
v 345.2178 1.19678 -3.923048
v 345.2178 1.19678 -8.847665
v 345.2178 6.543219 -3.923048
v 345.2178 6.543219 -8.847665
v 345.2178 1.19678 -8.847665
v 349.8601 1.19678 -8.847665
v 345.2178 6.543219 -8.847665
v 349.8601 6.543219 -8.847665
v 349.8601 1.19678 -8.847665
v 349.8601 1.19678 -3.923048
v 349.8601 6.543219 -8.847665
v 349.8601 6.543219 -3.923048
v 349.8601 6.543219 -3.923048
v 345.2178 6.543219 -3.923048
v 349.8601 6.543219 -8.847665
v 345.2178 6.543219 -8.847665
v 349.8601 1.19678 -8.847665
v 345.2178 1.19678 -8.847665
v 349.8601 1.19678 -3.923048
v 345.2178 1.19678 -3.923048

vn 0 0 0.8207694
vn 0 0 0.8207694
vn 0 0 0.8207694
vn 0 0 0.8207694
vn -0.7737207 0 0
vn -0.7737207 0 0
vn -0.7737207 0 0
vn -0.7737207 0 0
vn 0 0 -0.8207694
vn 0 0 -0.8207694
vn 0 0 -0.8207694
vn 0 0 -0.8207694
vn 0.7737207 0 0
vn 0.7737207 0 0
vn 0.7737207 0 0
vn 0.7737207 0 0
vn 0 0.2673219 0
vn 0 0.2673219 0
vn 0 0.2673219 0
vn 0 0.2673219 0
vn 0 -0.2673219 0
vn 0 -0.2673219 0
vn 0 -0.2673219 0
vn 0 -0.2673219 0

vt 3 -10
vt -3 -10
vt 3 9.999999
vt -3 9.999999
vt 3.000005 -10
vt -2.999995 -10
vt 3.000005 9.999999
vt -2.999995 9.999999
vt 3 -10
vt -3 -10
vt 3 9.999999
vt -3 9.999999
vt 2.999995 -10
vt -3.000005 -10
vt 2.999995 9.999999
vt -3.000005 9.999999
vt -3 3.000005
vt 3 3.000005
vt -3 -2.999995
vt 3 -2.999995
vt 3 -2.999995
vt -3 -2.999995
vt 3 3.000005
vt -3 3.000005

g buildings009 (466)
usemtl Buildings
f 3/3/3 4/4/4 2/2/2 1/1/1
f 7/7/7 8/8/8 6/6/6 5/5/5
f 11/11/11 12/12/12 10/10/10 9/9/9
f 15/15/15 16/16/16 14/14/14 13/13/13
f 19/19/19 20/20/20 18/18/18 17/17/17
f 23/23/23 24/24/24 22/22/22 21/21/21

