# Exported from ProBuilder
# http://www.procore3d.com/probuilder
# 6/26/2018 1:16:04 PM

mtllib ./buildings009_(310).mtl
o buildings009 (310)

g buildings009 (310)
v 339.541 0.6800001 27.87992
v 339.541 0.6800001 25.73409
v 339.541 5.519033 27.87992
v 339.541 5.519033 25.73409
v 339.541 0.6800001 25.73409
v 343.132 0.6800001 25.73409
v 339.541 5.519033 25.73409
v 343.132 5.519033 25.73409
v 343.132 0.6800001 25.73409
v 343.132 0.6800001 27.87992
v 343.132 5.519033 25.73409
v 343.132 5.519033 27.87992
v 343.132 0.6800001 27.87992
v 339.541 0.6800001 27.87992
v 343.132 5.519033 27.87992
v 339.541 5.519033 27.87992
v 339.541 5.519033 27.87992
v 339.541 5.519033 25.73409
v 343.132 5.519033 27.87992
v 343.132 5.519033 25.73409
v 343.132 0.6800001 27.87992
v 343.132 0.6800001 25.73409
v 339.541 0.6800001 27.87992
v 339.541 0.6800001 25.73409

vn -0.9490216 0 -1.131322E-07
vn -0.9490216 0 -1.131322E-07
vn -0.9490216 0 -1.131322E-07
vn -0.9490216 0 -1.131322E-07
vn 8.805202E-08 0 -0.7386339
vn 8.805202E-08 0 -0.7386339
vn 8.805202E-08 0 -0.7386339
vn 8.805202E-08 0 -0.7386339
vn 0.9490216 0 1.131322E-07
vn 0.9490216 0 1.131322E-07
vn 0.9490216 0 1.131322E-07
vn 0.9490216 0 1.131322E-07
vn -8.805202E-08 0 0.7386339
vn -8.805202E-08 0 0.7386339
vn -8.805202E-08 0 0.7386339
vn -8.805202E-08 0 0.7386339
vn 0 0.3783337 0
vn 0 0.3783337 0
vn 0 0.3783337 0
vn 0 0.3783337 0
vn 0 -0.3783337 0
vn 0 -0.3783337 0
vn 0 -0.3783337 0
vn 0 -0.3783337 0

vt -0.09486723 -10
vt -3.000001 -10
vt -0.09486723 2.790384
vt -3.000001 2.790384
vt 2.999997 -10
vt -0.7839354 -10
vt 2.999997 2.790384
vt -0.7839354 2.790384
vt 3.000001 -10
vt 0.09486723 -10
vt 3.000001 2.790384
vt 0.09486723 2.790384
vt 0.7839354 -10
vt -2.999997 -10
vt 0.7839354 2.790384
vt -2.999997 2.790384
vt 0.09486723 2.999997
vt 3.000001 2.999997
vt 0.09486723 -0.7839354
vt 3.000001 -0.7839354
vt -0.09486723 -0.7839354
vt -3.000001 -0.7839354
vt -0.09486723 2.999997
vt -3.000001 2.999997

g buildings009 (310)
usemtl Buildings
f 3/3/3 4/4/4 2/2/2 1/1/1
f 7/7/7 8/8/8 6/6/6 5/5/5
f 11/11/11 12/12/12 10/10/10 9/9/9
f 15/15/15 16/16/16 14/14/14 13/13/13
f 19/19/19 20/20/20 18/18/18 17/17/17
f 23/23/23 24/24/24 22/22/22 21/21/21

