# Exported from ProBuilder
# http://www.procore3d.com/probuilder
# 6/26/2018 1:16:17 PM

mtllib ./buildings009_(329).mtl
o buildings009 (329)

g buildings009 (329)
v 300.4323 0.6800001 10.8359
v 300.4323 0.6800001 0.3129115
v 300.4323 5.519033 10.8359
v 300.4323 5.519033 0.3129115
v 300.4323 0.6800001 0.3129115
v 306.1264 0.6800001 0.3129122
v 300.4323 5.519033 0.3129115
v 306.1264 5.519033 0.3129122
v 306.1264 0.6800001 0.3129122
v 306.1264 0.6800001 10.8359
v 306.1264 5.519033 0.3129122
v 306.1264 5.519033 10.8359
v 306.1264 0.6800001 10.8359
v 300.4323 0.6800001 10.8359
v 306.1264 5.519033 10.8359
v 300.4323 5.519033 10.8359
v 300.4323 5.519033 10.8359
v 300.4323 5.519033 0.3129115
v 306.1264 5.519033 10.8359
v 306.1264 5.519033 0.3129122
v 306.1264 0.6800001 10.8359
v 306.1264 0.6800001 0.3129122
v 300.4323 0.6800001 10.8359
v 300.4323 0.6800001 0.3129115

vn -0.9490216 0 -1.131322E-07
vn -0.9490216 0 -1.131322E-07
vn -0.9490216 0 -1.131322E-07
vn -0.9490216 0 -1.131322E-07
vn 8.805201E-08 0 -0.7386339
vn 8.805201E-08 0 -0.7386339
vn 8.805201E-08 0 -0.7386339
vn 8.805201E-08 0 -0.7386339
vn 0.9490216 0 1.131322E-07
vn 0.9490216 0 1.131322E-07
vn 0.9490216 0 1.131322E-07
vn 0.9490216 0 1.131322E-07
vn -8.805201E-08 0 0.7386339
vn -8.805201E-08 0 0.7386339
vn -8.805201E-08 0 0.7386339
vn -8.805201E-08 0 0.7386339
vn 0 0.3783337 0
vn 0 0.3783337 0
vn 0 0.3783337 0
vn 0 0.3783337 0
vn 0 -0.3783337 0
vn 0 -0.3783337 0
vn 0 -0.3783337 0
vn 0 -0.3783337 0

vt 2.999999 -10
vt -11.24656 -10
vt 2.999999 2.790384
vt -11.24656 2.790384
vt 2.999997 -10
vt -3.000003 -10
vt 2.999997 2.790384
vt -3.000003 2.790384
vt 11.24656 -10
vt -2.999999 -10
vt 11.24656 2.790384
vt -2.999999 2.790384
vt 3.000003 -10
vt -2.999997 -10
vt 3.000003 2.790384
vt -2.999997 2.790384
vt -2.999999 2.999997
vt 11.24656 2.999997
vt -2.999999 -3.000003
vt 11.24656 -3.000003
vt 2.999999 -3.000003
vt -11.24656 -3.000003
vt 2.999999 2.999997
vt -11.24656 2.999997

g buildings009 (329)
usemtl Buildings
f 3/3/3 4/4/4 2/2/2 1/1/1
f 7/7/7 8/8/8 6/6/6 5/5/5
f 11/11/11 12/12/12 10/10/10 9/9/9
f 15/15/15 16/16/16 14/14/14 13/13/13
f 19/19/19 20/20/20 18/18/18 17/17/17
f 23/23/23 24/24/24 22/22/22 21/21/21

