# Exported from ProBuilder
# http://www.procore3d.com/probuilder
# 6/26/2018 1:16:14 PM

mtllib ./buildings009_(237).mtl
o buildings009 (237)

g buildings009 (237)
v 384.38 1.449135 16.28883
v 378.38 1.449135 16.28883
v 384.38 8.330864 16.28883
v 378.38 8.330864 16.28883
v 378.38 1.449135 16.28883
v 378.38 1.449135 10.28883
v 378.38 8.330864 16.28883
v 378.38 8.330864 10.28883
v 378.38 1.449135 10.28883
v 384.38 1.449135 10.28883
v 378.38 8.330864 10.28883
v 384.38 8.330864 10.28883
v 384.38 1.449135 10.28883
v 384.38 1.449135 16.28883
v 384.38 8.330864 10.28883
v 384.38 8.330864 16.28883
v 384.38 8.330864 16.28883
v 378.38 8.330864 16.28883
v 384.38 8.330864 10.28883
v 378.38 8.330864 10.28883
v 384.38 1.449135 10.28883
v 378.38 1.449135 10.28883
v 384.38 1.449135 16.28883
v 378.38 1.449135 16.28883

vn 0 0 1
vn 0 0 1
vn 0 0 1
vn 0 0 1
vn -1 0 0
vn -1 0 0
vn -1 0 0
vn -1 0 0
vn 0 0 -1
vn 0 0 -1
vn 0 0 -1
vn 0 0 -1
vn 1 0 0
vn 1 0 0
vn 1 0 0
vn 1 0 0
vn 0 0.3440864 0
vn 0 0.3440864 0
vn 0 0.3440864 0
vn 0 0.3440864 0
vn 0 -0.3440864 0
vn 0 -0.3440864 0
vn 0 -0.3440864 0
vn 0 -0.3440864 0

vt 3 -10
vt -3 -10
vt 3 10
vt -3 10
vt 3 -10
vt -3 -10
vt 3 10
vt -3 10
vt 3 -10
vt -3 -10
vt 3 10
vt -3 10
vt 3 -10
vt -3 -10
vt 3 10
vt -3 10
vt -3 3
vt 3 3
vt -3 -3
vt 3 -3
vt 3 -3
vt -3 -3
vt 3 3
vt -3 3

g buildings009 (237)
usemtl Buildings
f 3/3/3 4/4/4 2/2/2 1/1/1
f 7/7/7 8/8/8 6/6/6 5/5/5
f 11/11/11 12/12/12 10/10/10 9/9/9
f 15/15/15 16/16/16 14/14/14 13/13/13
f 19/19/19 20/20/20 18/18/18 17/17/17
f 23/23/23 24/24/24 22/22/22 21/21/21

