# Exported from ProBuilder
# http://www.procore3d.com/probuilder
# 6/26/2018 1:16:19 PM

mtllib ./buildings009_(124).mtl
o buildings009 (124)

g buildings009 (124)
v 373.28 19.13 5.28883
v 369.7433 19.13 5.28883
v 373.28 25.05839 5.28883
v 369.7433 25.73957 5.28883
v 369.7433 19.13 5.28883
v 369.7433 19.13 2.099918
v 369.7433 25.73957 5.28883
v 369.7433 25.73957 2.099918
v 369.7433 19.13 2.099918
v 373.28 19.13 2.099918
v 369.7433 25.73957 2.099918
v 373.28 25.05988 2.099918
v 373.28 19.13 2.099918
v 373.28 19.13 5.28883
v 373.28 25.05988 2.099918
v 373.28 25.05839 5.28883
v 373.28 25.05839 5.28883
v 369.7433 25.73957 5.28883
v 373.28 25.05988 2.099918
v 369.7433 25.73957 2.099918
v 373.28 19.13 2.099918
v 369.7433 19.13 2.099918
v 373.28 19.13 5.28883
v 369.7433 19.13 5.28883

vn 0 0 0.5314852
vn 0 0 0.5314852
vn 0 0 0.5314852
vn 0 0 0.5314852
vn -0.58944 0 0
vn -0.58944 0 0
vn -0.58944 0 0
vn -0.58944 0 0
vn 0 0 -0.5314852
vn 0 0 -0.5314851
vn 0 0 -0.5314852
vn 0 0 -0.5314852
vn 0.58944 0 0
vn 0.58944 0 0
vn 0.58944 0 0
vn 0.58944 0 0
vn 0.1879112 0.3195769 0.0001850407
vn 0.1880955 0.3195414 0
vn 0.1877268 0.3196122 0.0003701225
vn 0.1879112 0.3195769 0.0001850407
vn 0 -0.3371692 0
vn 0 -0.3371692 0
vn 0 -0.3371692 0
vn 0 -0.3371692 0

vt 3.000003 -9.801556
vt -2.999997 -9.801556
vt 3.000003 7.781282
vt -2.999997 9.801559
vt 3 -9.801556
vt -3 -9.801556
vt 3 9.801559
vt -3 9.801559
vt 2.999997 -9.801556
vt -3.000003 -9.801556
vt 2.999997 9.801559
vt -3.000003 7.78569
vt 3 -9.801556
vt -3 -9.801556
vt 3 7.78569
vt -3 7.781282
vt -0.3600809 2.994198
vt 5.970916 2.994198
vt -0.3586743 -3.005803
vt 5.970916 -3.0058
vt 3.000003 -3
vt -2.999997 -3
vt 3.000003 3
vt -2.999997 3

g buildings009 (124)
usemtl Buildings
f 3/3/3 4/4/4 2/2/2 1/1/1
f 7/7/7 8/8/8 6/6/6 5/5/5
f 11/11/11 12/12/12 10/10/10 9/9/9
f 15/15/15 16/16/16 14/14/14 13/13/13
f 19/19/19 20/20/20 18/18/18 17/17/17
f 23/23/23 24/24/24 22/22/22 21/21/21

