# Exported from ProBuilder
# http://www.procore3d.com/probuilder
# 6/26/2018 1:16:04 PM

mtllib ./buildings009_(267).mtl
o buildings009 (267)

g buildings009 (267)
v 367.58 0.3190663 52.34882
v 361.58 0.3190663 52.34882
v 367.58 9.463254 52.34882
v 361.58 9.463254 52.34882
v 361.58 0.3190663 52.34882
v 361.58 0.3190663 46.34882
v 361.58 9.463254 52.34882
v 361.58 9.463254 46.34882
v 361.58 0.3190663 46.34882
v 367.58 0.3190663 46.34882
v 361.58 9.463254 46.34882
v 367.58 9.463254 46.34882
v 367.58 0.3190663 46.34882
v 367.58 0.3190663 52.34882
v 367.58 9.463254 46.34882
v 367.58 9.463254 52.34882
v 367.58 9.463254 52.34882
v 361.58 9.463254 52.34882
v 367.58 9.463254 46.34882
v 361.58 9.463254 46.34882
v 367.58 0.3190663 46.34882
v 361.58 0.3190663 46.34882
v 367.58 0.3190663 52.34882
v 361.58 0.3190663 52.34882

vn 0 0 1
vn 0 0 1
vn 0 0 1
vn 0 0 1
vn -1 0 0
vn -1 0 0
vn -1 0 0
vn -1 0 0
vn 0 0 -1
vn 0 0 -1
vn 0 0 -1
vn 0 0 -1
vn 1 0 0
vn 1 0 0
vn 1 0 0
vn 1 0 0
vn 0 0.7770933 0
vn 0 0.7770933 0
vn 0 0.7770933 0
vn 0 0.7770933 0
vn 0 -0.7770933 0
vn 0 -0.7770933 0
vn 0 -0.7770933 0
vn 0 -0.7770933 0

vt 3 -10
vt -3 -10
vt 3 1.767169
vt -3 1.767169
vt 3 -10
vt -3 -10
vt 3 1.767169
vt -3 1.767169
vt 3 -10
vt -3 -10
vt 3 1.767169
vt -3 1.767169
vt 3 -10
vt -3 -10
vt 3 1.767169
vt -3 1.767169
vt -3 3
vt 3 3
vt -3 -3
vt 3 -3
vt 3 -3
vt -3 -3
vt 3 3
vt -3 3

g buildings009 (267)
usemtl Buildings
f 3/3/3 4/4/4 2/2/2 1/1/1
f 7/7/7 8/8/8 6/6/6 5/5/5
f 11/11/11 12/12/12 10/10/10 9/9/9
f 15/15/15 16/16/16 14/14/14 13/13/13
f 19/19/19 20/20/20 18/18/18 17/17/17
f 23/23/23 24/24/24 22/22/22 21/21/21

