# Exported from ProBuilder
# http://www.procore3d.com/probuilder
# 6/26/2018 1:16:13 PM

mtllib ./buildings009_(143).mtl
o buildings009 (143)

g buildings009 (143)
v 316.8698 0.6799999 17.10428
v 316.3302 0.6799999 17.10428
v 316.8698 17.25103 17.10428
v 316.3302 17.25103 17.10428
v 316.3302 0.6799999 17.10428
v 316.3302 0.6799999 15.87337
v 316.3302 17.25103 17.10428
v 316.3302 17.25103 15.87337
v 316.3302 0.6799999 15.87337
v 316.8698 0.6799999 15.87337
v 316.3302 17.25103 15.87337
v 316.8698 17.25103 15.87337
v 316.8698 0.6799999 15.87337
v 316.8698 0.6799999 17.10428
v 316.8698 17.25103 15.87337
v 316.8698 17.25103 17.10428
v 316.8698 17.25103 17.10428
v 316.3302 17.25103 17.10428
v 316.8698 17.25103 15.87337
v 316.3302 17.25103 15.87337
v 316.8698 0.6799999 15.87337
v 316.3302 0.6799999 15.87337
v 316.8698 0.6799999 17.10428
v 316.3302 0.6799999 17.10428

vn 0 0 0.2051512
vn 0 0 0.2051512
vn 0 0 0.2051512
vn 0 0 0.2051512
vn -0.08994471 0 0
vn -0.08994471 0 0
vn -0.08994471 0 0
vn -0.08994471 0 0
vn 0 0 -0.2051512
vn 0 0 -0.2051512
vn 0 0 -0.2051512
vn 0 0 -0.2051512
vn 0.08994471 0 0
vn 0.08994471 0 0
vn 0.08994471 0 0
vn 0.08994471 0 0
vn 0 0.8285517 0
vn 0 0.8285517 0
vn 0 0.8285517 0
vn 0 0.8285517 0
vn 0 -0.8285517 0
vn 0 -0.8285517 0
vn 0 -0.8285517 0
vn 0 -0.8285517 0

vt 3.000026 -10
vt -2.999974 -10
vt 3.000026 10
vt -2.999974 10
vt 3 -10
vt -3 -10
vt 3 10
vt -3 10
vt 2.999974 -10
vt -3.000026 -10
vt 2.999974 10
vt -3.000026 10
vt 3 -10
vt -3 -10
vt 3 10
vt -3 10
vt -3.000026 3
vt 2.999974 3
vt -3.000026 -3
vt 2.999974 -3
vt 3.000026 -3
vt -2.999974 -3
vt 3.000026 3
vt -2.999974 3

g buildings009 (143)
usemtl jump_suface
f 3/3/3 4/4/4 2/2/2 1/1/1
f 7/7/7 8/8/8 6/6/6 5/5/5
f 11/11/11 12/12/12 10/10/10 9/9/9
f 15/15/15 16/16/16 14/14/14 13/13/13
f 19/19/19 20/20/20 18/18/18 17/17/17
f 23/23/23 24/24/24 22/22/22 21/21/21

