# Exported from ProBuilder
# http://www.procore3d.com/probuilder
# 6/26/2018 1:16:08 PM

mtllib ./buildings009_(453).mtl
o buildings009 (453)

g buildings009 (453)
v 393.1064 33.55173 -18.43742
v 393.1064 33.55173 -23.52144
v 393.1064 34.18826 -18.43742
v 393.1064 34.18826 -23.52144
v 393.1064 33.55173 -23.52144
v 397.2483 32.30989 -23.52144
v 393.1064 34.18826 -23.52144
v 397.2483 32.94642 -23.52144
v 397.2483 32.30989 -23.52144
v 397.2483 32.30989 -18.43742
v 397.2483 32.94642 -23.52144
v 397.2483 32.94642 -18.43742
v 397.2483 32.30989 -18.43742
v 393.1064 33.55173 -18.43742
v 397.2483 32.94642 -18.43742
v 393.1064 34.18826 -18.43742
v 393.1064 34.18826 -18.43742
v 393.1064 34.18826 -23.52144
v 397.2483 32.94642 -18.43742
v 397.2483 32.94642 -23.52144
v 397.2483 32.30989 -18.43742
v 397.2483 32.30989 -23.52144
v 393.1064 33.55173 -18.43742
v 393.1064 33.55173 -23.52144

vn -0.8578728 0 -1.022664E-07
vn -0.8578728 0 -1.022664E-07
vn -0.8578728 0 -1.022664E-07
vn -0.8578728 0 -1.022664E-07
vn 5.502172E-08 0 -0.4615557
vn 5.502172E-08 0 -0.4615557
vn 5.502172E-08 0 -0.4615557
vn 5.502172E-08 0 -0.4615557
vn 0.8578728 0 1.022664E-07
vn 0.8578728 0 1.022664E-07
vn 0.8578728 0 1.022664E-07
vn 0.8578728 0 1.022664E-07
vn -5.502172E-08 0 0.4615557
vn -5.502172E-08 0 0.4615557
vn -5.502172E-08 0 0.4615557
vn -5.502172E-08 0 0.4615557
vn 0.8513799 0.003908289 1.014924E-07
vn 0.8513799 0.003908289 1.014924E-07
vn 0.8513799 0.003908289 1.014924E-07
vn 0.8513799 0.003908289 1.014924E-07
vn -0.85138 -0.003908291 -1.014924E-07
vn -0.85138 -0.003908291 -1.014924E-07
vn -0.85138 -0.003908291 -1.014924E-07
vn -0.85138 -0.003908291 -1.014924E-07

vt -6.188293 -10
vt -17.20326 -10
vt -6.188293 10
vt -17.20326 10
vt 2.999998 -10
vt -1.828077 -49.01904
vt 2.999998 10
vt -1.828077 -29.01905
vt 17.20326 -49.01904
vt 6.188293 -49.01904
vt 17.20326 -29.01905
vt 6.188293 -29.01905
vt 1.828077 -49.01904
vt -2.999998 -10
vt 1.828077 -29.01905
vt -2.999998 10
vt 6.188293 10.29271
vt 17.20326 10.29271
vt 6.188293 -29.02391
vt 17.20326 -29.02391
vt -6.188293 -48.87252
vt -17.20326 -48.87252
vt -6.188293 -9.555915
vt -17.20326 -9.555915

g buildings009 (453)
usemtl Buildings
f 3/3/3 4/4/4 2/2/2 1/1/1
f 7/7/7 8/8/8 6/6/6 5/5/5
f 11/11/11 12/12/12 10/10/10 9/9/9
f 15/15/15 16/16/16 14/14/14 13/13/13
f 19/19/19 20/20/20 18/18/18 17/17/17
f 23/23/23 24/24/24 22/22/22 21/21/21

