# Exported from ProBuilder
# http://www.procore3d.com/probuilder
# 6/26/2018 1:16:08 PM

mtllib ./buildings009_(218).mtl
o buildings009 (218)

g buildings009 (218)
v 347.3654 0.7183404 -42.14359
v 340.0887 0.7183404 -49.43942
v 347.3654 32.28662 -42.14359
v 340.0887 32.28662 -49.43942
v 340.0887 0.7183404 -49.43942
v 346.2326 0.7183404 -55.56713
v 340.0887 32.28662 -49.43942
v 346.2326 32.28662 -55.56713
v 346.2326 0.7183404 -55.56713
v 353.5092 0.7183404 -48.2713
v 346.2326 32.28662 -55.56713
v 353.5092 32.28662 -48.2713
v 353.5092 0.7183404 -48.2713
v 347.3654 0.7183404 -42.14359
v 353.5092 32.28662 -48.2713
v 347.3654 32.28662 -42.14359
v 347.2534 50.48166 -46.22499
v 344.1698 50.48166 -49.31672
v 349.4282 50.48166 -48.394
v 346.3445 50.48166 -51.48573
v 353.5092 0.7183404 -48.2713
v 346.2326 0.7183404 -55.56713
v 347.3654 0.7183404 -42.14359
v 340.0887 0.7183404 -49.43942
v 347.3654 32.28662 -42.14359
v 340.0887 32.28662 -49.43942
v 347.2521 32.28678 -43.48594
v 341.4308 32.28678 -49.32261
v 353.5092 32.28662 -48.2713
v 347.3654 32.28662 -42.14359
v 352.1672 32.28678 -48.38811
v 347.2521 32.28678 -43.48594
v 340.0887 32.28662 -49.43942
v 346.2326 32.28662 -55.56713
v 341.4308 32.28678 -49.32261
v 346.3459 32.28678 -54.22478
v 346.2326 32.28662 -55.56713
v 353.5092 32.28662 -48.2713
v 346.3459 32.28678 -54.22478
v 352.1672 32.28678 -48.38811
v 347.2521 32.28678 -43.48594
v 341.4308 32.28678 -49.32261
v 347.2534 50.48166 -46.22499
v 344.1698 50.48166 -49.31672
v 352.1672 32.28678 -48.38811
v 347.2521 32.28678 -43.48594
v 349.4282 50.48166 -48.394
v 347.2534 50.48166 -46.22499
v 341.4308 32.28678 -49.32261
v 346.3459 32.28678 -54.22478
v 344.1698 50.48166 -49.31672
v 346.3445 50.48166 -51.48573
v 346.3459 32.28678 -54.22478
v 352.1672 32.28678 -48.38811
v 346.3445 50.48166 -51.48573
v 349.4282 50.48166 -48.394

vn -1.023977 0 1.021286
vn -1.023977 0 1.021286
vn -1.023977 0 1.021286
vn -1.023977 0 1.021286
vn -1.212777 0 -1.215972
vn -1.212777 0 -1.215972
vn -1.212777 0 -1.215972
vn -1.212777 0 -1.215972
vn 1.023977 0 -1.021286
vn 1.023977 0 -1.021286
vn 1.023977 0 -1.021286
vn 1.023977 0 -1.021286
vn 1.212777 0 1.215972
vn 1.212777 0 1.215972
vn 1.212777 0 1.215972
vn 1.212777 0 1.215972
vn 0 1.578414 0
vn 0 1.578414 0
vn 0 1.578414 0
vn 0 1.578414 0
vn 0 -1.578414 0
vn 0 -1.578414 0
vn 0 -1.578414 0
vn 0 -1.578414 0
vn -0.000169267 1.578414 0.0001688222
vn -0.000169267 1.578414 0.0001688222
vn -0.000169267 1.578414 0.0001688222
vn -0.000169267 1.578414 0.0001688222
vn 0.0002004764 1.578414 0.0002010046
vn 0.0002004764 1.578414 0.0002010045
vn 0.0002004764 1.578414 0.0002010046
vn 0.0002004764 1.578414 0.0002010046
vn -0.0002004764 1.578414 -0.0002010046
vn -0.0002004764 1.578414 -0.0002010045
vn -0.0002004764 1.578414 -0.0002010046
vn -0.0002004764 1.578414 -0.0002010046
vn 0.000169267 1.578414 -0.0001688222
vn 0.000169267 1.578414 -0.0001688222
vn 0.000169267 1.578414 -0.0001688222
vn 0.000169267 1.578414 -0.0001688222
vn -1.017147 0.1820011 1.014474
vn -1.017147 0.1820011 1.014474
vn -1.017147 0.1820011 1.014474
vn -1.017147 0.1820011 1.014474
vn 1.207005 0.1538153 1.210185
vn 1.207005 0.1538153 1.210185
vn 1.207005 0.1538153 1.210185
vn 1.207005 0.1538153 1.210185
vn -1.207005 0.1538153 -1.210185
vn -1.207005 0.1538153 -1.210185
vn -1.207005 0.1538153 -1.210185
vn -1.207005 0.1538153 -1.210185
vn 1.017147 0.1820011 -1.014474
vn 1.017147 0.1820011 -1.014474
vn 1.017147 0.1820011 -1.014474
vn 1.017147 0.1820011 -1.014474

vt 3.000001 -15.76371
vt -2.999999 -15.76371
vt 3.000001 4.23629
vt -2.999999 4.23629
vt 3 -15.76371
vt -3 -15.76371
vt 3 4.23629
vt -3 4.23629
vt 2.999999 -15.76371
vt -3.000001 -15.76371
vt 2.999999 4.23629
vt -3.000001 4.23629
vt 3 -15.76371
vt -3 -15.76371
vt 3 4.23629
vt -3 4.23629
vt -1.2713 1.061902
vt 1.271297 1.061902
vt -1.2713 -1.061901
vt 1.271297 -1.061901
vt 3.000001 -3
vt -2.999999 -3
vt 3.000001 3
vt -2.999999 3
vt -3.000001 2.9993
vt 2.999999 2.9993
vt -2.400002 2.3993
vt 2.399999 2.3993
vt -2.999301 -3
vt -2.999301 3
vt -2.399301 -2.4
vt -2.399301 2.400001
vt 2.999298 3
vt 2.999298 -3
vt 2.399298 2.400001
vt 2.399298 -2.4
vt 2.999999 -2.999299
vt -3.000001 -2.999299
vt 2.399999 -2.399299
vt -2.400002 -2.399299
vt 2.400002 3.931397
vt -2.399999 3.931397
vt 1.2713 15.53612
vt -1.271297 15.53612
vt 2.4 3.982348
vt -2.400001 3.982348
vt 1.061901 15.5648
vt -1.061902 15.5648
vt 2.400001 3.982348
vt -2.4 3.982348
vt 1.061902 15.5648
vt -1.061901 15.5648
vt 2.399999 3.931397
vt -2.400002 3.931397
vt 1.271297 15.53612
vt -1.2713 15.53612

g buildings009 (218)
usemtl Buildings
f 3/3/3 4/4/4 2/2/2 1/1/1
f 7/7/7 8/8/8 6/6/6 5/5/5
f 11/11/11 12/12/12 10/10/10 9/9/9
f 15/15/15 16/16/16 14/14/14 13/13/13
f 19/19/19 20/20/20 18/18/18 17/17/17
f 23/23/23 24/24/24 22/22/22 21/21/21
f 27/27/27 28/28/28 26/26/26 25/25/25
f 31/31/31 32/32/32 30/30/30 29/29/29
f 35/35/35 36/36/36 34/34/34 33/33/33
f 39/39/39 40/40/40 38/38/38 37/37/37
f 43/43/43 44/44/44 42/42/42 41/41/41
f 47/47/47 48/48/48 46/46/46 45/45/45
f 51/51/51 52/52/52 50/50/50 49/49/49
f 55/55/55 56/56/56 54/54/54 53/53/53

