# Exported from ProBuilder
# http://www.procore3d.com/probuilder
# 6/26/2018 1:16:07 PM

mtllib ./buildings009_(450).mtl
o buildings009 (450)

g buildings009 (450)
v 387.0935 59.66174 -8.361818
v 380.9987 59.66174 -8.361818
v 387.0935 60.29826 -8.361818
v 380.9987 60.29826 -8.361818
v 380.9987 59.66174 -8.361818
v 380.9987 59.66174 -15.43032
v 380.9987 60.29826 -8.361818
v 380.9987 60.29826 -15.43032
v 380.9987 59.66174 -15.43032
v 387.0935 59.66174 -15.43032
v 380.9987 60.29826 -15.43032
v 387.0935 60.29826 -15.43032
v 387.0935 59.66174 -15.43032
v 387.0935 59.66174 -8.361818
v 387.0935 60.29826 -15.43032
v 387.0935 60.29826 -8.361818
v 387.0935 60.29826 -8.361818
v 380.9987 60.29826 -8.361818
v 387.0935 60.29826 -15.43032
v 380.9987 60.29826 -15.43032
v 387.0935 59.66174 -15.43032
v 380.9987 59.66174 -15.43032
v 387.0935 59.66174 -8.361818
v 380.9987 59.66174 -8.361818

vn 0 0 0.4517921
vn 0 0 0.4517921
vn 0 0 0.4517921
vn 0 0 0.4517921
vn -0.4869639 0 0
vn -0.4869639 0 0
vn -0.4869639 0 0
vn -0.4869639 0 0
vn 0 0 -0.4517921
vn 0 0 -0.4517921
vn 0 0 -0.4517921
vn 0 0 -0.4517921
vn 0.4869639 0 0
vn 0.4869639 0 0
vn 0.4869639 0 0
vn 0.4869639 0 0
vn 0 0.0318265 0
vn 0 0.0318265 0
vn 0 0.0318265 0
vn 0 0.0318265 0
vn 0 -0.0318265 0
vn 0 -0.0318265 0
vn 0 -0.0318265 0
vn 0 -0.0318265 0

vt -9.808692 -10
vt -22.32454 -10
vt -9.808692 10
vt -22.32454 10
vt 0.7511268 -10
vt -14.89434 -10
vt 0.7511268 10
vt -14.89434 10
vt 22.32454 -10
vt 9.808692 -10
vt 22.32454 10
vt 9.808692 10
vt 14.89434 -10
vt -0.7511268 -10
vt 14.89434 10
vt -0.7511268 10
vt 9.808692 0.7511268
vt 22.32454 0.7511268
vt 9.808692 -14.89434
vt 22.32454 -14.89434
vt -9.808692 -14.89434
vt -22.32454 -14.89434
vt -9.808692 0.7511268
vt -22.32454 0.7511268

g buildings009 (450)
usemtl Buildings
f 3/3/3 4/4/4 2/2/2 1/1/1
f 7/7/7 8/8/8 6/6/6 5/5/5
f 11/11/11 12/12/12 10/10/10 9/9/9
f 15/15/15 16/16/16 14/14/14 13/13/13
f 19/19/19 20/20/20 18/18/18 17/17/17
f 23/23/23 24/24/24 22/22/22 21/21/21

