# Exported from ProBuilder
# http://www.procore3d.com/probuilder
# 6/26/2018 1:16:20 PM

mtllib ./buildings009_(214).mtl
o buildings009 (214)

g buildings009 (214)
v 397.4303 18.37856 -3.915145
v 390.6297 18.37856 -3.915145
v 397.4303 79.94966 -3.915145
v 390.6297 79.94966 -3.915145
v 390.6297 18.37856 -3.915145
v 390.6297 18.37856 -10.7672
v 390.6297 79.94966 -3.915145
v 390.6297 79.94966 -10.7672
v 390.6297 18.37856 -10.7672
v 397.4303 18.37856 -10.7672
v 390.6297 79.94966 -10.7672
v 397.4303 79.94966 -10.7672
v 397.4303 18.37856 -10.7672
v 397.4303 18.37856 -3.915145
v 397.4303 79.94966 -10.7672
v 397.4303 79.94966 -3.915145
v 397.4303 79.94966 -3.915145
v 390.6297 79.94966 -3.915145
v 397.4303 79.94966 -10.7672
v 390.6297 79.94966 -10.7672
v 397.4303 18.37856 -10.7672
v 390.6297 18.37856 -10.7672
v 397.4303 18.37856 -3.915145
v 390.6297 18.37856 -3.915145

vn 0 0 1.14201
vn 0 0 1.14201
vn 0 0 1.14201
vn 0 0 1.14201
vn -1.133428 0 0
vn -1.133428 0 0
vn -1.133428 0 0
vn -1.133428 0 0
vn 0 0 -1.14201
vn 0 0 -1.14201
vn 0 0 -1.14201
vn 0 0 -1.14201
vn 1.133428 0 0
vn 1.133428 0 0
vn 1.133428 0 0
vn 1.133428 0 0
vn 0 0.7901438 0
vn 0 0.7901438 0
vn 0 0.7901438 0
vn 0 0.7901438 0
vn 0 -0.7901438 0
vn 0 -0.7901438 0
vn 0 -0.7901438 0
vn 0 -0.7901438 0

vt 3 -10
vt -3 -10
vt 3 67.92392
vt -3 67.92392
vt 2.999998 -10
vt -3.000002 -10
vt 2.999998 67.92392
vt -3.000002 67.92392
vt 3 -10
vt -3 -10
vt 3 67.92392
vt -3 67.92392
vt 3.000002 -10
vt -2.999998 -10
vt 3.000002 67.92392
vt -2.999998 67.92392
vt -3 2.999998
vt 3 2.999998
vt -3 -3.000002
vt 3 -3.000002
vt 3 -3.000002
vt -3 -3.000002
vt 3 2.999998
vt -3 2.999998

g buildings009 (214)
usemtl Buildings
f 3/3/3 4/4/4 2/2/2 1/1/1
f 7/7/7 8/8/8 6/6/6 5/5/5
f 11/11/11 12/12/12 10/10/10 9/9/9
f 15/15/15 16/16/16 14/14/14 13/13/13
f 19/19/19 20/20/20 18/18/18 17/17/17
f 23/23/23 24/24/24 22/22/22 21/21/21

