# Exported from ProBuilder
# http://www.procore3d.com/probuilder
# 6/26/2018 1:16:18 PM

mtllib ./Cylinder_(22).mtl
o Cylinder (22)

g Cylinder (22)
v 356.1481 4.067212 3.422356
v 356.1481 8.363349 3.422356
v 356.6171 4.067212 4.554593
v 356.6171 8.363349 4.554593
v 356.6171 4.067212 4.554593
v 356.6171 8.363349 4.554593
v 357.7494 4.067212 5.023582
v 357.7494 8.363349 5.023582
v 357.7494 4.067212 5.023582
v 357.7494 8.363349 5.023582
v 358.8816 4.067212 4.554593
v 358.8816 8.363349 4.554593
v 358.8816 4.067212 4.554593
v 358.8816 8.363349 4.554593
v 359.3506 4.067212 3.422355
v 359.3506 8.363349 3.422355
v 359.3506 4.067212 3.422355
v 359.3506 8.363349 3.422355
v 358.8816 4.067212 2.290118
v 358.8816 8.363349 2.290118
v 358.8816 4.067212 2.290118
v 358.8816 8.363349 2.290118
v 357.7494 4.067212 1.82113
v 357.7494 8.363349 1.82113
v 357.7494 4.067212 1.82113
v 357.7494 8.363349 1.82113
v 356.6171 4.067212 2.290118
v 356.6171 8.363349 2.290118
v 356.6171 4.067212 2.290118
v 356.6171 8.363349 2.290118
v 356.1481 4.067212 3.422356
v 356.1481 8.363349 3.422356
v 356.1481 4.067212 3.422356
v 357.7494 4.067212 3.422356
v 356.6171 4.067212 4.554593
v 357.0338 43.11831 3.422356
v 357.7494 43.11831 3.422356
v 357.2434 43.11831 3.928311
v 356.6171 4.067212 4.554593
v 357.7494 4.067212 3.422356
v 357.7494 4.067212 5.023582
v 357.2434 43.11831 3.928311
v 357.7494 43.11831 3.422356
v 357.7494 43.11831 4.137884
v 357.7494 4.067212 5.023582
v 357.7494 4.067212 3.422356
v 358.8816 4.067212 4.554593
v 357.7494 43.11831 4.137884
v 357.7494 43.11831 3.422356
v 358.2553 43.11831 3.928311
v 358.8816 4.067212 4.554593
v 357.7494 4.067212 3.422356
v 359.3506 4.067212 3.422355
v 358.2553 43.11831 3.928311
v 357.7494 43.11831 3.422356
v 358.4649 43.11831 3.422356
v 359.3506 4.067212 3.422355
v 357.7494 4.067212 3.422356
v 358.8816 4.067212 2.290118
v 358.4649 43.11831 3.422356
v 357.7494 43.11831 3.422356
v 358.2553 43.11831 2.916401
v 358.8816 4.067212 2.290118
v 357.7494 4.067212 3.422356
v 357.7494 4.067212 1.82113
v 358.2553 43.11831 2.916401
v 357.7494 43.11831 3.422356
v 357.7494 43.11831 2.706827
v 357.7494 4.067212 1.82113
v 357.7494 4.067212 3.422356
v 356.6171 4.067212 2.290118
v 357.7494 43.11831 2.706827
v 357.7494 43.11831 3.422356
v 357.2434 43.11831 2.916401
v 356.6171 4.067212 2.290118
v 357.7494 4.067212 3.422356
v 356.1481 4.067212 3.422356
v 357.2434 43.11831 2.916401
v 357.7494 43.11831 3.422356
v 357.0338 43.11831 3.422356
v 357.7494 8.363349 5.023582
v 356.6171 8.363349 4.554593
v 357.7494 13.01873 5.023582
v 356.6171 13.01873 4.554593
v 358.8816 8.363349 4.554593
v 357.7494 8.363349 5.023582
v 358.8816 13.01873 4.554593
v 357.7494 13.01873 5.023582
v 356.6171 8.363349 4.554593
v 356.1481 8.363349 3.422356
v 356.6171 13.01873 4.554593
v 356.1481 13.01873 3.422356
v 356.1481 8.363349 3.422356
v 356.6171 8.363349 2.290118
v 356.1481 13.01873 3.422356
v 356.6171 13.01873 2.290118
v 356.6171 8.363349 2.290118
v 357.7494 8.363349 1.82113
v 356.6171 13.01873 2.290118
v 357.7494 13.01873 1.82113
v 357.7494 8.363349 1.82113
v 358.8816 8.363349 2.290118
v 357.7494 13.01873 1.82113
v 358.8816 13.01873 2.290118
v 358.8816 8.363349 2.290118
v 359.3506 8.363349 3.422355
v 358.8816 13.01873 2.290118
v 359.3506 13.01873 3.422355
v 359.3506 8.363349 3.422355
v 358.8816 8.363349 4.554593
v 359.3506 13.01873 3.422355
v 358.8816 13.01873 4.554593
v 357.7494 13.01873 5.023582
v 356.6171 13.01873 4.554593
v 357.7494 19.7189 5.023582
v 356.6171 19.7189 4.554593
v 358.8816 13.01873 4.554593
v 357.7494 13.01873 5.023582
v 358.8816 19.7189 4.554593
v 357.7494 19.7189 5.023582
v 356.6171 13.01873 4.554593
v 356.1481 13.01873 3.422356
v 356.6171 19.7189 4.554593
v 356.1481 19.7189 3.422356
v 356.1481 13.01873 3.422356
v 356.6171 13.01873 2.290118
v 356.1481 19.7189 3.422356
v 356.6171 19.7189 2.290118
v 356.6171 13.01873 2.290118
v 357.7494 13.01873 1.82113
v 356.6171 19.7189 2.290118
v 357.7494 19.7189 1.82113
v 357.7494 13.01873 1.82113
v 358.8816 13.01873 2.290118
v 357.7494 19.7189 1.82113
v 358.8816 19.7189 2.290118
v 358.8816 13.01873 2.290118
v 359.3506 13.01873 3.422355
v 358.8816 19.7189 2.290118
v 359.3506 19.7189 3.422355
v 359.3506 13.01873 3.422355
v 358.8816 13.01873 4.554593
v 359.3506 19.7189 3.422355
v 358.8816 19.7189 4.554593
v 357.7494 19.7189 5.023582
v 356.6171 19.7189 4.554593
v 357.7494 22.31548 4.137884
v 357.2434 22.31548 3.928311
v 358.8816 19.7189 4.554593
v 357.7494 19.7189 5.023582
v 358.2553 22.31548 3.928311
v 357.7494 22.31548 4.137884
v 356.6171 19.7189 4.554593
v 356.1481 19.7189 3.422356
v 357.2434 22.31548 3.928311
v 357.0338 22.31548 3.422356
v 356.1481 19.7189 3.422356
v 356.6171 19.7189 2.290118
v 357.0338 22.31548 3.422356
v 357.2434 22.31548 2.916401
v 356.6171 19.7189 2.290118
v 357.7494 19.7189 1.82113
v 357.2434 22.31548 2.916401
v 357.7494 22.31548 2.706827
v 357.7494 19.7189 1.82113
v 358.8816 19.7189 2.290118
v 357.7494 22.31548 2.706827
v 358.2553 22.31548 2.916401
v 358.8816 19.7189 2.290118
v 359.3506 19.7189 3.422355
v 358.2553 22.31548 2.916401
v 358.4649 22.31548 3.422356
v 359.3506 19.7189 3.422355
v 358.8816 19.7189 4.554593
v 358.4649 22.31548 3.422356
v 358.2553 22.31548 3.928311
v 357.7494 22.31548 4.137884
v 357.2434 22.31548 3.928311
v 357.7494 43.11831 4.137884
v 357.2434 43.11831 3.928311
v 358.2553 22.31548 3.928311
v 357.7494 22.31548 4.137884
v 358.2553 43.11831 3.928311
v 357.7494 43.11831 4.137884
v 357.2434 22.31548 3.928311
v 357.0338 22.31548 3.422356
v 357.2434 43.11831 3.928311
v 357.0338 43.11831 3.422356
v 357.0338 22.31548 3.422356
v 357.2434 22.31548 2.916401
v 357.0338 43.11831 3.422356
v 357.2434 43.11831 2.916401
v 357.2434 22.31548 2.916401
v 357.7494 22.31548 2.706827
v 357.2434 43.11831 2.916401
v 357.7494 43.11831 2.706827
v 357.7494 22.31548 2.706827
v 358.2553 22.31548 2.916401
v 357.7494 43.11831 2.706827
v 358.2553 43.11831 2.916401
v 358.2553 22.31548 2.916401
v 358.4649 22.31548 3.422356
v 358.2553 43.11831 2.916401
v 358.4649 43.11831 3.422356
v 358.4649 22.31548 3.422356
v 358.2553 22.31548 3.928311
v 358.4649 43.11831 3.422356
v 358.2553 43.11831 3.928311

vn -2.958679 0 -9.544049E-08
vn -2.958679 0 -9.544049E-08
vn -2.092102 0 2.092102
vn -2.092102 0 2.092102
vn -2.092102 0 2.092102
vn -2.092102 0 2.092102
vn 9.544048E-08 0 2.958679
vn 9.544048E-08 0 2.958679
vn 9.544048E-08 0 2.958679
vn 9.544048E-08 0 2.958679
vn 2.092102 0 2.092103
vn 2.092102 0 2.092103
vn 2.092102 0 2.092103
vn 2.092102 0 2.092103
vn 2.958679 0 4.772025E-08
vn 2.958679 0 4.772025E-08
vn 2.958679 0 4.772025E-08
vn 2.958679 0 4.772025E-08
vn 2.092102 0 -2.092102
vn 2.092102 0 -2.092102
vn 2.092102 0 -2.092102
vn 2.092102 0 -2.092102
vn 2.863214E-07 0 -2.958679
vn 2.863214E-07 0 -2.958679
vn 2.863214E-07 0 -2.958679
vn 2.863214E-07 0 -2.958679
vn -2.092102 0 -2.092102
vn -2.092102 0 -2.092102
vn -2.092102 0 -2.092102
vn -2.092102 0 -2.092102
vn -2.958679 0 -9.544049E-08
vn -2.958679 0 -9.544049E-08
vn 0 -4.296137 0
vn 0 -4.296137 0
vn 0 -4.296137 0
vn 0 4.296137 0
vn 0 4.296137 0
vn 0 4.296137 0
vn 0 -4.296137 0
vn 0 -4.296137 0
vn 0 -4.296137 0
vn 0 4.296137 0
vn 0 4.296137 0
vn 0 4.296137 0
vn 0 -4.296137 0
vn 0 -4.296137 0
vn 0 -4.296137 0
vn 0 4.296137 0
vn 0 4.296137 0
vn 0 4.296137 0
vn 0 -4.296137 0
vn 0 -4.296137 0
vn 0 -4.296137 0
vn 0 4.296137 0
vn 0 4.296137 0
vn 0 4.296137 0
vn 0 -4.296137 0
vn 0 -4.296137 0
vn 0 -4.296137 0
vn 0 4.296137 0
vn 0 4.296137 0
vn 0 4.296137 0
vn 0 -4.296137 0
vn 0 -4.296137 0
vn 0 -4.296137 0
vn 0 4.296137 0
vn 0 4.296137 0
vn 0 4.296137 0
vn 0 -4.296137 0
vn 0 -4.296137 0
vn 0 -4.296137 0
vn 0 4.296137 0
vn 0 4.296137 0
vn 0 4.296137 0
vn 0 -4.296137 0
vn 0 -4.296137 0
vn 0 -4.296137 0
vn 0 4.296137 0
vn 0 4.296137 0
vn 0 4.296137 0
vn -1.225525 0 2.958679
vn -1.225525 0 2.958679
vn -1.225525 0 2.958679
vn -1.225525 0 2.958679
vn 1.225525 0 2.958679
vn 1.225525 0 2.958679
vn 1.225525 0 2.958679
vn 1.225525 0 2.958679
vn -2.958679 0 1.225525
vn -2.958679 0 1.225525
vn -2.958679 0 1.225525
vn -2.958679 0 1.225525
vn -2.958679 0 -1.225525
vn -2.958679 0 -1.225525
vn -2.958679 0 -1.225525
vn -2.958679 0 -1.225525
vn -1.225525 0 -2.95868
vn -1.225525 0 -2.95868
vn -1.225525 0 -2.95868
vn -1.225525 0 -2.95868
vn 1.225525 0 -2.958679
vn 1.225525 0 -2.958679
vn 1.225525 0 -2.958679
vn 1.225525 0 -2.958679
vn 2.958679 0 -1.225525
vn 2.958679 0 -1.225525
vn 2.958679 0 -1.225525
vn 2.958679 0 -1.225525
vn 2.958679 0 1.225525
vn 2.958679 0 1.225525
vn 2.958679 0 1.225525
vn 2.958679 0 1.225525
vn -1.225525 0 2.958679
vn -1.225525 0 2.958679
vn -1.225525 0 2.958679
vn -1.225525 0 2.958679
vn 1.225525 0 2.958679
vn 1.225525 0 2.958679
vn 1.225525 0 2.958679
vn 1.225525 0 2.958679
vn -2.958679 0 1.225525
vn -2.958679 0 1.225525
vn -2.958679 0 1.225525
vn -2.958679 0 1.225525
vn -2.958679 0 -1.225525
vn -2.958679 0 -1.225525
vn -2.958679 0 -1.225525
vn -2.958679 0 -1.225525
vn -1.225525 0 -2.958679
vn -1.225525 0 -2.958679
vn -1.225525 0 -2.958679
vn -1.225525 0 -2.958679
vn 1.225525 0 -2.958679
vn 1.225525 0 -2.958679
vn 1.225525 0 -2.958679
vn 1.225525 0 -2.958679
vn 2.958679 0 -1.225525
vn 2.958679 0 -1.225525
vn 2.958679 0 -1.225525
vn 2.958679 0 -1.225525
vn 2.958679 0 1.225525
vn 2.958679 0 1.225525
vn 2.958679 0 1.225525
vn 2.958679 0 1.225525
vn -1.128797 1.672883 2.725157
vn -1.128797 1.672883 2.725157
vn -1.128797 1.672884 2.725157
vn -1.128797 1.672883 2.725157
vn 1.128797 1.672883 2.725157
vn 1.128797 1.672883 2.725156
vn 1.128797 1.672883 2.725157
vn 1.128797 1.672883 2.725157
vn -2.725156 1.672883 1.128797
vn -2.725156 1.672883 1.128797
vn -2.725156 1.672883 1.128797
vn -2.725156 1.672883 1.128797
vn -2.725156 1.672883 -1.128797
vn -2.725156 1.672883 -1.128797
vn -2.725156 1.672883 -1.128797
vn -2.725156 1.672883 -1.128797
vn -1.128796 1.672883 -2.725157
vn -1.128796 1.672883 -2.725157
vn -1.128797 1.672883 -2.725157
vn -1.128796 1.672883 -2.725157
vn 1.128797 1.672883 -2.725157
vn 1.128797 1.672883 -2.725157
vn 1.128796 1.672884 -2.725157
vn 1.128797 1.672883 -2.725157
vn 2.725156 1.672883 -1.128797
vn 2.725156 1.672883 -1.128797
vn 2.725156 1.672883 -1.128797
vn 2.725156 1.672883 -1.128797
vn 2.725156 1.672883 1.128797
vn 2.725156 1.672883 1.128797
vn 2.725156 1.672883 1.128797
vn 2.725156 1.672883 1.128797
vn -1.225525 0 2.958679
vn -1.225525 0 2.958679
vn -1.225525 0 2.958679
vn -1.225525 0 2.958679
vn 1.225525 0 2.958679
vn 1.225525 0 2.958679
vn 1.225525 0 2.958679
vn 1.225525 0 2.958679
vn -2.958679 0 1.225525
vn -2.958679 0 1.225525
vn -2.958679 0 1.225525
vn -2.958679 0 1.225525
vn -2.958679 0 -1.225526
vn -2.958679 0 -1.225526
vn -2.958679 0 -1.225526
vn -2.958679 0 -1.225526
vn -1.225525 0 -2.95868
vn -1.225525 0 -2.95868
vn -1.225525 0 -2.95868
vn -1.225525 0 -2.95868
vn 1.225525 0 -2.95868
vn 1.225525 0 -2.95868
vn 1.225525 0 -2.95868
vn 1.225525 0 -2.95868
vn 2.958679 0 -1.225525
vn 2.958679 0 -1.225525
vn 2.958679 0 -1.225525
vn 2.958679 0 -1.225525
vn 2.958679 0 1.225525
vn 2.958679 0 1.225525
vn 2.958679 0 1.225525
vn 2.958679 0 1.225525

vt -0.1913417 -2.542467
vt -0.1913417 -1.542467
vt 0.1913418 -2.542467
vt 0.1913418 -1.542467
vt -0.1913416 -2.542467
vt -0.1913416 -1.542467
vt 0.1913419 -2.542467
vt 0.1913419 -1.542467
vt -0.1913416 -2.542467
vt -0.1913416 -1.542467
vt 0.1913418 -2.542467
vt 0.1913418 -1.542467
vt -0.1913416 -2.542467
vt -0.1913416 -1.542467
vt 0.1913419 -2.542467
vt 0.1913419 -1.542467
vt -0.1913418 -2.542467
vt -0.1913418 -1.542467
vt 0.1913416 -2.542467
vt 0.1913416 -1.542467
vt -0.1913419 -2.542467
vt -0.1913419 -1.542467
vt 0.1913416 -2.542467
vt 0.1913416 -1.542467
vt -0.1913418 -2.542467
vt -0.1913418 -1.542467
vt 0.1913415 -2.542467
vt 0.1913415 -1.542467
vt -0.1913418 -2.542467
vt -0.1913418 -1.542467
vt 0.1913417 -2.542467
vt 0.1913417 -1.542467
vt -0.4999999 0
vt 1.574392E-07 0
vt -0.3535532 0.3535534
vt 0.2234313 -2.747462E-09
vt -1.641247E-07 -2.747462E-09
vt 0.1579897 0.1579899
vt -0.3535532 0.3535534
vt 1.574392E-07 0
vt 1.792949E-07 0.5
vt 0.1579897 0.1579899
vt -1.641247E-07 -2.747462E-09
vt -1.738912E-07 0.2234314
vt 1.792949E-07 0.5
vt 1.574392E-07 0
vt 0.3535535 0.3535534
vt -1.738912E-07 0.2234314
vt -1.641247E-07 -2.747462E-09
vt -0.1579901 0.1579899
vt 0.3535535 0.3535534
vt 1.574392E-07 0
vt 0.5000002 -4.371139E-08
vt -0.1579901 0.1579899
vt -1.641247E-07 -2.747462E-09
vt -0.2234316 -2.228046E-08
vt 0.5000002 -4.371139E-08
vt 1.574392E-07 0
vt 0.3535536 -0.3535534
vt -0.2234316 -2.228046E-08
vt -1.641247E-07 -2.747462E-09
vt -0.1579901 -0.1579899
vt 0.3535536 -0.3535534
vt 1.574392E-07 0
vt 1.514768E-07 -0.5
vt -0.1579901 -0.1579899
vt -1.641247E-07 -2.747462E-09
vt -1.614603E-07 -0.2234314
vt 1.514768E-07 -0.5
vt 1.574392E-07 0
vt -0.3535532 -0.3535534
vt -1.614603E-07 -0.2234314
vt -1.641247E-07 -2.747462E-09
vt 0.1579897 -0.1579899
vt -0.3535532 -0.3535534
vt 1.574392E-07 0
vt -0.4999999 0
vt 0.1579897 -0.1579899
vt -1.641247E-07 -2.747462E-09
vt 0.2234313 -2.747462E-09
vt 0.1913419 -1.542467
vt -0.1913416 -1.542467
vt 0.1913419 -0.4588478
vt -0.1913416 -0.4588478
vt 0.1913418 -1.542467
vt -0.1913416 -1.542467
vt 0.1913418 -0.4588478
vt -0.1913416 -0.4588478
vt 0.1913418 -1.542467
vt -0.1913417 -1.542467
vt 0.1913418 -0.4588478
vt -0.1913417 -0.4588478
vt 0.1913417 -1.542467
vt -0.1913418 -1.542467
vt 0.1913417 -0.4588478
vt -0.1913418 -0.4588478
vt 0.1913415 -1.542467
vt -0.1913418 -1.542467
vt 0.1913415 -0.4588478
vt -0.1913418 -0.4588478
vt 0.1913416 -1.542467
vt -0.1913419 -1.542467
vt 0.1913416 -0.4588478
vt -0.1913419 -0.4588478
vt 0.1913416 -1.542467
vt -0.1913418 -1.542467
vt 0.1913416 -0.4588478
vt -0.1913418 -0.4588478
vt 0.1913419 -1.542467
vt -0.1913416 -1.542467
vt 0.1913419 -0.4588478
vt -0.1913416 -0.4588478
vt 0.1913419 -0.4588478
vt -0.1913416 -0.4588478
vt 0.1913419 1.100732
vt -0.1913416 1.100732
vt 0.1913418 -0.4588478
vt -0.1913416 -0.4588478
vt 0.1913418 1.100732
vt -0.1913416 1.100732
vt 0.1913418 -0.4588478
vt -0.1913417 -0.4588478
vt 0.1913418 1.100732
vt -0.1913417 1.100732
vt 0.1913417 -0.4588478
vt -0.1913418 -0.4588478
vt 0.1913417 1.100732
vt -0.1913418 1.100732
vt 0.1913415 -0.4588478
vt -0.1913418 -0.4588478
vt 0.1913415 1.100732
vt -0.1913418 1.100732
vt 0.1913416 -0.4588478
vt -0.1913419 -0.4588478
vt 0.1913416 1.100732
vt -0.1913419 1.100732
vt 0.1913416 -0.4588478
vt -0.1913418 -0.4588478
vt 0.1913416 1.100732
vt -0.1913418 1.100732
vt 0.1913418 -0.4588478
vt -0.1913416 -0.4588478
vt 0.1913418 1.100732
vt -0.1913416 1.100732
vt 0.1913419 0.8339776
vt -0.1913416 0.8339776
vt 0.08550366 1.490169
vt -0.08550337 1.490169
vt 0.1913418 0.8339776
vt -0.1913416 0.8339776
vt 0.08550368 1.490169
vt -0.08550335 1.490169
vt 0.1913418 0.8339776
vt -0.1913417 0.8339776
vt 0.08550356 1.490169
vt -0.08550345 1.490169
vt 0.1913417 0.8339776
vt -0.1913418 0.8339776
vt 0.08550347 1.490169
vt -0.08550359 1.490169
vt 0.1913415 0.8339776
vt -0.1913418 0.8339776
vt 0.08550334 1.490169
vt -0.08550364 1.490169
vt 0.1913416 0.8339776
vt -0.1913418 0.8339776
vt 0.08550338 1.490169
vt -0.0855037 1.490169
vt 0.1913416 0.8339776
vt -0.1913418 0.8339776
vt 0.08550338 1.490169
vt -0.08550359 1.490169
vt 0.1913419 0.8339776
vt -0.1913416 0.8339776
vt 0.08550363 1.490169
vt -0.08550341 1.490169
vt 0.08550366 1.705132
vt -0.08550338 1.705132
vt 0.08550366 6.547349
vt -0.08550338 6.547349
vt 0.0855037 1.705132
vt -0.08550333 1.705132
vt 0.0855037 6.547349
vt -0.08550333 6.547349
vt 0.08550354 1.705132
vt -0.08550347 1.705132
vt 0.08550354 6.547349
vt -0.08550347 6.547349
vt 0.0855035 1.705132
vt -0.08550356 1.705132
vt 0.0855035 6.547349
vt -0.08550356 6.547349
vt 0.08550335 1.705132
vt -0.08550363 1.705132
vt 0.08550335 6.547349
vt -0.08550363 6.547349
vt 0.08550335 1.705132
vt -0.08550373 1.705132
vt 0.08550335 6.547349
vt -0.08550373 6.547349
vt 0.08550338 1.705132
vt -0.08550359 1.705132
vt 0.08550338 6.547349
vt -0.08550359 6.547349
vt 0.08550362 1.705132
vt -0.08550342 1.705132
vt 0.08550362 6.547349
vt -0.08550342 6.547349

g Cylinder (22)_0
usemtl Buildings
f 3/3/3 4/4/4 2/2/2 1/1/1
f 7/7/7 8/8/8 6/6/6 5/5/5
f 11/11/11 12/12/12 10/10/10 9/9/9
f 15/15/15 16/16/16 14/14/14 13/13/13
f 19/19/19 20/20/20 18/18/18 17/17/17
f 23/23/23 24/24/24 22/22/22 21/21/21
f 27/27/27 28/28/28 26/26/26 25/25/25
f 31/31/31 32/32/32 30/30/30 29/29/29
f 83/83/83 84/84/84 82/82/82 81/81/81
f 87/87/87 88/88/88 86/86/86 85/85/85
f 91/91/91 92/92/92 90/90/90 89/89/89
f 95/95/95 96/96/96 94/94/94 93/93/93
f 99/99/99 100/100/100 98/98/98 97/97/97
f 103/103/103 104/104/104 102/102/102 101/101/101
f 107/107/107 108/108/108 106/106/106 105/105/105
f 111/111/111 112/112/112 110/110/110 109/109/109
f 115/115/115 116/116/116 114/114/114 113/113/113
f 119/119/119 120/120/120 118/118/118 117/117/117
f 123/123/123 124/124/124 122/122/122 121/121/121
f 127/127/127 128/128/128 126/126/126 125/125/125
f 131/131/131 132/132/132 130/130/130 129/129/129
f 135/135/135 136/136/136 134/134/134 133/133/133
f 139/139/139 140/140/140 138/138/138 137/137/137
f 143/143/143 144/144/144 142/142/142 141/141/141
f 147/147/147 148/148/148 146/146/146 145/145/145
f 151/151/151 152/152/152 150/150/150 149/149/149
f 155/155/155 156/156/156 154/154/154 153/153/153
f 159/159/159 160/160/160 158/158/158 157/157/157
f 163/163/163 164/164/164 162/162/162 161/161/161
f 167/167/167 168/168/168 166/166/166 165/165/165
f 171/171/171 172/172/172 170/170/170 169/169/169
f 175/175/175 176/176/176 174/174/174 173/173/173
f 179/179/179 180/180/180 178/178/178 177/177/177
f 183/183/183 184/184/184 182/182/182 181/181/181
f 187/187/187 188/188/188 186/186/186 185/185/185
f 191/191/191 192/192/192 190/190/190 189/189/189
f 195/195/195 196/196/196 194/194/194 193/193/193
f 199/199/199 200/200/200 198/198/198 197/197/197
f 203/203/203 204/204/204 202/202/202 201/201/201
f 207/207/207 208/208/208 206/206/206 205/205/205

g Cylinder (22)_1
usemtl Buildings
f 33/33/33 34/34/34 35/35/35
f 39/39/39 40/40/40 41/41/41
f 45/45/45 46/46/46 47/47/47
f 51/51/51 52/52/52 53/53/53
f 57/57/57 58/58/58 59/59/59
f 63/63/63 64/64/64 65/65/65
f 69/69/69 70/70/70 71/71/71
f 75/75/75 76/76/76 77/77/77
f 38/38/38 37/37/37 36/36/36
f 44/44/44 43/43/43 42/42/42
f 50/50/50 49/49/49 48/48/48
f 56/56/56 55/55/55 54/54/54
f 62/62/62 61/61/61 60/60/60
f 68/68/68 67/67/67 66/66/66
f 74/74/74 73/73/73 72/72/72
f 80/80/80 79/79/79 78/78/78

