# Exported from ProBuilder
# http://www.procore3d.com/probuilder
# 6/26/2018 1:16:09 PM

mtllib ./Cylinder_(21).mtl
o Cylinder (21)

g Cylinder (21)
v 378.7182 14.35015 7.228828
v 380.2327 14.35015 7.228828
v 378.7182 14.25931 7.448135
v 380.2327 14.25931 7.448135
v 378.7182 14.25931 7.448135
v 380.2327 14.25931 7.448135
v 378.7182 14.04 7.538975
v 380.2327 14.04 7.538975
v 378.7182 14.04 7.538975
v 380.2327 14.04 7.538975
v 378.7182 13.82069 7.448135
v 380.2327 13.82069 7.448135
v 378.7182 13.82069 7.448135
v 380.2327 13.82069 7.448135
v 378.7182 13.72985 7.228828
v 380.2327 13.72985 7.228828
v 378.7182 13.72985 7.228828
v 380.2327 13.72985 7.228828
v 378.7182 13.82069 7.009521
v 380.2327 13.82069 7.009521
v 378.7182 13.82069 7.009521
v 380.2327 13.82069 7.009521
v 378.7182 14.04 6.918682
v 380.2327 14.04 6.918682
v 378.7182 14.04 6.918682
v 380.2327 14.04 6.918682
v 378.7182 14.25931 7.009521
v 380.2327 14.25931 7.009521
v 378.7182 14.25931 7.009521
v 380.2327 14.25931 7.009521
v 378.7182 14.35015 7.228828
v 380.2327 14.35015 7.228828
v 380.2327 14.35015 7.228828
v 381.7473 14.35015 7.228828
v 380.2327 14.25931 7.448135
v 381.7473 14.25931 7.448135
v 380.2327 14.25931 7.448135
v 381.7473 14.25931 7.448135
v 380.2327 14.04 7.538975
v 381.7473 14.04 7.538975
v 380.2327 14.04 7.538975
v 381.7473 14.04 7.538975
v 380.2327 13.82069 7.448135
v 381.7473 13.82069 7.448135
v 380.2327 13.82069 7.448135
v 381.7473 13.82069 7.448135
v 380.2327 13.72985 7.228828
v 381.7473 13.72985 7.228828
v 380.2327 13.72985 7.228828
v 381.7473 13.72985 7.228828
v 380.2327 13.82069 7.009521
v 381.7473 13.82069 7.009521
v 380.2327 13.82069 7.009521
v 381.7473 13.82069 7.009521
v 380.2327 14.04 6.918682
v 381.7473 14.04 6.918682
v 380.2327 14.04 6.918682
v 381.7473 14.04 6.918682
v 380.2327 14.25931 7.009521
v 381.7473 14.25931 7.009521
v 380.2327 14.25931 7.009521
v 381.7473 14.25931 7.009521
v 380.2327 14.35015 7.228828
v 381.7473 14.35015 7.228828
v 381.7473 14.35015 7.228828
v 383.2617 14.35015 7.228828
v 381.7473 14.25931 7.448135
v 383.2617 14.25931 7.448135
v 381.7473 14.25931 7.448135
v 383.2617 14.25931 7.448135
v 381.7473 14.04 7.538975
v 383.2617 14.04 7.538975
v 381.7473 14.04 7.538975
v 383.2617 14.04 7.538975
v 381.7473 13.82069 7.448135
v 383.2617 13.82069 7.448135
v 381.7473 13.82069 7.448135
v 383.2617 13.82069 7.448135
v 381.7473 13.72985 7.228828
v 383.2617 13.72985 7.228828
v 381.7473 13.72985 7.228828
v 383.2617 13.72985 7.228828
v 381.7473 13.82069 7.009521
v 383.2617 13.82069 7.009521
v 381.7473 13.82069 7.009521
v 383.2617 13.82069 7.009521
v 381.7473 14.04 6.918682
v 383.2617 14.04 6.918682
v 381.7473 14.04 6.918682
v 383.2617 14.04 6.918682
v 381.7473 14.25931 7.009521
v 383.2617 14.25931 7.009521
v 381.7473 14.25931 7.009521
v 383.2617 14.25931 7.009521
v 381.7473 14.35015 7.228828
v 383.2617 14.35015 7.228828
v 378.7182 14.35015 7.228828
v 378.7182 14.04 7.228828
v 378.7182 14.25931 7.448135
v 383.2617 14.35015 7.228828
v 383.2617 14.04 7.228828
v 383.2617 14.25931 7.448135
v 378.7182 14.25931 7.448135
v 378.7182 14.04 7.228828
v 378.7182 14.04 7.538975
v 383.2617 14.25931 7.448135
v 383.2617 14.04 7.228828
v 383.2617 14.04 7.538975
v 378.7182 14.04 7.538975
v 378.7182 14.04 7.228828
v 378.7182 13.82069 7.448135
v 383.2617 14.04 7.538975
v 383.2617 14.04 7.228828
v 383.2617 13.82069 7.448135
v 378.7182 13.82069 7.448135
v 378.7182 14.04 7.228828
v 378.7182 13.72985 7.228828
v 383.2617 13.82069 7.448135
v 383.2617 14.04 7.228828
v 383.2617 13.72985 7.228828
v 378.7182 13.72985 7.228828
v 378.7182 14.04 7.228828
v 378.7182 13.82069 7.009521
v 383.2617 13.72985 7.228828
v 383.2617 14.04 7.228828
v 383.2617 13.82069 7.009521
v 378.7182 13.82069 7.009521
v 378.7182 14.04 7.228828
v 378.7182 14.04 6.918682
v 383.2617 13.82069 7.009521
v 383.2617 14.04 7.228828
v 383.2617 14.04 6.918682
v 378.7182 14.04 6.918682
v 378.7182 14.04 7.228828
v 378.7182 14.25931 7.009521
v 383.2617 14.04 6.918682
v 383.2617 14.04 7.228828
v 383.2617 14.25931 7.009521
v 378.7182 14.25931 7.009521
v 378.7182 14.04 7.228828
v 378.7182 14.35015 7.228828
v 383.2617 14.25931 7.009521
v 383.2617 14.04 7.228828
v 383.2617 14.35015 7.228828

vn 6.831605E-08 0.5730766 -9.243095E-09
vn 6.831605E-08 0.5730766 -9.243095E-09
vn 4.830675E-08 0.4052264 0.4052263
vn 4.830675E-08 0.4052264 0.4052263
vn 4.830675E-08 0.4052264 0.4052263
vn 4.830675E-08 0.4052264 0.4052263
vn -2.203726E-15 -1.848619E-08 0.5730765
vn -2.203726E-15 -1.848619E-08 0.5730765
vn -2.203726E-15 -1.848619E-08 0.5730765
vn -2.203726E-15 -1.848619E-08 0.5730765
vn -4.830675E-08 -0.4052264 0.4052263
vn -4.830675E-08 -0.4052264 0.4052263
vn -4.830675E-08 -0.4052264 0.4052263
vn -4.830675E-08 -0.4052264 0.4052263
vn -6.831605E-08 -0.5730766 0
vn -6.831605E-08 -0.5730766 0
vn -6.831605E-08 -0.5730766 0
vn -6.831605E-08 -0.5730766 0
vn -4.830675E-08 -0.4052264 -0.4052263
vn -4.830675E-08 -0.4052264 -0.4052263
vn -4.830675E-08 -0.4052264 -0.4052263
vn -4.830675E-08 -0.4052264 -0.4052263
vn -3.305588E-15 -2.772929E-08 -0.5730766
vn -3.305588E-15 -2.772929E-08 -0.5730766
vn -3.305588E-15 -2.772929E-08 -0.5730766
vn -3.305588E-15 -2.772929E-08 -0.5730766
vn 4.830674E-08 0.4052263 -0.4052264
vn 4.830674E-08 0.4052263 -0.4052264
vn 4.830674E-08 0.4052263 -0.4052264
vn 4.830674E-08 0.4052263 -0.4052264
vn 6.831605E-08 0.5730766 -9.243095E-09
vn 6.831605E-08 0.5730766 -9.243095E-09
vn 6.831605E-08 0.5730766 -9.243095E-09
vn 6.831605E-08 0.5730766 -1.386464E-08
vn 4.830675E-08 0.4052264 0.4052263
vn 4.830675E-08 0.4052264 0.4052263
vn 4.830675E-08 0.4052264 0.4052263
vn 4.830675E-08 0.4052264 0.4052263
vn -2.203726E-15 -1.848619E-08 0.5730765
vn -1.652794E-15 -1.386464E-08 0.5730766
vn -2.203726E-15 -1.848619E-08 0.5730765
vn -1.652794E-15 -1.386464E-08 0.5730766
vn -4.830675E-08 -0.4052264 0.4052263
vn -4.830675E-08 -0.4052264 0.4052263
vn -4.830675E-08 -0.4052264 0.4052263
vn -4.830675E-08 -0.4052264 0.4052263
vn -6.831605E-08 -0.5730766 0
vn -6.831605E-08 -0.5730766 4.621548E-09
vn -6.831605E-08 -0.5730766 0
vn -6.831605E-08 -0.5730766 4.621548E-09
vn -4.830675E-08 -0.4052264 -0.4052263
vn -4.830675E-08 -0.4052264 -0.4052263
vn -4.830675E-08 -0.4052264 -0.4052263
vn -4.830675E-08 -0.4052264 -0.4052263
vn -3.305588E-15 -2.772929E-08 -0.5730766
vn -4.958383E-15 -4.159393E-08 -0.5730766
vn -3.305588E-15 -2.772929E-08 -0.5730766
vn -4.958383E-15 -4.159393E-08 -0.5730766
vn 4.830674E-08 0.4052263 -0.4052264
vn 4.830674E-08 0.4052263 -0.4052263
vn 4.830674E-08 0.4052263 -0.4052264
vn 4.830674E-08 0.4052263 -0.4052263
vn 6.831605E-08 0.5730766 -9.243095E-09
vn 6.831605E-08 0.5730766 -1.386464E-08
vn 6.831605E-08 0.5730766 -1.386464E-08
vn 6.831605E-08 0.5730766 -1.848619E-08
vn 4.830675E-08 0.4052264 0.4052263
vn 4.830675E-08 0.4052264 0.4052263
vn 4.830675E-08 0.4052264 0.4052263
vn 4.830675E-08 0.4052264 0.4052263
vn -1.652794E-15 -1.386464E-08 0.5730766
vn -1.101863E-15 -9.243096E-09 0.5730766
vn -1.652794E-15 -1.386464E-08 0.5730766
vn -1.101863E-15 -9.243096E-09 0.5730766
vn -4.830675E-08 -0.4052264 0.4052263
vn -4.830675E-08 -0.4052264 0.4052263
vn -4.830675E-08 -0.4052264 0.4052263
vn -4.830675E-08 -0.4052264 0.4052263
vn -6.831605E-08 -0.5730766 4.621548E-09
vn -6.831605E-08 -0.5730766 9.243095E-09
vn -6.831605E-08 -0.5730766 4.621548E-09
vn -6.831605E-08 -0.5730766 9.243095E-09
vn -4.830675E-08 -0.4052264 -0.4052263
vn -4.830675E-08 -0.4052264 -0.4052263
vn -4.830675E-08 -0.4052264 -0.4052263
vn -4.830675E-08 -0.4052264 -0.4052263
vn -4.958383E-15 -4.159393E-08 -0.5730766
vn -6.611177E-15 -5.545858E-08 -0.5730765
vn -4.958383E-15 -4.159393E-08 -0.5730766
vn -6.611177E-15 -5.545858E-08 -0.5730765
vn 4.830674E-08 0.4052263 -0.4052263
vn 4.830674E-08 0.4052263 -0.4052263
vn 4.830674E-08 0.4052263 -0.4052263
vn 4.830674E-08 0.4052263 -0.4052263
vn 6.831605E-08 0.5730766 -1.386464E-08
vn 6.831605E-08 0.5730766 -1.848619E-08
vn -0.2271753 2.70814E-08 0
vn -0.2271753 2.70814E-08 0
vn -0.2271753 2.70814E-08 0
vn 0.2271753 -2.70814E-08 0
vn 0.2271753 -2.70814E-08 0
vn 0.2271753 -2.70814E-08 0
vn -0.2271753 2.70814E-08 0
vn -0.2271753 2.70814E-08 0
vn -0.2271753 2.70814E-08 0
vn 0.2271753 -2.70814E-08 0
vn 0.2271753 -2.70814E-08 0
vn 0.2271753 -2.70814E-08 0
vn -0.2271753 2.70814E-08 0
vn -0.2271753 2.70814E-08 0
vn -0.2271753 2.70814E-08 0
vn 0.2271753 -2.70814E-08 0
vn 0.2271753 -2.70814E-08 0
vn 0.2271753 -2.70814E-08 0
vn -0.2271753 2.70814E-08 0
vn -0.2271753 2.70814E-08 0
vn -0.2271753 2.70814E-08 0
vn 0.2271753 -2.70814E-08 0
vn 0.2271753 -2.70814E-08 0
vn 0.2271753 -2.70814E-08 0
vn -0.2271753 2.70814E-08 0
vn -0.2271753 2.70814E-08 0
vn -0.2271753 2.70814E-08 0
vn 0.2271753 -2.70814E-08 0
vn 0.2271753 -2.70814E-08 0
vn 0.2271753 -2.70814E-08 0
vn -0.2271753 2.70814E-08 0
vn -0.2271753 2.70814E-08 0
vn -0.2271753 2.70814E-08 0
vn 0.2271753 -2.70814E-08 0
vn 0.2271753 -2.70814E-08 0
vn 0.2271753 -2.70814E-08 0
vn -0.2271753 2.70814E-08 0
vn -0.2271753 2.70814E-08 0
vn -0.2271753 2.70814E-08 0
vn 0.2271753 -2.70814E-08 0
vn 0.2271753 -2.70814E-08 0
vn 0.2271753 -2.70814E-08 0
vn -0.2271753 2.70814E-08 0
vn -0.2271753 2.70814E-08 0
vn -0.2271753 2.70814E-08 0
vn 0.2271753 -2.70814E-08 0
vn 0.2271753 -2.70814E-08 0
vn 0.2271753 -2.70814E-08 0

vt -0.1913417 -10
vt -0.1913417 -3.333333
vt 0.1913417 -10
vt 0.1913417 -3.333333
vt -0.1913417 -10
vt -0.1913417 -3.333333
vt 0.1913417 -10
vt 0.1913417 -3.333333
vt -0.1913417 -10
vt -0.1913417 -3.333333
vt 0.1913417 -10
vt 0.1913417 -3.333333
vt -0.1913417 -10
vt -0.1913417 -3.333333
vt 0.1913417 -10
vt 0.1913417 -3.333333
vt -0.1913417 -10
vt -0.1913417 -3.333333
vt 0.1913417 -10
vt 0.1913417 -3.333333
vt -0.1913417 -10
vt -0.1913417 -3.333333
vt 0.1913418 -10
vt 0.1913418 -3.333333
vt -0.1913417 -10
vt -0.1913417 -3.333333
vt 0.1913417 -10
vt 0.1913417 -3.333333
vt -0.1913417 -10
vt -0.1913417 -3.333333
vt 0.1913418 -10
vt 0.1913418 -3.333333
vt -0.1913417 -3.333333
vt -0.1913417 3.333333
vt 0.1913417 -3.333333
vt 0.1913417 3.333333
vt -0.1913417 -3.333333
vt -0.1913417 3.333333
vt 0.1913417 -3.333333
vt 0.1913417 3.333333
vt -0.1913417 -3.333333
vt -0.1913417 3.333333
vt 0.1913417 -3.333333
vt 0.1913417 3.333333
vt -0.1913417 -3.333333
vt -0.1913417 3.333333
vt 0.1913417 -3.333333
vt 0.1913417 3.333333
vt -0.1913417 -3.333333
vt -0.1913417 3.333333
vt 0.1913417 -3.333333
vt 0.1913417 3.333333
vt -0.1913417 -3.333333
vt -0.1913417 3.333333
vt 0.1913418 -3.333333
vt 0.1913418 3.333333
vt -0.1913417 -3.333333
vt -0.1913417 3.333333
vt 0.1913417 -3.333333
vt 0.1913417 3.333333
vt -0.1913417 -3.333333
vt -0.1913417 3.333333
vt 0.1913418 -3.333333
vt 0.1913418 3.333333
vt -0.1913417 3.333333
vt -0.1913417 10
vt 0.1913417 3.333333
vt 0.1913417 10
vt -0.1913417 3.333333
vt -0.1913417 10
vt 0.1913417 3.333333
vt 0.1913417 10
vt -0.1913417 3.333333
vt -0.1913417 10
vt 0.1913417 3.333333
vt 0.1913417 10
vt -0.1913417 3.333333
vt -0.1913417 10
vt 0.1913418 3.333333
vt 0.1913418 10
vt -0.1913417 3.333333
vt -0.1913417 10
vt 0.1913417 3.333333
vt 0.1913417 10
vt -0.1913417 3.333333
vt -0.1913417 10
vt 0.1913418 3.333333
vt 0.1913418 10
vt -0.1913417 3.333333
vt -0.1913417 10
vt 0.1913417 3.333333
vt 0.1913417 10
vt -0.1913417 3.333333
vt -0.1913417 10
vt 0.1913418 3.333333
vt 0.1913418 10
vt -0.5 0
vt 0 0
vt -0.3535534 0.3535534
vt 0.5 0
vt 0 0
vt 0.3535534 0.3535534
vt -0.3535534 0.3535534
vt 0 0
vt 2.185569E-08 0.5
vt 0.3535534 0.3535534
vt 0 0
vt -2.185569E-08 0.5
vt 2.185569E-08 0.5
vt 0 0
vt 0.3535534 0.3535534
vt -2.185569E-08 0.5
vt 0 0
vt -0.3535534 0.3535534
vt 0.3535534 0.3535534
vt 0 0
vt 0.5 -4.371139E-08
vt -0.3535534 0.3535534
vt 0 0
vt -0.5 -4.371139E-08
vt 0.5 -4.371139E-08
vt 0 0
vt 0.3535534 -0.3535534
vt -0.5 -4.371139E-08
vt 0 0
vt -0.3535534 -0.3535534
vt 0.3535534 -0.3535534
vt 0 0
vt -5.96244E-09 -0.5
vt -0.3535534 -0.3535534
vt 0 0
vt 5.96244E-09 -0.5
vt -5.96244E-09 -0.5
vt 0 0
vt -0.3535533 -0.3535534
vt 5.96244E-09 -0.5
vt 0 0
vt 0.3535533 -0.3535534
vt -0.3535533 -0.3535534
vt 0 0
vt -0.5 0
vt 0.3535533 -0.3535534
vt 0 0
vt 0.5 0

g Cylinder (21)_0
usemtl Default_Prototype
f 3/3/3 4/4/4 2/2/2 1/1/1
f 7/7/7 8/8/8 6/6/6 5/5/5
f 11/11/11 12/12/12 10/10/10 9/9/9
f 15/15/15 16/16/16 14/14/14 13/13/13
f 19/19/19 20/20/20 18/18/18 17/17/17
f 23/23/23 24/24/24 22/22/22 21/21/21
f 27/27/27 28/28/28 26/26/26 25/25/25
f 31/31/31 32/32/32 30/30/30 29/29/29
f 35/35/35 36/36/36 34/34/34 33/33/33
f 39/39/39 40/40/40 38/38/38 37/37/37
f 43/43/43 44/44/44 42/42/42 41/41/41
f 47/47/47 48/48/48 46/46/46 45/45/45
f 51/51/51 52/52/52 50/50/50 49/49/49
f 55/55/55 56/56/56 54/54/54 53/53/53
f 59/59/59 60/60/60 58/58/58 57/57/57
f 63/63/63 64/64/64 62/62/62 61/61/61
f 67/67/67 68/68/68 66/66/66 65/65/65
f 71/71/71 72/72/72 70/70/70 69/69/69
f 75/75/75 76/76/76 74/74/74 73/73/73
f 79/79/79 80/80/80 78/78/78 77/77/77
f 83/83/83 84/84/84 82/82/82 81/81/81
f 87/87/87 88/88/88 86/86/86 85/85/85
f 91/91/91 92/92/92 90/90/90 89/89/89
f 95/95/95 96/96/96 94/94/94 93/93/93

g Cylinder (21)_1
usemtl Default_Prototype
f 97/97/97 98/98/98 99/99/99
f 103/103/103 104/104/104 105/105/105
f 109/109/109 110/110/110 111/111/111
f 115/115/115 116/116/116 117/117/117
f 121/121/121 122/122/122 123/123/123
f 127/127/127 128/128/128 129/129/129
f 133/133/133 134/134/134 135/135/135
f 139/139/139 140/140/140 141/141/141
f 102/102/102 101/101/101 100/100/100
f 108/108/108 107/107/107 106/106/106
f 114/114/114 113/113/113 112/112/112
f 120/120/120 119/119/119 118/118/118
f 126/126/126 125/125/125 124/124/124
f 132/132/132 131/131/131 130/130/130
f 138/138/138 137/137/137 136/136/136
f 144/144/144 143/143/143 142/142/142

