# Exported from ProBuilder
# http://www.procore3d.com/probuilder
# 6/26/2018 1:16:09 PM

mtllib ./Cylinder_(15).mtl
o Cylinder (15)

g Cylinder (15)
v 305.1198 11.3636 42.05428
v 305.9962 11.3636 42.05428
v 305.1198 11.11651 42.65079
v 305.9962 11.11651 42.65079
v 305.1198 11.11651 42.65079
v 305.9962 11.11651 42.65079
v 305.1198 10.52 42.89787
v 305.9962 10.52 42.89787
v 305.1198 10.52 42.89787
v 305.9962 10.52 42.89787
v 305.1198 9.923489 42.65079
v 305.9962 9.923489 42.65079
v 305.1198 9.923489 42.65079
v 305.9962 9.923489 42.65079
v 305.1198 9.676406 42.05428
v 305.9962 9.676406 42.05428
v 305.1198 9.676406 42.05428
v 305.9962 9.676406 42.05428
v 305.1198 9.923489 41.45776
v 305.9962 9.923489 41.45776
v 305.1198 9.923489 41.45776
v 305.9962 9.923489 41.45776
v 305.1198 10.52 41.21068
v 305.9962 10.52 41.21068
v 305.1198 10.52 41.21068
v 305.9962 10.52 41.21068
v 305.1198 11.11651 41.45776
v 305.9962 11.11651 41.45776
v 305.1198 11.11651 41.45776
v 305.9962 11.11651 41.45776
v 305.1198 11.3636 42.05428
v 305.9962 11.3636 42.05428
v 305.1198 11.3636 42.05428
v 305.1198 10.52 42.05428
v 305.1198 11.11651 42.65079
v 309.5764 10.89697 42.05428
v 309.5764 10.52 42.05428
v 309.5764 10.78656 42.32084
v 305.1198 11.11651 42.65079
v 305.1198 10.52 42.05428
v 305.1198 10.52 42.89787
v 309.5764 10.78656 42.32084
v 309.5764 10.52 42.05428
v 309.5764 10.52 42.43125
v 305.1198 10.52 42.89787
v 305.1198 10.52 42.05428
v 305.1198 9.923489 42.65079
v 309.5764 10.52 42.43125
v 309.5764 10.52 42.05428
v 309.5764 10.25344 42.32084
v 305.1198 9.923489 42.65079
v 305.1198 10.52 42.05428
v 305.1198 9.676406 42.05428
v 309.5764 10.25344 42.32084
v 309.5764 10.52 42.05428
v 309.5764 10.14303 42.05428
v 305.1198 9.676406 42.05428
v 305.1198 10.52 42.05428
v 305.1198 9.923489 41.45776
v 309.5764 10.14303 42.05428
v 309.5764 10.52 42.05428
v 309.5764 10.25344 41.78772
v 305.1198 9.923489 41.45776
v 305.1198 10.52 42.05428
v 305.1198 10.52 41.21068
v 309.5764 10.25344 41.78772
v 309.5764 10.52 42.05428
v 309.5764 10.52 41.6773
v 305.1198 10.52 41.21068
v 305.1198 10.52 42.05428
v 305.1198 11.11651 41.45776
v 309.5764 10.52 41.6773
v 309.5764 10.52 42.05428
v 309.5764 10.78656 41.78772
v 305.1198 11.11651 41.45776
v 305.1198 10.52 42.05428
v 305.1198 11.3636 42.05428
v 309.5764 10.78656 41.78772
v 309.5764 10.52 42.05428
v 309.5764 10.89697 42.05428
v 305.9962 10.52 42.89787
v 305.9962 11.11651 42.65079
v 306.946 10.52 42.89787
v 306.946 11.11651 42.65079
v 305.9962 9.923489 42.65079
v 305.9962 10.52 42.89787
v 306.946 9.923489 42.65079
v 306.946 10.52 42.89787
v 305.9962 11.11651 42.65079
v 305.9962 11.3636 42.05428
v 306.946 11.11651 42.65079
v 306.946 11.3636 42.05428
v 305.9962 11.3636 42.05428
v 305.9962 11.11651 41.45776
v 306.946 11.3636 42.05428
v 306.946 11.11651 41.45776
v 305.9962 11.11651 41.45776
v 305.9962 10.52 41.21068
v 306.946 11.11651 41.45776
v 306.946 10.52 41.21068
v 305.9962 10.52 41.21068
v 305.9962 9.923489 41.45776
v 306.946 10.52 41.21068
v 306.946 9.923489 41.45776
v 305.9962 9.923489 41.45776
v 305.9962 9.676406 42.05428
v 306.946 9.923489 41.45776
v 306.946 9.676405 42.05428
v 305.9962 9.676406 42.05428
v 305.9962 9.923489 42.65079
v 306.946 9.676405 42.05428
v 306.946 9.923489 42.65079
v 306.946 10.52 42.89787
v 306.946 11.11651 42.65079
v 308.3128 10.52 42.89787
v 308.3128 11.11651 42.65079
v 306.946 9.923489 42.65079
v 306.946 10.52 42.89787
v 308.3128 9.923489 42.65079
v 308.3128 10.52 42.89787
v 306.946 11.11651 42.65079
v 306.946 11.3636 42.05428
v 308.3128 11.11651 42.65079
v 308.3128 11.3636 42.05428
v 306.946 11.3636 42.05428
v 306.946 11.11651 41.45776
v 308.3128 11.3636 42.05428
v 308.3128 11.11651 41.45776
v 306.946 11.11651 41.45776
v 306.946 10.52 41.21068
v 308.3128 11.11651 41.45776
v 308.3128 10.52 41.21068
v 306.946 10.52 41.21068
v 306.946 9.923489 41.45776
v 308.3128 10.52 41.21068
v 308.3128 9.923489 41.45776
v 306.946 9.923489 41.45776
v 306.946 9.676405 42.05428
v 308.3128 9.923489 41.45776
v 308.3128 9.676405 42.05428
v 306.946 9.676405 42.05428
v 306.946 9.923489 42.65079
v 308.3128 9.676405 42.05428
v 308.3128 9.923489 42.65079
v 308.3128 10.52 42.89787
v 308.3128 11.11651 42.65079
v 308.3129 10.52 42.43125
v 308.3129 10.78656 42.32084
v 308.3128 9.923489 42.65079
v 308.3128 10.52 42.89787
v 308.3129 10.25344 42.32084
v 308.3129 10.52 42.43125
v 308.3128 11.11651 42.65079
v 308.3128 11.3636 42.05428
v 308.3129 10.78656 42.32084
v 308.3129 10.89697 42.05428
v 308.3128 11.3636 42.05428
v 308.3128 11.11651 41.45776
v 308.3129 10.89697 42.05428
v 308.3129 10.78656 41.78772
v 308.3128 11.11651 41.45776
v 308.3128 10.52 41.21068
v 308.3129 10.78656 41.78772
v 308.3129 10.52 41.6773
v 308.3128 10.52 41.21068
v 308.3128 9.923489 41.45776
v 308.3129 10.52 41.6773
v 308.3129 10.25344 41.78772
v 308.3128 9.923489 41.45776
v 308.3128 9.676405 42.05428
v 308.3129 10.25344 41.78772
v 308.3129 10.14303 42.05428
v 308.3128 9.676405 42.05428
v 308.3128 9.923489 42.65079
v 308.3129 10.14303 42.05428
v 308.3129 10.25344 42.32084
v 308.3129 10.52 42.43125
v 308.3129 10.78656 42.32084
v 309.5764 10.52 42.43125
v 309.5764 10.78656 42.32084
v 308.3129 10.25344 42.32084
v 308.3129 10.52 42.43125
v 309.5764 10.25344 42.32084
v 309.5764 10.52 42.43125
v 308.3129 10.78656 42.32084
v 308.3129 10.89697 42.05428
v 309.5764 10.78656 42.32084
v 309.5764 10.89697 42.05428
v 308.3129 10.89697 42.05428
v 308.3129 10.78656 41.78772
v 309.5764 10.89697 42.05428
v 309.5764 10.78656 41.78772
v 308.3129 10.78656 41.78772
v 308.3129 10.52 41.6773
v 309.5764 10.78656 41.78772
v 309.5764 10.52 41.6773
v 308.3129 10.52 41.6773
v 308.3129 10.25344 41.78772
v 309.5764 10.52 41.6773
v 309.5764 10.25344 41.78772
v 308.3129 10.25344 41.78772
v 308.3129 10.14303 42.05428
v 309.5764 10.25344 41.78772
v 309.5764 10.14303 42.05428
v 308.3129 10.14303 42.05428
v 308.3129 10.25344 42.32084
v 309.5764 10.14303 42.05428
v 309.5764 10.25344 42.32084

vn 1.858186E-07 1.55876 -5.028217E-08
vn 1.858186E-07 1.55876 -5.028217E-08
vn 1.313936E-07 1.10221 1.10221
vn 1.313936E-07 1.10221 1.10221
vn 1.313936E-07 1.10221 1.10221
vn 1.313936E-07 1.10221 1.10221
vn -5.994101E-15 -5.028217E-08 1.55876
vn -5.994101E-15 -5.028217E-08 1.55876
vn -5.994101E-15 -5.028217E-08 1.55876
vn -5.994101E-15 -5.028217E-08 1.55876
vn -1.313936E-07 -1.10221 1.10221
vn -1.313936E-07 -1.10221 1.10221
vn -1.313936E-07 -1.10221 1.10221
vn -1.313936E-07 -1.10221 1.10221
vn -1.858186E-07 -1.55876 2.514108E-08
vn -1.858186E-07 -1.55876 2.514108E-08
vn -1.858186E-07 -1.55876 2.514108E-08
vn -1.858186E-07 -1.55876 2.514108E-08
vn -1.313936E-07 -1.10221 -1.10221
vn -1.313936E-07 -1.10221 -1.10221
vn -1.313936E-07 -1.10221 -1.10221
vn -1.313936E-07 -1.10221 -1.10221
vn -1.79823E-14 -1.508465E-07 -1.55876
vn -1.79823E-14 -1.508465E-07 -1.55876
vn -1.79823E-14 -1.508465E-07 -1.55876
vn -1.79823E-14 -1.508465E-07 -1.55876
vn 1.313936E-07 1.10221 -1.10221
vn 1.313936E-07 1.10221 -1.10221
vn 1.313936E-07 1.10221 -1.10221
vn 1.313936E-07 1.10221 -1.10221
vn 1.858186E-07 1.55876 -5.028217E-08
vn 1.858186E-07 1.55876 -5.028217E-08
vn -0.8764182 1.044772E-07 0
vn -0.8764182 1.044772E-07 0
vn -0.8764182 1.044772E-07 0
vn 0.8764182 -1.044772E-07 0
vn 0.8764182 -1.044772E-07 0
vn 0.8764182 -1.044772E-07 0
vn -0.8764182 1.044772E-07 0
vn -0.8764182 1.044772E-07 0
vn -0.8764182 1.044772E-07 0
vn 0.8764182 -1.044772E-07 0
vn 0.8764182 -1.044772E-07 0
vn 0.8764182 -1.044772E-07 0
vn -0.8764182 1.044772E-07 0
vn -0.8764182 1.044772E-07 0
vn -0.8764182 1.044772E-07 0
vn 0.8764182 -1.044772E-07 0
vn 0.8764182 -1.044772E-07 0
vn 0.8764182 -1.044772E-07 0
vn -0.8764182 1.044772E-07 0
vn -0.8764182 1.044772E-07 0
vn -0.8764182 1.044772E-07 0
vn 0.8764182 -1.044772E-07 0
vn 0.8764182 -1.044772E-07 0
vn 0.8764182 -1.044772E-07 0
vn -0.8764182 1.044772E-07 0
vn -0.8764182 1.044772E-07 0
vn -0.8764182 1.044772E-07 0
vn 0.8764182 -1.044772E-07 0
vn 0.8764182 -1.044772E-07 0
vn 0.8764182 -1.044772E-07 0
vn -0.8764182 1.044772E-07 0
vn -0.8764182 1.044772E-07 0
vn -0.8764182 1.044772E-07 0
vn 0.8764182 -1.044772E-07 0
vn 0.8764182 -1.044772E-07 0
vn 0.8764182 -1.044772E-07 0
vn -0.8764182 1.044772E-07 0
vn -0.8764182 1.044772E-07 0
vn -0.8764182 1.044772E-07 0
vn 0.8764182 -1.044772E-07 0
vn 0.8764182 -1.044772E-07 0
vn 0.8764182 -1.044772E-07 0
vn -0.8764182 1.044772E-07 0
vn -0.8764182 1.044772E-07 0
vn -0.8764182 1.044772E-07 0
vn 0.8764182 -1.044772E-07 0
vn 0.8764182 -1.044772E-07 0
vn 0.8764182 -1.044772E-07 0
vn 7.69686E-08 0.6456595 1.55876
vn 7.69686E-08 0.6456595 1.55876
vn 7.69686E-08 0.6456595 1.55876
vn 7.69686E-08 0.6456595 1.55876
vn -7.696861E-08 -0.6456596 1.55876
vn -7.696861E-08 -0.6456596 1.55876
vn -7.696861E-08 -0.6456596 1.55876
vn -7.696861E-08 -0.6456596 1.55876
vn 1.858186E-07 1.55876 0.6456596
vn 1.858186E-07 1.55876 0.6456596
vn 1.858186E-07 1.55876 0.6456596
vn 1.858186E-07 1.55876 0.6456596
vn 1.858186E-07 1.55876 -0.6456597
vn 1.858186E-07 1.55876 -0.6456597
vn 1.858186E-07 1.55876 -0.6456597
vn 1.858186E-07 1.55876 -0.6456597
vn 7.696858E-08 0.6456594 -1.55876
vn 7.696858E-08 0.6456594 -1.55876
vn 7.696858E-08 0.6456594 -1.55876
vn 7.696858E-08 0.6456594 -1.55876
vn -7.696861E-08 -0.6456596 -1.55876
vn -7.696861E-08 -0.6456596 -1.55876
vn -7.696861E-08 -0.6456596 -1.55876
vn -7.696861E-08 -0.6456596 -1.55876
vn -1.858186E-07 -1.55876 -0.6456596
vn -1.858186E-07 -1.55876 -0.6456596
vn -1.858186E-07 -1.55876 -0.6456596
vn -1.858186E-07 -1.55876 -0.6456596
vn -1.858186E-07 -1.55876 0.6456596
vn -1.858186E-07 -1.55876 0.6456596
vn -1.858186E-07 -1.55876 0.6456596
vn -1.858186E-07 -1.55876 0.6456596
vn 7.69686E-08 0.6456596 1.55876
vn 7.69686E-08 0.6456596 1.55876
vn 7.69686E-08 0.6456596 1.55876
vn 7.69686E-08 0.6456596 1.55876
vn -7.69686E-08 -0.6456596 1.55876
vn -7.69686E-08 -0.6456596 1.55876
vn -7.69686E-08 -0.6456596 1.55876
vn -7.69686E-08 -0.6456596 1.55876
vn 1.858186E-07 1.55876 0.6456596
vn 1.858186E-07 1.55876 0.6456596
vn 1.858186E-07 1.55876 0.6456596
vn 1.858186E-07 1.55876 0.6456596
vn 1.858186E-07 1.55876 -0.6456596
vn 1.858186E-07 1.55876 -0.6456596
vn 1.858186E-07 1.55876 -0.6456596
vn 1.858186E-07 1.55876 -0.6456596
vn 7.696859E-08 0.6456594 -1.55876
vn 7.696859E-08 0.6456594 -1.55876
vn 7.696859E-08 0.6456594 -1.55876
vn 7.696859E-08 0.6456594 -1.55876
vn -7.696862E-08 -0.6456596 -1.55876
vn -7.696862E-08 -0.6456596 -1.55876
vn -7.696862E-08 -0.6456596 -1.55876
vn -7.696862E-08 -0.6456596 -1.55876
vn -1.858186E-07 -1.55876 -0.6456596
vn -1.858186E-07 -1.55876 -0.6456596
vn -1.858186E-07 -1.55876 -0.6456596
vn -1.858186E-07 -1.55876 -0.6456596
vn -1.858186E-07 -1.55876 0.6456596
vn -1.858186E-07 -1.55876 0.6456596
vn -1.858186E-07 -1.55876 0.6456596
vn -1.858186E-07 -1.55876 0.6456596
vn 0.8764181 0.0002511197 0.0006065089
vn 0.8764182 0.0002511197 0.0006065089
vn 0.8764182 0.0002511196 0.0006065089
vn 0.8764181 0.0002511197 0.0006065089
vn 0.8764182 -0.0002513287 0.000606509
vn 0.8764182 -0.0002513287 0.0006065089
vn 0.8764182 -0.0002513287 0.000606509
vn 0.8764182 -0.0002513287 0.000606509
vn 0.8764182 0.0006064045 0.0002512242
vn 0.8764182 0.0006064045 0.0002512242
vn 0.8764182 0.0006064044 0.0002512242
vn 0.8764182 0.0006064045 0.0002512242
vn 0.8764181 0.0006064044 -0.0002512242
vn 0.8764182 0.0006064045 -0.0002512243
vn 0.8764182 0.0006064044 -0.0002512242
vn 0.8764181 0.0006064044 -0.0002512242
vn 0.8764182 0.0002511197 -0.0006065089
vn 0.8764181 0.0002511197 -0.0006065089
vn 0.8764182 0.0002511196 -0.0006065089
vn 0.8764182 0.0002511197 -0.0006065089
vn 0.8764181 -0.0002513287 -0.0006065089
vn 0.8764182 -0.0002513288 -0.000606509
vn 0.8764182 -0.0002513285 -0.0006065088
vn 0.8764181 -0.0002513287 -0.0006065089
vn 0.8764182 -0.0006066134 -0.0002512243
vn 0.8764182 -0.0006066134 -0.0002512243
vn 0.8764181 -0.0006066134 -0.0002512244
vn 0.8764182 -0.0006066134 -0.0002512243
vn 0.8764182 -0.0006066135 0.0002512243
vn 0.8764181 -0.0006066135 0.0002512243
vn 0.8764182 -0.0006066135 0.0002512243
vn 0.8764182 -0.0006066135 0.0002512243
vn 7.696858E-08 0.6456593 1.55876
vn 7.696858E-08 0.6456593 1.55876
vn 7.696858E-08 0.6456593 1.55876
vn 7.696858E-08 0.6456593 1.55876
vn -7.696858E-08 -0.6456593 1.55876
vn -7.696858E-08 -0.6456593 1.55876
vn -7.696858E-08 -0.6456593 1.55876
vn -7.696858E-08 -0.6456593 1.55876
vn 1.858186E-07 1.55876 0.6456596
vn 1.858186E-07 1.55876 0.6456596
vn 1.858186E-07 1.55876 0.6456596
vn 1.858186E-07 1.55876 0.6456596
vn 1.858186E-07 1.55876 -0.6456598
vn 1.858186E-07 1.55876 -0.6456598
vn 1.858186E-07 1.55876 -0.6456598
vn 1.858186E-07 1.55876 -0.6456598
vn 7.696858E-08 0.6456593 -1.55876
vn 7.696858E-08 0.6456593 -1.55876
vn 7.696858E-08 0.6456593 -1.55876
vn 7.696858E-08 0.6456593 -1.55876
vn -7.696859E-08 -0.6456594 -1.55876
vn -7.696859E-08 -0.6456594 -1.55876
vn -7.696859E-08 -0.6456594 -1.55876
vn -7.696859E-08 -0.6456594 -1.55876
vn -1.858186E-07 -1.55876 -0.6456596
vn -1.858186E-07 -1.55876 -0.6456596
vn -1.858186E-07 -1.55876 -0.6456596
vn -1.858186E-07 -1.55876 -0.6456596
vn -1.858186E-07 -1.55876 0.6456596
vn -1.858186E-07 -1.55876 0.6456596
vn -1.858186E-07 -1.55876 0.6456596
vn -1.858186E-07 -1.55876 0.6456596

vt -0.1913417 -2.542467
vt -0.1913417 -1.542467
vt 0.1913418 -2.542467
vt 0.1913418 -1.542467
vt -0.1913416 -2.542467
vt -0.1913416 -1.542467
vt 0.1913419 -2.542467
vt 0.1913419 -1.542467
vt -0.1913416 -2.542467
vt -0.1913416 -1.542467
vt 0.1913418 -2.542467
vt 0.1913418 -1.542467
vt -0.1913416 -2.542467
vt -0.1913416 -1.542467
vt 0.1913419 -2.542467
vt 0.1913419 -1.542467
vt -0.1913418 -2.542467
vt -0.1913418 -1.542467
vt 0.1913416 -2.542467
vt 0.1913416 -1.542467
vt -0.1913419 -2.542467
vt -0.1913419 -1.542467
vt 0.1913416 -2.542467
vt 0.1913416 -1.542467
vt -0.1913418 -2.542467
vt -0.1913418 -1.542467
vt 0.1913415 -2.542467
vt 0.1913415 -1.542467
vt -0.1913418 -2.542467
vt -0.1913418 -1.542467
vt 0.1913417 -2.542467
vt 0.1913417 -1.542467
vt -0.4999999 0
vt 1.574392E-07 0
vt -0.3535532 0.3535534
vt 0.2234313 -2.747462E-09
vt -1.641247E-07 -2.747462E-09
vt 0.1579897 0.1579899
vt -0.3535532 0.3535534
vt 1.574392E-07 0
vt 1.792949E-07 0.5
vt 0.1579897 0.1579899
vt -1.641247E-07 -2.747462E-09
vt -1.738912E-07 0.2234314
vt 1.792949E-07 0.5
vt 1.574392E-07 0
vt 0.3535535 0.3535534
vt -1.738912E-07 0.2234314
vt -1.641247E-07 -2.747462E-09
vt -0.1579901 0.1579899
vt 0.3535535 0.3535534
vt 1.574392E-07 0
vt 0.5000002 -4.371139E-08
vt -0.1579901 0.1579899
vt -1.641247E-07 -2.747462E-09
vt -0.2234316 -2.228046E-08
vt 0.5000002 -4.371139E-08
vt 1.574392E-07 0
vt 0.3535536 -0.3535534
vt -0.2234316 -2.228046E-08
vt -1.641247E-07 -2.747462E-09
vt -0.1579901 -0.1579899
vt 0.3535536 -0.3535534
vt 1.574392E-07 0
vt 1.514768E-07 -0.5
vt -0.1579901 -0.1579899
vt -1.641247E-07 -2.747462E-09
vt -1.614603E-07 -0.2234314
vt 1.514768E-07 -0.5
vt 1.574392E-07 0
vt -0.3535532 -0.3535534
vt -1.614603E-07 -0.2234314
vt -1.641247E-07 -2.747462E-09
vt 0.1579897 -0.1579899
vt -0.3535532 -0.3535534
vt 1.574392E-07 0
vt -0.4999999 0
vt 0.1579897 -0.1579899
vt -1.641247E-07 -2.747462E-09
vt 0.2234313 -2.747462E-09
vt 0.1913419 -1.542467
vt -0.1913416 -1.542467
vt 0.1913419 -0.4588478
vt -0.1913416 -0.4588478
vt 0.1913418 -1.542467
vt -0.1913416 -1.542467
vt 0.1913418 -0.4588478
vt -0.1913416 -0.4588478
vt 0.1913418 -1.542467
vt -0.1913417 -1.542467
vt 0.1913418 -0.4588478
vt -0.1913417 -0.4588478
vt 0.1913417 -1.542467
vt -0.1913418 -1.542467
vt 0.1913417 -0.4588478
vt -0.1913418 -0.4588478
vt 0.1913415 -1.542467
vt -0.1913418 -1.542467
vt 0.1913415 -0.4588478
vt -0.1913418 -0.4588478
vt 0.1913416 -1.542467
vt -0.1913419 -1.542467
vt 0.1913416 -0.4588478
vt -0.1913419 -0.4588478
vt 0.1913416 -1.542467
vt -0.1913418 -1.542467
vt 0.1913416 -0.4588478
vt -0.1913418 -0.4588478
vt 0.1913419 -1.542467
vt -0.1913416 -1.542467
vt 0.1913419 -0.4588478
vt -0.1913416 -0.4588478
vt 0.1913419 -0.4588478
vt -0.1913416 -0.4588478
vt 0.1913419 1.100732
vt -0.1913416 1.100732
vt 0.1913418 -0.4588478
vt -0.1913416 -0.4588478
vt 0.1913418 1.100732
vt -0.1913416 1.100732
vt 0.1913418 -0.4588478
vt -0.1913417 -0.4588478
vt 0.1913418 1.100732
vt -0.1913417 1.100732
vt 0.1913417 -0.4588478
vt -0.1913418 -0.4588478
vt 0.1913417 1.100732
vt -0.1913418 1.100732
vt 0.1913415 -0.4588478
vt -0.1913418 -0.4588478
vt 0.1913415 1.100732
vt -0.1913418 1.100732
vt 0.1913416 -0.4588478
vt -0.1913419 -0.4588478
vt 0.1913416 1.100732
vt -0.1913419 1.100732
vt 0.1913416 -0.4588478
vt -0.1913418 -0.4588478
vt 0.1913416 1.100732
vt -0.1913418 1.100732
vt 0.1913418 -0.4588478
vt -0.1913416 -0.4588478
vt 0.1913418 1.100732
vt -0.1913416 1.100732
vt -0.0001640794 0.4996043
vt 0.3533893 0.3531577
vt -0.0001640888 0.2230357
vt 0.1578258 0.1575941
vt -0.3533896 0.3531577
vt 0.0001637208 0.4996043
vt -0.1578262 0.1575941
vt 0.0001637411 0.2230357
vt 0.3531575 0.3533895
vt 0.4996041 -0.0001639269
vt 0.157594 0.1578259
vt 0.2230355 -0.0001639296
vt 0.4996041 0.0001639269
vt 0.3531575 -0.3533895
vt 0.2230355 0.0001639242
vt 0.157594 -0.157826
vt 0.3533893 -0.3531577
vt -0.0001640516 -0.4996043
vt 0.1578258 -0.1575942
vt -0.0001640764 -0.2230357
vt 0.0001637487 -0.4996043
vt -0.3533897 -0.3531576
vt 0.0001637535 -0.2230357
vt -0.1578262 -0.1575941
vt -0.3531578 -0.3533894
vt -0.4996045 0.0001638832
vt -0.1575944 -0.1578259
vt -0.2230359 0.0001639046
vt -0.4996045 -0.0001639706
vt -0.3531578 0.3533895
vt -0.2230359 -0.0001639492
vt -0.1575944 0.1578259
vt 0.08550366 1.100832
vt -0.08550338 1.100832
vt 0.08550366 2.542462
vt -0.08550338 2.542462
vt 0.08550372 1.100832
vt -0.08550333 1.100832
vt 0.08550372 2.542462
vt -0.08550333 2.542462
vt 0.08550354 1.100832
vt -0.08550347 1.100832
vt 0.08550354 2.542462
vt -0.08550347 2.542462
vt 0.08550349 1.100832
vt -0.08550357 1.100832
vt 0.08550349 2.542462
vt -0.08550357 2.542462
vt 0.08550335 1.100832
vt -0.08550363 1.100832
vt 0.08550335 2.542462
vt -0.08550363 2.542462
vt 0.08550334 1.100832
vt -0.08550373 1.100832
vt 0.08550334 2.542462
vt -0.08550373 2.542462
vt 0.08550339 1.100832
vt -0.08550358 1.100832
vt 0.08550339 2.542462
vt -0.08550358 2.542462
vt 0.08550362 1.100832
vt -0.08550341 1.100832
vt 0.08550362 2.542462
vt -0.08550341 2.542462

g Cylinder (15)_0
usemtl Buildings
f 3/3/3 4/4/4 2/2/2 1/1/1
f 7/7/7 8/8/8 6/6/6 5/5/5
f 11/11/11 12/12/12 10/10/10 9/9/9
f 15/15/15 16/16/16 14/14/14 13/13/13
f 19/19/19 20/20/20 18/18/18 17/17/17
f 23/23/23 24/24/24 22/22/22 21/21/21
f 27/27/27 28/28/28 26/26/26 25/25/25
f 31/31/31 32/32/32 30/30/30 29/29/29
f 83/83/83 84/84/84 82/82/82 81/81/81
f 87/87/87 88/88/88 86/86/86 85/85/85
f 91/91/91 92/92/92 90/90/90 89/89/89
f 95/95/95 96/96/96 94/94/94 93/93/93
f 99/99/99 100/100/100 98/98/98 97/97/97
f 103/103/103 104/104/104 102/102/102 101/101/101
f 107/107/107 108/108/108 106/106/106 105/105/105
f 111/111/111 112/112/112 110/110/110 109/109/109
f 115/115/115 116/116/116 114/114/114 113/113/113
f 119/119/119 120/120/120 118/118/118 117/117/117
f 123/123/123 124/124/124 122/122/122 121/121/121
f 127/127/127 128/128/128 126/126/126 125/125/125
f 131/131/131 132/132/132 130/130/130 129/129/129
f 135/135/135 136/136/136 134/134/134 133/133/133
f 139/139/139 140/140/140 138/138/138 137/137/137
f 143/143/143 144/144/144 142/142/142 141/141/141
f 147/147/147 148/148/148 146/146/146 145/145/145
f 151/151/151 152/152/152 150/150/150 149/149/149
f 155/155/155 156/156/156 154/154/154 153/153/153
f 159/159/159 160/160/160 158/158/158 157/157/157
f 163/163/163 164/164/164 162/162/162 161/161/161
f 167/167/167 168/168/168 166/166/166 165/165/165
f 171/171/171 172/172/172 170/170/170 169/169/169
f 175/175/175 176/176/176 174/174/174 173/173/173
f 179/179/179 180/180/180 178/178/178 177/177/177
f 183/183/183 184/184/184 182/182/182 181/181/181
f 187/187/187 188/188/188 186/186/186 185/185/185
f 191/191/191 192/192/192 190/190/190 189/189/189
f 195/195/195 196/196/196 194/194/194 193/193/193
f 199/199/199 200/200/200 198/198/198 197/197/197
f 203/203/203 204/204/204 202/202/202 201/201/201
f 207/207/207 208/208/208 206/206/206 205/205/205

g Cylinder (15)_1
usemtl Buildings
f 33/33/33 34/34/34 35/35/35
f 39/39/39 40/40/40 41/41/41
f 45/45/45 46/46/46 47/47/47
f 51/51/51 52/52/52 53/53/53
f 57/57/57 58/58/58 59/59/59
f 63/63/63 64/64/64 65/65/65
f 69/69/69 70/70/70 71/71/71
f 75/75/75 76/76/76 77/77/77
f 38/38/38 37/37/37 36/36/36
f 44/44/44 43/43/43 42/42/42
f 50/50/50 49/49/49 48/48/48
f 56/56/56 55/55/55 54/54/54
f 62/62/62 61/61/61 60/60/60
f 68/68/68 67/67/67 66/66/66
f 74/74/74 73/73/73 72/72/72
f 80/80/80 79/79/79 78/78/78

