# Exported from ProBuilder
# http://www.procore3d.com/probuilder
# 6/26/2018 1:16:11 PM

mtllib ./Main_bot01_(2).mtl
o Main bot01 (2)

g Main bot01 (2)
v 422.6515 0 -0.4611664
v 362.4075 0 -0.4611664
v 422.6515 0.9729466 -0.4611664
v 362.4075 0.9729466 -0.4611664
v 362.4075 0 -0.4611664
v 362.4075 0 -60.70516
v 362.4075 0.9729466 -0.4611664
v 362.4075 0.9729466 -60.70516
v 362.4075 0 -60.70516
v 422.6515 0 -60.70516
v 362.4075 0.9729466 -60.70516
v 422.6515 0.9729466 -60.70516
v 422.6515 0 -60.70516
v 422.6515 0 -0.4611664
v 422.6515 0.9729466 -60.70516
v 422.6515 0.9729466 -0.4611664
v 422.6515 0.9729466 -0.4611664
v 362.4075 0.9729466 -0.4611664
v 422.6515 0.9729466 -60.70516
v 362.4075 0.9729466 -60.70516
v 422.6515 0 -60.70516
v 362.4075 0 -60.70516
v 422.6515 0 -0.4611664
v 362.4075 0 -0.4611664

vn 0 0 1
vn 0 0 1
vn 0 0 1
vn 0 0 1
vn -1 0 0
vn -1 0 0
vn -1 0 0
vn -1 0 0
vn 0 0 -1
vn 0 0 -1
vn 0 0 -1
vn 0 0 -1
vn 1 0 0
vn 1 0 0
vn 1 0 0
vn 1 0 0
vn 0 1 0
vn 0 1 0
vn 0 1 0
vn 0 1 0
vn 0 -1 0
vn 0 -1 0
vn 0 -1 0
vn 0 -1 0

vt 30.12199 -0.4864733
vt -30.12199 -0.4864733
vt 30.12199 0.4864733
vt -30.12199 0.4864733
vt 30.12199 -0.4864733
vt -30.122 -0.4864733
vt 30.12199 0.4864733
vt -30.122 0.4864733
vt 30.12199 -0.4864733
vt -30.12199 -0.4864733
vt 30.12199 0.4864733
vt -30.12199 0.4864733
vt 30.122 -0.4864733
vt -30.12199 -0.4864733
vt 30.122 0.4864733
vt -30.12199 0.4864733
vt -30.12199 30.12199
vt 30.12199 30.12199
vt -30.12199 -30.122
vt 30.12199 -30.122
vt 30.12199 -30.122
vt -30.12199 -30.122
vt 30.12199 30.12199
vt -30.12199 30.12199

g Main bot01 (2)
usemtl other_walkable
f 3/3/3 4/4/4 2/2/2 1/1/1
f 7/7/7 8/8/8 6/6/6 5/5/5
f 11/11/11 12/12/12 10/10/10 9/9/9
f 15/15/15 16/16/16 14/14/14 13/13/13
f 19/19/19 20/20/20 18/18/18 17/17/17
f 23/23/23 24/24/24 22/22/22 21/21/21

