# Exported from ProBuilder
# http://www.procore3d.com/probuilder
# 6/26/2018 1:16:11 PM

mtllib ./New_Game_Object_(96).mtl
o New Game Object (96)

g New Game Object (96)
v 360.4974 0.7065804 37.55133
v 353.9538 0.7065804 38.07029
v 335.7904 0.7065804 55.88773
v 335.7904 0.7065804 60.31993
v 360.4958 0.7065804 60.31993
v 360.4958 4.214591 60.31993
v 335.7904 4.214591 55.88773
v 335.7904 4.214591 60.31993
v 353.9538 4.214591 38.07029
v 360.4974 4.214591 37.55133
v 353.9538 0.7065804 38.07029
v 360.4974 0.7065804 37.55133
v 353.9538 4.214591 38.07029
v 360.4974 4.214591 37.55133
v 360.4974 0.7065804 37.55133
v 360.4958 0.7065804 60.31993
v 360.4974 4.214591 37.55133
v 360.4958 4.214591 60.31993
v 335.7904 0.7065804 55.88773
v 353.9538 0.7065804 38.07029
v 335.7904 4.214591 55.88773
v 353.9538 4.214591 38.07029
v 335.7904 0.7065804 60.31993
v 335.7904 0.7065804 55.88773
v 335.7904 4.214591 60.31993
v 335.7904 4.214591 55.88773
v 360.4958 0.7065804 60.31993
v 335.7904 0.7065804 60.31993
v 360.4958 4.214591 60.31993
v 335.7904 4.214591 60.31993

vn 0 -1 0
vn 0 -1 0
vn 0 -1 0
vn 0 -1 0
vn 0 -1 0
vn 0 1 0
vn 0 1 0
vn 0 1 0
vn 0 1 0
vn 0 1 0
vn -0.07905909 0 -0.99687
vn -0.07905909 0 -0.99687
vn -0.07905909 0 -0.99687
vn -0.07905909 0 -0.99687
vn 1 0 6.718437E-05
vn 1 0 6.718437E-05
vn 1 0 6.718437E-05
vn 1 0 6.718437E-05
vn -0.7002753 0 -0.7138728
vn -0.7002753 0 -0.7138728
vn -0.7002753 0 -0.7138728
vn -0.7002753 0 -0.7138728
vn -1 0 0
vn -1 0 0
vn -1 0 0
vn -1 0 0
vn 0 0 1
vn 0 0 1
vn 0 0 1
vn 0 0 1

vt 12.16561 -11.67648
vt 5.622009 -11.15753
vt -12.5414 6.659916
vt -12.5414 11.09211
vt 12.16408 11.09211
vt -12.16408 11.09211
vt 12.5414 6.659916
vt 12.5414 11.09211
vt -5.622009 -11.15753
vt -12.16561 -11.67648
vt -6.486516 -2.750715
vt -13.05066 -2.750715
vt -6.486516 0.7572956
vt -13.05066 0.7572956
vt 11.6773 -2.750715
vt -11.0913 -2.750715
vt 11.6773 0.7572956
vt -11.0913 0.7572956
vt 13.61674 -2.750715
vt -11.82674 -2.750715
vt 13.61674 0.7572956
vt -11.82674 0.7572956
vt 11.09211 -2.750715
vt 6.659916 -2.750715
vt 11.09211 0.7572956
vt 6.659916 0.7572956
vt 12.16408 -2.750715
vt -12.5414 -2.750715
vt 12.16408 0.7572956
vt -12.5414 0.7572956

g New Game Object (96)_0
usemtl other_walkable
f 13/13/13 14/14/14 12/12/12 11/11/11
f 17/17/17 18/18/18 16/16/16 15/15/15
f 21/21/21 22/22/22 20/20/20 19/19/19
f 25/25/25 26/26/26 24/24/24 23/23/23
f 29/29/29 30/30/30 28/28/28 27/27/27

g New Game Object (96)_1
usemtl other_walkable
f 4/4/4 3/3/3 5/5/5
f 3/3/3 2/2/2 5/5/5
f 2/2/2 1/1/1 5/5/5
f 6/6/6 10/10/10 9/9/9
f 6/6/6 9/9/9 7/7/7
f 6/6/6 7/7/7 8/8/8

