# Exported from ProBuilder
# http://www.procore3d.com/probuilder
# 6/26/2018 1:16:12 PM

mtllib ./New_Game_Object_(95).mtl
o New Game Object (95)

g New Game Object (95)
v 384.1854 16.07 25.23883
v 384.1854 16.07 17.55195
v 380.0216 16.07 17.71209
v 376.4985 16.07 21.23524
v 376.3383 16.07 25.07868
v 384.1854 25.21189 25.23883
v 376.4985 25.21189 21.23524
v 376.3383 25.21189 25.07868
v 380.0216 25.21189 17.71209
v 384.1854 25.21189 17.55195
v 380.0216 16.07 17.71209
v 384.1854 16.07 17.55195
v 380.0216 25.21189 17.71209
v 384.1854 25.21189 17.55195
v 384.1854 16.07 17.55195
v 384.1854 16.07 25.23883
v 384.1854 25.21189 17.55195
v 384.1854 25.21189 25.23883
v 376.4985 16.07 21.23524
v 380.0216 16.07 17.71209
v 376.4985 25.21189 21.23524
v 380.0216 25.21189 17.71209
v 376.3383 16.07 25.07868
v 376.4985 16.07 21.23524
v 376.3383 25.21189 25.07868
v 376.4985 25.21189 21.23524
v 384.1854 16.07 25.23883
v 376.3383 16.07 25.07868
v 384.1854 25.21189 25.23883
v 376.3383 25.21189 25.07868

vn 0 -0.5890146 0
vn 0 -0.5890147 0
vn 0 -0.5890147 0
vn 0 -0.5890147 0
vn 0 -0.5890147 0
vn 0 0.5890146 0
vn 0 0.5890147 0
vn 0 0.5890147 0
vn 0 0.5890147 0
vn 0 0.5890147 0
vn -0.03068997 0 -0.7979434
vn -0.03068997 0 -0.7979434
vn -0.03068997 0 -0.7979434
vn -0.03068997 0 -0.7979434
vn 0.7985334 0 0
vn 0.7985334 0 0
vn 0.7985334 0 0
vn 0.7985334 0 0
vn -0.5646487 0 -0.5646481
vn -0.5646487 0 -0.5646481
vn -0.5646487 0 -0.5646481
vn -0.5646487 0 -0.5646481
vn -0.7978411 0 -0.03324453
vn -0.7978411 0 -0.03324453
vn -0.7978411 0 -0.03324453
vn -0.7978411 0 -0.03324453
vn -0.01629315 0 0.7983673
vn -0.01629315 0 0.7983673
vn -0.01629315 0 0.7983673
vn -0.01629315 0 0.7983673

vt 4.913402 4.813125
vt 4.913402 -4.813123
vt -0.300828 -4.612576
vt -4.71285 -0.2005491
vt -4.913404 4.612578
vt -4.913402 4.813125
vt 4.71285 -0.2005491
vt 4.913404 4.612578
vt 0.300828 -4.612576
vt -4.913402 -4.813123
vt 0.1233309 -7.760322
vt -5.094754 -7.760322
vt 0.1233309 7.760321
vt -5.094754 7.760321
vt 4.813123 -7.760322
vt -4.813125 -7.760322
vt 4.813123 7.760321
vt -4.813125 7.760321
vt 3.190676 -7.760322
vt -3.048869 -7.760322
vt 3.190676 7.760321
vt -3.048869 7.760321
vt 4.813134 -7.760322
vt -0.004169991 -7.760322
vt 4.813134 7.760321
vt -0.004169991 7.760321
vt 5.010585 -7.760322
vt -4.818266 -7.760322
vt 5.010585 7.760321
vt -4.818266 7.760321

g New Game Object (95)_0
usemtl Buildings
f 13/13/13 14/14/14 12/12/12 11/11/11
f 17/17/17 18/18/18 16/16/16 15/15/15
f 21/21/21 22/22/22 20/20/20 19/19/19
f 25/25/25 26/26/26 24/24/24 23/23/23
f 29/29/29 30/30/30 28/28/28 27/27/27

g New Game Object (95)_1
usemtl Buildings
f 5/5/5 4/4/4 1/1/1
f 4/4/4 3/3/3 1/1/1
f 3/3/3 2/2/2 1/1/1
f 6/6/6 10/10/10 9/9/9
f 6/6/6 9/9/9 7/7/7
f 6/6/6 7/7/7 8/8/8

