# Exported from ProBuilder
# http://www.procore3d.com/probuilder
# 6/26/2018 1:16:04 PM

mtllib ./New_Game_Object_(100).mtl
o New Game Object (100)

g New Game Object (100)
v 344.6495 -42.7 26.87871
v 344.6494 -42.7 15.78469
v 338.8723 -42.70001 15.78469
v 338.8723 -42.69999 3.804739
v 330.6975 -42.7 3.804739
v 330.6729 -42.70001 26.88123
v 343.9712 -32.73833 26.91038
v 343.9711 -32.73833 15.75042
v 338.8723 -32.73834 15.75042
v 330.6729 -32.73834 26.9129
v 330.6679 -32.73833 3.804739
v 338.8723 -32.73833 3.804739
v 330.6975 -42.7 3.804739
v 338.8723 -42.69999 3.804739
v 330.6679 -42.7 3.804739
v 338.8723 -42.69999 3.804739
v 338.8723 -42.69999 3.804739
v 338.8723 -42.70001 15.78469
v 338.8723 -42.69999 3.804739
v 338.8723 -42.70001 15.75042
v 330.6729 -42.70001 26.88123
v 330.6975 -42.7 3.804739
v 330.6729 -42.70001 26.9129
v 330.6679 -42.7 3.804739
v 344.6495 -42.7 26.87871
v 330.6729 -42.70001 26.88123
v 343.9712 -42.7 26.91038
v 330.6729 -42.70001 26.9129
v 338.8723 -42.70001 15.78469
v 344.6494 -42.7 15.78469
v 338.8723 -42.70001 15.75042
v 343.9711 -42.7 15.75042
v 344.6494 -42.7 15.78469
v 344.6495 -42.7 26.87871
v 343.9711 -42.7 15.75042
v 343.9712 -42.7 26.91038
v 330.6679 -42.7 3.804739
v 338.8723 -42.69999 3.804739
v 330.6679 -32.73833 3.804739
v 338.8723 -32.73833 3.804739
v 338.8723 -42.69999 3.804739
v 338.8723 -42.70001 15.75042
v 338.8723 -32.73833 3.804739
v 338.8723 -32.73834 15.75042
v 330.6729 -42.70001 26.9129
v 330.6679 -42.7 3.804739
v 330.6729 -32.73834 26.9129
v 330.6679 -32.73833 3.804739
v 343.9712 -42.7 26.91038
v 330.6729 -42.70001 26.9129
v 343.9712 -32.73833 26.91038
v 330.6729 -32.73834 26.9129
v 338.8723 -42.70001 15.75042
v 343.9711 -42.7 15.75042
v 338.8723 -32.73834 15.75042
v 343.9711 -32.73833 15.75042
v 343.9711 -42.7 15.75042
v 343.9712 -42.7 26.91038
v 343.9711 -32.73833 15.75042
v 343.9712 -32.73833 26.91038

vn 8.931535E-07 -1.520656 3.300122E-07
vn 1.526913E-06 -1.520656 -1.726523E-11
vn 4.0222E-07 -1.520656 -2.850053E-07
vn 1.079056E-06 -1.520656 -1.472642E-06
vn 2.71642E-08 -1.520656 -7.54857E-07
vn 0 -1.520656 0
vn -9.590204E-07 1.520656 -3.522565E-07
vn -1.730051E-06 1.520656 1.9559E-11
vn -4.135415E-07 1.520656 2.936841E-07
vn 0 1.520656 0
vn -2.402746E-08 1.520656 7.549354E-07
vn -1.075168E-06 1.520656 1.476866E-06
vn 0 0 -1.520656
vn 0 0 1.520656
vn 0 0 -1.520656
vn 0 0 -1.520656
vn -0.001787171 -1.520655 -1.47475E-06
vn -0.003569221 -1.520652 -1.472637E-06
vn 0 -1.520656 -1.476866E-06
vn -0.001787171 -1.520655 -1.47475E-06
vn -4.096355E-07 -1.520656 -3.82165E-07
vn 0 -1.520656 -3.822544E-07
vn -0.001752412 -1.520655 0
vn -4.096355E-07 -1.520656 -3.82165E-07
vn 6.481134E-07 -1.520656 6.940628E-06
vn 6.311356E-07 -1.520656 0
vn 6.660298E-07 -1.520656 1.426499E-05
vn 6.481134E-07 -1.520656 6.940628E-06
vn 1.622147E-06 -1.520656 -1.605351E-05
vn 1.526913E-06 -1.520656 -3.022268E-05
vn 1.730051E-06 -1.520656 7.138078E-10
vn 1.622147E-06 -1.520656 -1.605351E-05
vn 0 1.520656 0
vn 0 1.520656 0
vn 0 1.520656 0
vn 0 1.520656 0
vn 0 0 -1.520656
vn 0 0 -1.520656
vn 0 0 -1.520656
vn 0 0 -1.520656
vn 1.520657 0 0
vn 1.520657 0 0
vn 1.520657 0 0
vn 1.520657 0 0
vn -1.520657 0 0.0003312466
vn -1.520657 0 0.0003312466
vn -1.520657 0 0.0003312466
vn -1.520657 0 0.0003312466
vn 0.0002879675 0 1.520656
vn 0.0002879675 0 1.520656
vn 0.0002879675 0 1.520656
vn 0.0002879675 0 1.520656
vn 0 0 -1.520656
vn 0 0 -1.520656
vn 0 0 -1.520656
vn 0 0 -1.520656
vn 1.520657 0 -1.71917E-05
vn 1.520657 0 -1.71917E-05
vn 1.520657 0 -1.71917E-05
vn 1.520657 0 -1.71917E-05

vt 1.87387 7.575604
vt 1.873787 0.2800584
vt -1.925281 0.2800584
vt -1.925281 -7.598088
vt -7.301134 -7.598088
vt -7.317254 7.57726
vt -1.427804 7.596429
vt -1.427721 0.2575202
vt 1.925269 0.2575202
vt 7.317251 7.598085
vt 7.320561 -7.59809
vt 1.925269 -7.59809
vt 0 0
vt 0 0
vt 0 0
vt 0 0
vt -1.925281 -7.598088
vt -1.925281 0.2800584
vt -1.925272 -7.598088
vt -1.925272 0.2575221
vt 7.317254 7.57726
vt 7.301134 -7.598088
vt 7.317254 7.598087
vt 7.320564 -7.598088
vt 1.87387 7.575604
vt -7.317254 7.57726
vt 1.427802 7.596431
vt -7.317254 7.598087
vt -1.925281 0.2800584
vt 1.873787 0.2800584
vt -1.925272 0.2575221
vt 1.427719 0.2575221
vt -1.873787 0.2800584
vt -1.87387 7.575604
vt -1.427719 0.2575221
vt -1.427802 7.596431
vt 7.320564 0
vt 1.925272 3.814697E-06
vt 7.320564 6.550901
vt 1.925272 6.550905
vt 7.598088 3.814697E-06
vt -0.2575221 -3.814697E-06
vt 7.598088 6.550905
vt -0.2575221 6.550898
vt 7.596493 -3.814697E-06
vt -7.599682 0
vt 7.596493 6.550898
vt -7.599682 6.550901
vt 1.426363 0
vt -7.318692 -3.814697E-06
vt 1.426363 6.550901
vt -7.318692 6.550898
vt 1.925272 -3.814697E-06
vt -1.427719 0
vt 1.925272 6.550898
vt -1.427719 6.550901
vt -0.2575383 0
vt -7.596447 0
vt -0.2575383 6.550901
vt -7.596447 6.550901

g New Game Object (100)_0
usemtl Buildings
f 15/15/15 16/16/16 14/14/14 13/13/13
f 19/19/19 20/20/20 18/18/18 17/17/17
f 23/23/23 24/24/24 22/22/22 21/21/21
f 27/27/27 28/28/28 26/26/26 25/25/25
f 31/31/31 32/32/32 30/30/30 29/29/29
f 35/35/35 36/36/36 34/34/34 33/33/33
f 39/39/39 40/40/40 38/38/38 37/37/37
f 43/43/43 44/44/44 42/42/42 41/41/41
f 47/47/47 48/48/48 46/46/46 45/45/45
f 51/51/51 52/52/52 50/50/50 49/49/49
f 55/55/55 56/56/56 54/54/54 53/53/53
f 59/59/59 60/60/60 58/58/58 57/57/57

g New Game Object (100)_1
usemtl Buildings
f 3/3/3 2/2/2 1/1/1
f 6/6/6 3/3/3 1/1/1
f 6/6/6 5/5/5 3/3/3
f 5/5/5 4/4/4 3/3/3
f 9/9/9 12/12/12 11/11/11
f 9/9/9 11/11/11 10/10/10
f 7/7/7 9/9/9 10/10/10
f 7/7/7 8/8/8 9/9/9

