# Exported from ProBuilder
# http://www.procore3d.com/probuilder
# 6/26/2018 1:16:04 PM

mtllib ./New_Game_Object_(57).mtl
o New Game Object (57)

g New Game Object (57)
v 335.2508 1.536773 -0.9689703
v 360.6339 1.536773 -0.9667978
v 360.6425 1.536773 -24.45382
v 355.7311 1.536773 -24.45382
v 355.7311 1.536773 -15.55758
v 352.43 1.536773 -12.08265
v 352.2562 1.536773 -4.95905
v 342.7001 1.536773 -4.090321
v 342.7001 1.536773 -10.22229
v 335.2646 1.536773 -7.912741
v 360.7194 15.70835 -0.9802284
v 360.7281 15.70835 -24.45382
v 355.7311 15.70835 -15.55758
v 355.7311 15.70835 -24.45382
v 352.2562 15.70835 -4.95905
v 352.43 15.70835 -12.08265
v 342.7001 15.70835 -4.090321
v 335.2508 15.70835 -0.9824009
v 335.2487 15.70835 -7.912741
v 342.7001 15.70835 -10.23635
v 335.2646 1.536773 -7.912741
v 342.7001 1.536773 -10.22229
v 335.2487 1.536773 -7.912741
v 342.7001 1.536773 -10.22932
v 342.7001 1.536773 -10.22229
v 342.7001 1.536773 -4.090321
v 342.7001 1.536773 -10.22932
v 342.7001 1.536773 -4.090321
v 335.2508 1.536773 -0.9689703
v 335.2646 1.536773 -7.912741
v 335.2508 1.536773 -0.9824009
v 335.2487 1.536773 -7.912741
v 360.6339 1.536773 -0.9667978
v 335.2508 1.536773 -0.9689703
v 360.7194 1.536773 -0.9802284
v 335.2508 1.536773 -0.9824009
v 342.7001 1.536773 -4.090321
v 352.2562 1.536773 -4.95905
v 342.7001 1.536773 -4.090321
v 352.2562 1.536773 -4.95905
v 352.43 1.536773 -12.08265
v 355.7311 1.536773 -15.55758
v 352.43 1.536773 -12.08265
v 355.7311 1.536773 -15.55758
v 352.2562 1.536773 -4.95905
v 352.43 1.536773 -12.08265
v 352.2562 1.536773 -4.95905
v 352.43 1.536773 -12.08265
v 355.7311 1.536773 -15.55758
v 355.7311 1.536773 -24.45382
v 355.7311 1.536773 -15.55758
v 355.7311 1.536773 -24.45382
v 355.7311 1.536773 -24.45382
v 360.6425 1.536773 -24.45382
v 355.7311 1.536773 -24.45382
v 360.7281 1.536773 -24.45382
v 360.6425 1.536773 -24.45382
v 360.6339 1.536773 -0.9667978
v 360.7281 1.536773 -24.45382
v 360.7194 1.536773 -0.9802284
v 335.2487 1.536773 -7.912741
v 342.7001 1.536773 -10.22932
v 335.2487 15.70835 -7.912741
v 342.7001 15.70835 -10.23635
v 342.7001 1.536773 -10.22932
v 342.7001 1.536773 -4.090321
v 342.7001 15.70835 -10.23635
v 342.7001 15.70835 -4.090321
v 335.2508 1.536773 -0.9824009
v 335.2487 1.536773 -7.912741
v 335.2508 15.70835 -0.9824009
v 335.2487 15.70835 -7.912741
v 360.7194 1.536773 -0.9802284
v 335.2508 1.536773 -0.9824009
v 360.7194 15.70835 -0.9802284
v 335.2508 15.70835 -0.9824009
v 342.7001 1.536773 -4.090321
v 352.2562 1.536773 -4.95905
v 342.7001 15.70835 -4.090321
v 352.2562 15.70835 -4.95905
v 352.43 1.536773 -12.08265
v 355.7311 1.536773 -15.55758
v 352.43 15.70835 -12.08265
v 355.7311 15.70835 -15.55758
v 352.2562 1.536773 -4.95905
v 352.43 1.536773 -12.08265
v 352.2562 15.70835 -4.95905
v 352.43 15.70835 -12.08265
v 355.7311 1.536773 -15.55758
v 355.7311 1.536773 -24.45382
v 355.7311 15.70835 -15.55758
v 355.7311 15.70835 -24.45382
v 355.7311 1.536773 -24.45382
v 360.7281 1.536773 -24.45382
v 355.7311 15.70835 -24.45382
v 360.7281 15.70835 -24.45382
v 360.7281 1.536773 -24.45382
v 360.7194 1.536773 -0.9802284
v 360.7281 15.70835 -24.45382
v 360.7194 15.70835 -0.9802284

vn 0 -1 0
vn 0 -1 0
vn 0 -1 0
vn 0 -1 0
vn 0 -1 0
vn 0 -1 0
vn 0 -1 0
vn 0 -1 0
vn 0 -1 0
vn 0 -1 0
vn 0 1 0
vn 0 1 0
vn 0 1 0
vn 0 1 0
vn 0 1 0
vn 0 1 0
vn 0 0.9999999 0
vn 0 1 0
vn 0 1 0
vn 0 1 0
vn 0 -1 0
vn 0 -1 0
vn 0 -1 0
vn 0 -1 0
vn 0 0 0
vn 0 0 0
vn 0 0 0
vn 0 0 0
vn 0 -1 0
vn 0 -1 0
vn 0 1 0
vn 0 -1 0
vn 0 1 0
vn 0 1 0
vn 0 0.9999999 0
vn 0 1 0
vn 0 0 0
vn 0 0 0
vn 0 0 0
vn 0 0 0
vn 0 0 0
vn 0 0 0
vn 0 0 0
vn 0 0 0
vn 0 0 0
vn 0 0 0
vn 0 0 0
vn 0 0 0
vn 0 0 0
vn 0 0 0
vn 0 0 0
vn 0 0 0
vn 0 1 0
vn 0 -1 0
vn 0 1 0
vn 0 1 0
vn 0 -1 0
vn 0 -1 0
vn 0 -1 0
vn 0 -1 0
vn -0.297282 -0.0002367547 -0.9547898
vn -0.2968714 -0.0004735727 -0.9549174
vn -0.2976924 0 -0.9546618
vn -0.297282 -0.0002367547 -0.9547898
vn 1 0 0
vn 1 0 0
vn 0.9999999 0 0
vn 1 0 0
vn -0.9999999 0 0.0003134724
vn -0.9999999 0 0.0003134724
vn -0.9999999 0 0.0003134724
vn -0.9999999 0 0.0003134724
vn -8.529992E-05 0 1
vn -8.529992E-05 0 1
vn -8.529992E-05 0 1
vn -8.529992E-05 0 1
vn -0.09053548 0 -0.9958933
vn -0.09053548 0 -0.9958933
vn -0.09053548 0 -0.9958933
vn -0.09053548 0 -0.9958933
vn -0.7249997 0 -0.6887492
vn -0.7249997 0 -0.6887492
vn -0.7249997 0 -0.6887492
vn -0.7249997 0 -0.6887492
vn -0.9997028 0 -0.02438375
vn -0.9997028 0 -0.02438375
vn -0.9997028 0 -0.02438375
vn -0.9997028 0 -0.02438375
vn -1 0 0
vn -1 0 0
vn -1 0 0
vn -1 0 0
vn 0 0 -1
vn 0 0 -1
vn 0 0 -1
vn 0 0 -1
vn 0.9999999 0 0.0003699543
vn 0.9999999 0 0.0003699543
vn 0.9999999 0 0.0003699543
vn 0.9999999 0 0.0003699543

vt -12.73756 11.74133
vt 12.64549 11.74351
vt 12.65418 -11.74352
vt 7.74276 -11.74352
vt 7.74276 -2.847278
vt 4.441582 0.6276493
vt 4.26783 7.751254
vt -5.288223 8.619984
vt -5.288223 2.488016
vt -12.72379 4.797564
vt -12.73105 11.73008
vt -12.73973 -11.74352
vt -7.74276 -2.847278
vt -7.74276 -11.74352
vt -4.26783 7.751254
vt -4.441582 0.6276493
vt 5.288223 8.619984
vt 12.73756 11.7279
vt 12.73973 4.797564
vt 5.288223 2.473958
vt -12.72379 4.797564
vt -5.288223 2.488016
vt -12.73973 4.797564
vt -5.288223 2.480987
vt 0 0
vt 0 0
vt 0 0
vt 0 0
vt -12.73756 11.74133
vt -12.72379 4.797564
vt -12.73756 11.7279
vt -12.73973 4.797564
vt -12.64549 11.74351
vt 12.73756 11.74133
vt -12.73105 11.73008
vt 12.73756 11.7279
vt 0 0
vt 0 0
vt 0 0
vt 0 0
vt 0 0
vt 0 0
vt 0 0
vt 0 0
vt 0 0
vt 0 0
vt 0 0
vt 0 0
vt 0 0
vt 0 0
vt 0 0
vt 0 0
vt 0 0
vt 0 0
vt 0 0
vt 0 0
vt 12.65418 -11.74352
vt 12.64549 11.74351
vt 12.73973 -11.74352
vt 12.73105 11.73008
vt 13.58965 0
vt 5.786351 0
vt 13.58965 14.17158
vt 5.784265 14.17158
vt -2.480987 0
vt -8.619984 0
vt -2.473958 14.17158
vt -8.619984 14.17158
vt 11.72391 0
vt 4.79357 0
vt 11.72391 14.17158
vt 4.79357 14.17158
vt 12.73205 0
vt -12.73656 0
vt 12.73205 14.17158
vt -12.73656 14.17158
vt 6.046921 0
vt -3.54854 0
vt 6.046921 14.17158
vt -3.54854 14.17158
vt -2.60409 0
vt -7.397095 0
vt -2.60409 14.17158
vt -7.397095 14.17158
vt 7.644884 0
vt 0.5191603 0
vt 7.644884 14.17158
vt 0.5191603 14.17158
vt -2.847278 0
vt -11.74352 0
vt -2.847278 14.17158
vt -11.74352 14.17158
vt -7.74276 0
vt -12.73973 0
vt -7.74276 14.17158
vt -12.73973 14.17158
vt 11.74823 0
vt -11.72537 0
vt 11.74823 14.17158
vt -11.72537 14.17158

g New Game Object (57)_0
usemtl Buildings
f 23/23/23 24/24/24 22/22/22 21/21/21
f 27/27/27 28/28/28 26/26/26 25/25/25
f 31/31/31 32/32/32 30/30/30 29/29/29
f 35/35/35 36/36/36 34/34/34 33/33/33
f 39/39/39 40/40/40 38/38/38 37/37/37
f 43/43/43 44/44/44 42/42/42 41/41/41
f 47/47/47 48/48/48 46/46/46 45/45/45
f 51/51/51 52/52/52 50/50/50 49/49/49
f 55/55/55 56/56/56 54/54/54 53/53/53
f 59/59/59 60/60/60 58/58/58 57/57/57
f 63/63/63 64/64/64 62/62/62 61/61/61
f 67/67/67 68/68/68 66/66/66 65/65/65
f 71/71/71 72/72/72 70/70/70 69/69/69
f 75/75/75 76/76/76 74/74/74 73/73/73
f 79/79/79 80/80/80 78/78/78 77/77/77
f 83/83/83 84/84/84 82/82/82 81/81/81
f 87/87/87 88/88/88 86/86/86 85/85/85
f 91/91/91 92/92/92 90/90/90 89/89/89
f 95/95/95 96/96/96 94/94/94 93/93/93
f 99/99/99 100/100/100 98/98/98 97/97/97

g New Game Object (57)_1
usemtl Buildings
f 5/5/5 3/3/3 2/2/2
f 5/5/5 4/4/4 3/3/3
f 5/5/5 2/2/2 7/7/7
f 6/6/6 5/5/5 7/7/7
f 8/8/8 7/7/7 2/2/2
f 8/8/8 2/2/2 1/1/1
f 1/1/1 10/10/10 8/8/8
f 10/10/10 9/9/9 8/8/8
f 17/17/17 20/20/20 19/19/19
f 17/17/17 19/19/19 18/18/18
f 18/18/18 11/11/11 17/17/17
f 11/11/11 15/15/15 17/17/17
f 15/15/15 13/13/13 16/16/16
f 15/15/15 11/11/11 13/13/13
f 12/12/12 14/14/14 13/13/13
f 11/11/11 12/12/12 13/13/13

