# Exported from ProBuilder
# http://www.procore3d.com/probuilder
# 6/26/2018 1:16:21 PM

mtllib ./New_Game_Object_(102).mtl
o New Game Object (102)

g New Game Object (102)
v 352.726 -32.41 -22.52788
v 352.726 -32.41 -32.26322
v 331.414 -32.41 -32.2541
v 331.414 -32.41 -10.40025
v 341.2333 -32.41 -10.44957
v 341.2381 -32.41 -22.53472
v 341.1756 -32.10983 -22.50601
v 361.7067 -32.10983 -22.49917
v 361.7067 -32.10983 -32.30315
v 331.4141 -32.10983 -32.29404
v 331.4141 -32.10983 -10.40025
v 341.1707 -32.10983 -10.39342
v 341.2381 -32.41 -22.53472
v 341.2333 -32.41 -10.44957
v 341.1756 -32.41 -22.50601
v 341.1707 -32.41 -10.39342
v 341.2333 -32.41 -10.44957
v 331.414 -32.41 -10.40025
v 341.1707 -32.41 -10.39342
v 331.4141 -32.41 -10.40025
v 331.414 -32.41 -10.40025
v 331.414 -32.41 -32.2541
v 331.4141 -32.41 -10.40025
v 331.4141 -32.41 -32.29404
v 331.414 -32.41 -32.2541
v 352.726 -32.41 -32.26322
v 331.4141 -32.41 -32.29404
v 361.7067 -32.41 -32.30315
v 352.726 -32.41 -32.26322
v 352.726 -32.41 -22.52788
v 361.7067 -32.41 -32.30315
v 361.7067 -32.41 -22.49917
v 352.726 -32.41 -22.52788
v 341.2381 -32.41 -22.53472
v 361.7067 -32.41 -22.49917
v 341.1756 -32.41 -22.50601
v 341.1756 -32.41 -22.50601
v 341.1707 -32.41 -10.39342
v 341.1756 -32.10983 -22.50601
v 341.1707 -32.10983 -10.39342
v 337.9888 -33.04299 3.863087
v 331.4464 -33.04299 3.856251
v 337.9888 -32.74282 3.863087
v 331.4464 -32.74282 3.856251
v 331.4141 -32.41 -10.40025
v 331.4141 -32.41 -32.29404
v 331.4141 -32.10983 -10.40025
v 331.4141 -32.10983 -32.29404
v 331.4141 -32.41 -32.29404
v 361.7067 -32.41 -32.30315
v 331.4141 -32.10983 -32.29404
v 361.7067 -32.10983 -32.30315
v 365.9118 -31.16152 -32.30315
v 365.9118 -31.16152 -22.49917
v 365.9118 -30.86135 -32.30315
v 365.9118 -30.86135 -22.49917
v 361.7067 -32.41 -22.49917
v 341.1756 -32.41 -22.50601
v 361.7067 -32.10983 -22.49917
v 341.1756 -32.10983 -22.50601
v 341.1707 -32.41 -10.39342
v 331.4141 -32.41 -10.40025
v 337.9888 -32.41 -4.868243
v 331.4464 -32.41 -4.87508
v 341.1707 -32.10983 -10.39342
v 341.1707 -32.41 -10.39342
v 337.9888 -32.10983 -4.868243
v 337.9888 -32.41 -4.868243
v 331.4141 -32.41 -10.40025
v 331.4141 -32.10983 -10.40025
v 331.4464 -32.41 -4.87508
v 331.4464 -32.10983 -4.87508
v 331.4141 -32.10983 -10.40025
v 341.1707 -32.10983 -10.39342
v 331.4464 -32.10983 -4.87508
v 337.9888 -32.10983 -4.868243
v 337.9888 -32.41 -4.868243
v 331.4464 -32.41 -4.87508
v 337.9888 -33.04299 3.863087
v 331.4464 -33.04299 3.856251
v 337.9888 -32.10983 -4.868243
v 337.9888 -32.41 -4.868243
v 337.9888 -32.74282 3.863087
v 337.9888 -33.04299 3.863087
v 331.4464 -32.41 -4.87508
v 331.4464 -32.10983 -4.87508
v 331.4464 -33.04299 3.856251
v 331.4464 -32.74282 3.856251
v 331.4464 -32.10983 -4.87508
v 337.9888 -32.10983 -4.868243
v 331.4464 -32.74282 3.856251
v 337.9888 -32.74282 3.863087
v 361.7067 -32.41 -32.30315
v 361.7067 -32.41 -22.49917
v 365.9118 -31.16152 -32.30315
v 365.9118 -31.16152 -22.49917
v 361.7067 -32.10983 -32.30315
v 361.7067 -32.41 -32.30315
v 365.9118 -30.86135 -32.30315
v 365.9118 -31.16152 -32.30315
v 361.7067 -32.41 -22.49917
v 361.7067 -32.10983 -22.49917
v 365.9118 -31.16152 -22.49917
v 365.9118 -30.86135 -22.49917
v 361.7067 -32.10983 -22.49917
v 361.7067 -32.10983 -32.30315
v 365.9118 -30.86135 -22.49917
v 365.9118 -30.86135 -32.30315

vn 0 -1 0
vn 0 -1 0
vn 0 -0.9999999 0
vn 0 -1 0
vn 0 -1 0
vn 0 -1 0
vn 0 1 0
vn 0 1 0
vn 0 1 0
vn 0 1 0
vn 0 1 0
vn 0 1 0
vn 0 1 0
vn 0 1 0
vn 0 1 0
vn 0 1 0
vn 0 -1 0
vn 0 -1 0
vn 0 -1 0
vn 0 -1 0
vn 0 1 0
vn 0 1 0
vn 0 1 0
vn 0 1 0
vn 0 -1 0
vn 0 -1 0
vn 0 -1 0
vn 0 -1 0
vn 0 -1 0
vn 0 -1 0
vn 0 -1 0
vn 0 -1 0
vn 0 -1 0
vn 0 -1 0
vn 0 -1 0
vn 0 -1 0
vn 0.9625006 0 0.0003423898
vn 0.9625006 0 0.0003423898
vn 0.9625006 0 0.0003423898
vn 0.9625006 0 0.0003423898
vn -0.001064133 0 0.9096876
vn -0.001064133 0 0.9096876
vn -0.001064133 0 0.9096876
vn -0.001064133 0 0.9096876
vn -0.9625006 0 0
vn -0.9625006 0 0
vn -0.9625006 0 0
vn -0.9625006 0 0
vn -0.0003064687 0 -0.9096882
vn -0.0003064687 0 -0.9096882
vn -0.0003064687 0 -0.9096882
vn -0.0003064687 0 -0.9096882
vn 0.9625006 0 0
vn 0.9625006 0 0
vn 0.9625006 0 0
vn 0.9625006 0 0
vn -0.0003392306 0 0.9096881
vn -0.0003392306 0 0.9096881
vn -0.0003392306 0 0.9096881
vn -0.0003392306 0 0.9096881
vn 0 -1 0
vn 0 -1 0
vn 0 -1 0
vn 0 -1 0
vn 0.8453828 0 0.4348987
vn 0.8453828 0 0.4348987
vn 0.8453828 0 0.4348987
vn 0.8453828 0 0.4348987
vn -0.9624859 0 0.00503034
vn -0.9624859 0 0.00503034
vn -0.9624859 0 0.00503034
vn -0.9624859 0 0.00503034
vn 0 1 0
vn 0 1 0
vn 0 1 0
vn 0 1 0
vn 7.002685E-05 -0.9978324 -0.05986308
vn 7.002657E-05 -0.9978324 -0.05986308
vn 7.002711E-05 -0.9978324 -0.05986308
vn 7.002685E-05 -0.9978324 -0.05986308
vn 0.9625005 0 0
vn 0.9625005 0 0
vn 0.9625005 0 0
vn 0.9625005 0 0
vn -0.9625005 0 0
vn -0.9625005 0 0
vn -0.9625005 0 0
vn -0.9625005 0 0
vn -7.002684E-05 0.9978324 0.05986308
vn -7.002655E-05 0.9978324 0.05986308
vn -7.002711E-05 0.9978324 0.05986308
vn -7.002684E-05 0.9978324 0.05986308
vn 0.2644622 -0.9615112 0
vn 0.2644622 -0.9615112 0
vn 0.2644622 -0.9615112 0
vn 0.2644622 -0.9615112 0
vn 0 0 -0.9096882
vn 0 0 -0.9096882
vn 0 0 -0.9096882
vn 0 0 -0.9096882
vn 0 0 0.9096882
vn 0 0 0.9096882
vn 0 0 0.9096882
vn 0 0 0.9096882
vn -0.2644622 0.9615112 0
vn -0.2644622 0.9615112 0
vn -0.2644622 0.9615112 0
vn -0.2644622 0.9615112 0

vt 11.07113 -1.296706
vt 11.07113 -11.99855
vt -11.07113 -11.98853
vt -11.07113 12.03493
vt -0.8692751 11.98071
vt -0.8642626 -1.304224
vt 0.9292517 -1.272661
vt -20.40175 -1.265143
vt -20.40175 -12.04245
vt 11.07102 -12.03243
vt 11.07102 12.03493
vt 0.9342632 12.04244
vt 0.8642626 -1.304224
vt 0.8692751 11.98071
vt 0.9292517 -1.272661
vt 0.9342632 12.04244
vt -0.8692751 11.98071
vt -11.07113 12.03493
vt -0.9342632 12.04244
vt -11.07102 12.03493
vt 11.07113 12.03493
vt 11.07113 -11.98853
vt 11.07102 12.03493
vt 11.07102 -12.03243
vt -11.07113 -11.98853
vt 11.07113 -11.99855
vt -11.07102 -12.03243
vt 20.40175 -12.04245
vt 11.07113 -11.99855
vt 11.07113 -1.296706
vt 20.40175 -12.04245
vt 20.40175 -1.265143
vt 11.07113 -1.296706
vt -0.8642626 -1.304224
vt 20.40175 -1.265143
vt -0.9292517 -1.272661
vt 1.272311 0
vt -12.04279 0
vt 1.272311 0.3001653
vt -12.04279 0.3001653
vt -4.209571 -0.6329899
vt -11.00679 -0.6329899
vt -4.209571 -0.3328246
vt -11.00679 -0.3328246
vt 12.03493 0
vt -12.03243 0
vt 12.03493 0.3001653
vt -12.03243 0.3001653
vt 11.06719 0
vt -20.40559 0
vt 11.06719 0.3001653
vt -20.40559 0.3001653
vt 12.04245 1.248481
vt 1.265143 1.248481
vt 12.04245 1.548646
vt 1.265143 1.548646
vt 20.40131 0
vt -0.9297001 0
vt 20.40131 0.3001653
vt -0.9297001 0.3001653
vt -0.9342632 12.04244
vt -11.07102 12.03493
vt -4.240215 18.11614
vt -11.03743 18.10863
vt -11.02376 0.3001653
vt -11.02376 0
vt -17.93889 0.3001653
vt -17.93889 0
vt 11.97352 0
vt 11.97352 0.3001653
vt 18.04732 0
vt 18.04732 0.3001653
vt 11.07102 12.03493
vt 0.9342632 12.04244
vt 11.03743 18.10863
vt 4.240215 18.11614
vt -4.240215 18.07685
vt -11.03743 18.06932
vt -4.240261 27.69586
vt -11.03748 27.68833
vt -18.11614 0.3001653
vt -18.11614 0
vt -27.7143 -0.3328246
vt -27.7143 -0.6329899
vt 18.10863 0
vt 18.10863 0.3001653
vt 27.70678 -0.6329899
vt 27.70678 -0.3328246
vt 11.03741 18.04957
vt 4.240193 18.0571
vt 11.03745 27.66858
vt 4.240239 27.67611
vt 19.61651 -12.04245
vt 19.61651 -1.265143
vt 24.16032 -12.04245
vt 24.16032 -1.265143
vt -20.40175 0.3001653
vt -20.40175 0
vt -24.77067 1.548646
vt -24.77067 1.248481
vt 20.40175 0
vt 20.40175 0.3001653
vt 24.77067 1.248481
vt 24.77067 1.548646
vt -19.69899 -1.265143
vt -19.69899 -12.04245
vt -24.24279 -1.265143
vt -24.24279 -12.04245

g New Game Object (102)_0
usemtl Buildings
f 15/15/15 16/16/16 14/14/14 13/13/13
f 19/19/19 20/20/20 18/18/18 17/17/17
f 23/23/23 24/24/24 22/22/22 21/21/21
f 27/27/27 28/28/28 26/26/26 25/25/25
f 31/31/31 32/32/32 30/30/30 29/29/29
f 35/35/35 36/36/36 34/34/34 33/33/33
f 39/39/39 40/40/40 38/38/38 37/37/37
f 43/43/43 44/44/44 42/42/42 41/41/41
f 47/47/47 48/48/48 46/46/46 45/45/45
f 51/51/51 52/52/52 50/50/50 49/49/49
f 55/55/55 56/56/56 54/54/54 53/53/53
f 59/59/59 60/60/60 58/58/58 57/57/57
f 63/63/63 64/64/64 62/62/62 61/61/61
f 67/67/67 68/68/68 66/66/66 65/65/65
f 71/71/71 72/72/72 70/70/70 69/69/69
f 75/75/75 76/76/76 74/74/74 73/73/73
f 79/79/79 80/80/80 78/78/78 77/77/77
f 83/83/83 84/84/84 82/82/82 81/81/81
f 87/87/87 88/88/88 86/86/86 85/85/85
f 91/91/91 92/92/92 90/90/90 89/89/89
f 95/95/95 96/96/96 94/94/94 93/93/93
f 99/99/99 100/100/100 98/98/98 97/97/97
f 103/103/103 104/104/104 102/102/102 101/101/101
f 107/107/107 108/108/108 106/106/106 105/105/105

g New Game Object (102)_1
usemtl Buildings
f 2/2/2 1/1/1 6/6/6
f 2/2/2 6/6/6 3/3/3
f 4/4/4 3/3/3 6/6/6
f 4/4/4 6/6/6 5/5/5
f 12/12/12 7/7/7 11/11/11
f 7/7/7 10/10/10 11/11/11
f 10/10/10 7/7/7 9/9/9
f 7/7/7 8/8/8 9/9/9

