# Exported from ProBuilder
# http://www.procore3d.com/probuilder
# 6/26/2018 1:16:13 PM

mtllib ./New_Game_Object_(104).mtl
o New Game Object (104)

g New Game Object (104)
v 331.414 -22.83 -20.16868
v 331.414 -22.83 -10.43334
v 352.726 -22.83 -10.44246
v 352.726 -22.83 -27.31023
v 342.9066 -22.83 -27.30581
v 342.9018 -22.83 -20.16184
v 342.9644 -22.52984 -20.19056
v 331.414 -22.52984 -20.1974
v 331.414 -22.52984 -10.39341
v 352.7258 -22.52984 -10.40253
v 352.7258 -22.52984 -27.30619
v 342.9692 -22.52984 -27.30624
v 342.9018 -22.83 -20.16184
v 342.9066 -22.83 -27.30581
v 342.9644 -22.83 -20.19056
v 342.9692 -22.83 -27.30624
v 342.9066 -22.83 -27.30581
v 352.726 -22.83 -27.31023
v 342.9692 -22.83 -27.30624
v 352.7258 -22.83 -27.30619
v 352.726 -22.83 -27.31023
v 352.726 -22.83 -10.44246
v 352.7258 -22.83 -27.30619
v 352.7258 -22.83 -10.40253
v 352.726 -22.83 -10.44246
v 331.414 -22.83 -10.43334
v 352.7258 -22.83 -10.40253
v 331.414 -22.83 -10.39341
v 331.414 -22.83 -10.43334
v 331.414 -22.83 -20.16868
v 331.414 -22.83 -10.39341
v 331.414 -22.83 -20.1974
v 331.414 -22.83 -20.16868
v 342.9018 -22.83 -20.16184
v 331.414 -22.83 -20.1974
v 342.9644 -22.83 -20.19056
v 342.9644 -22.83 -20.19056
v 342.9692 -22.83 -27.30624
v 342.9644 -22.52984 -20.19056
v 342.9692 -22.52984 -27.30624
v 342.9692 -22.83 -32.61743
v 352.7258 -22.83 -32.61738
v 342.9692 -22.52984 -32.61743
v 352.7258 -22.52984 -32.61738
v 352.7258 -22.83 -27.30619
v 352.7258 -22.83 -10.40253
v 352.7258 -22.52984 -27.30619
v 352.7258 -22.52984 -10.40253
v 352.7258 -22.83 -10.40253
v 331.414 -22.83 -10.39341
v 352.7258 -22.52984 -10.40253
v 331.414 -22.52984 -10.39341
v 331.414 -22.83 -10.39341
v 331.414 -22.83 -20.1974
v 331.414 -22.52984 -10.39341
v 331.414 -22.52984 -20.1974
v 331.414 -22.83 -20.1974
v 342.9644 -22.83 -20.19056
v 331.414 -22.52984 -20.1974
v 342.9644 -22.52984 -20.19056
v 342.9692 -22.83 -27.30624
v 352.7258 -22.83 -27.30619
v 342.9692 -22.83 -32.61743
v 352.7258 -22.83 -32.61738
v 342.9692 -22.52984 -27.30624
v 342.9692 -22.83 -27.30624
v 342.9692 -22.52984 -32.61743
v 342.9692 -22.83 -32.61743
v 373.7701 -31.22108 -27.30619
v 373.7701 -30.92092 -27.30619
v 373.7701 -31.22108 -32.61738
v 373.7701 -30.92092 -32.61738
v 352.7258 -22.52984 -27.30619
v 342.9692 -22.52984 -27.30624
v 352.7258 -22.52984 -32.61738
v 342.9692 -22.52984 -32.61743
v 352.7258 -22.83 -27.30619
v 352.7258 -22.52984 -27.30619
v 361.8474 -22.83 -27.30619
v 361.8474 -22.52984 -27.30619
v 352.7258 -22.83 -32.61738
v 352.7258 -22.83 -27.30619
v 361.8474 -22.83 -32.61738
v 361.8474 -22.83 -27.30619
v 352.7258 -22.52984 -27.30619
v 352.7258 -22.52984 -32.61738
v 361.8474 -22.52984 -27.30619
v 361.8474 -22.52984 -32.61738
v 352.7258 -22.52984 -32.61738
v 352.7258 -22.83 -32.61738
v 361.8474 -22.52984 -32.61738
v 361.8474 -22.83 -32.61738
v 361.8474 -22.83 -27.30619
v 361.8474 -22.52984 -27.30619
v 373.7701 -31.22108 -27.30619
v 373.7701 -30.92092 -27.30619
v 361.8474 -22.83 -32.61738
v 361.8474 -22.83 -27.30619
v 373.7701 -31.22108 -32.61738
v 373.7701 -31.22108 -27.30619
v 361.8474 -22.52984 -27.30619
v 361.8474 -22.52984 -32.61738
v 373.7701 -30.92092 -27.30619
v 373.7701 -30.92092 -32.61738
v 361.8474 -22.52984 -32.61738
v 361.8474 -22.83 -32.61738
v 373.7701 -30.92092 -32.61738
v 373.7701 -31.22108 -32.61738

vn 0 -1 0
vn 0 -1 0
vn 0 -1 0
vn 0 -1 0
vn 0 -1 0
vn 0 -1 0
vn 0 1 0
vn 0 1 0
vn 0 1 0
vn 0 1 0
vn 0 1 0
vn 0 1 0
vn 0 1 0
vn 0 0.9999999 0
vn 0 1 0
vn 0 1 0
vn 0 1 0
vn 0 1 0
vn 0 -1 0
vn 0 1 0
vn 0 1 0
vn 0 1 0
vn 0 1 0
vn 0 1 0
vn 0 -1 0
vn 0 -1 0
vn 0 -1 0
vn 0 -1 0
vn 0 0 0
vn 0 0 0
vn 0 0 0
vn 0 0 0
vn 0 -1 0
vn 0 -1 0
vn 0 -1 0
vn 0 -1 0
vn -0.9625003 0 -0.0005828292
vn -0.9625003 0 -0.0005828292
vn -0.9625003 0 -0.0005828292
vn -0.9625003 0 -0.0005828292
vn 5.433172E-06 0 -0.9096882
vn 5.433172E-06 0 -0.9096882
vn 5.433172E-06 0 -0.9096882
vn 5.433172E-06 0 -0.9096882
vn 0.9625006 0 0
vn 0.9625006 0 0
vn 0.9625006 0 0
vn 0.9625006 0 0
vn 0.0004356136 0 0.9096881
vn 0.0004356136 0 0.9096881
vn 0.0004356136 0 0.9096881
vn 0.0004356136 0 0.9096881
vn -0.9625006 0 0
vn -0.9625006 0 0
vn -0.9625006 0 0
vn -0.9625006 0 0
vn 0.0006029917 0 -0.909688
vn 0.0006029917 0 -0.909688
vn 0.0006029917 0 -0.909688
vn 0.0006029917 0 -0.909688
vn 0 -0.9999999 0
vn 0 -0.9999999 0
vn 0 -0.9999999 0
vn 0 -0.9999999 0
vn -0.9625006 0 0
vn -0.9625006 0 0
vn -0.9625006 0 0
vn -0.9625006 0 0
vn 0.9625006 0 0
vn 0.9625006 0 0
vn 0.9625006 0 0
vn 0.9625006 0 0
vn 0 0.9999999 0
vn 0 0.9999999 0
vn 0 0.9999999 0
vn 0 0.9999999 0
vn 0 0 0.9096882
vn 0 0 0.9096882
vn 0 0 0.9096882
vn 0 0 0.9096882
vn 0 -1 0
vn 0 -1 0
vn 0 -1 0
vn 0 -1 0
vn 0 1 0
vn 0 1 0
vn 0 1 0
vn 0 1 0
vn 0 0 -0.9096882
vn 0 0 -0.9096882
vn 0 0 -0.9096882
vn 0 0 -0.9096882
vn 0 0 0.9096881
vn 0 0 0.9096882
vn 0 0 0.9096882
vn 0 0 0.9096881
vn -0.5398073 -0.8279253 0
vn -0.5398073 -0.8279253 0
vn -0.5398073 -0.8279253 0
vn -0.5398073 -0.8279253 0
vn 0.5398073 0.8279253 0
vn 0.5398073 0.8279253 0
vn 0.5398073 0.8279253 0
vn 0.5398073 0.8279253 0
vn 0 0 -0.9096881
vn 0 0 -0.9096882
vn 0 0 -0.9096882
vn 0 0 -0.9096881

vt 11.07113 -1.296706
vt 11.07113 -11.99855
vt -11.07113 -11.98853
vt -11.07113 6.553836
vt -0.8692751 6.548984
vt -0.8642626 -1.304224
vt 0.9292517 -1.272661
vt -11.07113 -1.265143
vt -11.07113 -12.04245
vt 11.07102 -12.03243
vt 11.07102 6.549394
vt 0.9342632 6.549451
vt 0.8642626 -1.304224
vt 0.8692751 6.548984
vt 0.9292517 -1.272661
vt 0.9342632 6.549451
vt -0.8692751 6.548984
vt -11.07113 6.553836
vt -0.9342632 6.549451
vt -11.07102 6.549394
vt 11.07113 6.553836
vt 11.07113 -11.98853
vt 11.07102 6.549394
vt 11.07102 -12.03243
vt -11.07113 -11.98853
vt 11.07113 -11.99855
vt -11.07102 -12.03243
vt 11.07113 -12.04245
vt 0 0
vt 0 0
vt 0 0
vt 0 0
vt 11.07113 -1.296706
vt -0.8642626 -1.304224
vt 11.07113 -1.265143
vt -0.9292517 -1.272661
vt 1.272065 0
vt -6.550048 0
vt 1.272065 0.3001653
vt -6.550048 0.3001653
vt -0.9341933 0
vt -11.07095 0
vt -0.9341933 0.3001653
vt -11.07095 0.3001653
vt 6.549394 0
vt -12.03243 0
vt 6.549394 0.3001653
vt -12.03243 0.3001653
vt 11.06557 0
vt -11.07658 0
vt 11.06557 0.3001653
vt -11.07658 0.3001653
vt 12.04245 0
vt 1.265143 0
vt 12.04245 0.3001653
vt 1.265143 0.3001653
vt 11.07033 0
vt -0.9300488 0
vt 11.07033 0.3001653
vt -0.9300488 0.3001653
vt -0.9342632 6.549451
vt -11.07102 6.549394
vt -0.9342632 12.38792
vt -11.07102 12.38787
vt -6.549451 0.3001653
vt -6.549451 0
vt -12.38792 0.3001653
vt -12.38792 0
vt 6.549394 -8.391081
vt 6.549394 -8.090916
vt 12.38787 -8.391081
vt 12.38787 -8.090916
vt 11.07102 6.549394
vt 0.9342632 6.549451
vt 11.07102 12.38787
vt 0.9342632 12.38792
vt 11.07102 0
vt 11.07102 0.3001653
vt 20.54798 0
vt 20.54798 0.3001653
vt -11.07102 12.38787
vt -11.07102 6.549394
vt -20.54798 12.38787
vt -20.54798 6.549394
vt 11.07102 6.549394
vt 11.07102 12.38787
vt 20.54798 6.549394
vt 20.54798 12.38787
vt -11.07102 0.3001653
vt -11.07102 0
vt -20.54798 0.3001653
vt -20.54798 0
vt 20.54798 0
vt 20.54798 0.3001653
vt 32.93513 -8.391081
vt 32.93513 -8.090916
vt -17.01219 12.38787
vt -17.01219 6.549394
vt -31.97387 12.38787
vt -31.97387 6.549394
vt 16.84385 6.549394
vt 16.84385 12.38787
vt 31.80552 6.549394
vt 31.80552 12.38787
vt -20.54798 0.3001653
vt -20.54798 0
vt -32.93513 -8.090916
vt -32.93513 -8.391081

g New Game Object (104)_0
usemtl Buildings
f 15/15/15 16/16/16 14/14/14 13/13/13
f 19/19/19 20/20/20 18/18/18 17/17/17
f 23/23/23 24/24/24 22/22/22 21/21/21
f 27/27/27 28/28/28 26/26/26 25/25/25
f 31/31/31 32/32/32 30/30/30 29/29/29
f 35/35/35 36/36/36 34/34/34 33/33/33
f 39/39/39 40/40/40 38/38/38 37/37/37
f 43/43/43 44/44/44 42/42/42 41/41/41
f 47/47/47 48/48/48 46/46/46 45/45/45
f 51/51/51 52/52/52 50/50/50 49/49/49
f 55/55/55 56/56/56 54/54/54 53/53/53
f 59/59/59 60/60/60 58/58/58 57/57/57
f 63/63/63 64/64/64 62/62/62 61/61/61
f 67/67/67 68/68/68 66/66/66 65/65/65
f 71/71/71 72/72/72 70/70/70 69/69/69
f 75/75/75 76/76/76 74/74/74 73/73/73
f 79/79/79 80/80/80 78/78/78 77/77/77
f 83/83/83 84/84/84 82/82/82 81/81/81
f 87/87/87 88/88/88 86/86/86 85/85/85
f 91/91/91 92/92/92 90/90/90 89/89/89
f 95/95/95 96/96/96 94/94/94 93/93/93
f 99/99/99 100/100/100 98/98/98 97/97/97
f 103/103/103 104/104/104 102/102/102 101/101/101
f 107/107/107 108/108/108 106/106/106 105/105/105

g New Game Object (104)_1
usemtl Buildings
f 2/2/2 1/1/1 6/6/6
f 2/2/2 6/6/6 3/3/3
f 4/4/4 3/3/3 6/6/6
f 4/4/4 6/6/6 5/5/5
f 12/12/12 7/7/7 11/11/11
f 7/7/7 10/10/10 11/11/11
f 10/10/10 7/7/7 9/9/9
f 7/7/7 8/8/8 9/9/9

