# Exported from ProBuilder
# http://www.procore3d.com/probuilder
# 6/26/2018 1:16:17 PM

mtllib ./Walkway.mtl
o Walkway

g Walkway
v 390.9474 6.223983 65.33852
v 390.9474 6.223983 67.85917
v 397.9125 6.223983 65.33852
v 397.9125 6.223983 67.85917
v 390.9474 6.223983 67.85917
v 390.9474 6.374749 67.85917
v 397.9125 6.223983 67.85917
v 397.9125 6.374749 67.85917
v 390.9474 6.404356 67.83816
v 390.9474 6.404356 65.35952
v 397.8951 6.404356 67.83816
v 397.8951 6.404356 65.35952
v 390.9474 6.374749 65.33852
v 390.9474 6.223983 65.33852
v 397.9125 6.374749 65.33852
v 397.9125 6.223983 65.33852
v 397.9125 6.223983 65.33852
v 397.9125 6.223983 67.85917
v 397.9125 6.374749 65.33852
v 397.9125 6.374749 67.85917
v 390.9474 6.374749 67.85917
v 397.9125 6.374749 67.85917
v 390.9474 6.404356 67.83816
v 397.8951 6.404356 67.83816
v 397.8951 6.404356 65.35952
v 397.8951 6.404356 67.83816
v 397.9125 6.374749 65.33852
v 397.9125 6.374749 67.85917
v 390.9474 6.404356 65.35952
v 397.8951 6.404356 65.35952
v 390.9474 6.374749 65.33852
v 397.9125 6.374749 65.33852
v 390.9474 6.404356 67.83816
v 390.9474 6.374749 67.85917
v 390.9474 6.223983 67.85917
v 390.9474 6.223983 65.33852
v 390.9474 6.374749 65.33852
v 390.9474 6.404356 65.35952

vn 0 -0.02533868 0
vn 0 -0.02533868 0
vn 0 -0.02533868 0
vn 0 -0.02533868 0
vn 0 0 0.4201079
vn 0 0 0.4201079
vn 0 0 0.4201079
vn 0 0 0.4201079
vn 0 0.02533868 0
vn 0 0.02533868 0
vn 0 0.02533868 0
vn 0 0.02533868 0
vn 0 0 -0.4201079
vn 0 0 -0.4201079
vn 0 0 -0.4201079
vn 0 0 -0.4201079
vn 0.3482556 0 0
vn 0.3482556 0 0
vn 0.3482556 0 0
vn 0.3482556 0 0
vn 0 0.001083283 0.4197238
vn 0 0.001083283 0.4197238
vn 0 0.001083283 0.4197238
vn 0 0.001083283 0.4197238
vn 0.3479372 0.001083288 0
vn 0.3479372 0.001083288 0
vn 0.3479372 0.001083288 0
vn 0.3479372 0.001083288 0
vn 0 0.001083283 -0.4197238
vn 0 0.001083283 -0.4197238
vn 0 0.001083283 -0.4197238
vn 0 0.001083283 -0.4197238
vn -0.3482556 0 0
vn -0.3482556 0 0
vn -0.3482556 0 0
vn -0.3482556 0 0
vn -0.3482556 0 0
vn -0.3482556 0 0

vt 2.999975 -10
vt -3.000025 -10
vt 2.999975 10
vt -3.000025 10
vt 3.000007 -10
vt -2.949993 -10
vt 3.000007 10
vt -2.949993 10
vt 2.950025 -10
vt -2.949975 -10
vt 2.950025 9.95
vt -2.949975 9.95
vt 2.949993 -10
vt -3.000007 -10
vt 2.949993 10
vt -3.000007 10
vt -2.999975 3.000007
vt 3.000025 3.000007
vt -2.999975 -2.949993
vt 3.000025 -2.949993
vt -2.819038 -10
vt -2.819038 10
vt -3.988569 -10
vt -3.988569 9.95
vt -2.949975 -3.689303
vt 2.950025 -3.689303
vt -2.999975 -2.519772
vt 3.000025 -2.519772
vt 3.988571 -10
vt 3.988571 9.95
vt 2.81904 -10
vt 2.81904 10
vt -2.950025 -4.118454
vt -3.000025 -2.949993
vt -3.000025 3.000007
vt 2.999975 3.000007
vt 2.999975 -2.949993
vt 2.949975 -4.118454

g Walkway_0
usemtl Buildings
f 3/3/3 4/4/4 2/2/2 1/1/1
f 7/7/7 8/8/8 6/6/6 5/5/5
f 11/11/11 12/12/12 10/10/10 9/9/9
f 15/15/15 16/16/16 14/14/14 13/13/13
f 19/19/19 20/20/20 18/18/18 17/17/17
f 24/24/24 23/23/23 21/21/21 22/22/22
f 28/28/28 27/27/27 25/25/25 26/26/26
f 32/32/32 31/31/31 29/29/29 30/30/30

g Walkway_1
usemtl Buildings
f 36/36/36 35/35/35 37/37/37
f 34/34/34 37/37/37 35/35/35
f 38/38/38 37/37/37 34/34/34
f 34/34/34 33/33/33 38/38/38

